%TF.GenerationSoftware,KiCad,Pcbnew,9.0.6-9.0.6~ubuntu22.04.1*%
%TF.CreationDate,2025-11-22T11:24:07-05:00*%
%TF.ProjectId,switchboard-mk4,73776974-6368-4626-9f61-72642d6d6b34,rev?*%
%TF.SameCoordinates,Original*%
%TF.FileFunction,Copper,L1,Top*%
%TF.FilePolarity,Positive*%
%FSLAX46Y46*%
G04 Gerber Fmt 4.6, Leading zero omitted, Abs format (unit mm)*
G04 Created by KiCad (PCBNEW 9.0.6-9.0.6~ubuntu22.04.1) date 2025-11-22 11:24:07*
%MOMM*%
%LPD*%
G01*
G04 APERTURE LIST*
%TA.AperFunction,ComponentPad*%
%ADD10C,3.300000*%
%TD*%
%TA.AperFunction,ComponentPad*%
%ADD11C,1.700000*%
%TD*%
G04 APERTURE END LIST*
D10*
%TO.P,REF\u002A\u002A,*%
%TO.N,*%
X228000000Y-92000000D03*
%TD*%
%TO.P,REF\u002A\u002A,*%
%TO.N,*%
X171000000Y-92000000D03*
%TD*%
%TO.P,REF\u002A\u002A,*%
%TO.N,*%
X199500000Y-61000000D03*
%TD*%
D11*
%TO.P,J4,1,Pin_1*%
%TO.N,Net-(J4-Pin_1)*%
X213740000Y-77500000D03*
%TO.P,J4,2,Pin_2*%
%TO.N,GND*%
X216280000Y-77500000D03*
%TO.P,J4,3,Pin_3*%
%TO.N,Pull up*%
X218820000Y-77500000D03*
%TO.P,J4,4,Pin_4*%
%TO.N,GND*%
X221360000Y-77500000D03*
%TO.P,J4,5,Pin_5*%
X223900000Y-77500000D03*
%TO.P,J4,6,Pin_6*%
%TO.N,Pull up*%
X226440000Y-77500000D03*
%TD*%
%TO.P,J8,1,Pin_1*%
%TO.N,Net-(J8-Pin_1)*%
X213740000Y-62500000D03*
%TO.P,J8,2,Pin_2*%
%TO.N,GND*%
X216280000Y-62500000D03*
%TO.P,J8,3,Pin_3*%
%TO.N,Pull up*%
X218820000Y-62500000D03*
%TO.P,J8,4,Pin_4*%
X221360000Y-62500000D03*
%TO.P,J8,5,Pin_5*%
%TO.N,GND*%
X223900000Y-62500000D03*
%TO.P,J8,6,Pin_6*%
%TO.N,Pull up*%
X226440000Y-62500000D03*
%TD*%
%TO.P,J1,1,Pin_1*%
%TO.N,Net-(J1-Pin_1)*%
X185000000Y-70050000D03*
%TO.P,J1,2,Pin_2*%
%TO.N,GND*%
X182460000Y-70050000D03*
%TO.P,J1,3,Pin_3*%
X179920000Y-70050000D03*
%TO.P,J1,4,Pin_4*%
X177380000Y-70050000D03*
%TO.P,J1,5,Pin_5*%
X174840000Y-70050000D03*
%TO.P,J1,6,Pin_6*%
%TO.N,Pull up*%
X172300000Y-70050000D03*
%TD*%
%TO.P,J3,1,Pin_1*%
%TO.N,Net-(J3-Pin_1)*%
X185000000Y-62550000D03*
%TO.P,J3,2,Pin_2*%
%TO.N,GND*%
X182460000Y-62550000D03*
%TO.P,J3,3,Pin_3*%
X179920000Y-62550000D03*
%TO.P,J3,4,Pin_4*%
X177380000Y-62550000D03*
%TO.P,J3,5,Pin_5*%
X174840000Y-62550000D03*
%TO.P,J3,6,Pin_6*%
X172300000Y-62550000D03*
%TD*%
%TO.P,J5,1,Pin_1*%
%TO.N,Net-(J5-Pin_1)*%
X213740000Y-85000000D03*
%TO.P,J5,2,Pin_2*%
%TO.N,GND*%
X216280000Y-85000000D03*
%TO.P,J5,3,Pin_3*%
%TO.N,Pull up*%
X218820000Y-85000000D03*
%TO.P,J5,4,Pin_4*%
%TO.N,GND*%
X221360000Y-85000000D03*
%TO.P,J5,5,Pin_5*%
X223900000Y-85000000D03*
%TO.P,J5,6,Pin_6*%
X226440000Y-85000000D03*
%TD*%
%TO.P,J2,1,Pin_1*%
%TO.N,Net-(J2-Pin_1)*%
X185000000Y-77550000D03*
%TO.P,J2,2,Pin_2*%
%TO.N,GND*%
X182460000Y-77550000D03*
%TO.P,J2,3,Pin_3*%
X179920000Y-77550000D03*
%TO.P,J2,4,Pin_4*%
%TO.N,Pull up*%
X177380000Y-77550000D03*
%TO.P,J2,5,Pin_5*%
%TO.N,GND*%
X174840000Y-77550000D03*
%TO.P,J2,6,Pin_6*%
X172300000Y-77550000D03*
%TD*%
%TO.P,J10,1,Pin_1*%
%TO.N,unconnected-(J10-Pin_1-Pad1)*%
X207000000Y-61000000D03*
%TO.P,J10,2,Pin_2*%
%TO.N,GND*%
X207000000Y-63540000D03*
%TO.P,J10,3,Pin_3*%
%TO.N,unconnected-(J10-Pin_3-Pad3)*%
X207000000Y-66080000D03*
%TO.P,J10,4,Pin_4*%
%TO.N,LED8*%
X207000000Y-68620000D03*
%TO.P,J10,5,Pin_5*%
%TO.N,LED7*%
X207000000Y-71160000D03*
%TO.P,J10,6,Pin_6*%
%TO.N,LED6*%
X207000000Y-73700000D03*
%TO.P,J10,7,Pin_7*%
%TO.N,LED5*%
X207000000Y-76240000D03*
%TD*%
%TO.P,J9,1,Pin_1*%
%TO.N,LED1*%
X191675000Y-61000000D03*
%TO.P,J9,2,Pin_2*%
%TO.N,LED2*%
X191675000Y-63540000D03*
%TO.P,J9,3,Pin_3*%
%TO.N,LED3*%
X191675000Y-66080000D03*
%TO.P,J9,4,Pin_4*%
%TO.N,LED4*%
X191675000Y-68620000D03*
%TO.P,J9,5,Pin_5*%
%TO.N,unconnected-(J9-Pin_5-Pad5)*%
X191675000Y-71160000D03*
%TO.P,J9,6,Pin_6*%
%TO.N,unconnected-(J9-Pin_6-Pad6)*%
X191675000Y-73700000D03*
%TO.P,J9,7,Pin_7*%
%TO.N,Pull up*%
X191675000Y-76240000D03*
%TD*%
%TO.P,J6,1,Pin_1*%
%TO.N,Net-(J6-Pin_1)*%
X185000000Y-85050000D03*
%TO.P,J6,2,Pin_2*%
%TO.N,GND*%
X182460000Y-85050000D03*
%TO.P,J6,3,Pin_3*%
X179920000Y-85050000D03*
%TO.P,J6,4,Pin_4*%
%TO.N,Pull up*%
X177380000Y-85050000D03*
%TO.P,J6,5,Pin_5*%
%TO.N,GND*%
X174840000Y-85050000D03*
%TO.P,J6,6,Pin_6*%
%TO.N,Pull up*%
X172300000Y-85050000D03*
%TD*%
%TO.P,J7,1,Pin_1*%
%TO.N,Net-(J7-Pin_1)*%
X213700000Y-70000000D03*
%TO.P,J7,2,Pin_2*%
%TO.N,GND*%
X216240000Y-70000000D03*
%TO.P,J7,3,Pin_3*%
%TO.N,Pull up*%
X218780000Y-70000000D03*
%TO.P,J7,4,Pin_4*%
X221320000Y-70000000D03*
%TO.P,J7,5,Pin_5*%
%TO.N,GND*%
X223860000Y-70000000D03*
%TO.P,J7,6,Pin_6*%
X226400000Y-70000000D03*
%TD*%
%TA.AperFunction,NonConductor*%
G36*
X228003736Y-58500726D02*
G01*
X228293796Y-58518271D01*
X228308659Y-58520076D01*
X228590798Y-58571780D01*
X228605335Y-58575363D01*
X228879172Y-58660695D01*
X228893163Y-58666000D01*
X229154743Y-58783727D01*
X229167989Y-58790680D01*
X229413465Y-58939075D01*
X229425776Y-58947573D01*
X229578386Y-59067135D01*
X229651573Y-59124473D01*
X229662781Y-59134403D01*
X229865596Y-59337218D01*
X229875526Y-59348426D01*
X229995481Y-59501538D01*
X230052422Y-59574217D01*
X230060926Y-59586537D01*
X230119091Y-59682753D01*
X230209316Y-59832004D01*
X230216275Y-59845263D01*
X230333997Y-60106831D01*
X230339306Y-60120832D01*
X230424635Y-60394663D01*
X230428219Y-60409201D01*
X230479923Y-60691340D01*
X230481728Y-60706205D01*
X230499274Y-60996263D01*
X230499500Y-61003750D01*
X230499500Y-91996249D01*
X230499274Y-92003736D01*
X230481728Y-92293794D01*
X230479923Y-92308659D01*
X230428219Y-92590798D01*
X230424635Y-92605336D01*
X230339306Y-92879167D01*
X230333997Y-92893168D01*
X230216275Y-93154736D01*
X230209316Y-93167995D01*
X230060928Y-93413459D01*
X230052422Y-93425782D01*
X229875526Y-93651573D01*
X229865596Y-93662781D01*
X229662781Y-93865596D01*
X229651573Y-93875526D01*
X229425782Y-94052422D01*
X229413459Y-94060928D01*
X229167995Y-94209316D01*
X229154736Y-94216275D01*
X228893168Y-94333997D01*
X228879167Y-94339306D01*
X228605336Y-94424635D01*
X228590798Y-94428219D01*
X228308659Y-94479923D01*
X228293794Y-94481728D01*
X228003736Y-94499274D01*
X227996249Y-94499500D01*
X171003751Y-94499500D01*
X170996264Y-94499274D01*
X170706205Y-94481728D01*
X170691340Y-94479923D01*
X170409201Y-94428219D01*
X170394663Y-94424635D01*
X170120832Y-94339306D01*
X170106831Y-94333997D01*
X169845263Y-94216275D01*
X169832004Y-94209316D01*
X169586540Y-94060928D01*
X169574217Y-94052422D01*
X169348426Y-93875526D01*
X169337218Y-93865596D01*
X169134403Y-93662781D01*
X169124473Y-93651573D01*
X169099968Y-93620295D01*
X168947573Y-93425776D01*
X168939075Y-93413465D01*
X168790680Y-93167989D01*
X168783727Y-93154743D01*
X168666000Y-92893163D01*
X168660693Y-92879167D01*
X168575364Y-92605336D01*
X168571780Y-92590798D01*
X168540561Y-92420442D01*
X168520075Y-92308657D01*
X168518271Y-92293794D01*
X168500726Y-92003736D01*
X168500500Y-91996249D01*
X168500500Y-91859041D01*
X168849500Y-91859041D01*
X168849500Y-92140958D01*
X168886295Y-92420439D01*
X168959259Y-92692743D01*
X169067135Y-92953179D01*
X169067140Y-92953190D01*
X169198497Y-93180705D01*
X169208088Y-93197317D01*
X169378866Y-93419878D01*
X169379704Y-93420970D01*
X169579029Y-93620295D01*
X169579033Y-93620298D01*
X169579035Y-93620300D01*
X169802683Y-93791912D01*
X169802690Y-93791916D01*
X170046809Y-93932859D01*
X170046814Y-93932861D01*
X170046817Y-93932863D01*
X170307261Y-94040742D01*
X170579558Y-94113704D01*
X170859049Y-94150500D01*
X170859056Y-94150500D01*
X171140944Y-94150500D01*
X171140951Y-94150500D01*
X171420442Y-94113704D01*
X171692739Y-94040742D01*
X171953183Y-93932863D01*
X172197317Y-93791912D01*
X172420965Y-93620300D01*
X172620300Y-93420965D01*
X172791912Y-93197317D01*
X172932863Y-92953183D01*
X173040742Y-92692739D01*
X173113704Y-92420442D01*
X173150500Y-92140951D01*
X173150500Y-91859049D01*
X173150499Y-91859041D01*
X225849500Y-91859041D01*
X225849500Y-92140958D01*
X225886295Y-92420439D01*
X225959259Y-92692743D01*
X226067135Y-92953179D01*
X226067140Y-92953190D01*
X226198497Y-93180705D01*
X226208088Y-93197317D01*
X226378866Y-93419878D01*
X226379704Y-93420970D01*
X226579029Y-93620295D01*
X226579033Y-93620298D01*
X226579035Y-93620300D01*
X226802683Y-93791912D01*
X226802690Y-93791916D01*
X227046809Y-93932859D01*
X227046814Y-93932861D01*
X227046817Y-93932863D01*
X227307261Y-94040742D01*
X227579558Y-94113704D01*
X227859049Y-94150500D01*
X227859056Y-94150500D01*
X228140944Y-94150500D01*
X228140951Y-94150500D01*
X228420442Y-94113704D01*
X228692739Y-94040742D01*
X228953183Y-93932863D01*
X229197317Y-93791912D01*
X229420965Y-93620300D01*
X229620300Y-93420965D01*
X229791912Y-93197317D01*
X229932863Y-92953183D01*
X230040742Y-92692739D01*
X230113704Y-92420442D01*
X230150500Y-92140951D01*
X230150500Y-91859049D01*
X230113704Y-91579558D01*
X230040742Y-91307261D01*
X229932863Y-91046817D01*
X229932861Y-91046814D01*
X229932859Y-91046809D01*
X229791916Y-90802690D01*
X229791912Y-90802683D01*
X229620300Y-90579035D01*
X229620298Y-90579033D01*
X229620295Y-90579029D01*
X229420970Y-90379704D01*
X229420965Y-90379700D01*
X229197317Y-90208088D01*
X229197311Y-90208084D01*
X229197309Y-90208083D01*
X228953190Y-90067140D01*
X228953179Y-90067135D01*
X228692743Y-89959259D01*
X228420439Y-89886295D01*
X228140958Y-89849500D01*
X228140951Y-89849500D01*
X227859049Y-89849500D01*
X227859041Y-89849500D01*
X227579560Y-89886295D01*
X227307256Y-89959259D01*
X227046820Y-90067135D01*
X227046809Y-90067140D01*
X226802690Y-90208083D01*
X226802682Y-90208089D01*
X226579029Y-90379704D01*
X226379704Y-90579029D01*
X226208089Y-90802682D01*
X226208083Y-90802690D01*
X226067140Y-91046809D01*
X226067135Y-91046820D01*
X225959259Y-91307256D01*
X225886295Y-91579560D01*
X225849500Y-91859041D01*
X173150499Y-91859041D01*
X173113704Y-91579558D01*
X173040742Y-91307261D01*
X172932863Y-91046817D01*
X172932861Y-91046814D01*
X172932859Y-91046809D01*
X172791916Y-90802690D01*
X172791912Y-90802683D01*
X172620300Y-90579035D01*
X172620298Y-90579033D01*
X172620295Y-90579029D01*
X172420970Y-90379704D01*
X172420965Y-90379700D01*
X172197317Y-90208088D01*
X172197311Y-90208084D01*
X172197309Y-90208083D01*
X171953190Y-90067140D01*
X171953179Y-90067135D01*
X171692743Y-89959259D01*
X171420439Y-89886295D01*
X171140958Y-89849500D01*
X171140951Y-89849500D01*
X170859049Y-89849500D01*
X170859041Y-89849500D01*
X170579560Y-89886295D01*
X170307256Y-89959259D01*
X170046820Y-90067135D01*
X170046809Y-90067140D01*
X169802690Y-90208083D01*
X169802682Y-90208089D01*
X169579029Y-90379704D01*
X169379704Y-90579029D01*
X169208089Y-90802682D01*
X169208083Y-90802690D01*
X169067140Y-91046809D01*
X169067135Y-91046820D01*
X168959259Y-91307256D01*
X168886295Y-91579560D01*
X168849500Y-91859041D01*
X168500500Y-91859041D01*
X168500500Y-84943713D01*
X170949500Y-84943713D01*
X170949500Y-85156286D01*
X170982753Y-85366239D01*
X171048444Y-85568414D01*
X171144951Y-85757820D01*
X171269890Y-85929786D01*
X171420213Y-86080109D01*
X171592179Y-86205048D01*
X171592181Y-86205049D01*
X171592184Y-86205051D01*
X171781588Y-86301557D01*
X171983757Y-86367246D01*
X172193713Y-86400500D01*
X172193714Y-86400500D01*
X172406286Y-86400500D01*
X172406287Y-86400500D01*
X172616243Y-86367246D01*
X172818412Y-86301557D01*
X173007816Y-86205051D01*
X173076640Y-86155048D01*
X173179786Y-86080109D01*
X173179788Y-86080106D01*
X173179792Y-86080104D01*
X173330104Y-85929792D01*
X173330106Y-85929788D01*
X173330109Y-85929786D01*
X173455048Y-85757820D01*
X173455047Y-85757820D01*
X173455051Y-85757816D01*
X173459514Y-85749054D01*
X173507488Y-85698259D01*
X173575308Y-85681463D01*
X173641444Y-85703999D01*
X173680486Y-85749056D01*
X173684951Y-85757820D01*
X173809890Y-85929786D01*
X173960213Y-86080109D01*
X174132179Y-86205048D01*
X174132181Y-86205049D01*
X174132184Y-86205051D01*
X174321588Y-86301557D01*
X174523757Y-86367246D01*
X174733713Y-86400500D01*
X174733714Y-86400500D01*
X174946286Y-86400500D01*
X174946287Y-86400500D01*
X175156243Y-86367246D01*
X175358412Y-86301557D01*
X175547816Y-86205051D01*
X175616640Y-86155048D01*
X175719786Y-86080109D01*
X175719788Y-86080106D01*
X175719792Y-86080104D01*
X175870104Y-85929792D01*
X175870106Y-85929788D01*
X175870109Y-85929786D01*
X175995048Y-85757820D01*
X175995047Y-85757820D01*
X175995051Y-85757816D01*
X175999514Y-85749054D01*
X176047488Y-85698259D01*
X176115308Y-85681463D01*
X176181444Y-85703999D01*
X176220486Y-85749056D01*
X176224951Y-85757820D01*
X176349890Y-85929786D01*
X176500213Y-86080109D01*
X176672179Y-86205048D01*
X176672181Y-86205049D01*
X176672184Y-86205051D01*
X176861588Y-86301557D01*
X177063757Y-86367246D01*
X177273713Y-86400500D01*
X177273714Y-86400500D01*
X177486286Y-86400500D01*
X177486287Y-86400500D01*
X177696243Y-86367246D01*
X177898412Y-86301557D01*
X178087816Y-86205051D01*
X178156640Y-86155048D01*
X178259786Y-86080109D01*
X178259788Y-86080106D01*
X178259792Y-86080104D01*
X178410104Y-85929792D01*
X178410106Y-85929788D01*
X178410109Y-85929786D01*
X178535048Y-85757820D01*
X178535047Y-85757820D01*
X178535051Y-85757816D01*
X178539514Y-85749054D01*
X178587488Y-85698259D01*
X178655308Y-85681463D01*
X178721444Y-85703999D01*
X178760486Y-85749056D01*
X178764951Y-85757820D01*
X178889890Y-85929786D01*
X179040213Y-86080109D01*
X179212179Y-86205048D01*
X179212181Y-86205049D01*
X179212184Y-86205051D01*
X179401588Y-86301557D01*
X179603757Y-86367246D01*
X179813713Y-86400500D01*
X179813714Y-86400500D01*
X180026286Y-86400500D01*
X180026287Y-86400500D01*
X180236243Y-86367246D01*
X180438412Y-86301557D01*
X180627816Y-86205051D01*
X180696640Y-86155048D01*
X180799786Y-86080109D01*
X180799788Y-86080106D01*
X180799792Y-86080104D01*
X180950104Y-85929792D01*
X180950106Y-85929788D01*
X180950109Y-85929786D01*
X181075048Y-85757820D01*
X181075047Y-85757820D01*
X181075051Y-85757816D01*
X181079514Y-85749054D01*
X181127488Y-85698259D01*
X181195308Y-85681463D01*
X181261444Y-85703999D01*
X181300486Y-85749056D01*
X181304951Y-85757820D01*
X181429890Y-85929786D01*
X181580213Y-86080109D01*
X181752179Y-86205048D01*
X181752181Y-86205049D01*
X181752184Y-86205051D01*
X181941588Y-86301557D01*
X182143757Y-86367246D01*
X182353713Y-86400500D01*
X182353714Y-86400500D01*
X182566286Y-86400500D01*
X182566287Y-86400500D01*
X182776243Y-86367246D01*
X182978412Y-86301557D01*
X183167816Y-86205051D01*
X183236640Y-86155048D01*
X183339786Y-86080109D01*
X183339788Y-86080106D01*
X183339792Y-86080104D01*
X183490104Y-85929792D01*
X183490106Y-85929788D01*
X183490109Y-85929786D01*
X183615048Y-85757820D01*
X183615047Y-85757820D01*
X183615051Y-85757816D01*
X183619514Y-85749054D01*
X183667488Y-85698259D01*
X183735308Y-85681463D01*
X183801444Y-85703999D01*
X183840486Y-85749056D01*
X183844951Y-85757820D01*
X183969890Y-85929786D01*
X184120213Y-86080109D01*
X184292179Y-86205048D01*
X184292181Y-86205049D01*
X184292184Y-86205051D01*
X184481588Y-86301557D01*
X184683757Y-86367246D01*
X184893713Y-86400500D01*
X184893714Y-86400500D01*
X185106286Y-86400500D01*
X185106287Y-86400500D01*
X185316243Y-86367246D01*
X185518412Y-86301557D01*
X185707816Y-86205051D01*
X185776640Y-86155048D01*
X185879786Y-86080109D01*
X185879788Y-86080106D01*
X185879792Y-86080104D01*
X186030104Y-85929792D01*
X186030106Y-85929788D01*
X186030109Y-85929786D01*
X186155048Y-85757820D01*
X186155047Y-85757820D01*
X186155051Y-85757816D01*
X186251557Y-85568412D01*
X186317246Y-85366243D01*
X186350500Y-85156287D01*
X186350500Y-84943713D01*
X186342581Y-84893713D01*
X212389500Y-84893713D01*
X212389500Y-85106286D01*
X212422753Y-85316239D01*
X212488444Y-85518414D01*
X212584951Y-85707820D01*
X212709890Y-85879786D01*
X212860213Y-86030109D01*
X213032179Y-86155048D01*
X213032181Y-86155049D01*
X213032184Y-86155051D01*
X213221588Y-86251557D01*
X213423757Y-86317246D01*
X213633713Y-86350500D01*
X213633714Y-86350500D01*
X213846286Y-86350500D01*
X213846287Y-86350500D01*
X214056243Y-86317246D01*
X214258412Y-86251557D01*
X214447816Y-86155051D01*
X214550966Y-86080109D01*
X214619786Y-86030109D01*
X214619788Y-86030106D01*
X214619792Y-86030104D01*
X214770104Y-85879792D01*
X214770106Y-85879788D01*
X214770109Y-85879786D01*
X214895048Y-85707820D01*
X214895047Y-85707820D01*
X214895051Y-85707816D01*
X214899514Y-85699054D01*
X214947488Y-85648259D01*
X215015308Y-85631463D01*
X215081444Y-85653999D01*
X215120486Y-85699056D01*
X215124951Y-85707820D01*
X215249890Y-85879786D01*
X215400213Y-86030109D01*
X215572179Y-86155048D01*
X215572181Y-86155049D01*
X215572184Y-86155051D01*
X215761588Y-86251557D01*
X215963757Y-86317246D01*
X216173713Y-86350500D01*
X216173714Y-86350500D01*
X216386286Y-86350500D01*
X216386287Y-86350500D01*
X216596243Y-86317246D01*
X216798412Y-86251557D01*
X216987816Y-86155051D01*
X217090966Y-86080109D01*
X217159786Y-86030109D01*
X217159788Y-86030106D01*
X217159792Y-86030104D01*
X217310104Y-85879792D01*
X217310106Y-85879788D01*
X217310109Y-85879786D01*
X217435048Y-85707820D01*
X217435047Y-85707820D01*
X217435051Y-85707816D01*
X217439514Y-85699054D01*
X217487488Y-85648259D01*
X217555308Y-85631463D01*
X217621444Y-85653999D01*
X217660486Y-85699056D01*
X217664951Y-85707820D01*
X217789890Y-85879786D01*
X217940213Y-86030109D01*
X218112179Y-86155048D01*
X218112181Y-86155049D01*
X218112184Y-86155051D01*
X218301588Y-86251557D01*
X218503757Y-86317246D01*
X218713713Y-86350500D01*
X218713714Y-86350500D01*
X218926286Y-86350500D01*
X218926287Y-86350500D01*
X219136243Y-86317246D01*
X219338412Y-86251557D01*
X219527816Y-86155051D01*
X219630966Y-86080109D01*
X219699786Y-86030109D01*
X219699788Y-86030106D01*
X219699792Y-86030104D01*
X219850104Y-85879792D01*
X219850106Y-85879788D01*
X219850109Y-85879786D01*
X219975048Y-85707820D01*
X219975047Y-85707820D01*
X219975051Y-85707816D01*
X219979514Y-85699054D01*
X220027488Y-85648259D01*
X220095308Y-85631463D01*
X220161444Y-85653999D01*
X220200486Y-85699056D01*
X220204951Y-85707820D01*
X220329890Y-85879786D01*
X220480213Y-86030109D01*
X220652179Y-86155048D01*
X220652181Y-86155049D01*
X220652184Y-86155051D01*
X220841588Y-86251557D01*
X221043757Y-86317246D01*
X221253713Y-86350500D01*
X221253714Y-86350500D01*
X221466286Y-86350500D01*
X221466287Y-86350500D01*
X221676243Y-86317246D01*
X221878412Y-86251557D01*
X222067816Y-86155051D01*
X222170966Y-86080109D01*
X222239786Y-86030109D01*
X222239788Y-86030106D01*
X222239792Y-86030104D01*
X222390104Y-85879792D01*
X222390106Y-85879788D01*
X222390109Y-85879786D01*
X222515048Y-85707820D01*
X222515047Y-85707820D01*
X222515051Y-85707816D01*
X222519514Y-85699054D01*
X222567488Y-85648259D01*
X222635308Y-85631463D01*
X222701444Y-85653999D01*
X222740486Y-85699056D01*
X222744951Y-85707820D01*
X222869890Y-85879786D01*
X223020213Y-86030109D01*
X223192179Y-86155048D01*
X223192181Y-86155049D01*
X223192184Y-86155051D01*
X223381588Y-86251557D01*
X223583757Y-86317246D01*
X223793713Y-86350500D01*
X223793714Y-86350500D01*
X224006286Y-86350500D01*
X224006287Y-86350500D01*
X224216243Y-86317246D01*
X224418412Y-86251557D01*
X224607816Y-86155051D01*
X224710966Y-86080109D01*
X224779786Y-86030109D01*
X224779788Y-86030106D01*
X224779792Y-86030104D01*
X224930104Y-85879792D01*
X224930106Y-85879788D01*
X224930109Y-85879786D01*
X225055048Y-85707820D01*
X225055047Y-85707820D01*
X225055051Y-85707816D01*
X225059514Y-85699054D01*
X225107488Y-85648259D01*
X225175308Y-85631463D01*
X225241444Y-85653999D01*
X225280486Y-85699056D01*
X225284951Y-85707820D01*
X225409890Y-85879786D01*
X225560213Y-86030109D01*
X225732179Y-86155048D01*
X225732181Y-86155049D01*
X225732184Y-86155051D01*
X225921588Y-86251557D01*
X226123757Y-86317246D01*
X226333713Y-86350500D01*
X226333714Y-86350500D01*
X226546286Y-86350500D01*
X226546287Y-86350500D01*
X226756243Y-86317246D01*
X226958412Y-86251557D01*
X227147816Y-86155051D01*
X227250966Y-86080109D01*
X227319786Y-86030109D01*
X227319788Y-86030106D01*
X227319792Y-86030104D01*
X227470104Y-85879792D01*
X227470106Y-85879788D01*
X227470109Y-85879786D01*
X227595048Y-85707820D01*
X227595047Y-85707820D01*
X227595051Y-85707816D01*
X227691557Y-85518412D01*
X227757246Y-85316243D01*
X227790500Y-85106287D01*
X227790500Y-84893713D01*
X227757246Y-84683757D01*
X227691557Y-84481588D01*
X227595051Y-84292184D01*
X227595049Y-84292181D01*
X227595048Y-84292179D01*
X227470109Y-84120213D01*
X227319786Y-83969890D01*
X227147820Y-83844951D01*
X226958414Y-83748444D01*
X226958413Y-83748443D01*
X226958412Y-83748443D01*
X226756243Y-83682754D01*
X226756241Y-83682753D01*
X226756240Y-83682753D01*
X226594957Y-83657208D01*
X226546287Y-83649500D01*
X226333713Y-83649500D01*
X226285042Y-83657208D01*
X226123760Y-83682753D01*
X225921585Y-83748444D01*
X225732179Y-83844951D01*
X225560213Y-83969890D01*
X225409890Y-84120213D01*
X225284949Y-84292182D01*
X225280484Y-84300946D01*
X225232509Y-84351742D01*
X225164688Y-84368536D01*
X225098553Y-84345998D01*
X225059516Y-84300946D01*
X225055050Y-84292182D01*
X224930109Y-84120213D01*
X224779786Y-83969890D01*
X224607820Y-83844951D01*
X224418414Y-83748444D01*
X224418413Y-83748443D01*
X224418412Y-83748443D01*
X224216243Y-83682754D01*
X224216241Y-83682753D01*
X224216240Y-83682753D01*
X224054957Y-83657208D01*
X224006287Y-83649500D01*
X223793713Y-83649500D01*
X223745042Y-83657208D01*
X223583760Y-83682753D01*
X223381585Y-83748444D01*
X223192179Y-83844951D01*
X223020213Y-83969890D01*
X222869890Y-84120213D01*
X222744949Y-84292182D01*
X222740484Y-84300946D01*
X222692509Y-84351742D01*
X222624688Y-84368536D01*
X222558553Y-84345998D01*
X222519516Y-84300946D01*
X222515050Y-84292182D01*
X222390109Y-84120213D01*
X222239786Y-83969890D01*
X222067820Y-83844951D01*
X221878414Y-83748444D01*
X221878413Y-83748443D01*
X221878412Y-83748443D01*
X221676243Y-83682754D01*
X221676241Y-83682753D01*
X221676240Y-83682753D01*
X221514957Y-83657208D01*
X221466287Y-83649500D01*
X221253713Y-83649500D01*
X221205042Y-83657208D01*
X221043760Y-83682753D01*
X220841585Y-83748444D01*
X220652179Y-83844951D01*
X220480213Y-83969890D01*
X220329890Y-84120213D01*
X220204949Y-84292182D01*
X220200484Y-84300946D01*
X220152509Y-84351742D01*
X220084688Y-84368536D01*
X220018553Y-84345998D01*
X219979516Y-84300946D01*
X219975050Y-84292182D01*
X219850109Y-84120213D01*
X219699786Y-83969890D01*
X219527820Y-83844951D01*
X219338414Y-83748444D01*
X219338413Y-83748443D01*
X219338412Y-83748443D01*
X219136243Y-83682754D01*
X219136241Y-83682753D01*
X219136240Y-83682753D01*
X218974957Y-83657208D01*
X218926287Y-83649500D01*
X218713713Y-83649500D01*
X218665042Y-83657208D01*
X218503760Y-83682753D01*
X218301585Y-83748444D01*
X218112179Y-83844951D01*
X217940213Y-83969890D01*
X217789890Y-84120213D01*
X217664949Y-84292182D01*
X217660484Y-84300946D01*
X217612509Y-84351742D01*
X217544688Y-84368536D01*
X217478553Y-84345998D01*
X217439516Y-84300946D01*
X217435050Y-84292182D01*
X217310109Y-84120213D01*
X217159786Y-83969890D01*
X216987820Y-83844951D01*
X216798414Y-83748444D01*
X216798413Y-83748443D01*
X216798412Y-83748443D01*
X216596243Y-83682754D01*
X216596241Y-83682753D01*
X216596240Y-83682753D01*
X216434957Y-83657208D01*
X216386287Y-83649500D01*
X216173713Y-83649500D01*
X216125042Y-83657208D01*
X215963760Y-83682753D01*
X215761585Y-83748444D01*
X215572179Y-83844951D01*
X215400213Y-83969890D01*
X215249890Y-84120213D01*
X215124949Y-84292182D01*
X215120484Y-84300946D01*
X215072509Y-84351742D01*
X215004688Y-84368536D01*
X214938553Y-84345998D01*
X214899516Y-84300946D01*
X214895050Y-84292182D01*
X214770109Y-84120213D01*
X214619786Y-83969890D01*
X214447820Y-83844951D01*
X214258414Y-83748444D01*
X214258413Y-83748443D01*
X214258412Y-83748443D01*
X214056243Y-83682754D01*
X214056241Y-83682753D01*
X214056240Y-83682753D01*
X213894957Y-83657208D01*
X213846287Y-83649500D01*
X213633713Y-83649500D01*
X213585042Y-83657208D01*
X213423760Y-83682753D01*
X213221585Y-83748444D01*
X213032179Y-83844951D01*
X212860213Y-83969890D01*
X212709890Y-84120213D01*
X212584951Y-84292179D01*
X212488444Y-84481585D01*
X212422753Y-84683760D01*
X212389500Y-84893713D01*
X186342581Y-84893713D01*
X186317246Y-84733757D01*
X186251557Y-84531588D01*
X186155051Y-84342184D01*
X186155049Y-84342181D01*
X186155048Y-84342179D01*
X186030109Y-84170213D01*
X185879786Y-84019890D01*
X185707820Y-83894951D01*
X185518414Y-83798444D01*
X185518413Y-83798443D01*
X185518412Y-83798443D01*
X185316243Y-83732754D01*
X185316241Y-83732753D01*
X185316240Y-83732753D01*
X185154957Y-83707208D01*
X185106287Y-83699500D01*
X184893713Y-83699500D01*
X184845042Y-83707208D01*
X184683760Y-83732753D01*
X184481585Y-83798444D01*
X184292179Y-83894951D01*
X184120213Y-84019890D01*
X183969890Y-84170213D01*
X183844949Y-84342182D01*
X183840484Y-84350946D01*
X183792509Y-84401742D01*
X183724688Y-84418536D01*
X183658553Y-84395998D01*
X183619516Y-84350946D01*
X183615050Y-84342182D01*
X183490109Y-84170213D01*
X183339786Y-84019890D01*
X183167820Y-83894951D01*
X182978414Y-83798444D01*
X182978413Y-83798443D01*
X182978412Y-83798443D01*
X182776243Y-83732754D01*
X182776241Y-83732753D01*
X182776240Y-83732753D01*
X182614957Y-83707208D01*
X182566287Y-83699500D01*
X182353713Y-83699500D01*
X182305042Y-83707208D01*
X182143760Y-83732753D01*
X181941585Y-83798444D01*
X181752179Y-83894951D01*
X181580213Y-84019890D01*
X181429890Y-84170213D01*
X181304949Y-84342182D01*
X181300484Y-84350946D01*
X181252509Y-84401742D01*
X181184688Y-84418536D01*
X181118553Y-84395998D01*
X181079516Y-84350946D01*
X181075050Y-84342182D01*
X180950109Y-84170213D01*
X180799786Y-84019890D01*
X180627820Y-83894951D01*
X180438414Y-83798444D01*
X180438413Y-83798443D01*
X180438412Y-83798443D01*
X180236243Y-83732754D01*
X180236241Y-83732753D01*
X180236240Y-83732753D01*
X180074957Y-83707208D01*
X180026287Y-83699500D01*
X179813713Y-83699500D01*
X179765042Y-83707208D01*
X179603760Y-83732753D01*
X179401585Y-83798444D01*
X179212179Y-83894951D01*
X179040213Y-84019890D01*
X178889890Y-84170213D01*
X178764949Y-84342182D01*
X178760484Y-84350946D01*
X178712509Y-84401742D01*
X178644688Y-84418536D01*
X178578553Y-84395998D01*
X178539516Y-84350946D01*
X178535050Y-84342182D01*
X178410109Y-84170213D01*
X178259786Y-84019890D01*
X178087820Y-83894951D01*
X177898414Y-83798444D01*
X177898413Y-83798443D01*
X177898412Y-83798443D01*
X177696243Y-83732754D01*
X177696241Y-83732753D01*
X177696240Y-83732753D01*
X177534957Y-83707208D01*
X177486287Y-83699500D01*
X177273713Y-83699500D01*
X177225042Y-83707208D01*
X177063760Y-83732753D01*
X176861585Y-83798444D01*
X176672179Y-83894951D01*
X176500213Y-84019890D01*
X176349890Y-84170213D01*
X176224949Y-84342182D01*
X176220484Y-84350946D01*
X176172509Y-84401742D01*
X176104688Y-84418536D01*
X176038553Y-84395998D01*
X175999516Y-84350946D01*
X175995050Y-84342182D01*
X175870109Y-84170213D01*
X175719786Y-84019890D01*
X175547820Y-83894951D01*
X175358414Y-83798444D01*
X175358413Y-83798443D01*
X175358412Y-83798443D01*
X175156243Y-83732754D01*
X175156241Y-83732753D01*
X175156240Y-83732753D01*
X174994957Y-83707208D01*
X174946287Y-83699500D01*
X174733713Y-83699500D01*
X174685042Y-83707208D01*
X174523760Y-83732753D01*
X174321585Y-83798444D01*
X174132179Y-83894951D01*
X173960213Y-84019890D01*
X173809890Y-84170213D01*
X173684949Y-84342182D01*
X173680484Y-84350946D01*
X173632509Y-84401742D01*
X173564688Y-84418536D01*
X173498553Y-84395998D01*
X173459516Y-84350946D01*
X173455050Y-84342182D01*
X173330109Y-84170213D01*
X173179786Y-84019890D01*
X173007820Y-83894951D01*
X172818414Y-83798444D01*
X172818413Y-83798443D01*
X172818412Y-83798443D01*
X172616243Y-83732754D01*
X172616241Y-83732753D01*
X172616240Y-83732753D01*
X172454957Y-83707208D01*
X172406287Y-83699500D01*
X172193713Y-83699500D01*
X172145042Y-83707208D01*
X171983760Y-83732753D01*
X171781585Y-83798444D01*
X171592179Y-83894951D01*
X171420213Y-84019890D01*
X171269890Y-84170213D01*
X171144951Y-84342179D01*
X171048444Y-84531585D01*
X170982753Y-84733760D01*
X170949500Y-84943713D01*
X168500500Y-84943713D01*
X168500500Y-77443713D01*
X170949500Y-77443713D01*
X170949500Y-77656286D01*
X170982753Y-77866239D01*
X171048444Y-78068414D01*
X171144951Y-78257820D01*
X171269890Y-78429786D01*
X171420213Y-78580109D01*
X171592179Y-78705048D01*
X171592181Y-78705049D01*
X171592184Y-78705051D01*
X171781588Y-78801557D01*
X171983757Y-78867246D01*
X172193713Y-78900500D01*
X172193714Y-78900500D01*
X172406286Y-78900500D01*
X172406287Y-78900500D01*
X172616243Y-78867246D01*
X172818412Y-78801557D01*
X173007816Y-78705051D01*
X173076640Y-78655048D01*
X173179786Y-78580109D01*
X173179788Y-78580106D01*
X173179792Y-78580104D01*
X173330104Y-78429792D01*
X173330106Y-78429788D01*
X173330109Y-78429786D01*
X173455048Y-78257820D01*
X173455047Y-78257820D01*
X173455051Y-78257816D01*
X173459514Y-78249054D01*
X173507488Y-78198259D01*
X173575308Y-78181463D01*
X173641444Y-78203999D01*
X173680486Y-78249056D01*
X173684951Y-78257820D01*
X173809890Y-78429786D01*
X173960213Y-78580109D01*
X174132179Y-78705048D01*
X174132181Y-78705049D01*
X174132184Y-78705051D01*
X174321588Y-78801557D01*
X174523757Y-78867246D01*
X174733713Y-78900500D01*
X174733714Y-78900500D01*
X174946286Y-78900500D01*
X174946287Y-78900500D01*
X175156243Y-78867246D01*
X175358412Y-78801557D01*
X175547816Y-78705051D01*
X175616640Y-78655048D01*
X175719786Y-78580109D01*
X175719788Y-78580106D01*
X175719792Y-78580104D01*
X175870104Y-78429792D01*
X175870106Y-78429788D01*
X175870109Y-78429786D01*
X175995048Y-78257820D01*
X175995047Y-78257820D01*
X175995051Y-78257816D01*
X175999514Y-78249054D01*
X176047488Y-78198259D01*
X176115308Y-78181463D01*
X176181444Y-78203999D01*
X176220486Y-78249056D01*
X176224951Y-78257820D01*
X176349890Y-78429786D01*
X176500213Y-78580109D01*
X176672179Y-78705048D01*
X176672181Y-78705049D01*
X176672184Y-78705051D01*
X176861588Y-78801557D01*
X177063757Y-78867246D01*
X177273713Y-78900500D01*
X177273714Y-78900500D01*
X177486286Y-78900500D01*
X177486287Y-78900500D01*
X177696243Y-78867246D01*
X177898412Y-78801557D01*
X178087816Y-78705051D01*
X178156640Y-78655048D01*
X178259786Y-78580109D01*
X178259788Y-78580106D01*
X178259792Y-78580104D01*
X178410104Y-78429792D01*
X178410106Y-78429788D01*
X178410109Y-78429786D01*
X178535048Y-78257820D01*
X178535047Y-78257820D01*
X178535051Y-78257816D01*
X178539514Y-78249054D01*
X178587488Y-78198259D01*
X178655308Y-78181463D01*
X178721444Y-78203999D01*
X178760486Y-78249056D01*
X178764951Y-78257820D01*
X178889890Y-78429786D01*
X179040213Y-78580109D01*
X179212179Y-78705048D01*
X179212181Y-78705049D01*
X179212184Y-78705051D01*
X179401588Y-78801557D01*
X179603757Y-78867246D01*
X179813713Y-78900500D01*
X179813714Y-78900500D01*
X180026286Y-78900500D01*
X180026287Y-78900500D01*
X180236243Y-78867246D01*
X180438412Y-78801557D01*
X180627816Y-78705051D01*
X180696640Y-78655048D01*
X180799786Y-78580109D01*
X180799788Y-78580106D01*
X180799792Y-78580104D01*
X180950104Y-78429792D01*
X180950106Y-78429788D01*
X180950109Y-78429786D01*
X181075048Y-78257820D01*
X181075047Y-78257820D01*
X181075051Y-78257816D01*
X181079514Y-78249054D01*
X181127488Y-78198259D01*
X181195308Y-78181463D01*
X181261444Y-78203999D01*
X181300486Y-78249056D01*
X181304951Y-78257820D01*
X181429890Y-78429786D01*
X181580213Y-78580109D01*
X181752179Y-78705048D01*
X181752181Y-78705049D01*
X181752184Y-78705051D01*
X181941588Y-78801557D01*
X182143757Y-78867246D01*
X182353713Y-78900500D01*
X182353714Y-78900500D01*
X182566286Y-78900500D01*
X182566287Y-78900500D01*
X182776243Y-78867246D01*
X182978412Y-78801557D01*
X183167816Y-78705051D01*
X183236640Y-78655048D01*
X183339786Y-78580109D01*
X183339788Y-78580106D01*
X183339792Y-78580104D01*
X183490104Y-78429792D01*
X183490106Y-78429788D01*
X183490109Y-78429786D01*
X183615048Y-78257820D01*
X183615047Y-78257820D01*
X183615051Y-78257816D01*
X183619514Y-78249054D01*
X183667488Y-78198259D01*
X183735308Y-78181463D01*
X183801444Y-78203999D01*
X183840486Y-78249056D01*
X183844951Y-78257820D01*
X183969890Y-78429786D01*
X184120213Y-78580109D01*
X184292179Y-78705048D01*
X184292181Y-78705049D01*
X184292184Y-78705051D01*
X184481588Y-78801557D01*
X184683757Y-78867246D01*
X184893713Y-78900500D01*
X184893714Y-78900500D01*
X185106286Y-78900500D01*
X185106287Y-78900500D01*
X185316243Y-78867246D01*
X185518412Y-78801557D01*
X185707816Y-78705051D01*
X185776640Y-78655048D01*
X185879786Y-78580109D01*
X185879788Y-78580106D01*
X185879792Y-78580104D01*
X186030104Y-78429792D01*
X186030106Y-78429788D01*
X186030109Y-78429786D01*
X186155048Y-78257820D01*
X186155047Y-78257820D01*
X186155051Y-78257816D01*
X186251557Y-78068412D01*
X186317246Y-77866243D01*
X186350500Y-77656287D01*
X186350500Y-77443713D01*
X186317246Y-77233757D01*
X186251557Y-77031588D01*
X186155051Y-76842184D01*
X186155049Y-76842181D01*
X186155048Y-76842179D01*
X186030109Y-76670213D01*
X185879786Y-76519890D01*
X185707820Y-76394951D01*
X185518414Y-76298444D01*
X185518413Y-76298443D01*
X185518412Y-76298443D01*
X185316243Y-76232754D01*
X185316241Y-76232753D01*
X185316240Y-76232753D01*
X185154957Y-76207208D01*
X185106287Y-76199500D01*
X184893713Y-76199500D01*
X184845042Y-76207208D01*
X184683760Y-76232753D01*
X184481585Y-76298444D01*
X184292179Y-76394951D01*
X184120213Y-76519890D01*
X183969890Y-76670213D01*
X183844949Y-76842182D01*
X183840484Y-76850946D01*
X183792509Y-76901742D01*
X183724688Y-76918536D01*
X183658553Y-76895998D01*
X183619516Y-76850946D01*
X183615050Y-76842182D01*
X183490109Y-76670213D01*
X183339786Y-76519890D01*
X183167820Y-76394951D01*
X182978414Y-76298444D01*
X182978413Y-76298443D01*
X182978412Y-76298443D01*
X182776243Y-76232754D01*
X182776241Y-76232753D01*
X182776240Y-76232753D01*
X182614957Y-76207208D01*
X182566287Y-76199500D01*
X182353713Y-76199500D01*
X182305042Y-76207208D01*
X182143760Y-76232753D01*
X181941585Y-76298444D01*
X181752179Y-76394951D01*
X181580213Y-76519890D01*
X181429890Y-76670213D01*
X181304949Y-76842182D01*
X181300484Y-76850946D01*
X181252509Y-76901742D01*
X181184688Y-76918536D01*
X181118553Y-76895998D01*
X181079516Y-76850946D01*
X181075050Y-76842182D01*
X180950109Y-76670213D01*
X180799786Y-76519890D01*
X180627820Y-76394951D01*
X180438414Y-76298444D01*
X180438413Y-76298443D01*
X180438412Y-76298443D01*
X180236243Y-76232754D01*
X180236241Y-76232753D01*
X180236240Y-76232753D01*
X180074957Y-76207208D01*
X180026287Y-76199500D01*
X179813713Y-76199500D01*
X179765042Y-76207208D01*
X179603760Y-76232753D01*
X179401585Y-76298444D01*
X179212179Y-76394951D01*
X179040213Y-76519890D01*
X178889890Y-76670213D01*
X178764949Y-76842182D01*
X178760484Y-76850946D01*
X178712509Y-76901742D01*
X178644688Y-76918536D01*
X178578553Y-76895998D01*
X178539516Y-76850946D01*
X178535050Y-76842182D01*
X178410109Y-76670213D01*
X178259786Y-76519890D01*
X178087820Y-76394951D01*
X177898414Y-76298444D01*
X177898413Y-76298443D01*
X177898412Y-76298443D01*
X177696243Y-76232754D01*
X177696241Y-76232753D01*
X177696240Y-76232753D01*
X177534957Y-76207208D01*
X177486287Y-76199500D01*
X177273713Y-76199500D01*
X177225042Y-76207208D01*
X177063760Y-76232753D01*
X176861585Y-76298444D01*
X176672179Y-76394951D01*
X176500213Y-76519890D01*
X176349890Y-76670213D01*
X176224949Y-76842182D01*
X176220484Y-76850946D01*
X176172509Y-76901742D01*
X176104688Y-76918536D01*
X176038553Y-76895998D01*
X175999516Y-76850946D01*
X175995050Y-76842182D01*
X175870109Y-76670213D01*
X175719786Y-76519890D01*
X175547820Y-76394951D01*
X175358414Y-76298444D01*
X175358413Y-76298443D01*
X175358412Y-76298443D01*
X175156243Y-76232754D01*
X175156241Y-76232753D01*
X175156240Y-76232753D01*
X174994957Y-76207208D01*
X174946287Y-76199500D01*
X174733713Y-76199500D01*
X174685042Y-76207208D01*
X174523760Y-76232753D01*
X174321585Y-76298444D01*
X174132179Y-76394951D01*
X173960213Y-76519890D01*
X173809890Y-76670213D01*
X173684949Y-76842182D01*
X173680484Y-76850946D01*
X173632509Y-76901742D01*
X173564688Y-76918536D01*
X173498553Y-76895998D01*
X173459516Y-76850946D01*
X173455050Y-76842182D01*
X173330109Y-76670213D01*
X173179786Y-76519890D01*
X173007820Y-76394951D01*
X172818414Y-76298444D01*
X172818413Y-76298443D01*
X172818412Y-76298443D01*
X172616243Y-76232754D01*
X172616241Y-76232753D01*
X172616240Y-76232753D01*
X172454957Y-76207208D01*
X172406287Y-76199500D01*
X172193713Y-76199500D01*
X172145042Y-76207208D01*
X171983760Y-76232753D01*
X171781585Y-76298444D01*
X171592179Y-76394951D01*
X171420213Y-76519890D01*
X171269890Y-76670213D01*
X171144951Y-76842179D01*
X171048444Y-77031585D01*
X170982753Y-77233760D01*
X170949500Y-77443713D01*
X168500500Y-77443713D01*
X168500500Y-69943713D01*
X170949500Y-69943713D01*
X170949500Y-70156286D01*
X170974834Y-70316243D01*
X170982754Y-70366243D01*
X171010676Y-70452179D01*
X171048444Y-70568414D01*
X171144951Y-70757820D01*
X171269890Y-70929786D01*
X171420213Y-71080109D01*
X171592179Y-71205048D01*
X171592181Y-71205049D01*
X171592184Y-71205051D01*
X171781588Y-71301557D01*
X171983757Y-71367246D01*
X172193713Y-71400500D01*
X172193714Y-71400500D01*
X172406286Y-71400500D01*
X172406287Y-71400500D01*
X172616243Y-71367246D01*
X172818412Y-71301557D01*
X173007816Y-71205051D01*
X173076640Y-71155048D01*
X173179786Y-71080109D01*
X173179788Y-71080106D01*
X173179792Y-71080104D01*
X173330104Y-70929792D01*
X173330106Y-70929788D01*
X173330109Y-70929786D01*
X173455048Y-70757820D01*
X173455047Y-70757820D01*
X173455051Y-70757816D01*
X173459514Y-70749054D01*
X173507488Y-70698259D01*
X173575308Y-70681463D01*
X173641444Y-70703999D01*
X173680486Y-70749056D01*
X173684951Y-70757820D01*
X173809890Y-70929786D01*
X173960213Y-71080109D01*
X174132179Y-71205048D01*
X174132181Y-71205049D01*
X174132184Y-71205051D01*
X174321588Y-71301557D01*
X174523757Y-71367246D01*
X174733713Y-71400500D01*
X174733714Y-71400500D01*
X174946286Y-71400500D01*
X174946287Y-71400500D01*
X175156243Y-71367246D01*
X175358412Y-71301557D01*
X175547816Y-71205051D01*
X175616640Y-71155048D01*
X175719786Y-71080109D01*
X175719788Y-71080106D01*
X175719792Y-71080104D01*
X175870104Y-70929792D01*
X175870106Y-70929788D01*
X175870109Y-70929786D01*
X175995048Y-70757820D01*
X175995047Y-70757820D01*
X175995051Y-70757816D01*
X175999514Y-70749054D01*
X176047488Y-70698259D01*
X176115308Y-70681463D01*
X176181444Y-70703999D01*
X176220486Y-70749056D01*
X176224951Y-70757820D01*
X176349890Y-70929786D01*
X176500213Y-71080109D01*
X176672179Y-71205048D01*
X176672181Y-71205049D01*
X176672184Y-71205051D01*
X176861588Y-71301557D01*
X177063757Y-71367246D01*
X177273713Y-71400500D01*
X177273714Y-71400500D01*
X177486286Y-71400500D01*
X177486287Y-71400500D01*
X177696243Y-71367246D01*
X177898412Y-71301557D01*
X178087816Y-71205051D01*
X178156640Y-71155048D01*
X178259786Y-71080109D01*
X178259788Y-71080106D01*
X178259792Y-71080104D01*
X178410104Y-70929792D01*
X178410106Y-70929788D01*
X178410109Y-70929786D01*
X178535048Y-70757820D01*
X178535047Y-70757820D01*
X178535051Y-70757816D01*
X178539514Y-70749054D01*
X178587488Y-70698259D01*
X178655308Y-70681463D01*
X178721444Y-70703999D01*
X178760486Y-70749056D01*
X178764951Y-70757820D01*
X178889890Y-70929786D01*
X179040213Y-71080109D01*
X179212179Y-71205048D01*
X179212181Y-71205049D01*
X179212184Y-71205051D01*
X179401588Y-71301557D01*
X179603757Y-71367246D01*
X179813713Y-71400500D01*
X179813714Y-71400500D01*
X180026286Y-71400500D01*
X180026287Y-71400500D01*
X180236243Y-71367246D01*
X180438412Y-71301557D01*
X180627816Y-71205051D01*
X180696640Y-71155048D01*
X180799786Y-71080109D01*
X180799788Y-71080106D01*
X180799792Y-71080104D01*
X180950104Y-70929792D01*
X180950106Y-70929788D01*
X180950109Y-70929786D01*
X181075048Y-70757820D01*
X181075047Y-70757820D01*
X181075051Y-70757816D01*
X181079514Y-70749054D01*
X181127488Y-70698259D01*
X181195308Y-70681463D01*
X181261444Y-70703999D01*
X181300486Y-70749056D01*
X181304951Y-70757820D01*
X181429890Y-70929786D01*
X181580213Y-71080109D01*
X181752179Y-71205048D01*
X181752181Y-71205049D01*
X181752184Y-71205051D01*
X181941588Y-71301557D01*
X182143757Y-71367246D01*
X182353713Y-71400500D01*
X182353714Y-71400500D01*
X182566286Y-71400500D01*
X182566287Y-71400500D01*
X182776243Y-71367246D01*
X182978412Y-71301557D01*
X183167816Y-71205051D01*
X183236640Y-71155048D01*
X183339786Y-71080109D01*
X183339788Y-71080106D01*
X183339792Y-71080104D01*
X183490104Y-70929792D01*
X183490106Y-70929788D01*
X183490109Y-70929786D01*
X183615048Y-70757820D01*
X183615047Y-70757820D01*
X183615051Y-70757816D01*
X183619514Y-70749054D01*
X183667488Y-70698259D01*
X183735308Y-70681463D01*
X183801444Y-70703999D01*
X183840486Y-70749056D01*
X183844951Y-70757820D01*
X183969890Y-70929786D01*
X184120213Y-71080109D01*
X184292179Y-71205048D01*
X184292181Y-71205049D01*
X184292184Y-71205051D01*
X184481588Y-71301557D01*
X184683757Y-71367246D01*
X184893713Y-71400500D01*
X184893714Y-71400500D01*
X185106286Y-71400500D01*
X185106287Y-71400500D01*
X185316243Y-71367246D01*
X185518412Y-71301557D01*
X185707816Y-71205051D01*
X185776640Y-71155048D01*
X185879786Y-71080109D01*
X185879788Y-71080106D01*
X185879792Y-71080104D01*
X186030104Y-70929792D01*
X186030106Y-70929788D01*
X186030109Y-70929786D01*
X186155048Y-70757820D01*
X186155047Y-70757820D01*
X186155051Y-70757816D01*
X186251557Y-70568412D01*
X186317246Y-70366243D01*
X186350500Y-70156287D01*
X186350500Y-69943713D01*
X186317246Y-69733757D01*
X186251557Y-69531588D01*
X186155051Y-69342184D01*
X186155049Y-69342181D01*
X186155048Y-69342179D01*
X186030109Y-69170213D01*
X185879786Y-69019890D01*
X185707820Y-68894951D01*
X185518414Y-68798444D01*
X185518413Y-68798443D01*
X185518412Y-68798443D01*
X185316243Y-68732754D01*
X185316241Y-68732753D01*
X185316240Y-68732753D01*
X185154957Y-68707208D01*
X185106287Y-68699500D01*
X184893713Y-68699500D01*
X184845042Y-68707208D01*
X184683760Y-68732753D01*
X184481585Y-68798444D01*
X184292179Y-68894951D01*
X184120213Y-69019890D01*
X183969890Y-69170213D01*
X183844949Y-69342182D01*
X183840484Y-69350946D01*
X183792509Y-69401742D01*
X183724688Y-69418536D01*
X183658553Y-69395998D01*
X183619516Y-69350946D01*
X183615050Y-69342182D01*
X183490109Y-69170213D01*
X183339786Y-69019890D01*
X183167820Y-68894951D01*
X182978414Y-68798444D01*
X182978413Y-68798443D01*
X182978412Y-68798443D01*
X182776243Y-68732754D01*
X182776241Y-68732753D01*
X182776240Y-68732753D01*
X182614957Y-68707208D01*
X182566287Y-68699500D01*
X182353713Y-68699500D01*
X182305042Y-68707208D01*
X182143760Y-68732753D01*
X181941585Y-68798444D01*
X181752179Y-68894951D01*
X181580213Y-69019890D01*
X181429890Y-69170213D01*
X181304949Y-69342182D01*
X181300484Y-69350946D01*
X181252509Y-69401742D01*
X181184688Y-69418536D01*
X181118553Y-69395998D01*
X181079516Y-69350946D01*
X181075050Y-69342182D01*
X180950109Y-69170213D01*
X180799786Y-69019890D01*
X180627820Y-68894951D01*
X180438414Y-68798444D01*
X180438413Y-68798443D01*
X180438412Y-68798443D01*
X180236243Y-68732754D01*
X180236241Y-68732753D01*
X180236240Y-68732753D01*
X180074957Y-68707208D01*
X180026287Y-68699500D01*
X179813713Y-68699500D01*
X179765042Y-68707208D01*
X179603760Y-68732753D01*
X179401585Y-68798444D01*
X179212179Y-68894951D01*
X179040213Y-69019890D01*
X178889890Y-69170213D01*
X178764949Y-69342182D01*
X178760484Y-69350946D01*
X178712509Y-69401742D01*
X178644688Y-69418536D01*
X178578553Y-69395998D01*
X178539516Y-69350946D01*
X178535050Y-69342182D01*
X178410109Y-69170213D01*
X178259786Y-69019890D01*
X178087820Y-68894951D01*
X177898414Y-68798444D01*
X177898413Y-68798443D01*
X177898412Y-68798443D01*
X177696243Y-68732754D01*
X177696241Y-68732753D01*
X177696240Y-68732753D01*
X177534957Y-68707208D01*
X177486287Y-68699500D01*
X177273713Y-68699500D01*
X177225042Y-68707208D01*
X177063760Y-68732753D01*
X176861585Y-68798444D01*
X176672179Y-68894951D01*
X176500213Y-69019890D01*
X176349890Y-69170213D01*
X176224949Y-69342182D01*
X176220484Y-69350946D01*
X176172509Y-69401742D01*
X176104688Y-69418536D01*
X176038553Y-69395998D01*
X175999516Y-69350946D01*
X175995050Y-69342182D01*
X175870109Y-69170213D01*
X175719786Y-69019890D01*
X175547820Y-68894951D01*
X175358414Y-68798444D01*
X175358413Y-68798443D01*
X175358412Y-68798443D01*
X175156243Y-68732754D01*
X175156241Y-68732753D01*
X175156240Y-68732753D01*
X174994957Y-68707208D01*
X174946287Y-68699500D01*
X174733713Y-68699500D01*
X174685042Y-68707208D01*
X174523760Y-68732753D01*
X174321585Y-68798444D01*
X174132179Y-68894951D01*
X173960213Y-69019890D01*
X173809890Y-69170213D01*
X173684949Y-69342182D01*
X173680484Y-69350946D01*
X173632509Y-69401742D01*
X173564688Y-69418536D01*
X173498553Y-69395998D01*
X173459516Y-69350946D01*
X173455050Y-69342182D01*
X173330109Y-69170213D01*
X173179786Y-69019890D01*
X173007820Y-68894951D01*
X172818414Y-68798444D01*
X172818413Y-68798443D01*
X172818412Y-68798443D01*
X172616243Y-68732754D01*
X172616241Y-68732753D01*
X172616240Y-68732753D01*
X172454957Y-68707208D01*
X172406287Y-68699500D01*
X172193713Y-68699500D01*
X172145042Y-68707208D01*
X171983760Y-68732753D01*
X171781585Y-68798444D01*
X171592179Y-68894951D01*
X171420213Y-69019890D01*
X171269890Y-69170213D01*
X171144951Y-69342179D01*
X171048444Y-69531585D01*
X170982753Y-69733760D01*
X170949500Y-69943713D01*
X168500500Y-69943713D01*
X168500500Y-62443713D01*
X170949500Y-62443713D01*
X170949500Y-62656286D01*
X170977359Y-62832184D01*
X170982754Y-62866243D01*
X171039452Y-63040742D01*
X171048444Y-63068414D01*
X171144951Y-63257820D01*
X171269890Y-63429786D01*
X171420213Y-63580109D01*
X171592179Y-63705048D01*
X171592181Y-63705049D01*
X171592184Y-63705051D01*
X171781588Y-63801557D01*
X171983757Y-63867246D01*
X172193713Y-63900500D01*
X172193714Y-63900500D01*
X172406286Y-63900500D01*
X172406287Y-63900500D01*
X172616243Y-63867246D01*
X172818412Y-63801557D01*
X173007816Y-63705051D01*
X173076640Y-63655048D01*
X173179786Y-63580109D01*
X173179788Y-63580106D01*
X173179792Y-63580104D01*
X173330104Y-63429792D01*
X173330106Y-63429788D01*
X173330109Y-63429786D01*
X173455048Y-63257820D01*
X173455047Y-63257820D01*
X173455051Y-63257816D01*
X173459514Y-63249054D01*
X173507488Y-63198259D01*
X173575308Y-63181463D01*
X173641444Y-63203999D01*
X173680486Y-63249056D01*
X173684951Y-63257820D01*
X173809890Y-63429786D01*
X173960213Y-63580109D01*
X174132179Y-63705048D01*
X174132181Y-63705049D01*
X174132184Y-63705051D01*
X174321588Y-63801557D01*
X174523757Y-63867246D01*
X174733713Y-63900500D01*
X174733714Y-63900500D01*
X174946286Y-63900500D01*
X174946287Y-63900500D01*
X175156243Y-63867246D01*
X175358412Y-63801557D01*
X175547816Y-63705051D01*
X175616640Y-63655048D01*
X175719786Y-63580109D01*
X175719788Y-63580106D01*
X175719792Y-63580104D01*
X175870104Y-63429792D01*
X175870106Y-63429788D01*
X175870109Y-63429786D01*
X175995048Y-63257820D01*
X175995047Y-63257820D01*
X175995051Y-63257816D01*
X175999514Y-63249054D01*
X176047488Y-63198259D01*
X176115308Y-63181463D01*
X176181444Y-63203999D01*
X176220486Y-63249056D01*
X176224951Y-63257820D01*
X176349890Y-63429786D01*
X176500213Y-63580109D01*
X176672179Y-63705048D01*
X176672181Y-63705049D01*
X176672184Y-63705051D01*
X176861588Y-63801557D01*
X177063757Y-63867246D01*
X177273713Y-63900500D01*
X177273714Y-63900500D01*
X177486286Y-63900500D01*
X177486287Y-63900500D01*
X177696243Y-63867246D01*
X177898412Y-63801557D01*
X178087816Y-63705051D01*
X178156640Y-63655048D01*
X178259786Y-63580109D01*
X178259788Y-63580106D01*
X178259792Y-63580104D01*
X178410104Y-63429792D01*
X178410106Y-63429788D01*
X178410109Y-63429786D01*
X178535048Y-63257820D01*
X178535047Y-63257820D01*
X178535051Y-63257816D01*
X178539514Y-63249054D01*
X178587488Y-63198259D01*
X178655308Y-63181463D01*
X178721444Y-63203999D01*
X178760486Y-63249056D01*
X178764951Y-63257820D01*
X178889890Y-63429786D01*
X179040213Y-63580109D01*
X179212179Y-63705048D01*
X179212181Y-63705049D01*
X179212184Y-63705051D01*
X179401588Y-63801557D01*
X179603757Y-63867246D01*
X179813713Y-63900500D01*
X179813714Y-63900500D01*
X180026286Y-63900500D01*
X180026287Y-63900500D01*
X180236243Y-63867246D01*
X180438412Y-63801557D01*
X180627816Y-63705051D01*
X180696640Y-63655048D01*
X180799786Y-63580109D01*
X180799788Y-63580106D01*
X180799792Y-63580104D01*
X180950104Y-63429792D01*
X180950106Y-63429788D01*
X180950109Y-63429786D01*
X181075048Y-63257820D01*
X181075047Y-63257820D01*
X181075051Y-63257816D01*
X181079514Y-63249054D01*
X181127488Y-63198259D01*
X181195308Y-63181463D01*
X181261444Y-63203999D01*
X181300486Y-63249056D01*
X181304951Y-63257820D01*
X181429890Y-63429786D01*
X181580213Y-63580109D01*
X181752179Y-63705048D01*
X181752181Y-63705049D01*
X181752184Y-63705051D01*
X181941588Y-63801557D01*
X182143757Y-63867246D01*
X182353713Y-63900500D01*
X182353714Y-63900500D01*
X182566286Y-63900500D01*
X182566287Y-63900500D01*
X182776243Y-63867246D01*
X182978412Y-63801557D01*
X183167816Y-63705051D01*
X183236640Y-63655048D01*
X183339786Y-63580109D01*
X183339788Y-63580106D01*
X183339792Y-63580104D01*
X183490104Y-63429792D01*
X183490106Y-63429788D01*
X183490109Y-63429786D01*
X183615048Y-63257820D01*
X183615047Y-63257820D01*
X183615051Y-63257816D01*
X183619514Y-63249054D01*
X183667488Y-63198259D01*
X183735308Y-63181463D01*
X183801444Y-63203999D01*
X183840486Y-63249056D01*
X183844951Y-63257820D01*
X183969890Y-63429786D01*
X184120213Y-63580109D01*
X184292179Y-63705048D01*
X184292181Y-63705049D01*
X184292184Y-63705051D01*
X184481588Y-63801557D01*
X184683757Y-63867246D01*
X184893713Y-63900500D01*
X184893714Y-63900500D01*
X185106286Y-63900500D01*
X185106287Y-63900500D01*
X185316243Y-63867246D01*
X185518412Y-63801557D01*
X185707816Y-63705051D01*
X185776640Y-63655048D01*
X185879786Y-63580109D01*
X185879788Y-63580106D01*
X185879792Y-63580104D01*
X186030104Y-63429792D01*
X186030106Y-63429788D01*
X186030109Y-63429786D01*
X186155048Y-63257820D01*
X186155047Y-63257820D01*
X186155051Y-63257816D01*
X186251557Y-63068412D01*
X186317246Y-62866243D01*
X186350500Y-62656287D01*
X186350500Y-62443713D01*
X186317246Y-62233757D01*
X186251557Y-62031588D01*
X186155051Y-61842184D01*
X186155049Y-61842181D01*
X186155048Y-61842179D01*
X186030109Y-61670213D01*
X185879786Y-61519890D01*
X185707820Y-61394951D01*
X185518414Y-61298444D01*
X185518413Y-61298443D01*
X185518412Y-61298443D01*
X185316243Y-61232754D01*
X185316241Y-61232753D01*
X185316240Y-61232753D01*
X185154957Y-61207208D01*
X185106287Y-61199500D01*
X184893713Y-61199500D01*
X184845042Y-61207208D01*
X184683760Y-61232753D01*
X184481585Y-61298444D01*
X184292179Y-61394951D01*
X184120213Y-61519890D01*
X183969890Y-61670213D01*
X183844949Y-61842182D01*
X183840484Y-61850946D01*
X183792509Y-61901742D01*
X183724688Y-61918536D01*
X183658553Y-61895998D01*
X183619516Y-61850946D01*
X183615050Y-61842182D01*
X183490109Y-61670213D01*
X183339786Y-61519890D01*
X183167820Y-61394951D01*
X182978414Y-61298444D01*
X182978413Y-61298443D01*
X182978412Y-61298443D01*
X182776243Y-61232754D01*
X182776241Y-61232753D01*
X182776240Y-61232753D01*
X182614957Y-61207208D01*
X182566287Y-61199500D01*
X182353713Y-61199500D01*
X182305042Y-61207208D01*
X182143760Y-61232753D01*
X181941585Y-61298444D01*
X181752179Y-61394951D01*
X181580213Y-61519890D01*
X181429890Y-61670213D01*
X181304949Y-61842182D01*
X181300484Y-61850946D01*
X181252509Y-61901742D01*
X181184688Y-61918536D01*
X181118553Y-61895998D01*
X181079516Y-61850946D01*
X181075050Y-61842182D01*
X180950109Y-61670213D01*
X180799786Y-61519890D01*
X180627820Y-61394951D01*
X180438414Y-61298444D01*
X180438413Y-61298443D01*
X180438412Y-61298443D01*
X180236243Y-61232754D01*
X180236241Y-61232753D01*
X180236240Y-61232753D01*
X180074957Y-61207208D01*
X180026287Y-61199500D01*
X179813713Y-61199500D01*
X179765042Y-61207208D01*
X179603760Y-61232753D01*
X179401585Y-61298444D01*
X179212179Y-61394951D01*
X179040213Y-61519890D01*
X178889890Y-61670213D01*
X178764949Y-61842182D01*
X178760484Y-61850946D01*
X178712509Y-61901742D01*
X178644688Y-61918536D01*
X178578553Y-61895998D01*
X178539516Y-61850946D01*
X178535050Y-61842182D01*
X178410109Y-61670213D01*
X178259786Y-61519890D01*
X178087820Y-61394951D01*
X177898414Y-61298444D01*
X177898413Y-61298443D01*
X177898412Y-61298443D01*
X177696243Y-61232754D01*
X177696241Y-61232753D01*
X177696240Y-61232753D01*
X177534957Y-61207208D01*
X177486287Y-61199500D01*
X177273713Y-61199500D01*
X177225042Y-61207208D01*
X177063760Y-61232753D01*
X176861585Y-61298444D01*
X176672179Y-61394951D01*
X176500213Y-61519890D01*
X176349890Y-61670213D01*
X176224949Y-61842182D01*
X176220484Y-61850946D01*
X176172509Y-61901742D01*
X176104688Y-61918536D01*
X176038553Y-61895998D01*
X175999516Y-61850946D01*
X175995050Y-61842182D01*
X175870109Y-61670213D01*
X175719786Y-61519890D01*
X175547820Y-61394951D01*
X175358414Y-61298444D01*
X175358413Y-61298443D01*
X175358412Y-61298443D01*
X175156243Y-61232754D01*
X175156241Y-61232753D01*
X175156240Y-61232753D01*
X174994957Y-61207208D01*
X174946287Y-61199500D01*
X174733713Y-61199500D01*
X174685042Y-61207208D01*
X174523760Y-61232753D01*
X174321585Y-61298444D01*
X174132179Y-61394951D01*
X173960213Y-61519890D01*
X173809890Y-61670213D01*
X173684949Y-61842182D01*
X173680484Y-61850946D01*
X173632509Y-61901742D01*
X173564688Y-61918536D01*
X173498553Y-61895998D01*
X173459516Y-61850946D01*
X173455050Y-61842182D01*
X173330109Y-61670213D01*
X173179786Y-61519890D01*
X173007820Y-61394951D01*
X172818414Y-61298444D01*
X172818413Y-61298443D01*
X172818412Y-61298443D01*
X172616243Y-61232754D01*
X172616241Y-61232753D01*
X172616240Y-61232753D01*
X172454957Y-61207208D01*
X172406287Y-61199500D01*
X172193713Y-61199500D01*
X172145042Y-61207208D01*
X171983760Y-61232753D01*
X171781585Y-61298444D01*
X171592179Y-61394951D01*
X171420213Y-61519890D01*
X171269890Y-61670213D01*
X171144951Y-61842179D01*
X171048444Y-62031585D01*
X170982753Y-62233760D01*
X170949500Y-62443713D01*
X168500500Y-62443713D01*
X168500500Y-61003750D01*
X168500726Y-60996263D01*
X168506929Y-60893713D01*
X190324500Y-60893713D01*
X190324500Y-61106286D01*
X190354934Y-61298443D01*
X190357754Y-61316243D01*
X190407677Y-61469890D01*
X190423444Y-61518414D01*
X190519951Y-61707820D01*
X190644890Y-61879786D01*
X190795213Y-62030109D01*
X190967182Y-62155050D01*
X190975946Y-62159516D01*
X191026742Y-62207491D01*
X191043536Y-62275312D01*
X191020998Y-62341447D01*
X190975946Y-62380484D01*
X190967182Y-62384949D01*
X190795213Y-62509890D01*
X190644890Y-62660213D01*
X190519951Y-62832179D01*
X190423444Y-63021585D01*
X190357753Y-63223760D01*
X190324500Y-63433713D01*
X190324500Y-63646286D01*
X190357753Y-63856239D01*
X190423444Y-64058414D01*
X190519951Y-64247820D01*
X190644890Y-64419786D01*
X190795213Y-64570109D01*
X190967182Y-64695050D01*
X190975946Y-64699516D01*
X191026742Y-64747491D01*
X191043536Y-64815312D01*
X191020998Y-64881447D01*
X190975946Y-64920484D01*
X190967182Y-64924949D01*
X190795213Y-65049890D01*
X190644890Y-65200213D01*
X190519951Y-65372179D01*
X190423444Y-65561585D01*
X190357753Y-65763760D01*
X190324500Y-65973713D01*
X190324500Y-66186286D01*
X190357753Y-66396239D01*
X190423444Y-66598414D01*
X190519951Y-66787820D01*
X190644890Y-66959786D01*
X190795213Y-67110109D01*
X190967182Y-67235050D01*
X190975946Y-67239516D01*
X191026742Y-67287491D01*
X191043536Y-67355312D01*
X191020998Y-67421447D01*
X190975946Y-67460484D01*
X190967182Y-67464949D01*
X190795213Y-67589890D01*
X190644890Y-67740213D01*
X190519951Y-67912179D01*
X190423444Y-68101585D01*
X190357753Y-68303760D01*
X190324500Y-68513713D01*
X190324500Y-68726286D01*
X190357753Y-68936239D01*
X190423444Y-69138414D01*
X190519951Y-69327820D01*
X190644890Y-69499786D01*
X190795213Y-69650109D01*
X190967182Y-69775050D01*
X190975946Y-69779516D01*
X191026742Y-69827491D01*
X191043536Y-69895312D01*
X191020998Y-69961447D01*
X190975946Y-70000484D01*
X190967182Y-70004949D01*
X190795213Y-70129890D01*
X190644890Y-70280213D01*
X190519951Y-70452179D01*
X190423444Y-70641585D01*
X190357753Y-70843760D01*
X190324500Y-71053713D01*
X190324500Y-71266286D01*
X190357753Y-71476239D01*
X190423444Y-71678414D01*
X190519951Y-71867820D01*
X190644890Y-72039786D01*
X190795213Y-72190109D01*
X190967182Y-72315050D01*
X190975946Y-72319516D01*
X191026742Y-72367491D01*
X191043536Y-72435312D01*
X191020998Y-72501447D01*
X190975946Y-72540484D01*
X190967182Y-72544949D01*
X190795213Y-72669890D01*
X190644890Y-72820213D01*
X190519951Y-72992179D01*
X190423444Y-73181585D01*
X190357753Y-73383760D01*
X190324500Y-73593713D01*
X190324500Y-73806286D01*
X190357753Y-74016239D01*
X190423444Y-74218414D01*
X190519951Y-74407820D01*
X190644890Y-74579786D01*
X190795213Y-74730109D01*
X190967182Y-74855050D01*
X190975946Y-74859516D01*
X191026742Y-74907491D01*
X191043536Y-74975312D01*
X191020998Y-75041447D01*
X190975946Y-75080484D01*
X190967182Y-75084949D01*
X190795213Y-75209890D01*
X190644890Y-75360213D01*
X190519951Y-75532179D01*
X190423444Y-75721585D01*
X190357753Y-75923760D01*
X190324500Y-76133713D01*
X190324500Y-76346287D01*
X190357754Y-76556243D01*
X190394785Y-76670213D01*
X190423444Y-76758414D01*
X190519951Y-76947820D01*
X190644890Y-77119786D01*
X190795213Y-77270109D01*
X190967179Y-77395048D01*
X190967181Y-77395049D01*
X190967184Y-77395051D01*
X191156588Y-77491557D01*
X191358757Y-77557246D01*
X191568713Y-77590500D01*
X191568714Y-77590500D01*
X191781286Y-77590500D01*
X191781287Y-77590500D01*
X191991243Y-77557246D01*
X192193412Y-77491557D01*
X192382816Y-77395051D01*
X192529442Y-77288522D01*
X192554786Y-77270109D01*
X192554788Y-77270106D01*
X192554792Y-77270104D01*
X192705104Y-77119792D01*
X192705106Y-77119788D01*
X192705109Y-77119786D01*
X192830048Y-76947820D01*
X192830047Y-76947820D01*
X192830051Y-76947816D01*
X192926557Y-76758412D01*
X192992246Y-76556243D01*
X193025500Y-76346287D01*
X193025500Y-76133713D01*
X192992246Y-75923757D01*
X192926557Y-75721588D01*
X192830051Y-75532184D01*
X192830049Y-75532181D01*
X192830048Y-75532179D01*
X192705109Y-75360213D01*
X192554786Y-75209890D01*
X192382820Y-75084951D01*
X192382115Y-75084591D01*
X192374054Y-75080485D01*
X192323259Y-75032512D01*
X192306463Y-74964692D01*
X192328999Y-74898556D01*
X192374054Y-74859515D01*
X192382816Y-74855051D01*
X192404789Y-74839086D01*
X192554786Y-74730109D01*
X192554788Y-74730106D01*
X192554792Y-74730104D01*
X192705104Y-74579792D01*
X192705106Y-74579788D01*
X192705109Y-74579786D01*
X192830048Y-74407820D01*
X192830047Y-74407820D01*
X192830051Y-74407816D01*
X192926557Y-74218412D01*
X192992246Y-74016243D01*
X193025500Y-73806287D01*
X193025500Y-73593713D01*
X192992246Y-73383757D01*
X192926557Y-73181588D01*
X192830051Y-72992184D01*
X192830049Y-72992181D01*
X192830048Y-72992179D01*
X192705109Y-72820213D01*
X192554786Y-72669890D01*
X192382820Y-72544951D01*
X192382115Y-72544591D01*
X192374054Y-72540485D01*
X192323259Y-72492512D01*
X192306463Y-72424692D01*
X192328999Y-72358556D01*
X192374054Y-72319515D01*
X192382816Y-72315051D01*
X192404789Y-72299086D01*
X192554786Y-72190109D01*
X192554788Y-72190106D01*
X192554792Y-72190104D01*
X192705104Y-72039792D01*
X192705106Y-72039788D01*
X192705109Y-72039786D01*
X192830048Y-71867820D01*
X192830047Y-71867820D01*
X192830051Y-71867816D01*
X192926557Y-71678412D01*
X192992246Y-71476243D01*
X193025500Y-71266287D01*
X193025500Y-71053713D01*
X192992246Y-70843757D01*
X192926557Y-70641588D01*
X192830051Y-70452184D01*
X192830049Y-70452181D01*
X192830048Y-70452179D01*
X192705109Y-70280213D01*
X192554786Y-70129890D01*
X192382820Y-70004951D01*
X192382115Y-70004591D01*
X192374054Y-70000485D01*
X192323259Y-69952512D01*
X192306463Y-69884692D01*
X192328999Y-69818556D01*
X192374054Y-69779515D01*
X192382816Y-69775051D01*
X192439653Y-69733757D01*
X192554786Y-69650109D01*
X192554788Y-69650106D01*
X192554792Y-69650104D01*
X192705104Y-69499792D01*
X192705106Y-69499788D01*
X192705109Y-69499786D01*
X192830048Y-69327820D01*
X192830047Y-69327820D01*
X192830051Y-69327816D01*
X192926557Y-69138412D01*
X192992246Y-68936243D01*
X193025500Y-68726287D01*
X193025500Y-68513713D01*
X192992246Y-68303757D01*
X192926557Y-68101588D01*
X192830051Y-67912184D01*
X192830049Y-67912181D01*
X192830048Y-67912179D01*
X192705109Y-67740213D01*
X192554786Y-67589890D01*
X192382820Y-67464951D01*
X192382115Y-67464591D01*
X192374054Y-67460485D01*
X192323259Y-67412512D01*
X192306463Y-67344692D01*
X192328999Y-67278556D01*
X192374054Y-67239515D01*
X192382816Y-67235051D01*
X192404789Y-67219086D01*
X192554786Y-67110109D01*
X192554788Y-67110106D01*
X192554792Y-67110104D01*
X192705104Y-66959792D01*
X192705106Y-66959788D01*
X192705109Y-66959786D01*
X192830048Y-66787820D01*
X192830047Y-66787820D01*
X192830051Y-66787816D01*
X192926557Y-66598412D01*
X192992246Y-66396243D01*
X193025500Y-66186287D01*
X193025500Y-65973713D01*
X192992246Y-65763757D01*
X192926557Y-65561588D01*
X192830051Y-65372184D01*
X192830049Y-65372181D01*
X192830048Y-65372179D01*
X192705109Y-65200213D01*
X192554786Y-65049890D01*
X192382820Y-64924951D01*
X192382115Y-64924591D01*
X192374054Y-64920485D01*
X192323259Y-64872512D01*
X192306463Y-64804692D01*
X192328999Y-64738556D01*
X192374054Y-64699515D01*
X192382816Y-64695051D01*
X192404789Y-64679086D01*
X192554786Y-64570109D01*
X192554788Y-64570106D01*
X192554792Y-64570104D01*
X192705104Y-64419792D01*
X192705106Y-64419788D01*
X192705109Y-64419786D01*
X192830048Y-64247820D01*
X192830047Y-64247820D01*
X192830051Y-64247816D01*
X192926557Y-64058412D01*
X192992246Y-63856243D01*
X193025500Y-63646287D01*
X193025500Y-63433713D01*
X192992246Y-63223757D01*
X192926557Y-63021588D01*
X192830051Y-62832184D01*
X192830049Y-62832181D01*
X192830048Y-62832179D01*
X192705109Y-62660213D01*
X192554786Y-62509890D01*
X192382820Y-62384951D01*
X192382115Y-62384591D01*
X192374054Y-62380485D01*
X192323259Y-62332512D01*
X192306463Y-62264692D01*
X192328999Y-62198556D01*
X192374054Y-62159515D01*
X192382816Y-62155051D01*
X192543444Y-62038349D01*
X192554786Y-62030109D01*
X192554788Y-62030106D01*
X192554792Y-62030104D01*
X192705104Y-61879792D01*
X192705106Y-61879788D01*
X192705109Y-61879786D01*
X192830048Y-61707820D01*
X192830047Y-61707820D01*
X192830051Y-61707816D01*
X192926557Y-61518412D01*
X192992246Y-61316243D01*
X193025500Y-61106287D01*
X193025500Y-60893713D01*
X193020008Y-60859041D01*
X197349500Y-60859041D01*
X197349500Y-61140958D01*
X197386295Y-61420439D01*
X197459259Y-61692743D01*
X197567135Y-61953179D01*
X197567140Y-61953190D01*
X197705037Y-62192033D01*
X197708088Y-62197317D01*
X197858789Y-62393713D01*
X197879704Y-62420970D01*
X198079029Y-62620295D01*
X198079033Y-62620298D01*
X198079035Y-62620300D01*
X198302683Y-62791912D01*
X198302690Y-62791916D01*
X198546809Y-62932859D01*
X198546814Y-62932861D01*
X198546817Y-62932863D01*
X198807261Y-63040742D01*
X199079558Y-63113704D01*
X199359049Y-63150500D01*
X199359056Y-63150500D01*
X199640944Y-63150500D01*
X199640951Y-63150500D01*
X199920442Y-63113704D01*
X200192739Y-63040742D01*
X200453183Y-62932863D01*
X200697317Y-62791912D01*
X200920965Y-62620300D01*
X201120300Y-62420965D01*
X201291912Y-62197317D01*
X201432863Y-61953183D01*
X201540742Y-61692739D01*
X201613704Y-61420442D01*
X201650500Y-61140951D01*
X201650500Y-60893713D01*
X205649500Y-60893713D01*
X205649500Y-61106286D01*
X205679934Y-61298443D01*
X205682754Y-61316243D01*
X205732677Y-61469890D01*
X205748444Y-61518414D01*
X205844951Y-61707820D01*
X205969890Y-61879786D01*
X206120213Y-62030109D01*
X206292182Y-62155050D01*
X206300946Y-62159516D01*
X206351742Y-62207491D01*
X206368536Y-62275312D01*
X206345998Y-62341447D01*
X206300946Y-62380484D01*
X206292182Y-62384949D01*
X206120213Y-62509890D01*
X205969890Y-62660213D01*
X205844951Y-62832179D01*
X205748444Y-63021585D01*
X205682753Y-63223760D01*
X205649500Y-63433713D01*
X205649500Y-63646286D01*
X205682753Y-63856239D01*
X205748444Y-64058414D01*
X205844951Y-64247820D01*
X205969890Y-64419786D01*
X206120213Y-64570109D01*
X206292182Y-64695050D01*
X206300946Y-64699516D01*
X206351742Y-64747491D01*
X206368536Y-64815312D01*
X206345998Y-64881447D01*
X206300946Y-64920484D01*
X206292182Y-64924949D01*
X206120213Y-65049890D01*
X205969890Y-65200213D01*
X205844951Y-65372179D01*
X205748444Y-65561585D01*
X205682753Y-65763760D01*
X205649500Y-65973713D01*
X205649500Y-66186286D01*
X205682753Y-66396239D01*
X205748444Y-66598414D01*
X205844951Y-66787820D01*
X205969890Y-66959786D01*
X206120213Y-67110109D01*
X206292182Y-67235050D01*
X206300946Y-67239516D01*
X206351742Y-67287491D01*
X206368536Y-67355312D01*
X206345998Y-67421447D01*
X206300946Y-67460484D01*
X206292182Y-67464949D01*
X206120213Y-67589890D01*
X205969890Y-67740213D01*
X205844951Y-67912179D01*
X205748444Y-68101585D01*
X205682753Y-68303760D01*
X205649500Y-68513713D01*
X205649500Y-68726286D01*
X205682753Y-68936239D01*
X205748444Y-69138414D01*
X205844951Y-69327820D01*
X205969890Y-69499786D01*
X206120213Y-69650109D01*
X206292182Y-69775050D01*
X206300946Y-69779516D01*
X206351742Y-69827491D01*
X206368536Y-69895312D01*
X206345998Y-69961447D01*
X206300946Y-70000484D01*
X206292182Y-70004949D01*
X206120213Y-70129890D01*
X205969890Y-70280213D01*
X205844951Y-70452179D01*
X205748444Y-70641585D01*
X205682753Y-70843760D01*
X205649500Y-71053713D01*
X205649500Y-71266286D01*
X205682753Y-71476239D01*
X205748444Y-71678414D01*
X205844951Y-71867820D01*
X205969890Y-72039786D01*
X206120213Y-72190109D01*
X206292182Y-72315050D01*
X206300946Y-72319516D01*
X206351742Y-72367491D01*
X206368536Y-72435312D01*
X206345998Y-72501447D01*
X206300946Y-72540484D01*
X206292182Y-72544949D01*
X206120213Y-72669890D01*
X205969890Y-72820213D01*
X205844951Y-72992179D01*
X205748444Y-73181585D01*
X205682753Y-73383760D01*
X205649500Y-73593713D01*
X205649500Y-73806286D01*
X205682753Y-74016239D01*
X205748444Y-74218414D01*
X205844951Y-74407820D01*
X205969890Y-74579786D01*
X206120213Y-74730109D01*
X206292182Y-74855050D01*
X206300946Y-74859516D01*
X206351742Y-74907491D01*
X206368536Y-74975312D01*
X206345998Y-75041447D01*
X206300946Y-75080484D01*
X206292182Y-75084949D01*
X206120213Y-75209890D01*
X205969890Y-75360213D01*
X205844951Y-75532179D01*
X205748444Y-75721585D01*
X205682753Y-75923760D01*
X205649500Y-76133713D01*
X205649500Y-76346287D01*
X205682754Y-76556243D01*
X205719785Y-76670213D01*
X205748444Y-76758414D01*
X205844951Y-76947820D01*
X205969890Y-77119786D01*
X206120213Y-77270109D01*
X206292179Y-77395048D01*
X206292181Y-77395049D01*
X206292184Y-77395051D01*
X206481588Y-77491557D01*
X206683757Y-77557246D01*
X206893713Y-77590500D01*
X206893714Y-77590500D01*
X207106286Y-77590500D01*
X207106287Y-77590500D01*
X207316243Y-77557246D01*
X207518412Y-77491557D01*
X207707816Y-77395051D01*
X207709658Y-77393713D01*
X212389500Y-77393713D01*
X212389500Y-77606286D01*
X212422753Y-77816239D01*
X212488444Y-78018414D01*
X212584951Y-78207820D01*
X212709890Y-78379786D01*
X212860213Y-78530109D01*
X213032179Y-78655048D01*
X213032181Y-78655049D01*
X213032184Y-78655051D01*
X213221588Y-78751557D01*
X213423757Y-78817246D01*
X213633713Y-78850500D01*
X213633714Y-78850500D01*
X213846286Y-78850500D01*
X213846287Y-78850500D01*
X214056243Y-78817246D01*
X214258412Y-78751557D01*
X214447816Y-78655051D01*
X214550966Y-78580109D01*
X214619786Y-78530109D01*
X214619788Y-78530106D01*
X214619792Y-78530104D01*
X214770104Y-78379792D01*
X214770106Y-78379788D01*
X214770109Y-78379786D01*
X214895048Y-78207820D01*
X214895047Y-78207820D01*
X214895051Y-78207816D01*
X214899514Y-78199054D01*
X214947488Y-78148259D01*
X215015308Y-78131463D01*
X215081444Y-78153999D01*
X215120486Y-78199056D01*
X215124951Y-78207820D01*
X215249890Y-78379786D01*
X215400213Y-78530109D01*
X215572179Y-78655048D01*
X215572181Y-78655049D01*
X215572184Y-78655051D01*
X215761588Y-78751557D01*
X215963757Y-78817246D01*
X216173713Y-78850500D01*
X216173714Y-78850500D01*
X216386286Y-78850500D01*
X216386287Y-78850500D01*
X216596243Y-78817246D01*
X216798412Y-78751557D01*
X216987816Y-78655051D01*
X217090966Y-78580109D01*
X217159786Y-78530109D01*
X217159788Y-78530106D01*
X217159792Y-78530104D01*
X217310104Y-78379792D01*
X217310106Y-78379788D01*
X217310109Y-78379786D01*
X217435048Y-78207820D01*
X217435047Y-78207820D01*
X217435051Y-78207816D01*
X217439514Y-78199054D01*
X217487488Y-78148259D01*
X217555308Y-78131463D01*
X217621444Y-78153999D01*
X217660486Y-78199056D01*
X217664951Y-78207820D01*
X217789890Y-78379786D01*
X217940213Y-78530109D01*
X218112179Y-78655048D01*
X218112181Y-78655049D01*
X218112184Y-78655051D01*
X218301588Y-78751557D01*
X218503757Y-78817246D01*
X218713713Y-78850500D01*
X218713714Y-78850500D01*
X218926286Y-78850500D01*
X218926287Y-78850500D01*
X219136243Y-78817246D01*
X219338412Y-78751557D01*
X219527816Y-78655051D01*
X219630966Y-78580109D01*
X219699786Y-78530109D01*
X219699788Y-78530106D01*
X219699792Y-78530104D01*
X219850104Y-78379792D01*
X219850106Y-78379788D01*
X219850109Y-78379786D01*
X219975048Y-78207820D01*
X219975047Y-78207820D01*
X219975051Y-78207816D01*
X219979514Y-78199054D01*
X220027488Y-78148259D01*
X220095308Y-78131463D01*
X220161444Y-78153999D01*
X220200486Y-78199056D01*
X220204951Y-78207820D01*
X220329890Y-78379786D01*
X220480213Y-78530109D01*
X220652179Y-78655048D01*
X220652181Y-78655049D01*
X220652184Y-78655051D01*
X220841588Y-78751557D01*
X221043757Y-78817246D01*
X221253713Y-78850500D01*
X221253714Y-78850500D01*
X221466286Y-78850500D01*
X221466287Y-78850500D01*
X221676243Y-78817246D01*
X221878412Y-78751557D01*
X222067816Y-78655051D01*
X222170966Y-78580109D01*
X222239786Y-78530109D01*
X222239788Y-78530106D01*
X222239792Y-78530104D01*
X222390104Y-78379792D01*
X222390106Y-78379788D01*
X222390109Y-78379786D01*
X222515048Y-78207820D01*
X222515047Y-78207820D01*
X222515051Y-78207816D01*
X222519514Y-78199054D01*
X222567488Y-78148259D01*
X222635308Y-78131463D01*
X222701444Y-78153999D01*
X222740486Y-78199056D01*
X222744951Y-78207820D01*
X222869890Y-78379786D01*
X223020213Y-78530109D01*
X223192179Y-78655048D01*
X223192181Y-78655049D01*
X223192184Y-78655051D01*
X223381588Y-78751557D01*
X223583757Y-78817246D01*
X223793713Y-78850500D01*
X223793714Y-78850500D01*
X224006286Y-78850500D01*
X224006287Y-78850500D01*
X224216243Y-78817246D01*
X224418412Y-78751557D01*
X224607816Y-78655051D01*
X224710966Y-78580109D01*
X224779786Y-78530109D01*
X224779788Y-78530106D01*
X224779792Y-78530104D01*
X224930104Y-78379792D01*
X224930106Y-78379788D01*
X224930109Y-78379786D01*
X225055048Y-78207820D01*
X225055047Y-78207820D01*
X225055051Y-78207816D01*
X225059514Y-78199054D01*
X225107488Y-78148259D01*
X225175308Y-78131463D01*
X225241444Y-78153999D01*
X225280486Y-78199056D01*
X225284951Y-78207820D01*
X225409890Y-78379786D01*
X225560213Y-78530109D01*
X225732179Y-78655048D01*
X225732181Y-78655049D01*
X225732184Y-78655051D01*
X225921588Y-78751557D01*
X226123757Y-78817246D01*
X226333713Y-78850500D01*
X226333714Y-78850500D01*
X226546286Y-78850500D01*
X226546287Y-78850500D01*
X226756243Y-78817246D01*
X226958412Y-78751557D01*
X227147816Y-78655051D01*
X227250966Y-78580109D01*
X227319786Y-78530109D01*
X227319788Y-78530106D01*
X227319792Y-78530104D01*
X227470104Y-78379792D01*
X227470106Y-78379788D01*
X227470109Y-78379786D01*
X227595048Y-78207820D01*
X227595047Y-78207820D01*
X227595051Y-78207816D01*
X227691557Y-78018412D01*
X227757246Y-77816243D01*
X227790500Y-77606287D01*
X227790500Y-77393713D01*
X227757246Y-77183757D01*
X227691557Y-76981588D01*
X227595051Y-76792184D01*
X227595049Y-76792181D01*
X227595048Y-76792179D01*
X227470109Y-76620213D01*
X227319786Y-76469890D01*
X227147820Y-76344951D01*
X226958414Y-76248444D01*
X226958413Y-76248443D01*
X226958412Y-76248443D01*
X226756243Y-76182754D01*
X226756241Y-76182753D01*
X226756240Y-76182753D01*
X226594957Y-76157208D01*
X226546287Y-76149500D01*
X226333713Y-76149500D01*
X226285042Y-76157208D01*
X226123760Y-76182753D01*
X225921585Y-76248444D01*
X225732179Y-76344951D01*
X225560213Y-76469890D01*
X225409890Y-76620213D01*
X225284949Y-76792182D01*
X225280484Y-76800946D01*
X225232509Y-76851742D01*
X225164688Y-76868536D01*
X225098553Y-76845998D01*
X225059516Y-76800946D01*
X225055050Y-76792182D01*
X224930109Y-76620213D01*
X224779786Y-76469890D01*
X224607820Y-76344951D01*
X224418414Y-76248444D01*
X224418413Y-76248443D01*
X224418412Y-76248443D01*
X224216243Y-76182754D01*
X224216241Y-76182753D01*
X224216240Y-76182753D01*
X224054957Y-76157208D01*
X224006287Y-76149500D01*
X223793713Y-76149500D01*
X223745042Y-76157208D01*
X223583760Y-76182753D01*
X223381585Y-76248444D01*
X223192179Y-76344951D01*
X223020213Y-76469890D01*
X222869890Y-76620213D01*
X222744949Y-76792182D01*
X222740484Y-76800946D01*
X222692509Y-76851742D01*
X222624688Y-76868536D01*
X222558553Y-76845998D01*
X222519516Y-76800946D01*
X222515050Y-76792182D01*
X222390109Y-76620213D01*
X222239786Y-76469890D01*
X222067820Y-76344951D01*
X221878414Y-76248444D01*
X221878413Y-76248443D01*
X221878412Y-76248443D01*
X221676243Y-76182754D01*
X221676241Y-76182753D01*
X221676240Y-76182753D01*
X221514957Y-76157208D01*
X221466287Y-76149500D01*
X221253713Y-76149500D01*
X221205042Y-76157208D01*
X221043760Y-76182753D01*
X220841585Y-76248444D01*
X220652179Y-76344951D01*
X220480213Y-76469890D01*
X220329890Y-76620213D01*
X220204949Y-76792182D01*
X220200484Y-76800946D01*
X220152509Y-76851742D01*
X220084688Y-76868536D01*
X220018553Y-76845998D01*
X219979516Y-76800946D01*
X219975050Y-76792182D01*
X219850109Y-76620213D01*
X219699786Y-76469890D01*
X219527820Y-76344951D01*
X219338414Y-76248444D01*
X219338413Y-76248443D01*
X219338412Y-76248443D01*
X219136243Y-76182754D01*
X219136241Y-76182753D01*
X219136240Y-76182753D01*
X218974957Y-76157208D01*
X218926287Y-76149500D01*
X218713713Y-76149500D01*
X218665042Y-76157208D01*
X218503760Y-76182753D01*
X218301585Y-76248444D01*
X218112179Y-76344951D01*
X217940213Y-76469890D01*
X217789890Y-76620213D01*
X217664949Y-76792182D01*
X217660484Y-76800946D01*
X217612509Y-76851742D01*
X217544688Y-76868536D01*
X217478553Y-76845998D01*
X217439516Y-76800946D01*
X217435050Y-76792182D01*
X217310109Y-76620213D01*
X217159786Y-76469890D01*
X216987820Y-76344951D01*
X216798414Y-76248444D01*
X216798413Y-76248443D01*
X216798412Y-76248443D01*
X216596243Y-76182754D01*
X216596241Y-76182753D01*
X216596240Y-76182753D01*
X216434957Y-76157208D01*
X216386287Y-76149500D01*
X216173713Y-76149500D01*
X216125042Y-76157208D01*
X215963760Y-76182753D01*
X215761585Y-76248444D01*
X215572179Y-76344951D01*
X215400213Y-76469890D01*
X215249890Y-76620213D01*
X215124949Y-76792182D01*
X215120484Y-76800946D01*
X215072509Y-76851742D01*
X215004688Y-76868536D01*
X214938553Y-76845998D01*
X214899516Y-76800946D01*
X214895050Y-76792182D01*
X214770109Y-76620213D01*
X214619786Y-76469890D01*
X214447820Y-76344951D01*
X214258414Y-76248444D01*
X214258413Y-76248443D01*
X214258412Y-76248443D01*
X214056243Y-76182754D01*
X214056241Y-76182753D01*
X214056240Y-76182753D01*
X213894957Y-76157208D01*
X213846287Y-76149500D01*
X213633713Y-76149500D01*
X213585042Y-76157208D01*
X213423760Y-76182753D01*
X213221585Y-76248444D01*
X213032179Y-76344951D01*
X212860213Y-76469890D01*
X212709890Y-76620213D01*
X212584951Y-76792179D01*
X212488444Y-76981585D01*
X212422753Y-77183760D01*
X212389500Y-77393713D01*
X207709658Y-77393713D01*
X207879792Y-77270104D01*
X208030104Y-77119792D01*
X208030106Y-77119788D01*
X208030109Y-77119786D01*
X208155048Y-76947820D01*
X208155047Y-76947820D01*
X208155051Y-76947816D01*
X208251557Y-76758412D01*
X208317246Y-76556243D01*
X208350500Y-76346287D01*
X208350500Y-76133713D01*
X208317246Y-75923757D01*
X208251557Y-75721588D01*
X208155051Y-75532184D01*
X208155049Y-75532181D01*
X208155048Y-75532179D01*
X208030109Y-75360213D01*
X207879786Y-75209890D01*
X207707820Y-75084951D01*
X207707115Y-75084591D01*
X207699054Y-75080485D01*
X207648259Y-75032512D01*
X207631463Y-74964692D01*
X207653999Y-74898556D01*
X207699054Y-74859515D01*
X207707816Y-74855051D01*
X207729789Y-74839086D01*
X207879786Y-74730109D01*
X207879788Y-74730106D01*
X207879792Y-74730104D01*
X208030104Y-74579792D01*
X208030106Y-74579788D01*
X208030109Y-74579786D01*
X208155048Y-74407820D01*
X208155047Y-74407820D01*
X208155051Y-74407816D01*
X208251557Y-74218412D01*
X208317246Y-74016243D01*
X208350500Y-73806287D01*
X208350500Y-73593713D01*
X208317246Y-73383757D01*
X208251557Y-73181588D01*
X208155051Y-72992184D01*
X208155049Y-72992181D01*
X208155048Y-72992179D01*
X208030109Y-72820213D01*
X207879786Y-72669890D01*
X207707820Y-72544951D01*
X207707115Y-72544591D01*
X207699054Y-72540485D01*
X207648259Y-72492512D01*
X207631463Y-72424692D01*
X207653999Y-72358556D01*
X207699054Y-72319515D01*
X207707816Y-72315051D01*
X207729789Y-72299086D01*
X207879786Y-72190109D01*
X207879788Y-72190106D01*
X207879792Y-72190104D01*
X208030104Y-72039792D01*
X208030106Y-72039788D01*
X208030109Y-72039786D01*
X208155048Y-71867820D01*
X208155047Y-71867820D01*
X208155051Y-71867816D01*
X208251557Y-71678412D01*
X208317246Y-71476243D01*
X208350500Y-71266287D01*
X208350500Y-71053713D01*
X208317246Y-70843757D01*
X208251557Y-70641588D01*
X208155051Y-70452184D01*
X208155049Y-70452181D01*
X208155048Y-70452179D01*
X208030109Y-70280213D01*
X207879786Y-70129890D01*
X207707820Y-70004951D01*
X207707115Y-70004591D01*
X207699054Y-70000485D01*
X207691614Y-69993458D01*
X207690585Y-69993156D01*
X207689195Y-69991551D01*
X207678228Y-69987100D01*
X207664978Y-69968302D01*
X207648259Y-69952512D01*
X207645414Y-69941026D01*
X207644830Y-69940352D01*
X207644715Y-69939553D01*
X207637975Y-69929991D01*
X207636991Y-69907015D01*
X207633697Y-69893713D01*
X212349500Y-69893713D01*
X212349500Y-70106286D01*
X212377046Y-70280208D01*
X212382754Y-70316243D01*
X212426922Y-70452179D01*
X212448444Y-70518414D01*
X212544951Y-70707820D01*
X212669890Y-70879786D01*
X212820213Y-71030109D01*
X212992179Y-71155048D01*
X212992181Y-71155049D01*
X212992184Y-71155051D01*
X213181588Y-71251557D01*
X213383757Y-71317246D01*
X213593713Y-71350500D01*
X213593714Y-71350500D01*
X213806286Y-71350500D01*
X213806287Y-71350500D01*
X214016243Y-71317246D01*
X214218412Y-71251557D01*
X214407816Y-71155051D01*
X214510966Y-71080109D01*
X214579786Y-71030109D01*
X214579788Y-71030106D01*
X214579792Y-71030104D01*
X214730104Y-70879792D01*
X214730106Y-70879788D01*
X214730109Y-70879786D01*
X214855048Y-70707820D01*
X214855047Y-70707820D01*
X214855051Y-70707816D01*
X214859514Y-70699054D01*
X214907488Y-70648259D01*
X214975308Y-70631463D01*
X215041444Y-70653999D01*
X215080486Y-70699056D01*
X215084951Y-70707820D01*
X215209890Y-70879786D01*
X215360213Y-71030109D01*
X215532179Y-71155048D01*
X215532181Y-71155049D01*
X215532184Y-71155051D01*
X215721588Y-71251557D01*
X215923757Y-71317246D01*
X216133713Y-71350500D01*
X216133714Y-71350500D01*
X216346286Y-71350500D01*
X216346287Y-71350500D01*
X216556243Y-71317246D01*
X216758412Y-71251557D01*
X216947816Y-71155051D01*
X217050966Y-71080109D01*
X217119786Y-71030109D01*
X217119788Y-71030106D01*
X217119792Y-71030104D01*
X217270104Y-70879792D01*
X217270106Y-70879788D01*
X217270109Y-70879786D01*
X217395048Y-70707820D01*
X217395047Y-70707820D01*
X217395051Y-70707816D01*
X217399514Y-70699054D01*
X217447488Y-70648259D01*
X217515308Y-70631463D01*
X217581444Y-70653999D01*
X217620486Y-70699056D01*
X217624951Y-70707820D01*
X217749890Y-70879786D01*
X217900213Y-71030109D01*
X218072179Y-71155048D01*
X218072181Y-71155049D01*
X218072184Y-71155051D01*
X218261588Y-71251557D01*
X218463757Y-71317246D01*
X218673713Y-71350500D01*
X218673714Y-71350500D01*
X218886286Y-71350500D01*
X218886287Y-71350500D01*
X219096243Y-71317246D01*
X219298412Y-71251557D01*
X219487816Y-71155051D01*
X219590966Y-71080109D01*
X219659786Y-71030109D01*
X219659788Y-71030106D01*
X219659792Y-71030104D01*
X219810104Y-70879792D01*
X219810106Y-70879788D01*
X219810109Y-70879786D01*
X219935048Y-70707820D01*
X219935047Y-70707820D01*
X219935051Y-70707816D01*
X219939514Y-70699054D01*
X219987488Y-70648259D01*
X220055308Y-70631463D01*
X220121444Y-70653999D01*
X220160486Y-70699056D01*
X220164951Y-70707820D01*
X220289890Y-70879786D01*
X220440213Y-71030109D01*
X220612179Y-71155048D01*
X220612181Y-71155049D01*
X220612184Y-71155051D01*
X220801588Y-71251557D01*
X221003757Y-71317246D01*
X221213713Y-71350500D01*
X221213714Y-71350500D01*
X221426286Y-71350500D01*
X221426287Y-71350500D01*
X221636243Y-71317246D01*
X221838412Y-71251557D01*
X222027816Y-71155051D01*
X222130966Y-71080109D01*
X222199786Y-71030109D01*
X222199788Y-71030106D01*
X222199792Y-71030104D01*
X222350104Y-70879792D01*
X222350106Y-70879788D01*
X222350109Y-70879786D01*
X222475048Y-70707820D01*
X222475047Y-70707820D01*
X222475051Y-70707816D01*
X222479514Y-70699054D01*
X222527488Y-70648259D01*
X222595308Y-70631463D01*
X222661444Y-70653999D01*
X222700486Y-70699056D01*
X222704951Y-70707820D01*
X222829890Y-70879786D01*
X222980213Y-71030109D01*
X223152179Y-71155048D01*
X223152181Y-71155049D01*
X223152184Y-71155051D01*
X223341588Y-71251557D01*
X223543757Y-71317246D01*
X223753713Y-71350500D01*
X223753714Y-71350500D01*
X223966286Y-71350500D01*
X223966287Y-71350500D01*
X224176243Y-71317246D01*
X224378412Y-71251557D01*
X224567816Y-71155051D01*
X224670966Y-71080109D01*
X224739786Y-71030109D01*
X224739788Y-71030106D01*
X224739792Y-71030104D01*
X224890104Y-70879792D01*
X224890106Y-70879788D01*
X224890109Y-70879786D01*
X225015048Y-70707820D01*
X225015047Y-70707820D01*
X225015051Y-70707816D01*
X225019514Y-70699054D01*
X225067488Y-70648259D01*
X225135308Y-70631463D01*
X225201444Y-70653999D01*
X225240486Y-70699056D01*
X225244951Y-70707820D01*
X225369890Y-70879786D01*
X225520213Y-71030109D01*
X225692179Y-71155048D01*
X225692181Y-71155049D01*
X225692184Y-71155051D01*
X225881588Y-71251557D01*
X226083757Y-71317246D01*
X226293713Y-71350500D01*
X226293714Y-71350500D01*
X226506286Y-71350500D01*
X226506287Y-71350500D01*
X226716243Y-71317246D01*
X226918412Y-71251557D01*
X227107816Y-71155051D01*
X227210966Y-71080109D01*
X227279786Y-71030109D01*
X227279788Y-71030106D01*
X227279792Y-71030104D01*
X227430104Y-70879792D01*
X227430106Y-70879788D01*
X227430109Y-70879786D01*
X227555048Y-70707820D01*
X227555047Y-70707820D01*
X227555051Y-70707816D01*
X227651557Y-70518412D01*
X227717246Y-70316243D01*
X227750500Y-70106287D01*
X227750500Y-69893713D01*
X227717246Y-69683757D01*
X227651557Y-69481588D01*
X227555051Y-69292184D01*
X227555049Y-69292181D01*
X227555048Y-69292179D01*
X227430109Y-69120213D01*
X227279786Y-68969890D01*
X227107820Y-68844951D01*
X226918414Y-68748444D01*
X226918413Y-68748443D01*
X226918412Y-68748443D01*
X226716243Y-68682754D01*
X226716241Y-68682753D01*
X226716240Y-68682753D01*
X226554957Y-68657208D01*
X226506287Y-68649500D01*
X226293713Y-68649500D01*
X226245042Y-68657208D01*
X226083760Y-68682753D01*
X225881585Y-68748444D01*
X225692179Y-68844951D01*
X225520213Y-68969890D01*
X225369890Y-69120213D01*
X225244949Y-69292182D01*
X225240484Y-69300946D01*
X225192509Y-69351742D01*
X225124688Y-69368536D01*
X225058553Y-69345998D01*
X225019516Y-69300946D01*
X225015050Y-69292182D01*
X224890109Y-69120213D01*
X224739786Y-68969890D01*
X224567820Y-68844951D01*
X224378414Y-68748444D01*
X224378413Y-68748443D01*
X224378412Y-68748443D01*
X224176243Y-68682754D01*
X224176241Y-68682753D01*
X224176240Y-68682753D01*
X224014957Y-68657208D01*
X223966287Y-68649500D01*
X223753713Y-68649500D01*
X223705042Y-68657208D01*
X223543760Y-68682753D01*
X223341585Y-68748444D01*
X223152179Y-68844951D01*
X222980213Y-68969890D01*
X222829890Y-69120213D01*
X222704949Y-69292182D01*
X222700484Y-69300946D01*
X222652509Y-69351742D01*
X222584688Y-69368536D01*
X222518553Y-69345998D01*
X222479516Y-69300946D01*
X222475050Y-69292182D01*
X222350109Y-69120213D01*
X222199786Y-68969890D01*
X222027820Y-68844951D01*
X221838414Y-68748444D01*
X221838413Y-68748443D01*
X221838412Y-68748443D01*
X221636243Y-68682754D01*
X221636241Y-68682753D01*
X221636240Y-68682753D01*
X221474957Y-68657208D01*
X221426287Y-68649500D01*
X221213713Y-68649500D01*
X221165042Y-68657208D01*
X221003760Y-68682753D01*
X220801585Y-68748444D01*
X220612179Y-68844951D01*
X220440213Y-68969890D01*
X220289890Y-69120213D01*
X220164949Y-69292182D01*
X220160484Y-69300946D01*
X220112509Y-69351742D01*
X220044688Y-69368536D01*
X219978553Y-69345998D01*
X219939516Y-69300946D01*
X219935050Y-69292182D01*
X219810109Y-69120213D01*
X219659786Y-68969890D01*
X219487820Y-68844951D01*
X219298414Y-68748444D01*
X219298413Y-68748443D01*
X219298412Y-68748443D01*
X219096243Y-68682754D01*
X219096241Y-68682753D01*
X219096240Y-68682753D01*
X218934957Y-68657208D01*
X218886287Y-68649500D01*
X218673713Y-68649500D01*
X218625042Y-68657208D01*
X218463760Y-68682753D01*
X218261585Y-68748444D01*
X218072179Y-68844951D01*
X217900213Y-68969890D01*
X217749890Y-69120213D01*
X217624949Y-69292182D01*
X217620484Y-69300946D01*
X217572509Y-69351742D01*
X217504688Y-69368536D01*
X217438553Y-69345998D01*
X217399516Y-69300946D01*
X217395050Y-69292182D01*
X217270109Y-69120213D01*
X217119786Y-68969890D01*
X216947820Y-68844951D01*
X216758414Y-68748444D01*
X216758413Y-68748443D01*
X216758412Y-68748443D01*
X216556243Y-68682754D01*
X216556241Y-68682753D01*
X216556240Y-68682753D01*
X216394957Y-68657208D01*
X216346287Y-68649500D01*
X216133713Y-68649500D01*
X216085042Y-68657208D01*
X215923760Y-68682753D01*
X215721585Y-68748444D01*
X215532179Y-68844951D01*
X215360213Y-68969890D01*
X215209890Y-69120213D01*
X215084949Y-69292182D01*
X215080484Y-69300946D01*
X215032509Y-69351742D01*
X214964688Y-69368536D01*
X214898553Y-69345998D01*
X214859516Y-69300946D01*
X214855050Y-69292182D01*
X214730109Y-69120213D01*
X214579786Y-68969890D01*
X214407820Y-68844951D01*
X214218414Y-68748444D01*
X214218413Y-68748443D01*
X214218412Y-68748443D01*
X214016243Y-68682754D01*
X214016241Y-68682753D01*
X214016240Y-68682753D01*
X213854957Y-68657208D01*
X213806287Y-68649500D01*
X213593713Y-68649500D01*
X213545042Y-68657208D01*
X213383760Y-68682753D01*
X213181585Y-68748444D01*
X212992179Y-68844951D01*
X212820213Y-68969890D01*
X212669890Y-69120213D01*
X212544951Y-69292179D01*
X212448444Y-69481585D01*
X212382753Y-69683760D01*
X212349500Y-69893713D01*
X207633697Y-69893713D01*
X207631463Y-69884692D01*
X207635235Y-69873622D01*
X207634886Y-69871194D01*
X207635409Y-69870048D01*
X207634987Y-69860185D01*
X207646580Y-69840325D01*
X207653999Y-69818556D01*
X207662150Y-69811493D01*
X207663911Y-69807638D01*
X207667138Y-69805112D01*
X207670213Y-69799846D01*
X207699061Y-69779512D01*
X207701336Y-69778353D01*
X207703693Y-69777151D01*
X207707816Y-69775051D01*
X207764653Y-69733757D01*
X207879786Y-69650109D01*
X207879788Y-69650106D01*
X207879792Y-69650104D01*
X208030104Y-69499792D01*
X208030106Y-69499788D01*
X208030109Y-69499786D01*
X208155048Y-69327820D01*
X208155047Y-69327820D01*
X208155051Y-69327816D01*
X208251557Y-69138412D01*
X208317246Y-68936243D01*
X208350500Y-68726287D01*
X208350500Y-68513713D01*
X208317246Y-68303757D01*
X208251557Y-68101588D01*
X208155051Y-67912184D01*
X208155049Y-67912181D01*
X208155048Y-67912179D01*
X208030109Y-67740213D01*
X207879786Y-67589890D01*
X207707820Y-67464951D01*
X207707115Y-67464591D01*
X207699054Y-67460485D01*
X207648259Y-67412512D01*
X207631463Y-67344692D01*
X207653999Y-67278556D01*
X207699054Y-67239515D01*
X207707816Y-67235051D01*
X207729789Y-67219086D01*
X207879786Y-67110109D01*
X207879788Y-67110106D01*
X207879792Y-67110104D01*
X208030104Y-66959792D01*
X208030106Y-66959788D01*
X208030109Y-66959786D01*
X208155048Y-66787820D01*
X208155047Y-66787820D01*
X208155051Y-66787816D01*
X208251557Y-66598412D01*
X208317246Y-66396243D01*
X208350500Y-66186287D01*
X208350500Y-65973713D01*
X208317246Y-65763757D01*
X208251557Y-65561588D01*
X208155051Y-65372184D01*
X208155049Y-65372181D01*
X208155048Y-65372179D01*
X208030109Y-65200213D01*
X207879786Y-65049890D01*
X207707820Y-64924951D01*
X207707115Y-64924591D01*
X207699054Y-64920485D01*
X207648259Y-64872512D01*
X207631463Y-64804692D01*
X207653999Y-64738556D01*
X207699054Y-64699515D01*
X207707816Y-64695051D01*
X207729789Y-64679086D01*
X207879786Y-64570109D01*
X207879788Y-64570106D01*
X207879792Y-64570104D01*
X208030104Y-64419792D01*
X208030106Y-64419788D01*
X208030109Y-64419786D01*
X208155048Y-64247820D01*
X208155047Y-64247820D01*
X208155051Y-64247816D01*
X208251557Y-64058412D01*
X208317246Y-63856243D01*
X208350500Y-63646287D01*
X208350500Y-63433713D01*
X208317246Y-63223757D01*
X208251557Y-63021588D01*
X208155051Y-62832184D01*
X208155049Y-62832181D01*
X208155048Y-62832179D01*
X208030109Y-62660213D01*
X207879792Y-62509896D01*
X207851976Y-62489686D01*
X207851947Y-62489666D01*
X207719879Y-62393713D01*
X212389500Y-62393713D01*
X212389500Y-62606287D01*
X212422754Y-62816243D01*
X212460646Y-62932863D01*
X212488444Y-63018414D01*
X212584951Y-63207820D01*
X212709890Y-63379786D01*
X212860213Y-63530109D01*
X213032179Y-63655048D01*
X213032181Y-63655049D01*
X213032184Y-63655051D01*
X213221588Y-63751557D01*
X213423757Y-63817246D01*
X213633713Y-63850500D01*
X213633714Y-63850500D01*
X213846286Y-63850500D01*
X213846287Y-63850500D01*
X214056243Y-63817246D01*
X214258412Y-63751557D01*
X214447816Y-63655051D01*
X214550966Y-63580109D01*
X214619786Y-63530109D01*
X214619788Y-63530106D01*
X214619792Y-63530104D01*
X214770104Y-63379792D01*
X214770106Y-63379788D01*
X214770109Y-63379786D01*
X214895048Y-63207820D01*
X214895047Y-63207820D01*
X214895051Y-63207816D01*
X214899514Y-63199054D01*
X214947488Y-63148259D01*
X215015308Y-63131463D01*
X215081444Y-63153999D01*
X215120486Y-63199056D01*
X215124951Y-63207820D01*
X215249890Y-63379786D01*
X215400213Y-63530109D01*
X215572179Y-63655048D01*
X215572181Y-63655049D01*
X215572184Y-63655051D01*
X215761588Y-63751557D01*
X215963757Y-63817246D01*
X216173713Y-63850500D01*
X216173714Y-63850500D01*
X216386286Y-63850500D01*
X216386287Y-63850500D01*
X216596243Y-63817246D01*
X216798412Y-63751557D01*
X216987816Y-63655051D01*
X217090966Y-63580109D01*
X217159786Y-63530109D01*
X217159788Y-63530106D01*
X217159792Y-63530104D01*
X217310104Y-63379792D01*
X217310106Y-63379788D01*
X217310109Y-63379786D01*
X217435048Y-63207820D01*
X217435047Y-63207820D01*
X217435051Y-63207816D01*
X217439514Y-63199054D01*
X217487488Y-63148259D01*
X217555308Y-63131463D01*
X217621444Y-63153999D01*
X217660486Y-63199056D01*
X217664951Y-63207820D01*
X217789890Y-63379786D01*
X217940213Y-63530109D01*
X218112179Y-63655048D01*
X218112181Y-63655049D01*
X218112184Y-63655051D01*
X218301588Y-63751557D01*
X218503757Y-63817246D01*
X218713713Y-63850500D01*
X218713714Y-63850500D01*
X218926286Y-63850500D01*
X218926287Y-63850500D01*
X219136243Y-63817246D01*
X219338412Y-63751557D01*
X219527816Y-63655051D01*
X219630966Y-63580109D01*
X219699786Y-63530109D01*
X219699788Y-63530106D01*
X219699792Y-63530104D01*
X219850104Y-63379792D01*
X219850106Y-63379788D01*
X219850109Y-63379786D01*
X219975048Y-63207820D01*
X219975047Y-63207820D01*
X219975051Y-63207816D01*
X219979514Y-63199054D01*
X220027488Y-63148259D01*
X220095308Y-63131463D01*
X220161444Y-63153999D01*
X220200486Y-63199056D01*
X220204951Y-63207820D01*
X220329890Y-63379786D01*
X220480213Y-63530109D01*
X220652179Y-63655048D01*
X220652181Y-63655049D01*
X220652184Y-63655051D01*
X220841588Y-63751557D01*
X221043757Y-63817246D01*
X221253713Y-63850500D01*
X221253714Y-63850500D01*
X221466286Y-63850500D01*
X221466287Y-63850500D01*
X221676243Y-63817246D01*
X221878412Y-63751557D01*
X222067816Y-63655051D01*
X222170966Y-63580109D01*
X222239786Y-63530109D01*
X222239788Y-63530106D01*
X222239792Y-63530104D01*
X222390104Y-63379792D01*
X222390106Y-63379788D01*
X222390109Y-63379786D01*
X222515048Y-63207820D01*
X222515047Y-63207820D01*
X222515051Y-63207816D01*
X222519514Y-63199054D01*
X222567488Y-63148259D01*
X222635308Y-63131463D01*
X222701444Y-63153999D01*
X222740486Y-63199056D01*
X222744951Y-63207820D01*
X222869890Y-63379786D01*
X223020213Y-63530109D01*
X223192179Y-63655048D01*
X223192181Y-63655049D01*
X223192184Y-63655051D01*
X223381588Y-63751557D01*
X223583757Y-63817246D01*
X223793713Y-63850500D01*
X223793714Y-63850500D01*
X224006286Y-63850500D01*
X224006287Y-63850500D01*
X224216243Y-63817246D01*
X224418412Y-63751557D01*
X224607816Y-63655051D01*
X224710966Y-63580109D01*
X224779786Y-63530109D01*
X224779788Y-63530106D01*
X224779792Y-63530104D01*
X224930104Y-63379792D01*
X224930106Y-63379788D01*
X224930109Y-63379786D01*
X225055048Y-63207820D01*
X225055047Y-63207820D01*
X225055051Y-63207816D01*
X225059514Y-63199054D01*
X225107488Y-63148259D01*
X225175308Y-63131463D01*
X225241444Y-63153999D01*
X225280486Y-63199056D01*
X225284951Y-63207820D01*
X225409890Y-63379786D01*
X225560213Y-63530109D01*
X225732179Y-63655048D01*
X225732181Y-63655049D01*
X225732184Y-63655051D01*
X225921588Y-63751557D01*
X226123757Y-63817246D01*
X226333713Y-63850500D01*
X226333714Y-63850500D01*
X226546286Y-63850500D01*
X226546287Y-63850500D01*
X226756243Y-63817246D01*
X226958412Y-63751557D01*
X227147816Y-63655051D01*
X227250966Y-63580109D01*
X227319786Y-63530109D01*
X227319788Y-63530106D01*
X227319792Y-63530104D01*
X227470104Y-63379792D01*
X227470106Y-63379788D01*
X227470109Y-63379786D01*
X227595048Y-63207820D01*
X227595047Y-63207820D01*
X227595051Y-63207816D01*
X227691557Y-63018412D01*
X227757246Y-62816243D01*
X227790500Y-62606287D01*
X227790500Y-62393713D01*
X227757246Y-62183757D01*
X227691557Y-61981588D01*
X227595051Y-61792184D01*
X227595049Y-61792181D01*
X227595048Y-61792179D01*
X227470109Y-61620213D01*
X227319786Y-61469890D01*
X227147820Y-61344951D01*
X226958414Y-61248444D01*
X226958413Y-61248443D01*
X226958412Y-61248443D01*
X226756243Y-61182754D01*
X226756241Y-61182753D01*
X226756240Y-61182753D01*
X226594957Y-61157208D01*
X226546287Y-61149500D01*
X226333713Y-61149500D01*
X226285042Y-61157208D01*
X226123760Y-61182753D01*
X225921585Y-61248444D01*
X225732179Y-61344951D01*
X225560213Y-61469890D01*
X225409890Y-61620213D01*
X225284949Y-61792182D01*
X225280484Y-61800946D01*
X225232509Y-61851742D01*
X225164688Y-61868536D01*
X225098553Y-61845998D01*
X225059516Y-61800946D01*
X225055050Y-61792182D01*
X224930109Y-61620213D01*
X224779786Y-61469890D01*
X224607820Y-61344951D01*
X224418414Y-61248444D01*
X224418413Y-61248443D01*
X224418412Y-61248443D01*
X224216243Y-61182754D01*
X224216241Y-61182753D01*
X224216240Y-61182753D01*
X224054957Y-61157208D01*
X224006287Y-61149500D01*
X223793713Y-61149500D01*
X223745042Y-61157208D01*
X223583760Y-61182753D01*
X223381585Y-61248444D01*
X223192179Y-61344951D01*
X223020213Y-61469890D01*
X222869890Y-61620213D01*
X222744949Y-61792182D01*
X222740484Y-61800946D01*
X222692509Y-61851742D01*
X222624688Y-61868536D01*
X222558553Y-61845998D01*
X222519516Y-61800946D01*
X222515050Y-61792182D01*
X222390109Y-61620213D01*
X222239786Y-61469890D01*
X222067820Y-61344951D01*
X221878414Y-61248444D01*
X221878413Y-61248443D01*
X221878412Y-61248443D01*
X221676243Y-61182754D01*
X221676241Y-61182753D01*
X221676240Y-61182753D01*
X221514957Y-61157208D01*
X221466287Y-61149500D01*
X221253713Y-61149500D01*
X221205042Y-61157208D01*
X221043760Y-61182753D01*
X220841585Y-61248444D01*
X220652179Y-61344951D01*
X220480213Y-61469890D01*
X220329890Y-61620213D01*
X220204949Y-61792182D01*
X220200484Y-61800946D01*
X220152509Y-61851742D01*
X220084688Y-61868536D01*
X220018553Y-61845998D01*
X219979516Y-61800946D01*
X219975050Y-61792182D01*
X219850109Y-61620213D01*
X219699786Y-61469890D01*
X219527820Y-61344951D01*
X219338414Y-61248444D01*
X219338413Y-61248443D01*
X219338412Y-61248443D01*
X219136243Y-61182754D01*
X219136241Y-61182753D01*
X219136240Y-61182753D01*
X218974957Y-61157208D01*
X218926287Y-61149500D01*
X218713713Y-61149500D01*
X218665042Y-61157208D01*
X218503760Y-61182753D01*
X218301585Y-61248444D01*
X218112179Y-61344951D01*
X217940213Y-61469890D01*
X217789890Y-61620213D01*
X217664949Y-61792182D01*
X217660484Y-61800946D01*
X217612509Y-61851742D01*
X217544688Y-61868536D01*
X217478553Y-61845998D01*
X217439516Y-61800946D01*
X217435050Y-61792182D01*
X217310109Y-61620213D01*
X217159786Y-61469890D01*
X216987820Y-61344951D01*
X216798414Y-61248444D01*
X216798413Y-61248443D01*
X216798412Y-61248443D01*
X216596243Y-61182754D01*
X216596241Y-61182753D01*
X216596240Y-61182753D01*
X216434957Y-61157208D01*
X216386287Y-61149500D01*
X216173713Y-61149500D01*
X216125042Y-61157208D01*
X215963760Y-61182753D01*
X215761585Y-61248444D01*
X215572179Y-61344951D01*
X215400213Y-61469890D01*
X215249890Y-61620213D01*
X215124949Y-61792182D01*
X215120484Y-61800946D01*
X215072509Y-61851742D01*
X215004688Y-61868536D01*
X214938553Y-61845998D01*
X214899516Y-61800946D01*
X214895050Y-61792182D01*
X214770109Y-61620213D01*
X214619786Y-61469890D01*
X214447820Y-61344951D01*
X214258414Y-61248444D01*
X214258413Y-61248443D01*
X214258412Y-61248443D01*
X214056243Y-61182754D01*
X214056241Y-61182753D01*
X214056240Y-61182753D01*
X213894957Y-61157208D01*
X213846287Y-61149500D01*
X213633713Y-61149500D01*
X213585042Y-61157208D01*
X213423760Y-61182753D01*
X213221585Y-61248444D01*
X213032179Y-61344951D01*
X212860213Y-61469890D01*
X212709890Y-61620213D01*
X212584951Y-61792179D01*
X212488444Y-61981585D01*
X212488443Y-61981587D01*
X212488443Y-61981588D01*
X212472198Y-62031585D01*
X212422753Y-62183760D01*
X212401698Y-62316700D01*
X212389500Y-62393713D01*
X207719879Y-62393713D01*
X207707816Y-62384949D01*
X207691182Y-62376473D01*
X207683962Y-62371390D01*
X207667495Y-62350679D01*
X207648259Y-62332512D01*
X207646091Y-62323758D01*
X207640479Y-62316700D01*
X207637823Y-62290373D01*
X207631463Y-62264692D01*
X207634371Y-62256157D01*
X207633466Y-62247183D01*
X207645465Y-62223600D01*
X207653999Y-62198556D01*
X207661526Y-62192033D01*
X207665151Y-62184910D01*
X207679273Y-62176655D01*
X207699054Y-62159515D01*
X207707816Y-62155051D01*
X207868444Y-62038349D01*
X207879786Y-62030109D01*
X207879788Y-62030106D01*
X207879792Y-62030104D01*
X208030104Y-61879792D01*
X208030106Y-61879788D01*
X208030109Y-61879786D01*
X208155048Y-61707820D01*
X208155047Y-61707820D01*
X208155051Y-61707816D01*
X208251557Y-61518412D01*
X208317246Y-61316243D01*
X208350500Y-61106287D01*
X208350500Y-60893713D01*
X208317246Y-60683757D01*
X208251557Y-60481588D01*
X208155051Y-60292184D01*
X208155049Y-60292181D01*
X208155048Y-60292179D01*
X208030109Y-60120213D01*
X207879786Y-59969890D01*
X207707820Y-59844951D01*
X207518414Y-59748444D01*
X207518413Y-59748443D01*
X207518412Y-59748443D01*
X207316243Y-59682754D01*
X207316241Y-59682753D01*
X207316240Y-59682753D01*
X207154957Y-59657208D01*
X207106287Y-59649500D01*
X206893713Y-59649500D01*
X206845042Y-59657208D01*
X206683760Y-59682753D01*
X206481585Y-59748444D01*
X206292179Y-59844951D01*
X206120213Y-59969890D01*
X205969890Y-60120213D01*
X205844951Y-60292179D01*
X205748444Y-60481585D01*
X205682753Y-60683760D01*
X205649500Y-60893713D01*
X201650500Y-60893713D01*
X201650500Y-60859049D01*
X201613704Y-60579558D01*
X201540742Y-60307261D01*
X201432863Y-60046817D01*
X201432861Y-60046814D01*
X201432859Y-60046809D01*
X201291916Y-59802690D01*
X201291912Y-59802683D01*
X201120300Y-59579035D01*
X201120298Y-59579033D01*
X201120295Y-59579029D01*
X200920970Y-59379704D01*
X200880208Y-59348426D01*
X200697317Y-59208088D01*
X200697311Y-59208084D01*
X200697309Y-59208083D01*
X200453190Y-59067140D01*
X200453179Y-59067135D01*
X200192743Y-58959259D01*
X199920439Y-58886295D01*
X199640958Y-58849500D01*
X199640951Y-58849500D01*
X199359049Y-58849500D01*
X199359041Y-58849500D01*
X199079560Y-58886295D01*
X198807256Y-58959259D01*
X198546820Y-59067135D01*
X198546809Y-59067140D01*
X198302690Y-59208083D01*
X198302682Y-59208089D01*
X198079029Y-59379704D01*
X197879704Y-59579029D01*
X197708089Y-59802682D01*
X197708083Y-59802690D01*
X197567140Y-60046809D01*
X197567135Y-60046820D01*
X197459259Y-60307256D01*
X197386295Y-60579560D01*
X197349500Y-60859041D01*
X193020008Y-60859041D01*
X192992246Y-60683757D01*
X192926557Y-60481588D01*
X192830051Y-60292184D01*
X192830049Y-60292181D01*
X192830048Y-60292179D01*
X192705109Y-60120213D01*
X192554786Y-59969890D01*
X192382820Y-59844951D01*
X192193414Y-59748444D01*
X192193413Y-59748443D01*
X192193412Y-59748443D01*
X191991243Y-59682754D01*
X191991241Y-59682753D01*
X191991240Y-59682753D01*
X191829957Y-59657208D01*
X191781287Y-59649500D01*
X191568713Y-59649500D01*
X191520042Y-59657208D01*
X191358760Y-59682753D01*
X191156585Y-59748444D01*
X190967179Y-59844951D01*
X190795213Y-59969890D01*
X190644890Y-60120213D01*
X190519951Y-60292179D01*
X190423444Y-60481585D01*
X190357753Y-60683760D01*
X190324500Y-60893713D01*
X168506929Y-60893713D01*
X168507677Y-60881354D01*
X168518271Y-60706205D01*
X168520076Y-60691340D01*
X168540561Y-60579560D01*
X168571780Y-60409197D01*
X168575364Y-60394663D01*
X168602600Y-60307261D01*
X168660696Y-60120822D01*
X168665998Y-60106841D01*
X168783731Y-59845249D01*
X168790676Y-59832016D01*
X168939080Y-59586526D01*
X168947567Y-59574230D01*
X169124480Y-59348417D01*
X169134395Y-59337226D01*
X169337226Y-59134395D01*
X169348417Y-59124480D01*
X169574230Y-58947567D01*
X169586526Y-58939080D01*
X169832016Y-58790676D01*
X169845249Y-58783731D01*
X170106841Y-58665998D01*
X170120822Y-58660696D01*
X170394668Y-58575362D01*
X170409197Y-58571780D01*
X170691344Y-58520075D01*
X170706201Y-58518271D01*
X170996264Y-58500726D01*
X171003751Y-58500500D01*
X171065892Y-58500500D01*
X227934108Y-58500500D01*
X227996249Y-58500500D01*
X228003736Y-58500726D01*
G37*
%TD.AperFunction*%
M02*
