M48
; DRILL file {KiCad 9.0.6-9.0.6~ubuntu22.04.1} date 2025-11-22T11:24:09-0500
; FORMAT={-:-/ absolute / metric / decimal}
; #@! TF.CreationDate,2025-11-22T11:24:09-05:00
; #@! TF.GenerationSoftware,Kicad,Pcbnew,9.0.6-9.0.6~ubuntu22.04.1
; #@! TF.FileFunction,Plated,1,2,PTH
FMAT,2
METRIC
; #@! TA.AperFunction,Plated,PTH,ComponentDrill
T1C1.000
; #@! TA.AperFunction,Plated,PTH,ComponentDrill
T2C3.100
%
G90
G05
T1
X172.3Y-62.55
X172.3Y-70.05
X172.3Y-77.55
X172.3Y-85.05
X174.84Y-62.55
X174.84Y-70.05
X174.84Y-77.55
X174.84Y-85.05
X177.38Y-62.55
X177.38Y-70.05
X177.38Y-77.55
X177.38Y-85.05
X179.92Y-62.55
X179.92Y-70.05
X179.92Y-77.55
X179.92Y-85.05
X182.46Y-62.55
X182.46Y-70.05
X182.46Y-77.55
X182.46Y-85.05
X185.0Y-62.55
X185.0Y-70.05
X185.0Y-77.55
X185.0Y-85.05
X191.675Y-61.0
X191.675Y-63.54
X191.675Y-66.08
X191.675Y-68.62
X191.675Y-71.16
X191.675Y-73.7
X191.675Y-76.24
X207.0Y-61.0
X207.0Y-63.54
X207.0Y-66.08
X207.0Y-68.62
X207.0Y-71.16
X207.0Y-73.7
X207.0Y-76.24
X213.7Y-70.0
X213.74Y-62.5
X213.74Y-77.5
X213.74Y-85.0
X216.24Y-70.0
X216.28Y-62.5
X216.28Y-77.5
X216.28Y-85.0
X218.78Y-70.0
X218.82Y-62.5
X218.82Y-77.5
X218.82Y-85.0
X221.32Y-70.0
X221.36Y-62.5
X221.36Y-77.5
X221.36Y-85.0
X223.86Y-70.0
X223.9Y-62.5
X223.9Y-77.5
X223.9Y-85.0
X226.4Y-70.0
X226.44Y-62.5
X226.44Y-77.5
X226.44Y-85.0
T2
X171.0Y-92.0
X199.5Y-61.0
X228.0Y-92.0
M30
