M48
; DRILL file {KiCad 9.0.5} date 2025-10-12T20:06:33-0400
; FORMAT={-:-/ absolute / metric / decimal}
; #@! TF.CreationDate,2025-10-12T20:06:33-04:00
; #@! TF.GenerationSoftware,Kicad,Pcbnew,9.0.5
; #@! TF.FileFunction,Plated,1,2,PTH
FMAT,2
METRIC
; #@! TA.AperFunction,Plated,PTH,ComponentDrill
T1C1.000
; #@! TA.AperFunction,Plated,PTH,ComponentDrill
T2C2.100
%
G90
G05
T1
X172.3Y-61.0
X172.3Y-68.5
X172.3Y-76.0
X172.3Y-83.5
X174.84Y-61.0
X174.84Y-68.5
X174.84Y-76.0
X174.84Y-83.5
X177.38Y-61.0
X177.38Y-68.5
X177.38Y-76.0
X177.38Y-83.5
X179.92Y-61.0
X179.92Y-68.5
X179.92Y-76.0
X179.92Y-83.5
X182.46Y-61.0
X182.46Y-68.5
X182.46Y-76.0
X182.46Y-83.5
X185.0Y-61.0
X185.0Y-68.5
X185.0Y-76.0
X185.0Y-83.5
X191.675Y-60.46
X191.675Y-63.0
X191.675Y-65.54
X191.675Y-68.08
X191.675Y-70.62
X191.675Y-73.16
X191.675Y-75.7
X207.0Y-60.46
X207.0Y-63.0
X207.0Y-65.54
X207.0Y-68.08
X207.0Y-70.62
X207.0Y-73.16
X207.0Y-75.7
X213.7Y-68.45
X213.74Y-60.95
X213.74Y-75.95
X213.74Y-83.45
X216.24Y-68.45
X216.28Y-60.95
X216.28Y-75.95
X216.28Y-83.45
X218.78Y-68.45
X218.82Y-60.95
X218.82Y-75.95
X218.82Y-83.45
X221.32Y-68.45
X221.36Y-60.95
X221.36Y-75.95
X221.36Y-83.45
X223.86Y-68.45
X223.9Y-60.95
X223.9Y-75.95
X223.9Y-83.45
X226.4Y-68.45
X226.44Y-60.95
X226.44Y-75.95
X226.44Y-83.45
T2
X171.0Y-92.0
X199.5Y-61.0
X228.0Y-92.0
M30
