%TF.GenerationSoftware,KiCad,Pcbnew,9.0.5*%
%TF.CreationDate,2025-10-13T02:02:17-04:00*%
%TF.ProjectId,operator-mk2,6f706572-6174-46f7-922d-6d6b322e6b69,rev?*%
%TF.SameCoordinates,Original*%
%TF.FileFunction,Copper,L1,Top*%
%TF.FilePolarity,Positive*%
%FSLAX46Y46*%
G04 Gerber Fmt 4.6, Leading zero omitted, Abs format (unit mm)*
G04 Created by KiCad (PCBNEW 9.0.5) date 2025-10-13 02:02:17*
%MOMM*%
%LPD*%
G01*
G04 APERTURE LIST*
%TA.AperFunction,ComponentPad*%
%ADD10R,1.700000X1.700000*%
%TD*%
%TA.AperFunction,ComponentPad*%
%ADD11C,1.700000*%
%TD*%
%TA.AperFunction,ComponentPad*%
%ADD12C,2.300000*%
%TD*%
%TA.AperFunction,ViaPad*%
%ADD13C,1.700000*%
%TD*%
%TA.AperFunction,Conductor*%
%ADD14C,0.400000*%
%TD*%
G04 APERTURE END LIST*
D10*
%TO.P,J4,1,Pin_1*%
%TO.N,3V*%
X153500000Y-90060000D03*
D11*
%TO.P,J4,2,Pin_2*%
%TO.N,GND*%
X153500000Y-92600000D03*
%TO.P,J4,3,Pin_3*%
%TO.N,unconnected-(J4-Pin_3-Pad3)*%
X153500000Y-95140000D03*
%TO.P,J4,4,Pin_4*%
%TO.N,unconnected-(J4-Pin_4-Pad4)*%
X153500000Y-97680000D03*
%TO.P,J4,5,Pin_5*%
%TO.N,DIN*%
X153500000Y-100220000D03*
%TO.P,J4,6,Pin_6*%
%TO.N,BCLK*%
X153500000Y-102760000D03*
%TO.P,J4,7,Pin_7*%
%TO.N,LRC*%
X153500000Y-105300000D03*
%TD*%
D12*
%TO.P,REF\u002A\u002A,*%
%TO.N,*%
X168000000Y-90000000D03*
%TD*%
D10*
%TO.P,J3,1,Pin_1*%
%TO.N,D9*%
X155040000Y-112000000D03*
D11*
%TO.P,J3,2,Pin_2*%
%TO.N,GND*%
X152500000Y-112000000D03*
%TO.P,J3,3,Pin_3*%
%TO.N,D8*%
X149960000Y-112000000D03*
%TO.P,J3,4,Pin_4*%
%TO.N,GND*%
X147420000Y-112000000D03*
%TD*%
D12*
%TO.P,REF\u002A\u002A,*%
%TO.N,*%
X110000000Y-112000000D03*
%TD*%
D10*
%TO.P,J5,1,Pin_1*%
%TO.N,BCLK*%
X128000000Y-90060000D03*
D11*
%TO.P,J5,2,Pin_2*%
%TO.N,DOUT*%
X128000000Y-92600000D03*
%TO.P,J5,3,Pin_3*%
%TO.N,LRC*%
X128000000Y-95140000D03*
%TO.P,J5,4,Pin_4*%
%TO.N,D3*%
X128000000Y-97680000D03*
%TO.P,J5,5,Pin_5*%
%TO.N,D4*%
X128000000Y-100220000D03*
%TO.P,J5,6,Pin_6*%
%TO.N,D5*%
X128000000Y-102760000D03*
%TO.P,J5,7,Pin_7*%
%TO.N,D6*%
X128000000Y-105300000D03*
%TD*%
D10*
%TO.P,J8,1,Pin_1*%
%TO.N,GND*%
X114720000Y-111950000D03*
D11*
%TO.P,J8,2,Pin_2*%
%TO.N,D3*%
X117260000Y-111950000D03*
%TO.P,J8,3,Pin_3*%
%TO.N,D4*%
X119800000Y-111950000D03*
%TO.P,J8,4,Pin_4*%
%TO.N,D5*%
X122340000Y-111950000D03*
%TD*%
D12*
%TO.P,REF\u002A\u002A,*%
%TO.N,*%
X168000000Y-112000000D03*
%TD*%
D10*
%TO.P,J6,1,Pin_1*%
%TO.N,unconnected-(J6-Pin_1-Pad1)*%
X143235000Y-90060000D03*
D11*
%TO.P,J6,2,Pin_2*%
%TO.N,GND*%
X143235000Y-92600000D03*
%TO.P,J6,3,Pin_3*%
%TO.N,3V*%
X143235000Y-95140000D03*
%TO.P,J6,4,Pin_4*%
%TO.N,DIN*%
X143235000Y-97680000D03*
%TO.P,J6,5,Pin_5*%
%TO.N,D9*%
X143235000Y-100220000D03*
%TO.P,J6,6,Pin_6*%
%TO.N,D8*%
X143235000Y-102760000D03*
%TO.P,J6,7,Pin_7*%
%TO.N,D7*%
X143235000Y-105300000D03*
%TD*%
D10*
%TO.P,J1,1,Pin_1*%
%TO.N,D7*%
X138320000Y-112000000D03*
D11*
%TO.P,J1,2,Pin_2*%
%TO.N,GND*%
X135780000Y-112000000D03*
%TO.P,J1,3,Pin_3*%
%TO.N,D6*%
X133240000Y-112000000D03*
%TD*%
D12*
%TO.P,REF\u002A\u002A,*%
%TO.N,*%
X110000000Y-90000000D03*
%TD*%
D10*
%TO.P,J2,1,Pin_1*%
%TO.N,3V*%
X118100000Y-90060000D03*
D11*
%TO.P,J2,2,Pin_2*%
%TO.N,GND*%
X118100000Y-92600000D03*
%TO.P,J2,3,Pin_3*%
%TO.N,BCLK*%
X118100000Y-95140000D03*
%TO.P,J2,4,Pin_4*%
%TO.N,DOUT*%
X118100000Y-97680000D03*
%TO.P,J2,5,Pin_5*%
%TO.N,LRC*%
X118100000Y-100220000D03*
%TO.P,J2,6,Pin_6*%
%TO.N,unconnected-(J2-Pin_6-Pad6)*%
X118100000Y-102760000D03*
%TD*%
D13*
%TO.N,BCLK*%
X131500000Y-90060000D03*
X157100000Y-102760000D03*
%TO.N,LRC*%
X157100000Y-105300000D03*
X131500000Y-95140000D03*
%TD*%
D14*
%TO.N,BCLK*%
X131500000Y-90060000D02*
X134000000Y-92560000D01*
X134000000Y-92560000D02*
X134000000Y-99000000D01*
X134000000Y-99000000D02*
X142500000Y-107500000D01*
X142500000Y-107500000D02*
X148760000Y-107500000D01*
X148760000Y-107500000D02*
X153500000Y-102760000D01*
%TO.N,GND*%
X135960000Y-112400000D02*
X135900000Y-112460000D01*
X152800000Y-112420000D02*
X152680000Y-112300000D01*
%TO.N,LRC*%
X141000000Y-109000000D02*
X154500000Y-109000000D01*
X157100000Y-106400000D02*
X157100000Y-105300000D01*
X154500000Y-109000000D02*
X157100000Y-106400000D01*
X131500000Y-95140000D02*
X131500000Y-99500000D01*
X131500000Y-99500000D02*
X141000000Y-109000000D01*
%TO.N,D7*%
X138500000Y-111940000D02*
X138500000Y-112400000D01*
%TO.N,D9*%
X154940000Y-112300000D02*
X155220000Y-112300000D01*
X155220000Y-111720000D02*
X155220000Y-112300000D01*
%TD*%
%TA.AperFunction,NonConductor*%
G36*
X168003736Y-87500726D02*
G01*
X168293796Y-87518271D01*
X168308659Y-87520076D01*
X168590798Y-87571780D01*
X168605335Y-87575363D01*
X168879172Y-87660695D01*
X168893163Y-87666000D01*
X169154743Y-87783727D01*
X169167989Y-87790680D01*
X169413465Y-87939075D01*
X169425776Y-87947573D01*
X169651573Y-88124473D01*
X169662781Y-88134403D01*
X169865596Y-88337218D01*
X169875526Y-88348426D01*
X169908207Y-88390140D01*
X169995481Y-88501538D01*
X170052422Y-88574217D01*
X170060926Y-88586537D01*
X170169540Y-88766206D01*
X170209316Y-88832004D01*
X170216274Y-88845262D01*
X170219511Y-88852454D01*
X170333997Y-89106831D01*
X170339306Y-89120832D01*
X170424635Y-89394663D01*
X170428219Y-89409201D01*
X170479923Y-89691340D01*
X170481728Y-89706205D01*
X170499274Y-89996263D01*
X170499500Y-90003750D01*
X170499500Y-111996249D01*
X170499274Y-112003736D01*
X170481728Y-112293794D01*
X170479923Y-112308659D01*
X170428219Y-112590798D01*
X170424635Y-112605336D01*
X170339306Y-112879167D01*
X170333997Y-112893168D01*
X170216275Y-113154736D01*
X170209316Y-113167995D01*
X170060928Y-113413459D01*
X170052422Y-113425782D01*
X169875526Y-113651573D01*
X169865596Y-113662781D01*
X169662781Y-113865596D01*
X169651573Y-113875526D01*
X169425782Y-114052422D01*
X169413459Y-114060928D01*
X169167995Y-114209316D01*
X169154736Y-114216275D01*
X168893168Y-114333997D01*
X168879167Y-114339306D01*
X168605336Y-114424635D01*
X168590798Y-114428219D01*
X168308659Y-114479923D01*
X168293794Y-114481728D01*
X168003736Y-114499274D01*
X167996249Y-114499500D01*
X110003751Y-114499500D01*
X109996264Y-114499274D01*
X109706205Y-114481728D01*
X109691340Y-114479923D01*
X109409201Y-114428219D01*
X109394663Y-114424635D01*
X109120832Y-114339306D01*
X109106831Y-114333997D01*
X108845263Y-114216275D01*
X108832004Y-114209316D01*
X108586540Y-114060928D01*
X108574217Y-114052422D01*
X108348426Y-113875526D01*
X108337218Y-113865596D01*
X108134403Y-113662781D01*
X108124473Y-113651573D01*
X108028897Y-113529579D01*
X107947573Y-113425776D01*
X107939075Y-113413465D01*
X107790680Y-113167989D01*
X107783727Y-113154743D01*
X107666000Y-112893163D01*
X107660693Y-112879167D01*
X107656767Y-112866569D01*
X107575363Y-112605335D01*
X107571780Y-112590798D01*
X107520076Y-112308659D01*
X107518271Y-112293794D01*
X107516604Y-112266243D01*
X107500726Y-112003736D01*
X107500500Y-111996249D01*
X107500500Y-111870097D01*
X108349500Y-111870097D01*
X108349500Y-112129902D01*
X108390140Y-112386493D01*
X108470422Y-112633576D01*
X108508250Y-112707816D01*
X108581501Y-112851578D01*
X108588368Y-112865054D01*
X108671957Y-112980104D01*
X108741069Y-113075229D01*
X108924771Y-113258931D01*
X109134949Y-113411634D01*
X109282445Y-113486787D01*
X109366423Y-113529577D01*
X109366425Y-113529577D01*
X109366428Y-113529579D01*
X109613507Y-113609860D01*
X109745706Y-113630797D01*
X109870098Y-113650500D01*
X109870103Y-113650500D01*
X110129902Y-113650500D01*
X110243298Y-113632539D01*
X110386493Y-113609860D01*
X110633572Y-113529579D01*
X110865051Y-113411634D01*
X111075229Y-113258931D01*
X111258931Y-113075229D01*
X111411634Y-112865051D01*
X111529579Y-112633572D01*
X111609860Y-112386493D01*
X111643837Y-112171969D01*
X111650500Y-112129902D01*
X111650500Y-111870097D01*
X111628947Y-111734021D01*
X111609860Y-111613507D01*
X111529579Y-111366428D01*
X111529577Y-111366425D01*
X111529577Y-111366423D01*
X111411633Y-111134948D01*
X111402002Y-111121692D01*
X111402001Y-111121690D01*
X111351466Y-111052135D01*
X113369500Y-111052135D01*
X113369500Y-112847870D01*
X113369501Y-112847876D01*
X113375908Y-112907483D01*
X113426202Y-113042328D01*
X113426206Y-113042335D01*
X113512452Y-113157544D01*
X113512455Y-113157547D01*
X113627664Y-113243793D01*
X113627671Y-113243797D01*
X113762517Y-113294091D01*
X113762516Y-113294091D01*
X113769444Y-113294835D01*
X113822127Y-113300500D01*
X115617872Y-113300499D01*
X115677483Y-113294091D01*
X115812331Y-113243796D01*
X115927546Y-113157546D01*
X116013796Y-113042331D01*
X116062810Y-112910916D01*
X116104681Y-112854984D01*
X116170145Y-112830566D01*
X116238418Y-112845417D01*
X116266673Y-112866569D01*
X116380213Y-112980109D01*
X116552179Y-113105048D01*
X116552181Y-113105049D01*
X116552184Y-113105051D01*
X116741588Y-113201557D01*
X116943757Y-113267246D01*
X117153713Y-113300500D01*
X117153714Y-113300500D01*
X117366286Y-113300500D01*
X117366287Y-113300500D01*
X117576243Y-113267246D01*
X117778412Y-113201557D01*
X117967816Y-113105051D01*
X118054138Y-113042335D01*
X118139786Y-112980109D01*
X118139788Y-112980106D01*
X118139792Y-112980104D01*
X118290104Y-112829792D01*
X118290106Y-112829788D01*
X118290109Y-112829786D01*
X118415048Y-112657820D01*
X118415047Y-112657820D01*
X118415051Y-112657816D01*
X118419514Y-112649054D01*
X118467488Y-112598259D01*
X118535308Y-112581463D01*
X118601444Y-112603999D01*
X118640486Y-112649056D01*
X118644951Y-112657820D01*
X118769890Y-112829786D01*
X118920213Y-112980109D01*
X119092179Y-113105048D01*
X119092181Y-113105049D01*
X119092184Y-113105051D01*
X119281588Y-113201557D01*
X119483757Y-113267246D01*
X119693713Y-113300500D01*
X119693714Y-113300500D01*
X119906286Y-113300500D01*
X119906287Y-113300500D01*
X120116243Y-113267246D01*
X120318412Y-113201557D01*
X120507816Y-113105051D01*
X120594138Y-113042335D01*
X120679786Y-112980109D01*
X120679788Y-112980106D01*
X120679792Y-112980104D01*
X120830104Y-112829792D01*
X120830106Y-112829788D01*
X120830109Y-112829786D01*
X120955048Y-112657820D01*
X120955047Y-112657820D01*
X120955051Y-112657816D01*
X120959514Y-112649054D01*
X121007488Y-112598259D01*
X121075308Y-112581463D01*
X121141444Y-112603999D01*
X121180486Y-112649056D01*
X121184951Y-112657820D01*
X121309890Y-112829786D01*
X121460213Y-112980109D01*
X121632179Y-113105048D01*
X121632181Y-113105049D01*
X121632184Y-113105051D01*
X121821588Y-113201557D01*
X122023757Y-113267246D01*
X122233713Y-113300500D01*
X122233714Y-113300500D01*
X122446286Y-113300500D01*
X122446287Y-113300500D01*
X122656243Y-113267246D01*
X122858412Y-113201557D01*
X123047816Y-113105051D01*
X123134138Y-113042335D01*
X123219786Y-112980109D01*
X123219788Y-112980106D01*
X123219792Y-112980104D01*
X123370104Y-112829792D01*
X123370106Y-112829788D01*
X123370109Y-112829786D01*
X123495048Y-112657820D01*
X123495047Y-112657820D01*
X123495051Y-112657816D01*
X123591557Y-112468412D01*
X123657246Y-112266243D01*
X123690500Y-112056287D01*
X123690500Y-111893713D01*
X131889500Y-111893713D01*
X131889500Y-112106287D01*
X131893240Y-112129902D01*
X131922753Y-112316239D01*
X131988444Y-112518414D01*
X132084951Y-112707820D01*
X132209890Y-112879786D01*
X132360213Y-113030109D01*
X132532179Y-113155048D01*
X132532181Y-113155049D01*
X132532184Y-113155051D01*
X132721588Y-113251557D01*
X132923757Y-113317246D01*
X133133713Y-113350500D01*
X133133714Y-113350500D01*
X133346286Y-113350500D01*
X133346287Y-113350500D01*
X133556243Y-113317246D01*
X133758412Y-113251557D01*
X133947816Y-113155051D01*
X134034138Y-113092335D01*
X134119786Y-113030109D01*
X134119788Y-113030106D01*
X134119792Y-113030104D01*
X134270104Y-112879792D01*
X134270106Y-112879788D01*
X134270109Y-112879786D01*
X134395048Y-112707820D01*
X134395047Y-112707820D01*
X134395051Y-112707816D01*
X134399514Y-112699054D01*
X134447488Y-112648259D01*
X134515308Y-112631463D01*
X134581444Y-112653999D01*
X134620486Y-112699056D01*
X134624951Y-112707820D01*
X134749890Y-112879786D01*
X134900213Y-113030109D01*
X135072179Y-113155048D01*
X135072181Y-113155049D01*
X135072184Y-113155051D01*
X135261588Y-113251557D01*
X135463757Y-113317246D01*
X135673713Y-113350500D01*
X135673714Y-113350500D01*
X135886286Y-113350500D01*
X135886287Y-113350500D01*
X136096243Y-113317246D01*
X136298412Y-113251557D01*
X136487816Y-113155051D01*
X136597688Y-113075225D01*
X136659784Y-113030110D01*
X136659784Y-113030109D01*
X136659792Y-113030104D01*
X136773329Y-112916566D01*
X136834648Y-112883084D01*
X136904340Y-112888068D01*
X136960274Y-112929939D01*
X136977189Y-112960917D01*
X137026202Y-113092328D01*
X137026206Y-113092335D01*
X137112452Y-113207544D01*
X137112455Y-113207547D01*
X137227664Y-113293793D01*
X137227671Y-113293797D01*
X137362517Y-113344091D01*
X137362516Y-113344091D01*
X137369444Y-113344835D01*
X137422127Y-113350500D01*
X139217872Y-113350499D01*
X139277483Y-113344091D01*
X139412331Y-113293796D01*
X139527546Y-113207546D01*
X139613796Y-113092331D01*
X139664091Y-112957483D01*
X139670500Y-112897873D01*
X139670499Y-111893713D01*
X146069500Y-111893713D01*
X146069500Y-112106287D01*
X146073240Y-112129902D01*
X146102753Y-112316239D01*
X146168444Y-112518414D01*
X146264951Y-112707820D01*
X146389890Y-112879786D01*
X146540213Y-113030109D01*
X146712179Y-113155048D01*
X146712181Y-113155049D01*
X146712184Y-113155051D01*
X146901588Y-113251557D01*
X147103757Y-113317246D01*
X147313713Y-113350500D01*
X147313714Y-113350500D01*
X147526286Y-113350500D01*
X147526287Y-113350500D01*
X147736243Y-113317246D01*
X147938412Y-113251557D01*
X148127816Y-113155051D01*
X148214138Y-113092335D01*
X148299786Y-113030109D01*
X148299788Y-113030106D01*
X148299792Y-113030104D01*
X148450104Y-112879792D01*
X148450106Y-112879788D01*
X148450109Y-112879786D01*
X148575048Y-112707820D01*
X148575047Y-112707820D01*
X148575051Y-112707816D01*
X148579514Y-112699054D01*
X148627488Y-112648259D01*
X148695308Y-112631463D01*
X148761444Y-112653999D01*
X148800486Y-112699056D01*
X148804951Y-112707820D01*
X148929890Y-112879786D01*
X149080213Y-113030109D01*
X149252179Y-113155048D01*
X149252181Y-113155049D01*
X149252184Y-113155051D01*
X149441588Y-113251557D01*
X149643757Y-113317246D01*
X149853713Y-113350500D01*
X149853714Y-113350500D01*
X150066286Y-113350500D01*
X150066287Y-113350500D01*
X150276243Y-113317246D01*
X150478412Y-113251557D01*
X150667816Y-113155051D01*
X150754138Y-113092335D01*
X150839786Y-113030109D01*
X150839788Y-113030106D01*
X150839792Y-113030104D01*
X150990104Y-112879792D01*
X150990106Y-112879788D01*
X150990109Y-112879786D01*
X151115048Y-112707820D01*
X151115047Y-112707820D01*
X151115051Y-112707816D01*
X151119514Y-112699054D01*
X151167488Y-112648259D01*
X151235308Y-112631463D01*
X151301444Y-112653999D01*
X151340486Y-112699056D01*
X151344951Y-112707820D01*
X151469890Y-112879786D01*
X151620213Y-113030109D01*
X151792179Y-113155048D01*
X151792181Y-113155049D01*
X151792184Y-113155051D01*
X151981588Y-113251557D01*
X152183757Y-113317246D01*
X152393713Y-113350500D01*
X152393714Y-113350500D01*
X152606286Y-113350500D01*
X152606287Y-113350500D01*
X152816243Y-113317246D01*
X153018412Y-113251557D01*
X153207816Y-113155051D01*
X153317688Y-113075225D01*
X153379784Y-113030110D01*
X153379784Y-113030109D01*
X153379792Y-113030104D01*
X153493329Y-112916566D01*
X153554648Y-112883084D01*
X153624340Y-112888068D01*
X153680274Y-112929939D01*
X153697189Y-112960917D01*
X153746202Y-113092328D01*
X153746206Y-113092335D01*
X153832452Y-113207544D01*
X153832455Y-113207547D01*
X153947664Y-113293793D01*
X153947671Y-113293797D01*
X154082517Y-113344091D01*
X154082516Y-113344091D01*
X154089444Y-113344835D01*
X154142127Y-113350500D01*
X155937872Y-113350499D01*
X155997483Y-113344091D01*
X156132331Y-113293796D01*
X156247546Y-113207546D01*
X156333796Y-113092331D01*
X156384091Y-112957483D01*
X156390500Y-112897873D01*
X156390499Y-111870097D01*
X166349500Y-111870097D01*
X166349500Y-112129902D01*
X166390140Y-112386493D01*
X166470422Y-112633576D01*
X166508250Y-112707816D01*
X166581501Y-112851578D01*
X166588368Y-112865054D01*
X166671957Y-112980104D01*
X166741069Y-113075229D01*
X166924771Y-113258931D01*
X167134949Y-113411634D01*
X167282445Y-113486787D01*
X167366423Y-113529577D01*
X167366425Y-113529577D01*
X167366428Y-113529579D01*
X167613507Y-113609860D01*
X167745706Y-113630797D01*
X167870098Y-113650500D01*
X167870103Y-113650500D01*
X168129902Y-113650500D01*
X168243298Y-113632539D01*
X168386493Y-113609860D01*
X168633572Y-113529579D01*
X168865051Y-113411634D01*
X169075229Y-113258931D01*
X169258931Y-113075229D01*
X169411634Y-112865051D01*
X169529579Y-112633572D01*
X169609860Y-112386493D01*
X169643837Y-112171969D01*
X169650500Y-112129902D01*
X169650500Y-111870097D01*
X169628947Y-111734021D01*
X169609860Y-111613507D01*
X169529579Y-111366428D01*
X169529577Y-111366425D01*
X169529577Y-111366423D01*
X169486787Y-111282445D01*
X169411634Y-111134949D01*
X169258931Y-110924771D01*
X169075229Y-110741069D01*
X169027244Y-110706206D01*
X168865054Y-110588368D01*
X168865053Y-110588367D01*
X168865051Y-110588366D01*
X168792764Y-110551534D01*
X168633576Y-110470422D01*
X168386493Y-110390140D01*
X168129902Y-110349500D01*
X168129897Y-110349500D01*
X167870103Y-110349500D01*
X167870098Y-110349500D01*
X167613506Y-110390140D01*
X167366423Y-110470422D01*
X167134945Y-110588368D01*
X166924774Y-110741066D01*
X166924768Y-110741071D01*
X166741071Y-110924768D01*
X166741066Y-110924774D01*
X166588368Y-111134945D01*
X166470422Y-111366423D01*
X166390140Y-111613506D01*
X166349500Y-111870097D01*
X156390499Y-111870097D01*
X156390499Y-111102128D01*
X156384091Y-111042517D01*
X156382810Y-111039083D01*
X156333797Y-110907671D01*
X156333793Y-110907664D01*
X156247547Y-110792455D01*
X156247544Y-110792452D01*
X156132335Y-110706206D01*
X156132328Y-110706202D01*
X155997482Y-110655908D01*
X155997483Y-110655908D01*
X155937883Y-110649501D01*
X155937881Y-110649500D01*
X155937873Y-110649500D01*
X155937864Y-110649500D01*
X154142129Y-110649500D01*
X154142123Y-110649501D01*
X154082516Y-110655908D01*
X153947671Y-110706202D01*
X153947664Y-110706206D01*
X153832455Y-110792452D01*
X153832452Y-110792455D01*
X153746206Y-110907664D01*
X153746203Y-110907669D01*
X153697189Y-111039083D01*
X153655317Y-111095016D01*
X153589853Y-111119433D01*
X153521580Y-111104581D01*
X153493326Y-111083430D01*
X153379786Y-110969890D01*
X153207820Y-110844951D01*
X153018414Y-110748444D01*
X153018413Y-110748443D01*
X153018412Y-110748443D01*
X152816243Y-110682754D01*
X152816241Y-110682753D01*
X152816240Y-110682753D01*
X152648601Y-110656202D01*
X152606287Y-110649500D01*
X152393713Y-110649500D01*
X152351399Y-110656202D01*
X152183760Y-110682753D01*
X151981585Y-110748444D01*
X151792179Y-110844951D01*
X151620213Y-110969890D01*
X151469890Y-111120213D01*
X151344949Y-111292182D01*
X151340484Y-111300946D01*
X151292509Y-111351742D01*
X151224688Y-111368536D01*
X151158553Y-111345998D01*
X151119516Y-111300946D01*
X151115050Y-111292182D01*
X150990109Y-111120213D01*
X150839786Y-110969890D01*
X150667820Y-110844951D01*
X150478414Y-110748444D01*
X150478413Y-110748443D01*
X150478412Y-110748443D01*
X150276243Y-110682754D01*
X150276241Y-110682753D01*
X150276240Y-110682753D01*
X150108601Y-110656202D01*
X150066287Y-110649500D01*
X149853713Y-110649500D01*
X149811399Y-110656202D01*
X149643760Y-110682753D01*
X149441585Y-110748444D01*
X149252179Y-110844951D01*
X149080213Y-110969890D01*
X148929890Y-111120213D01*
X148804949Y-111292182D01*
X148800484Y-111300946D01*
X148752509Y-111351742D01*
X148684688Y-111368536D01*
X148618553Y-111345998D01*
X148579516Y-111300946D01*
X148575050Y-111292182D01*
X148450109Y-111120213D01*
X148299786Y-110969890D01*
X148127820Y-110844951D01*
X147938414Y-110748444D01*
X147938413Y-110748443D01*
X147938412Y-110748443D01*
X147736243Y-110682754D01*
X147736241Y-110682753D01*
X147736240Y-110682753D01*
X147568601Y-110656202D01*
X147526287Y-110649500D01*
X147313713Y-110649500D01*
X147271399Y-110656202D01*
X147103760Y-110682753D01*
X146901585Y-110748444D01*
X146712179Y-110844951D01*
X146540213Y-110969890D01*
X146389890Y-111120213D01*
X146264951Y-111292179D01*
X146168444Y-111481585D01*
X146102753Y-111683760D01*
X146077419Y-111843713D01*
X146069500Y-111893713D01*
X139670499Y-111893713D01*
X139670499Y-111102128D01*
X139664091Y-111042517D01*
X139662810Y-111039083D01*
X139613797Y-110907671D01*
X139613793Y-110907664D01*
X139527547Y-110792455D01*
X139527544Y-110792452D01*
X139412335Y-110706206D01*
X139412328Y-110706202D01*
X139277482Y-110655908D01*
X139277483Y-110655908D01*
X139217883Y-110649501D01*
X139217881Y-110649500D01*
X139217873Y-110649500D01*
X139217864Y-110649500D01*
X137422129Y-110649500D01*
X137422123Y-110649501D01*
X137362516Y-110655908D01*
X137227671Y-110706202D01*
X137227664Y-110706206D01*
X137112455Y-110792452D01*
X137112452Y-110792455D01*
X137026206Y-110907664D01*
X137026203Y-110907669D01*
X136977189Y-111039083D01*
X136935317Y-111095016D01*
X136869853Y-111119433D01*
X136801580Y-111104581D01*
X136773326Y-111083430D01*
X136659786Y-110969890D01*
X136487820Y-110844951D01*
X136298414Y-110748444D01*
X136298413Y-110748443D01*
X136298412Y-110748443D01*
X136096243Y-110682754D01*
X136096241Y-110682753D01*
X136096240Y-110682753D01*
X135928601Y-110656202D01*
X135886287Y-110649500D01*
X135673713Y-110649500D01*
X135631399Y-110656202D01*
X135463760Y-110682753D01*
X135261585Y-110748444D01*
X135072179Y-110844951D01*
X134900213Y-110969890D01*
X134749890Y-111120213D01*
X134624949Y-111292182D01*
X134620484Y-111300946D01*
X134572509Y-111351742D01*
X134504688Y-111368536D01*
X134438553Y-111345998D01*
X134399516Y-111300946D01*
X134395050Y-111292182D01*
X134270109Y-111120213D01*
X134119786Y-110969890D01*
X133947820Y-110844951D01*
X133758414Y-110748444D01*
X133758413Y-110748443D01*
X133758412Y-110748443D01*
X133556243Y-110682754D01*
X133556241Y-110682753D01*
X133556240Y-110682753D01*
X133388601Y-110656202D01*
X133346287Y-110649500D01*
X133133713Y-110649500D01*
X133091399Y-110656202D01*
X132923760Y-110682753D01*
X132721585Y-110748444D01*
X132532179Y-110844951D01*
X132360213Y-110969890D01*
X132209890Y-111120213D01*
X132084951Y-111292179D01*
X131988444Y-111481585D01*
X131922753Y-111683760D01*
X131897419Y-111843713D01*
X131889500Y-111893713D01*
X123690500Y-111893713D01*
X123690500Y-111843713D01*
X123657246Y-111633757D01*
X123591557Y-111431588D01*
X123495051Y-111242184D01*
X123495049Y-111242181D01*
X123495048Y-111242179D01*
X123370109Y-111070213D01*
X123219786Y-110919890D01*
X123047820Y-110794951D01*
X122858414Y-110698444D01*
X122858413Y-110698443D01*
X122858412Y-110698443D01*
X122656243Y-110632754D01*
X122656241Y-110632753D01*
X122656240Y-110632753D01*
X122494957Y-110607208D01*
X122446287Y-110599500D01*
X122233713Y-110599500D01*
X122185042Y-110607208D01*
X122023760Y-110632753D01*
X121821585Y-110698444D01*
X121632179Y-110794951D01*
X121460213Y-110919890D01*
X121309890Y-111070213D01*
X121184949Y-111242182D01*
X121180484Y-111250946D01*
X121132509Y-111301742D01*
X121064688Y-111318536D01*
X120998553Y-111295998D01*
X120959516Y-111250946D01*
X120955050Y-111242182D01*
X120830109Y-111070213D01*
X120679786Y-110919890D01*
X120507820Y-110794951D01*
X120318414Y-110698444D01*
X120318413Y-110698443D01*
X120318412Y-110698443D01*
X120116243Y-110632754D01*
X120116241Y-110632753D01*
X120116240Y-110632753D01*
X119954957Y-110607208D01*
X119906287Y-110599500D01*
X119693713Y-110599500D01*
X119645042Y-110607208D01*
X119483760Y-110632753D01*
X119281585Y-110698444D01*
X119092179Y-110794951D01*
X118920213Y-110919890D01*
X118769890Y-111070213D01*
X118644949Y-111242182D01*
X118640484Y-111250946D01*
X118592509Y-111301742D01*
X118524688Y-111318536D01*
X118458553Y-111295998D01*
X118419516Y-111250946D01*
X118415050Y-111242182D01*
X118290109Y-111070213D01*
X118139786Y-110919890D01*
X117967820Y-110794951D01*
X117778414Y-110698444D01*
X117778413Y-110698443D01*
X117778412Y-110698443D01*
X117576243Y-110632754D01*
X117576241Y-110632753D01*
X117576240Y-110632753D01*
X117414957Y-110607208D01*
X117366287Y-110599500D01*
X117153713Y-110599500D01*
X117105042Y-110607208D01*
X116943760Y-110632753D01*
X116741585Y-110698444D01*
X116552179Y-110794951D01*
X116380215Y-110919889D01*
X116266673Y-111033431D01*
X116205350Y-111066915D01*
X116135658Y-111061931D01*
X116079725Y-111020059D01*
X116062810Y-110989082D01*
X116013797Y-110857671D01*
X116013793Y-110857664D01*
X115927547Y-110742455D01*
X115927544Y-110742452D01*
X115812335Y-110656206D01*
X115812328Y-110656202D01*
X115677482Y-110605908D01*
X115677483Y-110605908D01*
X115617883Y-110599501D01*
X115617881Y-110599500D01*
X115617873Y-110599500D01*
X115617864Y-110599500D01*
X113822129Y-110599500D01*
X113822123Y-110599501D01*
X113762516Y-110605908D01*
X113627671Y-110656202D01*
X113627664Y-110656206D01*
X113512455Y-110742452D01*
X113512452Y-110742455D01*
X113426206Y-110857664D01*
X113426202Y-110857671D01*
X113375908Y-110992517D01*
X113369501Y-111052116D01*
X113369500Y-111052135D01*
X111351466Y-111052135D01*
X111258933Y-110924774D01*
X111258928Y-110924768D01*
X111075231Y-110741071D01*
X111075225Y-110741066D01*
X110865054Y-110588368D01*
X110865053Y-110588367D01*
X110865051Y-110588366D01*
X110792764Y-110551534D01*
X110633576Y-110470422D01*
X110386493Y-110390140D01*
X110129902Y-110349500D01*
X110129897Y-110349500D01*
X109870103Y-110349500D01*
X109870098Y-110349500D01*
X109613506Y-110390140D01*
X109366423Y-110470422D01*
X109134945Y-110588368D01*
X108924774Y-110741066D01*
X108924768Y-110741071D01*
X108741071Y-110924768D01*
X108741066Y-110924774D01*
X108588368Y-111134945D01*
X108470422Y-111366423D01*
X108390140Y-111613506D01*
X108349500Y-111870097D01*
X107500500Y-111870097D01*
X107500500Y-90003750D01*
X107500726Y-89996263D01*
X107508358Y-89870097D01*
X108349500Y-89870097D01*
X108349500Y-90129902D01*
X108390140Y-90386493D01*
X108470422Y-90633576D01*
X108538822Y-90767816D01*
X108588366Y-90865051D01*
X108741069Y-91075229D01*
X108924771Y-91258931D01*
X109134949Y-91411634D01*
X109260603Y-91475658D01*
X109366423Y-91529577D01*
X109366425Y-91529577D01*
X109366428Y-91529579D01*
X109613507Y-91609860D01*
X109745706Y-91630797D01*
X109870098Y-91650500D01*
X109870103Y-91650500D01*
X110129902Y-91650500D01*
X110243298Y-91632539D01*
X110386493Y-91609860D01*
X110633572Y-91529579D01*
X110865051Y-91411634D01*
X111075229Y-91258931D01*
X111258931Y-91075229D01*
X111411634Y-90865051D01*
X111529579Y-90633572D01*
X111609860Y-90386493D01*
X111644737Y-90166286D01*
X111650500Y-90129902D01*
X111650500Y-89870097D01*
X111628947Y-89734021D01*
X111609860Y-89613507D01*
X111529579Y-89366428D01*
X111529577Y-89366425D01*
X111529577Y-89366423D01*
X111452474Y-89215101D01*
X111452473Y-89215099D01*
X111425486Y-89162135D01*
X116749500Y-89162135D01*
X116749500Y-90957870D01*
X116749501Y-90957876D01*
X116755908Y-91017483D01*
X116806202Y-91152328D01*
X116806206Y-91152335D01*
X116892452Y-91267544D01*
X116892455Y-91267547D01*
X117007664Y-91353793D01*
X117007671Y-91353797D01*
X117139082Y-91402810D01*
X117195016Y-91444681D01*
X117219433Y-91510145D01*
X117204582Y-91578418D01*
X117183431Y-91606673D01*
X117069889Y-91720215D01*
X116944951Y-91892179D01*
X116848444Y-92081585D01*
X116782753Y-92283760D01*
X116749500Y-92493713D01*
X116749500Y-92706286D01*
X116782753Y-92916239D01*
X116848444Y-93118414D01*
X116944951Y-93307820D01*
X117069890Y-93479786D01*
X117220213Y-93630109D01*
X117392182Y-93755050D01*
X117400946Y-93759516D01*
X117451742Y-93807491D01*
X117468536Y-93875312D01*
X117445998Y-93941447D01*
X117400946Y-93980484D01*
X117392182Y-93984949D01*
X117220213Y-94109890D01*
X117069890Y-94260213D01*
X116944951Y-94432179D01*
X116848444Y-94621585D01*
X116782753Y-94823760D01*
X116749500Y-95033713D01*
X116749500Y-95246286D01*
X116782753Y-95456239D01*
X116848444Y-95658414D01*
X116944951Y-95847820D01*
X117069890Y-96019786D01*
X117220213Y-96170109D01*
X117392182Y-96295050D01*
X117400946Y-96299516D01*
X117451742Y-96347491D01*
X117468536Y-96415312D01*
X117445998Y-96481447D01*
X117400946Y-96520484D01*
X117392182Y-96524949D01*
X117220213Y-96649890D01*
X117069890Y-96800213D01*
X116944951Y-96972179D01*
X116848444Y-97161585D01*
X116782753Y-97363760D01*
X116749500Y-97573713D01*
X116749500Y-97786286D01*
X116782753Y-97996239D01*
X116848444Y-98198414D01*
X116944951Y-98387820D01*
X117069890Y-98559786D01*
X117220213Y-98710109D01*
X117392182Y-98835050D01*
X117400946Y-98839516D01*
X117451742Y-98887491D01*
X117468536Y-98955312D01*
X117445998Y-99021447D01*
X117400946Y-99060484D01*
X117392182Y-99064949D01*
X117220213Y-99189890D01*
X117069890Y-99340213D01*
X116944951Y-99512179D01*
X116848444Y-99701585D01*
X116782753Y-99903760D01*
X116749500Y-100113713D01*
X116749500Y-100326286D01*
X116782753Y-100536239D01*
X116848444Y-100738414D01*
X116944951Y-100927820D01*
X117069890Y-101099786D01*
X117220213Y-101250109D01*
X117392182Y-101375050D01*
X117400946Y-101379516D01*
X117451742Y-101427491D01*
X117468536Y-101495312D01*
X117445998Y-101561447D01*
X117400946Y-101600484D01*
X117392182Y-101604949D01*
X117220213Y-101729890D01*
X117069890Y-101880213D01*
X116944951Y-102052179D01*
X116848444Y-102241585D01*
X116782753Y-102443760D01*
X116749500Y-102653713D01*
X116749500Y-102866286D01*
X116782753Y-103076239D01*
X116848444Y-103278414D01*
X116944951Y-103467820D01*
X117069890Y-103639786D01*
X117220213Y-103790109D01*
X117392179Y-103915048D01*
X117392181Y-103915049D01*
X117392184Y-103915051D01*
X117581588Y-104011557D01*
X117783757Y-104077246D01*
X117993713Y-104110500D01*
X117993714Y-104110500D01*
X118206286Y-104110500D01*
X118206287Y-104110500D01*
X118416243Y-104077246D01*
X118618412Y-104011557D01*
X118807816Y-103915051D01*
X118829789Y-103899086D01*
X118979786Y-103790109D01*
X118979788Y-103790106D01*
X118979792Y-103790104D01*
X119130104Y-103639792D01*
X119130106Y-103639788D01*
X119130109Y-103639786D01*
X119255048Y-103467820D01*
X119255047Y-103467820D01*
X119255051Y-103467816D01*
X119351557Y-103278412D01*
X119417246Y-103076243D01*
X119450500Y-102866287D01*
X119450500Y-102653713D01*
X119417246Y-102443757D01*
X119351557Y-102241588D01*
X119255051Y-102052184D01*
X119255049Y-102052181D01*
X119255048Y-102052179D01*
X119130109Y-101880213D01*
X118979786Y-101729890D01*
X118807820Y-101604951D01*
X118807115Y-101604591D01*
X118799054Y-101600485D01*
X118748259Y-101552512D01*
X118731463Y-101484692D01*
X118753999Y-101418556D01*
X118799054Y-101379515D01*
X118807816Y-101375051D01*
X118829789Y-101359086D01*
X118979786Y-101250109D01*
X118979788Y-101250106D01*
X118979792Y-101250104D01*
X119130104Y-101099792D01*
X119130106Y-101099788D01*
X119130109Y-101099786D01*
X119255048Y-100927820D01*
X119255047Y-100927820D01*
X119255051Y-100927816D01*
X119351557Y-100738412D01*
X119417246Y-100536243D01*
X119450500Y-100326287D01*
X119450500Y-100113713D01*
X119417246Y-99903757D01*
X119351557Y-99701588D01*
X119255051Y-99512184D01*
X119255049Y-99512181D01*
X119255048Y-99512179D01*
X119130109Y-99340213D01*
X118979786Y-99189890D01*
X118807820Y-99064951D01*
X118807115Y-99064591D01*
X118799054Y-99060485D01*
X118748259Y-99012512D01*
X118731463Y-98944692D01*
X118753999Y-98878556D01*
X118799054Y-98839515D01*
X118807816Y-98835051D01*
X118829789Y-98819086D01*
X118979786Y-98710109D01*
X118979788Y-98710106D01*
X118979792Y-98710104D01*
X119130104Y-98559792D01*
X119130106Y-98559788D01*
X119130109Y-98559786D01*
X119255048Y-98387820D01*
X119255047Y-98387820D01*
X119255051Y-98387816D01*
X119351557Y-98198412D01*
X119417246Y-97996243D01*
X119450500Y-97786287D01*
X119450500Y-97573713D01*
X119417246Y-97363757D01*
X119351557Y-97161588D01*
X119255051Y-96972184D01*
X119255049Y-96972181D01*
X119255048Y-96972179D01*
X119130109Y-96800213D01*
X118979786Y-96649890D01*
X118807820Y-96524951D01*
X118807115Y-96524591D01*
X118799054Y-96520485D01*
X118748259Y-96472512D01*
X118731463Y-96404692D01*
X118753999Y-96338556D01*
X118799054Y-96299515D01*
X118807816Y-96295051D01*
X118851617Y-96263228D01*
X118979786Y-96170109D01*
X118979788Y-96170106D01*
X118979792Y-96170104D01*
X119130104Y-96019792D01*
X119130106Y-96019788D01*
X119130109Y-96019786D01*
X119255048Y-95847820D01*
X119255047Y-95847820D01*
X119255051Y-95847816D01*
X119351557Y-95658412D01*
X119417246Y-95456243D01*
X119450500Y-95246287D01*
X119450500Y-95033713D01*
X119417246Y-94823757D01*
X119351557Y-94621588D01*
X119255051Y-94432184D01*
X119255049Y-94432181D01*
X119255048Y-94432179D01*
X119130109Y-94260213D01*
X118979786Y-94109890D01*
X118807820Y-93984951D01*
X118807115Y-93984591D01*
X118799054Y-93980485D01*
X118748259Y-93932512D01*
X118731463Y-93864692D01*
X118753999Y-93798556D01*
X118799054Y-93759515D01*
X118807816Y-93755051D01*
X118829789Y-93739086D01*
X118979786Y-93630109D01*
X118979788Y-93630106D01*
X118979792Y-93630104D01*
X119130104Y-93479792D01*
X119130106Y-93479788D01*
X119130109Y-93479786D01*
X119255048Y-93307820D01*
X119255047Y-93307820D01*
X119255051Y-93307816D01*
X119351557Y-93118412D01*
X119417246Y-92916243D01*
X119450500Y-92706287D01*
X119450500Y-92493713D01*
X119417246Y-92283757D01*
X119351557Y-92081588D01*
X119255051Y-91892184D01*
X119255049Y-91892181D01*
X119255048Y-91892179D01*
X119130109Y-91720213D01*
X119016569Y-91606673D01*
X118983084Y-91545350D01*
X118988068Y-91475658D01*
X119029940Y-91419725D01*
X119060915Y-91402810D01*
X119192331Y-91353796D01*
X119307546Y-91267546D01*
X119393796Y-91152331D01*
X119444091Y-91017483D01*
X119450500Y-90957873D01*
X119450499Y-89162135D01*
X126649500Y-89162135D01*
X126649500Y-90957870D01*
X126649501Y-90957876D01*
X126655908Y-91017483D01*
X126706202Y-91152328D01*
X126706206Y-91152335D01*
X126792452Y-91267544D01*
X126792455Y-91267547D01*
X126907664Y-91353793D01*
X126907671Y-91353797D01*
X127039082Y-91402810D01*
X127095016Y-91444681D01*
X127119433Y-91510145D01*
X127104582Y-91578418D01*
X127083431Y-91606673D01*
X126969889Y-91720215D01*
X126844951Y-91892179D01*
X126748444Y-92081585D01*
X126682753Y-92283760D01*
X126649500Y-92493713D01*
X126649500Y-92706286D01*
X126682753Y-92916239D01*
X126748444Y-93118414D01*
X126844951Y-93307820D01*
X126969890Y-93479786D01*
X127120213Y-93630109D01*
X127292182Y-93755050D01*
X127300946Y-93759516D01*
X127351742Y-93807491D01*
X127368536Y-93875312D01*
X127345998Y-93941447D01*
X127300946Y-93980484D01*
X127292182Y-93984949D01*
X127120213Y-94109890D01*
X126969890Y-94260213D01*
X126844951Y-94432179D01*
X126748444Y-94621585D01*
X126682753Y-94823760D01*
X126649500Y-95033713D01*
X126649500Y-95246286D01*
X126682753Y-95456239D01*
X126748444Y-95658414D01*
X126844951Y-95847820D01*
X126969890Y-96019786D01*
X127120213Y-96170109D01*
X127292182Y-96295050D01*
X127300946Y-96299516D01*
X127351742Y-96347491D01*
X127368536Y-96415312D01*
X127345998Y-96481447D01*
X127300946Y-96520484D01*
X127292182Y-96524949D01*
X127120213Y-96649890D01*
X126969890Y-96800213D01*
X126844951Y-96972179D01*
X126748444Y-97161585D01*
X126682753Y-97363760D01*
X126649500Y-97573713D01*
X126649500Y-97786286D01*
X126682753Y-97996239D01*
X126748444Y-98198414D01*
X126844951Y-98387820D01*
X126969890Y-98559786D01*
X127120213Y-98710109D01*
X127292182Y-98835050D01*
X127300946Y-98839516D01*
X127351742Y-98887491D01*
X127368536Y-98955312D01*
X127345998Y-99021447D01*
X127300946Y-99060484D01*
X127292182Y-99064949D01*
X127120213Y-99189890D01*
X126969890Y-99340213D01*
X126844951Y-99512179D01*
X126748444Y-99701585D01*
X126682753Y-99903760D01*
X126649500Y-100113713D01*
X126649500Y-100326286D01*
X126682753Y-100536239D01*
X126748444Y-100738414D01*
X126844951Y-100927820D01*
X126969890Y-101099786D01*
X127120213Y-101250109D01*
X127292182Y-101375050D01*
X127300946Y-101379516D01*
X127351742Y-101427491D01*
X127368536Y-101495312D01*
X127345998Y-101561447D01*
X127300946Y-101600484D01*
X127292182Y-101604949D01*
X127120213Y-101729890D01*
X126969890Y-101880213D01*
X126844951Y-102052179D01*
X126748444Y-102241585D01*
X126682753Y-102443760D01*
X126649500Y-102653713D01*
X126649500Y-102866286D01*
X126682753Y-103076239D01*
X126748444Y-103278414D01*
X126844951Y-103467820D01*
X126969890Y-103639786D01*
X127120213Y-103790109D01*
X127292182Y-103915050D01*
X127300946Y-103919516D01*
X127351742Y-103967491D01*
X127368536Y-104035312D01*
X127345998Y-104101447D01*
X127300946Y-104140484D01*
X127292182Y-104144949D01*
X127120213Y-104269890D01*
X126969890Y-104420213D01*
X126844951Y-104592179D01*
X126748444Y-104781585D01*
X126682753Y-104983760D01*
X126666918Y-105083738D01*
X126649500Y-105193713D01*
X126649500Y-105406287D01*
X126682754Y-105616243D01*
X126715083Y-105715742D01*
X126748444Y-105818414D01*
X126844951Y-106007820D01*
X126969890Y-106179786D01*
X127120213Y-106330109D01*
X127292179Y-106455048D01*
X127292181Y-106455049D01*
X127292184Y-106455051D01*
X127481588Y-106551557D01*
X127683757Y-106617246D01*
X127893713Y-106650500D01*
X127893714Y-106650500D01*
X128106286Y-106650500D01*
X128106287Y-106650500D01*
X128316243Y-106617246D01*
X128518412Y-106551557D01*
X128707816Y-106455051D01*
X128787304Y-106397300D01*
X128879786Y-106330109D01*
X128879788Y-106330106D01*
X128879792Y-106330104D01*
X129030104Y-106179792D01*
X129030106Y-106179788D01*
X129030109Y-106179786D01*
X129155048Y-106007820D01*
X129155047Y-106007820D01*
X129155051Y-106007816D01*
X129251557Y-105818412D01*
X129317246Y-105616243D01*
X129350500Y-105406287D01*
X129350500Y-105193713D01*
X129317246Y-104983757D01*
X129251557Y-104781588D01*
X129155051Y-104592184D01*
X129155049Y-104592181D01*
X129155048Y-104592179D01*
X129030109Y-104420213D01*
X128879786Y-104269890D01*
X128707820Y-104144951D01*
X128707115Y-104144591D01*
X128699054Y-104140485D01*
X128648259Y-104092512D01*
X128631463Y-104024692D01*
X128653999Y-103958556D01*
X128699054Y-103919515D01*
X128707816Y-103915051D01*
X128729789Y-103899086D01*
X128879786Y-103790109D01*
X128879788Y-103790106D01*
X128879792Y-103790104D01*
X129030104Y-103639792D01*
X129030106Y-103639788D01*
X129030109Y-103639786D01*
X129155048Y-103467820D01*
X129155047Y-103467820D01*
X129155051Y-103467816D01*
X129251557Y-103278412D01*
X129317246Y-103076243D01*
X129350500Y-102866287D01*
X129350500Y-102653713D01*
X129317246Y-102443757D01*
X129251557Y-102241588D01*
X129155051Y-102052184D01*
X129155049Y-102052181D01*
X129155048Y-102052179D01*
X129030109Y-101880213D01*
X128879786Y-101729890D01*
X128707820Y-101604951D01*
X128707115Y-101604591D01*
X128699054Y-101600485D01*
X128648259Y-101552512D01*
X128631463Y-101484692D01*
X128653999Y-101418556D01*
X128699054Y-101379515D01*
X128707816Y-101375051D01*
X128729789Y-101359086D01*
X128879786Y-101250109D01*
X128879788Y-101250106D01*
X128879792Y-101250104D01*
X129030104Y-101099792D01*
X129030106Y-101099788D01*
X129030109Y-101099786D01*
X129155048Y-100927820D01*
X129155047Y-100927820D01*
X129155051Y-100927816D01*
X129251557Y-100738412D01*
X129317246Y-100536243D01*
X129350500Y-100326287D01*
X129350500Y-100113713D01*
X129317246Y-99903757D01*
X129251557Y-99701588D01*
X129155051Y-99512184D01*
X129155049Y-99512181D01*
X129155048Y-99512179D01*
X129030109Y-99340213D01*
X128879786Y-99189890D01*
X128707820Y-99064951D01*
X128707115Y-99064591D01*
X128699054Y-99060485D01*
X128648259Y-99012512D01*
X128631463Y-98944692D01*
X128653999Y-98878556D01*
X128699054Y-98839515D01*
X128707816Y-98835051D01*
X128729789Y-98819086D01*
X128879786Y-98710109D01*
X128879788Y-98710106D01*
X128879792Y-98710104D01*
X129030104Y-98559792D01*
X129030106Y-98559788D01*
X129030109Y-98559786D01*
X129155048Y-98387820D01*
X129155047Y-98387820D01*
X129155051Y-98387816D01*
X129251557Y-98198412D01*
X129317246Y-97996243D01*
X129350500Y-97786287D01*
X129350500Y-97573713D01*
X129317246Y-97363757D01*
X129251557Y-97161588D01*
X129155051Y-96972184D01*
X129155049Y-96972181D01*
X129155048Y-96972179D01*
X129030109Y-96800213D01*
X128879786Y-96649890D01*
X128707820Y-96524951D01*
X128707115Y-96524591D01*
X128699054Y-96520485D01*
X128648259Y-96472512D01*
X128631463Y-96404692D01*
X128653999Y-96338556D01*
X128699054Y-96299515D01*
X128707816Y-96295051D01*
X128751617Y-96263228D01*
X128879786Y-96170109D01*
X128879788Y-96170106D01*
X128879792Y-96170104D01*
X129030104Y-96019792D01*
X129030106Y-96019788D01*
X129030109Y-96019786D01*
X129155048Y-95847820D01*
X129155047Y-95847820D01*
X129155051Y-95847816D01*
X129251557Y-95658412D01*
X129317246Y-95456243D01*
X129350500Y-95246287D01*
X129350500Y-95033713D01*
X129317246Y-94823757D01*
X129251557Y-94621588D01*
X129155051Y-94432184D01*
X129155049Y-94432181D01*
X129155048Y-94432179D01*
X129030109Y-94260213D01*
X128879786Y-94109890D01*
X128707820Y-93984951D01*
X128707115Y-93984591D01*
X128699054Y-93980485D01*
X128648259Y-93932512D01*
X128631463Y-93864692D01*
X128653999Y-93798556D01*
X128699054Y-93759515D01*
X128707816Y-93755051D01*
X128729789Y-93739086D01*
X128879786Y-93630109D01*
X128879788Y-93630106D01*
X128879792Y-93630104D01*
X129030104Y-93479792D01*
X129030106Y-93479788D01*
X129030109Y-93479786D01*
X129155048Y-93307820D01*
X129155047Y-93307820D01*
X129155051Y-93307816D01*
X129251557Y-93118412D01*
X129317246Y-92916243D01*
X129350500Y-92706287D01*
X129350500Y-92493713D01*
X129317246Y-92283757D01*
X129251557Y-92081588D01*
X129155051Y-91892184D01*
X129155049Y-91892181D01*
X129155048Y-91892179D01*
X129030109Y-91720213D01*
X128916569Y-91606673D01*
X128883084Y-91545350D01*
X128888068Y-91475658D01*
X128929940Y-91419725D01*
X128960915Y-91402810D01*
X129092331Y-91353796D01*
X129207546Y-91267546D01*
X129293796Y-91152331D01*
X129344091Y-91017483D01*
X129350500Y-90957873D01*
X129350499Y-89953713D01*
X130149500Y-89953713D01*
X130149500Y-90166287D01*
X130182754Y-90376243D01*
X130186084Y-90386493D01*
X130248444Y-90578414D01*
X130344951Y-90767820D01*
X130469890Y-90939786D01*
X130620213Y-91090109D01*
X130792179Y-91215048D01*
X130792181Y-91215049D01*
X130792184Y-91215051D01*
X130981588Y-91311557D01*
X131183757Y-91377246D01*
X131393713Y-91410500D01*
X131393714Y-91410500D01*
X131606286Y-91410500D01*
X131606287Y-91410500D01*
X131762771Y-91385715D01*
X131832064Y-91394670D01*
X131869850Y-91420507D01*
X133263181Y-92813838D01*
X133296666Y-92875161D01*
X133299500Y-92901519D01*
X133299500Y-98931006D01*
X133299500Y-99068994D01*
X133299500Y-99068996D01*
X133299499Y-99068996D01*
X133326418Y-99204322D01*
X133326421Y-99204332D01*
X133379222Y-99331807D01*
X133455887Y-99446545D01*
X142053454Y-108044112D01*
X142095786Y-108072397D01*
X142140592Y-108126009D01*
X142149299Y-108195334D01*
X142119145Y-108258362D01*
X142059702Y-108295082D01*
X142026896Y-108299500D01*
X141341519Y-108299500D01*
X141274480Y-108279815D01*
X141253838Y-108263181D01*
X132236819Y-99246162D01*
X132203334Y-99184839D01*
X132200500Y-99158481D01*
X132200500Y-96363547D01*
X132220185Y-96296508D01*
X132251614Y-96263230D01*
X132379792Y-96170104D01*
X132530104Y-96019792D01*
X132530106Y-96019788D01*
X132530109Y-96019786D01*
X132655048Y-95847820D01*
X132655047Y-95847820D01*
X132655051Y-95847816D01*
X132751557Y-95658412D01*
X132817246Y-95456243D01*
X132850500Y-95246287D01*
X132850500Y-95033713D01*
X132817246Y-94823757D01*
X132751557Y-94621588D01*
X132655051Y-94432184D01*
X132655049Y-94432181D01*
X132655048Y-94432179D01*
X132530109Y-94260213D01*
X132379786Y-94109890D01*
X132207820Y-93984951D01*
X132018414Y-93888444D01*
X132018413Y-93888443D01*
X132018412Y-93888443D01*
X131816243Y-93822754D01*
X131816241Y-93822753D01*
X131816240Y-93822753D01*
X131654957Y-93797208D01*
X131606287Y-93789500D01*
X131393713Y-93789500D01*
X131345042Y-93797208D01*
X131183760Y-93822753D01*
X130981585Y-93888444D01*
X130792179Y-93984951D01*
X130620213Y-94109890D01*
X130469890Y-94260213D01*
X130344951Y-94432179D01*
X130248444Y-94621585D01*
X130182753Y-94823760D01*
X130149500Y-95033713D01*
X130149500Y-95246286D01*
X130182753Y-95456239D01*
X130248444Y-95658414D01*
X130344951Y-95847820D01*
X130469890Y-96019786D01*
X130620211Y-96170107D01*
X130691200Y-96221682D01*
X130748385Y-96263229D01*
X130791051Y-96318558D01*
X130799500Y-96363547D01*
X130799500Y-99431006D01*
X130799500Y-99568994D01*
X130799500Y-99568996D01*
X130799499Y-99568996D01*
X130826418Y-99704322D01*
X130826421Y-99704332D01*
X130879222Y-99831807D01*
X130955887Y-99946545D01*
X140553454Y-109544112D01*
X140668192Y-109620777D01*
X140795667Y-109673578D01*
X140795672Y-109673580D01*
X140795676Y-109673580D01*
X140795677Y-109673581D01*
X140931003Y-109700500D01*
X140931006Y-109700500D01*
X154568996Y-109700500D01*
X154660040Y-109682389D01*
X154704328Y-109673580D01*
X154768069Y-109647177D01*
X154831807Y-109620777D01*
X154831808Y-109620776D01*
X154831811Y-109620775D01*
X154946543Y-109544114D01*
X157644114Y-106846543D01*
X157720775Y-106731811D01*
X157773580Y-106604329D01*
X157784077Y-106551557D01*
X157793038Y-106506505D01*
X157825421Y-106444599D01*
X157841761Y-106430387D01*
X157979792Y-106330104D01*
X158130104Y-106179792D01*
X158130106Y-106179788D01*
X158130109Y-106179786D01*
X158255048Y-106007820D01*
X158255047Y-106007820D01*
X158255051Y-106007816D01*
X158351557Y-105818412D01*
X158417246Y-105616243D01*
X158450500Y-105406287D01*
X158450500Y-105193713D01*
X158417246Y-104983757D01*
X158351557Y-104781588D01*
X158255051Y-104592184D01*
X158255049Y-104592181D01*
X158255048Y-104592179D01*
X158130109Y-104420213D01*
X157979786Y-104269890D01*
X157807820Y-104144951D01*
X157807115Y-104144591D01*
X157799054Y-104140485D01*
X157748259Y-104092512D01*
X157731463Y-104024692D01*
X157753999Y-103958556D01*
X157799054Y-103919515D01*
X157807816Y-103915051D01*
X157829789Y-103899086D01*
X157979786Y-103790109D01*
X157979788Y-103790106D01*
X157979792Y-103790104D01*
X158130104Y-103639792D01*
X158130106Y-103639788D01*
X158130109Y-103639786D01*
X158255048Y-103467820D01*
X158255047Y-103467820D01*
X158255051Y-103467816D01*
X158351557Y-103278412D01*
X158417246Y-103076243D01*
X158450500Y-102866287D01*
X158450500Y-102653713D01*
X158417246Y-102443757D01*
X158351557Y-102241588D01*
X158255051Y-102052184D01*
X158255049Y-102052181D01*
X158255048Y-102052179D01*
X158130109Y-101880213D01*
X157979786Y-101729890D01*
X157807820Y-101604951D01*
X157618414Y-101508444D01*
X157618413Y-101508443D01*
X157618412Y-101508443D01*
X157416243Y-101442754D01*
X157416241Y-101442753D01*
X157416240Y-101442753D01*
X157254957Y-101417208D01*
X157206287Y-101409500D01*
X156993713Y-101409500D01*
X156945042Y-101417208D01*
X156783760Y-101442753D01*
X156581585Y-101508444D01*
X156392179Y-101604951D01*
X156220213Y-101729890D01*
X156069890Y-101880213D01*
X155944951Y-102052179D01*
X155848444Y-102241585D01*
X155782753Y-102443760D01*
X155749500Y-102653713D01*
X155749500Y-102866286D01*
X155782753Y-103076239D01*
X155848444Y-103278414D01*
X155944951Y-103467820D01*
X156069890Y-103639786D01*
X156220213Y-103790109D01*
X156392182Y-103915050D01*
X156400946Y-103919516D01*
X156451742Y-103967491D01*
X156468536Y-104035312D01*
X156445998Y-104101447D01*
X156400946Y-104140484D01*
X156392182Y-104144949D01*
X156220213Y-104269890D01*
X156069890Y-104420213D01*
X155944951Y-104592179D01*
X155848444Y-104781585D01*
X155782753Y-104983760D01*
X155766918Y-105083738D01*
X155749500Y-105193713D01*
X155749500Y-105406287D01*
X155782754Y-105616243D01*
X155815083Y-105715742D01*
X155848444Y-105818414D01*
X155944951Y-106007820D01*
X156069890Y-106179786D01*
X156112042Y-106221938D01*
X156145527Y-106283261D01*
X156140543Y-106352953D01*
X156112042Y-106397300D01*
X154246162Y-108263181D01*
X154184839Y-108296666D01*
X154158481Y-108299500D01*
X149233104Y-108299500D01*
X149166065Y-108279815D01*
X149120310Y-108227011D01*
X149110366Y-108157853D01*
X149139391Y-108094297D01*
X149164214Y-108072397D01*
X149206543Y-108044114D01*
X151937819Y-105312836D01*
X151999142Y-105279352D01*
X152068834Y-105284336D01*
X152124767Y-105326208D01*
X152149184Y-105391672D01*
X152149500Y-105400518D01*
X152149500Y-105406287D01*
X152182754Y-105616243D01*
X152215083Y-105715742D01*
X152248444Y-105818414D01*
X152344951Y-106007820D01*
X152469890Y-106179786D01*
X152620213Y-106330109D01*
X152792179Y-106455048D01*
X152792181Y-106455049D01*
X152792184Y-106455051D01*
X152981588Y-106551557D01*
X153183757Y-106617246D01*
X153393713Y-106650500D01*
X153393714Y-106650500D01*
X153606286Y-106650500D01*
X153606287Y-106650500D01*
X153816243Y-106617246D01*
X154018412Y-106551557D01*
X154207816Y-106455051D01*
X154287304Y-106397300D01*
X154379786Y-106330109D01*
X154379788Y-106330106D01*
X154379792Y-106330104D01*
X154530104Y-106179792D01*
X154530106Y-106179788D01*
X154530109Y-106179786D01*
X154655048Y-106007820D01*
X154655047Y-106007820D01*
X154655051Y-106007816D01*
X154751557Y-105818412D01*
X154817246Y-105616243D01*
X154850500Y-105406287D01*
X154850500Y-105193713D01*
X154817246Y-104983757D01*
X154751557Y-104781588D01*
X154655051Y-104592184D01*
X154655049Y-104592181D01*
X154655048Y-104592179D01*
X154530109Y-104420213D01*
X154379786Y-104269890D01*
X154207820Y-104144951D01*
X154207115Y-104144591D01*
X154199054Y-104140485D01*
X154148259Y-104092512D01*
X154131463Y-104024692D01*
X154153999Y-103958556D01*
X154199054Y-103919515D01*
X154207816Y-103915051D01*
X154229789Y-103899086D01*
X154379786Y-103790109D01*
X154379788Y-103790106D01*
X154379792Y-103790104D01*
X154530104Y-103639792D01*
X154530106Y-103639788D01*
X154530109Y-103639786D01*
X154655048Y-103467820D01*
X154655047Y-103467820D01*
X154655051Y-103467816D01*
X154751557Y-103278412D01*
X154817246Y-103076243D01*
X154850500Y-102866287D01*
X154850500Y-102653713D01*
X154817246Y-102443757D01*
X154751557Y-102241588D01*
X154655051Y-102052184D01*
X154655049Y-102052181D01*
X154655048Y-102052179D01*
X154530109Y-101880213D01*
X154379786Y-101729890D01*
X154207820Y-101604951D01*
X154207115Y-101604591D01*
X154199054Y-101600485D01*
X154148259Y-101552512D01*
X154131463Y-101484692D01*
X154153999Y-101418556D01*
X154199054Y-101379515D01*
X154207816Y-101375051D01*
X154229789Y-101359086D01*
X154379786Y-101250109D01*
X154379788Y-101250106D01*
X154379792Y-101250104D01*
X154530104Y-101099792D01*
X154530106Y-101099788D01*
X154530109Y-101099786D01*
X154655048Y-100927820D01*
X154655047Y-100927820D01*
X154655051Y-100927816D01*
X154751557Y-100738412D01*
X154817246Y-100536243D01*
X154850500Y-100326287D01*
X154850500Y-100113713D01*
X154817246Y-99903757D01*
X154751557Y-99701588D01*
X154655051Y-99512184D01*
X154655049Y-99512181D01*
X154655048Y-99512179D01*
X154530109Y-99340213D01*
X154379786Y-99189890D01*
X154207820Y-99064951D01*
X154207115Y-99064591D01*
X154199054Y-99060485D01*
X154148259Y-99012512D01*
X154131463Y-98944692D01*
X154153999Y-98878556D01*
X154199054Y-98839515D01*
X154207816Y-98835051D01*
X154229789Y-98819086D01*
X154379786Y-98710109D01*
X154379788Y-98710106D01*
X154379792Y-98710104D01*
X154530104Y-98559792D01*
X154530106Y-98559788D01*
X154530109Y-98559786D01*
X154655048Y-98387820D01*
X154655047Y-98387820D01*
X154655051Y-98387816D01*
X154751557Y-98198412D01*
X154817246Y-97996243D01*
X154850500Y-97786287D01*
X154850500Y-97573713D01*
X154817246Y-97363757D01*
X154751557Y-97161588D01*
X154655051Y-96972184D01*
X154655049Y-96972181D01*
X154655048Y-96972179D01*
X154530109Y-96800213D01*
X154379786Y-96649890D01*
X154207820Y-96524951D01*
X154207115Y-96524591D01*
X154199054Y-96520485D01*
X154148259Y-96472512D01*
X154131463Y-96404692D01*
X154153999Y-96338556D01*
X154199054Y-96299515D01*
X154207816Y-96295051D01*
X154251617Y-96263228D01*
X154379786Y-96170109D01*
X154379788Y-96170106D01*
X154379792Y-96170104D01*
X154530104Y-96019792D01*
X154530106Y-96019788D01*
X154530109Y-96019786D01*
X154655048Y-95847820D01*
X154655047Y-95847820D01*
X154655051Y-95847816D01*
X154751557Y-95658412D01*
X154817246Y-95456243D01*
X154850500Y-95246287D01*
X154850500Y-95033713D01*
X154817246Y-94823757D01*
X154751557Y-94621588D01*
X154655051Y-94432184D01*
X154655049Y-94432181D01*
X154655048Y-94432179D01*
X154530109Y-94260213D01*
X154379786Y-94109890D01*
X154207820Y-93984951D01*
X154207115Y-93984591D01*
X154199054Y-93980485D01*
X154148259Y-93932512D01*
X154131463Y-93864692D01*
X154153999Y-93798556D01*
X154199054Y-93759515D01*
X154207816Y-93755051D01*
X154229789Y-93739086D01*
X154379786Y-93630109D01*
X154379788Y-93630106D01*
X154379792Y-93630104D01*
X154530104Y-93479792D01*
X154530106Y-93479788D01*
X154530109Y-93479786D01*
X154655048Y-93307820D01*
X154655047Y-93307820D01*
X154655051Y-93307816D01*
X154751557Y-93118412D01*
X154817246Y-92916243D01*
X154850500Y-92706287D01*
X154850500Y-92493713D01*
X154817246Y-92283757D01*
X154751557Y-92081588D01*
X154655051Y-91892184D01*
X154655049Y-91892181D01*
X154655048Y-91892179D01*
X154530109Y-91720213D01*
X154416569Y-91606673D01*
X154383084Y-91545350D01*
X154388068Y-91475658D01*
X154429940Y-91419725D01*
X154460915Y-91402810D01*
X154592331Y-91353796D01*
X154707546Y-91267546D01*
X154793796Y-91152331D01*
X154844091Y-91017483D01*
X154850500Y-90957873D01*
X154850499Y-89870097D01*
X166349500Y-89870097D01*
X166349500Y-90129902D01*
X166390140Y-90386493D01*
X166470422Y-90633576D01*
X166538822Y-90767816D01*
X166588366Y-90865051D01*
X166741069Y-91075229D01*
X166924771Y-91258931D01*
X167134949Y-91411634D01*
X167260603Y-91475658D01*
X167366423Y-91529577D01*
X167366425Y-91529577D01*
X167366428Y-91529579D01*
X167613507Y-91609860D01*
X167745706Y-91630797D01*
X167870098Y-91650500D01*
X167870103Y-91650500D01*
X168129902Y-91650500D01*
X168243298Y-91632539D01*
X168386493Y-91609860D01*
X168633572Y-91529579D01*
X168865051Y-91411634D01*
X169075229Y-91258931D01*
X169258931Y-91075229D01*
X169411634Y-90865051D01*
X169529579Y-90633572D01*
X169609860Y-90386493D01*
X169644737Y-90166286D01*
X169650500Y-90129902D01*
X169650500Y-89870097D01*
X169628947Y-89734021D01*
X169609860Y-89613507D01*
X169529579Y-89366428D01*
X169529577Y-89366425D01*
X169529577Y-89366423D01*
X169486787Y-89282445D01*
X169411634Y-89134949D01*
X169258931Y-88924771D01*
X169075229Y-88741069D01*
X168865051Y-88588366D01*
X168792764Y-88551534D01*
X168633576Y-88470422D01*
X168386493Y-88390140D01*
X168129902Y-88349500D01*
X168129897Y-88349500D01*
X167870103Y-88349500D01*
X167870098Y-88349500D01*
X167613506Y-88390140D01*
X167366423Y-88470422D01*
X167134945Y-88588368D01*
X166924774Y-88741066D01*
X166924768Y-88741071D01*
X166741071Y-88924768D01*
X166741066Y-88924774D01*
X166588368Y-89134945D01*
X166470422Y-89366423D01*
X166390140Y-89613506D01*
X166349500Y-89870097D01*
X154850499Y-89870097D01*
X154850499Y-89162128D01*
X154844091Y-89102517D01*
X154793796Y-88967669D01*
X154793795Y-88967668D01*
X154793793Y-88967664D01*
X154707547Y-88852455D01*
X154707544Y-88852452D01*
X154592335Y-88766206D01*
X154592328Y-88766202D01*
X154457482Y-88715908D01*
X154457483Y-88715908D01*
X154397883Y-88709501D01*
X154397881Y-88709500D01*
X154397873Y-88709500D01*
X154397864Y-88709500D01*
X152602129Y-88709500D01*
X152602123Y-88709501D01*
X152542516Y-88715908D01*
X152407671Y-88766202D01*
X152407664Y-88766206D01*
X152292455Y-88852452D01*
X152292452Y-88852455D01*
X152206206Y-88967664D01*
X152206202Y-88967671D01*
X152155908Y-89102517D01*
X152149501Y-89162116D01*
X152149501Y-89162123D01*
X152149500Y-89162135D01*
X152149500Y-90957870D01*
X152149501Y-90957876D01*
X152155908Y-91017483D01*
X152206202Y-91152328D01*
X152206206Y-91152335D01*
X152292452Y-91267544D01*
X152292455Y-91267547D01*
X152407664Y-91353793D01*
X152407671Y-91353797D01*
X152539082Y-91402810D01*
X152595016Y-91444681D01*
X152619433Y-91510145D01*
X152604582Y-91578418D01*
X152583431Y-91606673D01*
X152469889Y-91720215D01*
X152344951Y-91892179D01*
X152248444Y-92081585D01*
X152182753Y-92283760D01*
X152149500Y-92493713D01*
X152149500Y-92706286D01*
X152182753Y-92916239D01*
X152248444Y-93118414D01*
X152344951Y-93307820D01*
X152469890Y-93479786D01*
X152620213Y-93630109D01*
X152792182Y-93755050D01*
X152800946Y-93759516D01*
X152851742Y-93807491D01*
X152868536Y-93875312D01*
X152845998Y-93941447D01*
X152800946Y-93980484D01*
X152792182Y-93984949D01*
X152620213Y-94109890D01*
X152469890Y-94260213D01*
X152344951Y-94432179D01*
X152248444Y-94621585D01*
X152182753Y-94823760D01*
X152149500Y-95033713D01*
X152149500Y-95246286D01*
X152182753Y-95456239D01*
X152248444Y-95658414D01*
X152344951Y-95847820D01*
X152469890Y-96019786D01*
X152620213Y-96170109D01*
X152792182Y-96295050D01*
X152800946Y-96299516D01*
X152851742Y-96347491D01*
X152868536Y-96415312D01*
X152845998Y-96481447D01*
X152800946Y-96520484D01*
X152792182Y-96524949D01*
X152620213Y-96649890D01*
X152469890Y-96800213D01*
X152344951Y-96972179D01*
X152248444Y-97161585D01*
X152182753Y-97363760D01*
X152149500Y-97573713D01*
X152149500Y-97786286D01*
X152182753Y-97996239D01*
X152248444Y-98198414D01*
X152344951Y-98387820D01*
X152469890Y-98559786D01*
X152620213Y-98710109D01*
X152792182Y-98835050D01*
X152800946Y-98839516D01*
X152851742Y-98887491D01*
X152868536Y-98955312D01*
X152845998Y-99021447D01*
X152800946Y-99060484D01*
X152792182Y-99064949D01*
X152620213Y-99189890D01*
X152469890Y-99340213D01*
X152344951Y-99512179D01*
X152248444Y-99701585D01*
X152182753Y-99903760D01*
X152149500Y-100113713D01*
X152149500Y-100326286D01*
X152182753Y-100536239D01*
X152248444Y-100738414D01*
X152344951Y-100927820D01*
X152469890Y-101099786D01*
X152620213Y-101250109D01*
X152792182Y-101375050D01*
X152800946Y-101379516D01*
X152851742Y-101427491D01*
X152868536Y-101495312D01*
X152845998Y-101561447D01*
X152800946Y-101600484D01*
X152792182Y-101604949D01*
X152620213Y-101729890D01*
X152469890Y-101880213D01*
X152344951Y-102052179D01*
X152248444Y-102241585D01*
X152182753Y-102443760D01*
X152149500Y-102653713D01*
X152149500Y-102866287D01*
X152149499Y-102866287D01*
X152174284Y-103022771D01*
X152165329Y-103092064D01*
X152139492Y-103129849D01*
X148506162Y-106763181D01*
X148444839Y-106796666D01*
X148418481Y-106799500D01*
X143773226Y-106799500D01*
X143706187Y-106779815D01*
X143660432Y-106727011D01*
X143650488Y-106657853D01*
X143679513Y-106594297D01*
X143734906Y-106557569D01*
X143753412Y-106551557D01*
X143942816Y-106455051D01*
X144022304Y-106397300D01*
X144114786Y-106330109D01*
X144114788Y-106330106D01*
X144114792Y-106330104D01*
X144265104Y-106179792D01*
X144265106Y-106179788D01*
X144265109Y-106179786D01*
X144390048Y-106007820D01*
X144390047Y-106007820D01*
X144390051Y-106007816D01*
X144486557Y-105818412D01*
X144552246Y-105616243D01*
X144585500Y-105406287D01*
X144585500Y-105193713D01*
X144552246Y-104983757D01*
X144486557Y-104781588D01*
X144390051Y-104592184D01*
X144390049Y-104592181D01*
X144390048Y-104592179D01*
X144265109Y-104420213D01*
X144114786Y-104269890D01*
X143942820Y-104144951D01*
X143942115Y-104144591D01*
X143934054Y-104140485D01*
X143883259Y-104092512D01*
X143866463Y-104024692D01*
X143888999Y-103958556D01*
X143934054Y-103919515D01*
X143942816Y-103915051D01*
X143964789Y-103899086D01*
X144114786Y-103790109D01*
X144114788Y-103790106D01*
X144114792Y-103790104D01*
X144265104Y-103639792D01*
X144265106Y-103639788D01*
X144265109Y-103639786D01*
X144390048Y-103467820D01*
X144390047Y-103467820D01*
X144390051Y-103467816D01*
X144486557Y-103278412D01*
X144552246Y-103076243D01*
X144585500Y-102866287D01*
X144585500Y-102653713D01*
X144552246Y-102443757D01*
X144486557Y-102241588D01*
X144390051Y-102052184D01*
X144390049Y-102052181D01*
X144390048Y-102052179D01*
X144265109Y-101880213D01*
X144114786Y-101729890D01*
X143942820Y-101604951D01*
X143942115Y-101604591D01*
X143934054Y-101600485D01*
X143883259Y-101552512D01*
X143866463Y-101484692D01*
X143888999Y-101418556D01*
X143934054Y-101379515D01*
X143942816Y-101375051D01*
X143964789Y-101359086D01*
X144114786Y-101250109D01*
X144114788Y-101250106D01*
X144114792Y-101250104D01*
X144265104Y-101099792D01*
X144265106Y-101099788D01*
X144265109Y-101099786D01*
X144390048Y-100927820D01*
X144390047Y-100927820D01*
X144390051Y-100927816D01*
X144486557Y-100738412D01*
X144552246Y-100536243D01*
X144585500Y-100326287D01*
X144585500Y-100113713D01*
X144552246Y-99903757D01*
X144486557Y-99701588D01*
X144390051Y-99512184D01*
X144390049Y-99512181D01*
X144390048Y-99512179D01*
X144265109Y-99340213D01*
X144114786Y-99189890D01*
X143942820Y-99064951D01*
X143942115Y-99064591D01*
X143934054Y-99060485D01*
X143883259Y-99012512D01*
X143866463Y-98944692D01*
X143888999Y-98878556D01*
X143934054Y-98839515D01*
X143942816Y-98835051D01*
X143964789Y-98819086D01*
X144114786Y-98710109D01*
X144114788Y-98710106D01*
X144114792Y-98710104D01*
X144265104Y-98559792D01*
X144265106Y-98559788D01*
X144265109Y-98559786D01*
X144390048Y-98387820D01*
X144390047Y-98387820D01*
X144390051Y-98387816D01*
X144486557Y-98198412D01*
X144552246Y-97996243D01*
X144585500Y-97786287D01*
X144585500Y-97573713D01*
X144552246Y-97363757D01*
X144486557Y-97161588D01*
X144390051Y-96972184D01*
X144390049Y-96972181D01*
X144390048Y-96972179D01*
X144265109Y-96800213D01*
X144114786Y-96649890D01*
X143942820Y-96524951D01*
X143942115Y-96524591D01*
X143934054Y-96520485D01*
X143883259Y-96472512D01*
X143866463Y-96404692D01*
X143888999Y-96338556D01*
X143934054Y-96299515D01*
X143942816Y-96295051D01*
X143986617Y-96263228D01*
X144114786Y-96170109D01*
X144114788Y-96170106D01*
X144114792Y-96170104D01*
X144265104Y-96019792D01*
X144265106Y-96019788D01*
X144265109Y-96019786D01*
X144390048Y-95847820D01*
X144390047Y-95847820D01*
X144390051Y-95847816D01*
X144486557Y-95658412D01*
X144552246Y-95456243D01*
X144585500Y-95246287D01*
X144585500Y-95033713D01*
X144552246Y-94823757D01*
X144486557Y-94621588D01*
X144390051Y-94432184D01*
X144390049Y-94432181D01*
X144390048Y-94432179D01*
X144265109Y-94260213D01*
X144114786Y-94109890D01*
X143942820Y-93984951D01*
X143942115Y-93984591D01*
X143934054Y-93980485D01*
X143883259Y-93932512D01*
X143866463Y-93864692D01*
X143888999Y-93798556D01*
X143934054Y-93759515D01*
X143942816Y-93755051D01*
X143964789Y-93739086D01*
X144114786Y-93630109D01*
X144114788Y-93630106D01*
X144114792Y-93630104D01*
X144265104Y-93479792D01*
X144265106Y-93479788D01*
X144265109Y-93479786D01*
X144390048Y-93307820D01*
X144390047Y-93307820D01*
X144390051Y-93307816D01*
X144486557Y-93118412D01*
X144552246Y-92916243D01*
X144585500Y-92706287D01*
X144585500Y-92493713D01*
X144552246Y-92283757D01*
X144486557Y-92081588D01*
X144390051Y-91892184D01*
X144390049Y-91892181D01*
X144390048Y-91892179D01*
X144265109Y-91720213D01*
X144151569Y-91606673D01*
X144118084Y-91545350D01*
X144123068Y-91475658D01*
X144164940Y-91419725D01*
X144195915Y-91402810D01*
X144327331Y-91353796D01*
X144442546Y-91267546D01*
X144528796Y-91152331D01*
X144579091Y-91017483D01*
X144585500Y-90957873D01*
X144585499Y-89162128D01*
X144579091Y-89102517D01*
X144528796Y-88967669D01*
X144528795Y-88967668D01*
X144528793Y-88967664D01*
X144442547Y-88852455D01*
X144442544Y-88852452D01*
X144327335Y-88766206D01*
X144327328Y-88766202D01*
X144192482Y-88715908D01*
X144192483Y-88715908D01*
X144132883Y-88709501D01*
X144132881Y-88709500D01*
X144132873Y-88709500D01*
X144132864Y-88709500D01*
X142337129Y-88709500D01*
X142337123Y-88709501D01*
X142277516Y-88715908D01*
X142142671Y-88766202D01*
X142142664Y-88766206D01*
X142027455Y-88852452D01*
X142027452Y-88852455D01*
X141941206Y-88967664D01*
X141941202Y-88967671D01*
X141890908Y-89102517D01*
X141884501Y-89162116D01*
X141884501Y-89162123D01*
X141884500Y-89162135D01*
X141884500Y-90957870D01*
X141884501Y-90957876D01*
X141890908Y-91017483D01*
X141941202Y-91152328D01*
X141941206Y-91152335D01*
X142027452Y-91267544D01*
X142027455Y-91267547D01*
X142142664Y-91353793D01*
X142142671Y-91353797D01*
X142274082Y-91402810D01*
X142330016Y-91444681D01*
X142354433Y-91510145D01*
X142339582Y-91578418D01*
X142318431Y-91606673D01*
X142204889Y-91720215D01*
X142079951Y-91892179D01*
X141983444Y-92081585D01*
X141917753Y-92283760D01*
X141884500Y-92493713D01*
X141884500Y-92706286D01*
X141917753Y-92916239D01*
X141983444Y-93118414D01*
X142079951Y-93307820D01*
X142204890Y-93479786D01*
X142355213Y-93630109D01*
X142527182Y-93755050D01*
X142535946Y-93759516D01*
X142586742Y-93807491D01*
X142603536Y-93875312D01*
X142580998Y-93941447D01*
X142535946Y-93980484D01*
X142527182Y-93984949D01*
X142355213Y-94109890D01*
X142204890Y-94260213D01*
X142079951Y-94432179D01*
X141983444Y-94621585D01*
X141917753Y-94823760D01*
X141884500Y-95033713D01*
X141884500Y-95246286D01*
X141917753Y-95456239D01*
X141983444Y-95658414D01*
X142079951Y-95847820D01*
X142204890Y-96019786D01*
X142355213Y-96170109D01*
X142527182Y-96295050D01*
X142535946Y-96299516D01*
X142586742Y-96347491D01*
X142603536Y-96415312D01*
X142580998Y-96481447D01*
X142535946Y-96520484D01*
X142527182Y-96524949D01*
X142355213Y-96649890D01*
X142204890Y-96800213D01*
X142079951Y-96972179D01*
X141983444Y-97161585D01*
X141917753Y-97363760D01*
X141884500Y-97573713D01*
X141884500Y-97786286D01*
X141917753Y-97996239D01*
X141983444Y-98198414D01*
X142079951Y-98387820D01*
X142204890Y-98559786D01*
X142355213Y-98710109D01*
X142527182Y-98835050D01*
X142535946Y-98839516D01*
X142586742Y-98887491D01*
X142603536Y-98955312D01*
X142580998Y-99021447D01*
X142535946Y-99060484D01*
X142527182Y-99064949D01*
X142355213Y-99189890D01*
X142204890Y-99340213D01*
X142079951Y-99512179D01*
X141983444Y-99701585D01*
X141917753Y-99903760D01*
X141884500Y-100113713D01*
X141884500Y-100326286D01*
X141917753Y-100536239D01*
X141983444Y-100738414D01*
X142079951Y-100927820D01*
X142204890Y-101099786D01*
X142355213Y-101250109D01*
X142527182Y-101375050D01*
X142535946Y-101379516D01*
X142586742Y-101427491D01*
X142603536Y-101495312D01*
X142580998Y-101561447D01*
X142535946Y-101600484D01*
X142527182Y-101604949D01*
X142355213Y-101729890D01*
X142204890Y-101880213D01*
X142079951Y-102052179D01*
X141983444Y-102241585D01*
X141917753Y-102443760D01*
X141884500Y-102653713D01*
X141884500Y-102866286D01*
X141917753Y-103076239D01*
X141983444Y-103278414D01*
X142079951Y-103467820D01*
X142204890Y-103639786D01*
X142355213Y-103790109D01*
X142527182Y-103915050D01*
X142535946Y-103919516D01*
X142586742Y-103967491D01*
X142603536Y-104035312D01*
X142580998Y-104101447D01*
X142535946Y-104140484D01*
X142527182Y-104144949D01*
X142355213Y-104269890D01*
X142204890Y-104420213D01*
X142079951Y-104592179D01*
X141983444Y-104781585D01*
X141917753Y-104983760D01*
X141884500Y-105193713D01*
X141884500Y-105406286D01*
X141916553Y-105608663D01*
X141907598Y-105677957D01*
X141862602Y-105731409D01*
X141795850Y-105752048D01*
X141728537Y-105733323D01*
X141706399Y-105715742D01*
X134736819Y-98746162D01*
X134703334Y-98684839D01*
X134700500Y-98658481D01*
X134700500Y-92491004D01*
X134673581Y-92355677D01*
X134673580Y-92355676D01*
X134673580Y-92355672D01*
X134673578Y-92355667D01*
X134620778Y-92228195D01*
X134620771Y-92228182D01*
X134552552Y-92126086D01*
X134552551Y-92126084D01*
X134544116Y-92113459D01*
X132860507Y-90429850D01*
X132827022Y-90368527D01*
X132825715Y-90322771D01*
X132850500Y-90166286D01*
X132850500Y-89953713D01*
X132817246Y-89743760D01*
X132817246Y-89743757D01*
X132751557Y-89541588D01*
X132655051Y-89352184D01*
X132655049Y-89352181D01*
X132655048Y-89352179D01*
X132530109Y-89180213D01*
X132379786Y-89029890D01*
X132207820Y-88904951D01*
X132018414Y-88808444D01*
X132018413Y-88808443D01*
X132018412Y-88808443D01*
X131816243Y-88742754D01*
X131816241Y-88742753D01*
X131816240Y-88742753D01*
X131654957Y-88717208D01*
X131606287Y-88709500D01*
X131393713Y-88709500D01*
X131345042Y-88717208D01*
X131183760Y-88742753D01*
X130981585Y-88808444D01*
X130792179Y-88904951D01*
X130620213Y-89029890D01*
X130469890Y-89180213D01*
X130344951Y-89352179D01*
X130248444Y-89541585D01*
X130182753Y-89743760D01*
X130152605Y-89934108D01*
X130149500Y-89953713D01*
X129350499Y-89953713D01*
X129350499Y-89162128D01*
X129344091Y-89102517D01*
X129293796Y-88967669D01*
X129293795Y-88967668D01*
X129293793Y-88967664D01*
X129207547Y-88852455D01*
X129207544Y-88852452D01*
X129092335Y-88766206D01*
X129092328Y-88766202D01*
X128957482Y-88715908D01*
X128957483Y-88715908D01*
X128897883Y-88709501D01*
X128897881Y-88709500D01*
X128897873Y-88709500D01*
X128897864Y-88709500D01*
X127102129Y-88709500D01*
X127102123Y-88709501D01*
X127042516Y-88715908D01*
X126907671Y-88766202D01*
X126907664Y-88766206D01*
X126792455Y-88852452D01*
X126792452Y-88852455D01*
X126706206Y-88967664D01*
X126706202Y-88967671D01*
X126655908Y-89102517D01*
X126649501Y-89162116D01*
X126649501Y-89162123D01*
X126649500Y-89162135D01*
X119450499Y-89162135D01*
X119450499Y-89162128D01*
X119444091Y-89102517D01*
X119393796Y-88967669D01*
X119393795Y-88967668D01*
X119393793Y-88967664D01*
X119307547Y-88852455D01*
X119307544Y-88852452D01*
X119192335Y-88766206D01*
X119192328Y-88766202D01*
X119057482Y-88715908D01*
X119057483Y-88715908D01*
X118997883Y-88709501D01*
X118997881Y-88709500D01*
X118997873Y-88709500D01*
X118997864Y-88709500D01*
X117202129Y-88709500D01*
X117202123Y-88709501D01*
X117142516Y-88715908D01*
X117007671Y-88766202D01*
X117007664Y-88766206D01*
X116892455Y-88852452D01*
X116892452Y-88852455D01*
X116806206Y-88967664D01*
X116806202Y-88967671D01*
X116755908Y-89102517D01*
X116749501Y-89162116D01*
X116749501Y-89162123D01*
X116749500Y-89162135D01*
X111425486Y-89162135D01*
X111411633Y-89134947D01*
X111290098Y-88967669D01*
X111258931Y-88924771D01*
X111075229Y-88741069D01*
X110865051Y-88588366D01*
X110792764Y-88551534D01*
X110633576Y-88470422D01*
X110386493Y-88390140D01*
X110129902Y-88349500D01*
X110129897Y-88349500D01*
X109870103Y-88349500D01*
X109870098Y-88349500D01*
X109613506Y-88390140D01*
X109366423Y-88470422D01*
X109134945Y-88588368D01*
X108924774Y-88741066D01*
X108924768Y-88741071D01*
X108741071Y-88924768D01*
X108741066Y-88924774D01*
X108588368Y-89134945D01*
X108470422Y-89366423D01*
X108390140Y-89613506D01*
X108349500Y-89870097D01*
X107508358Y-89870097D01*
X107509105Y-89857744D01*
X107513436Y-89786133D01*
X107518271Y-89706201D01*
X107520076Y-89691340D01*
X107534340Y-89613507D01*
X107571780Y-89409197D01*
X107575364Y-89394663D01*
X107660696Y-89120822D01*
X107665998Y-89106841D01*
X107783731Y-88845249D01*
X107790676Y-88832016D01*
X107939080Y-88586526D01*
X107947567Y-88574230D01*
X108124480Y-88348417D01*
X108134395Y-88337226D01*
X108337226Y-88134395D01*
X108348417Y-88124480D01*
X108574230Y-87947567D01*
X108586526Y-87939080D01*
X108832016Y-87790676D01*
X108845249Y-87783731D01*
X109106841Y-87665998D01*
X109120822Y-87660696D01*
X109394668Y-87575362D01*
X109409197Y-87571780D01*
X109691344Y-87520075D01*
X109706201Y-87518271D01*
X109996264Y-87500726D01*
X110003751Y-87500500D01*
X110065892Y-87500500D01*
X167934108Y-87500500D01*
X167996249Y-87500500D01*
X168003736Y-87500726D01*
G37*
%TD.AperFunction*%
M02*
