%TF.GenerationSoftware,KiCad,Pcbnew,9.0.5*%
%TF.CreationDate,2025-10-12T13:14:53-04:00*%
%TF.ProjectId,switchboard-mk2,73776974-6368-4626-9f61-72642d6d6b32,rev?*%
%TF.SameCoordinates,Original*%
%TF.FileFunction,Copper,L2,Bot*%
%TF.FilePolarity,Positive*%
%FSLAX46Y46*%
G04 Gerber Fmt 4.6, Leading zero omitted, Abs format (unit mm)*
G04 Created by KiCad (PCBNEW 9.0.5) date 2025-10-12 13:14:53*
%MOMM*%
%LPD*%
G01*
G04 APERTURE LIST*
%TA.AperFunction,ComponentPad*%
%ADD10C,2.300000*%
%TD*%
%TA.AperFunction,ComponentPad*%
%ADD11R,1.700000X1.700000*%
%TD*%
%TA.AperFunction,ComponentPad*%
%ADD12C,1.700000*%
%TD*%
%TA.AperFunction,SMDPad,CuDef*%
%ADD13R,1.200000X1.600000*%
%TD*%
%TA.AperFunction,Conductor*%
%ADD14C,0.400000*%
%TD*%
%TA.AperFunction,Conductor*%
%ADD15C,0.800000*%
%TD*%
G04 APERTURE END LIST*
D10*
%TO.P,REF\u002A\u002A,*%
%TO.N,*%
X171000000Y-92000000D03*
%TD*%
%TO.P,REF\u002A\u002A,*%
%TO.N,*%
X228000000Y-92000000D03*
%TD*%
%TO.P,REF\u002A\u002A,*%
%TO.N,*%
X199500000Y-61000000D03*
%TD*%
D11*
%TO.P,J4,1,Pin_1*%
%TO.N,Net-(J4-Pin_1)*%
X213740000Y-75950000D03*
D12*
%TO.P,J4,2,Pin_2*%
%TO.N,GND*%
X216280000Y-75950000D03*
%TO.P,J4,3,Pin_3*%
%TO.N,Pull up*%
X218820000Y-75950000D03*
%TO.P,J4,4,Pin_4*%
%TO.N,GND*%
X221360000Y-75950000D03*
%TO.P,J4,5,Pin_5*%
X223900000Y-75950000D03*
%TO.P,J4,6,Pin_6*%
%TO.N,Pull up*%
X226440000Y-75950000D03*
%TD*%
D11*
%TO.P,J8,1,Pin_1*%
%TO.N,Net-(J8-Pin_1)*%
X213740000Y-60950000D03*
D12*
%TO.P,J8,2,Pin_2*%
%TO.N,GND*%
X216280000Y-60950000D03*
%TO.P,J8,3,Pin_3*%
%TO.N,Pull up*%
X218820000Y-60950000D03*
%TO.P,J8,4,Pin_4*%
X221360000Y-60950000D03*
%TO.P,J8,5,Pin_5*%
%TO.N,GND*%
X223900000Y-60950000D03*
%TO.P,J8,6,Pin_6*%
%TO.N,Pull up*%
X226440000Y-60950000D03*
%TD*%
D11*
%TO.P,J1,1,Pin_1*%
%TO.N,Net-(J1-Pin_1)*%
X185000000Y-68500000D03*
D12*
%TO.P,J1,2,Pin_2*%
%TO.N,GND*%
X182460000Y-68500000D03*
%TO.P,J1,3,Pin_3*%
X179920000Y-68500000D03*
%TO.P,J1,4,Pin_4*%
X177380000Y-68500000D03*
%TO.P,J1,5,Pin_5*%
X174840000Y-68500000D03*
%TO.P,J1,6,Pin_6*%
%TO.N,Pull up*%
X172300000Y-68500000D03*
%TD*%
D11*
%TO.P,J3,1,Pin_1*%
%TO.N,Net-(J3-Pin_1)*%
X185000000Y-61000000D03*
D12*
%TO.P,J3,2,Pin_2*%
%TO.N,GND*%
X182460000Y-61000000D03*
%TO.P,J3,3,Pin_3*%
X179920000Y-61000000D03*
%TO.P,J3,4,Pin_4*%
X177380000Y-61000000D03*
%TO.P,J3,5,Pin_5*%
X174840000Y-61000000D03*
%TO.P,J3,6,Pin_6*%
X172300000Y-61000000D03*
%TD*%
D11*
%TO.P,J5,1,Pin_1*%
%TO.N,Net-(J5-Pin_1)*%
X213740000Y-83450000D03*
D12*
%TO.P,J5,2,Pin_2*%
%TO.N,GND*%
X216280000Y-83450000D03*
%TO.P,J5,3,Pin_3*%
%TO.N,Pull up*%
X218820000Y-83450000D03*
%TO.P,J5,4,Pin_4*%
%TO.N,GND*%
X221360000Y-83450000D03*
%TO.P,J5,5,Pin_5*%
X223900000Y-83450000D03*
%TO.P,J5,6,Pin_6*%
X226440000Y-83450000D03*
%TD*%
D11*
%TO.P,J2,1,Pin_1*%
%TO.N,Net-(J2-Pin_1)*%
X185000000Y-76000000D03*
D12*
%TO.P,J2,2,Pin_2*%
%TO.N,GND*%
X182460000Y-76000000D03*
%TO.P,J2,3,Pin_3*%
X179920000Y-76000000D03*
%TO.P,J2,4,Pin_4*%
%TO.N,Pull up*%
X177380000Y-76000000D03*
%TO.P,J2,5,Pin_5*%
%TO.N,GND*%
X174840000Y-76000000D03*
%TO.P,J2,6,Pin_6*%
X172300000Y-76000000D03*
%TD*%
D11*
%TO.P,J10,1,Pin_1*%
%TO.N,GND*%
X207000000Y-60460000D03*
D12*
%TO.P,J10,2,Pin_2*%
%TO.N,unconnected-(J10-Pin_2-Pad2)*%
X207000000Y-63000000D03*
%TO.P,J10,3,Pin_3*%
%TO.N,unconnected-(J10-Pin_3-Pad3)*%
X207000000Y-65540000D03*
%TO.P,J10,4,Pin_4*%
%TO.N,LED8*%
X207000000Y-68080000D03*
%TO.P,J10,5,Pin_5*%
%TO.N,LED7*%
X207000000Y-70620000D03*
%TO.P,J10,6,Pin_6*%
%TO.N,LED6*%
X207000000Y-73160000D03*
%TO.P,J10,7,Pin_7*%
%TO.N,LED5*%
X207000000Y-75700000D03*
%TD*%
D11*
%TO.P,J9,1,Pin_1*%
%TO.N,LED1*%
X191675000Y-60460000D03*
D12*
%TO.P,J9,2,Pin_2*%
%TO.N,LED2*%
X191675000Y-63000000D03*
%TO.P,J9,3,Pin_3*%
%TO.N,LED3*%
X191675000Y-65540000D03*
%TO.P,J9,4,Pin_4*%
%TO.N,LED4*%
X191675000Y-68080000D03*
%TO.P,J9,5,Pin_5*%
%TO.N,unconnected-(J9-Pin_5-Pad5)*%
X191675000Y-70620000D03*
%TO.P,J9,6,Pin_6*%
%TO.N,unconnected-(J9-Pin_6-Pad6)*%
X191675000Y-73160000D03*
%TO.P,J9,7,Pin_7*%
%TO.N,Pull up*%
X191675000Y-75700000D03*
%TD*%
D11*
%TO.P,J6,1,Pin_1*%
%TO.N,Net-(J6-Pin_1)*%
X185000000Y-83500000D03*
D12*
%TO.P,J6,2,Pin_2*%
%TO.N,GND*%
X182460000Y-83500000D03*
%TO.P,J6,3,Pin_3*%
X179920000Y-83500000D03*
%TO.P,J6,4,Pin_4*%
%TO.N,Pull up*%
X177380000Y-83500000D03*
%TO.P,J6,5,Pin_5*%
%TO.N,GND*%
X174840000Y-83500000D03*
%TO.P,J6,6,Pin_6*%
%TO.N,Pull up*%
X172300000Y-83500000D03*
%TD*%
D11*
%TO.P,J7,1,Pin_1*%
%TO.N,Net-(J7-Pin_1)*%
X213700000Y-68450000D03*
D12*
%TO.P,J7,2,Pin_2*%
%TO.N,GND*%
X216240000Y-68450000D03*
%TO.P,J7,3,Pin_3*%
%TO.N,Pull up*%
X218780000Y-68450000D03*
%TO.P,J7,4,Pin_4*%
X221320000Y-68450000D03*
%TO.P,J7,5,Pin_5*%
%TO.N,GND*%
X223860000Y-68450000D03*
%TO.P,J7,6,Pin_6*%
X226400000Y-68450000D03*
%TD*%
D13*
%TO.P,R12,1*%
%TO.N,Net-(J8-Pin_1)*%
X216400000Y-64450000D03*
%TO.P,R12,2*%
%TO.N,LED8*%
X213400000Y-64450000D03*
%TD*%
%TO.P,R1,1*%
%TO.N,Net-(J6-Pin_1)*%
X182500000Y-87000000D03*
%TO.P,R1,2*%
%TO.N,LED4*%
X185500000Y-87000000D03*
%TD*%
%TO.P,R9,1*%
%TO.N,Net-(J5-Pin_1)*%
X216400000Y-86950000D03*
%TO.P,R9,2*%
%TO.N,LED5*%
X213400000Y-86950000D03*
%TD*%
%TO.P,R2,1*%
%TO.N,Net-(J2-Pin_1)*%
X182500000Y-79500000D03*
%TO.P,R2,2*%
%TO.N,LED3*%
X185500000Y-79500000D03*
%TD*%
%TO.P,R7,1*%
%TO.N,Net-(J1-Pin_1)*%
X182500000Y-72000000D03*
%TO.P,R7,2*%
%TO.N,LED2*%
X185500000Y-72000000D03*
%TD*%
%TO.P,R11,1*%
%TO.N,Net-(J7-Pin_1)*%
X216360000Y-71950000D03*
%TO.P,R11,2*%
%TO.N,LED7*%
X213360000Y-71950000D03*
%TD*%
%TO.P,R10,1*%
%TO.N,Net-(J4-Pin_1)*%
X216400000Y-79450000D03*
%TO.P,R10,2*%
%TO.N,LED6*%
X213400000Y-79450000D03*
%TD*%
%TO.P,R8,1*%
%TO.N,Net-(J3-Pin_1)*%
X182500000Y-64500000D03*
%TO.P,R8,2*%
%TO.N,LED1*%
X185500000Y-64500000D03*
%TD*%
D14*
%TO.N,LED1*%
X191675000Y-60460000D02*
X189540000Y-60460000D01*
X189540000Y-60460000D02*
X185500000Y-64500000D01*
%TO.N,LED5*%
X207000000Y-75700000D02*
X207000000Y-80550000D01*
X207000000Y-80550000D02*
X213400000Y-86950000D01*
%TO.N,LED4*%
X189200000Y-83300000D02*
X185500000Y-87000000D01*
X191675000Y-68080000D02*
X189200000Y-70555000D01*
X189200000Y-70555000D02*
X189200000Y-83300000D01*
D15*
%TO.N,Pull up*%
X218820000Y-87532000D02*
X218820000Y-83450000D01*
X173951000Y-85151000D02*
X175729000Y-85151000D01*
X181998000Y-89500000D02*
X177380000Y-84882000D01*
X223011000Y-62601000D02*
X224789000Y-62601000D01*
X218820000Y-68410000D02*
X218780000Y-68450000D01*
X216852000Y-89500000D02*
X218820000Y-87532000D01*
X191675000Y-75700000D02*
X191675000Y-83827000D01*
X175729000Y-85151000D02*
X177380000Y-83500000D01*
X220471000Y-77601000D02*
X224789000Y-77601000D01*
X177380000Y-84882000D02*
X177380000Y-83500000D01*
X191675000Y-75700000D02*
X205475000Y-89500000D01*
X224789000Y-77601000D02*
X226440000Y-75950000D01*
X218780000Y-75910000D02*
X218820000Y-75950000D01*
X177380000Y-76000000D02*
X172300000Y-70920000D01*
X218780000Y-68450000D02*
X221320000Y-68450000D01*
X172300000Y-83500000D02*
X173951000Y-85151000D01*
X218820000Y-75950000D02*
X220471000Y-77601000D01*
X172300000Y-70920000D02*
X172300000Y-68500000D01*
X177380000Y-83500000D02*
X177380000Y-76000000D01*
X218820000Y-60950000D02*
X221360000Y-60950000D01*
X221360000Y-60950000D02*
X223011000Y-62601000D01*
X186002000Y-89500000D02*
X181998000Y-89500000D01*
X205475000Y-89500000D02*
X216852000Y-89500000D01*
X191675000Y-83827000D02*
X186002000Y-89500000D01*
X218820000Y-60950000D02*
X218820000Y-68410000D01*
X218780000Y-68450000D02*
X218780000Y-75910000D01*
X218820000Y-83450000D02*
X218820000Y-75950000D01*
X224789000Y-62601000D02*
X226440000Y-60950000D01*
D14*
%TO.N,LED7*%
X207000000Y-70620000D02*
X208330000Y-71950000D01*
X208330000Y-71950000D02*
X213360000Y-71950000D01*
%TO.N,LED3*%
X188100000Y-76900000D02*
X185500000Y-79500000D01*
X188100000Y-69115000D02*
X188100000Y-76900000D01*
X191675000Y-65540000D02*
X188100000Y-69115000D01*
%TO.N,LED2*%
X186900000Y-67775000D02*
X186900000Y-70600000D01*
X186900000Y-70600000D02*
X185500000Y-72000000D01*
X191675000Y-63000000D02*
X186900000Y-67775000D01*
%TO.N,LED6*%
X207000000Y-73160000D02*
X213290000Y-79450000D01*
X213290000Y-79450000D02*
X213400000Y-79450000D01*
%TO.N,LED8*%
X207000000Y-68080000D02*
X210630000Y-64450000D01*
X210630000Y-64450000D02*
X213400000Y-64450000D01*
%TO.N,Net-(J6-Pin_1)*%
X182500000Y-86000000D02*
X185000000Y-83500000D01*
X182500000Y-87000000D02*
X182500000Y-86000000D01*
%TO.N,Net-(J2-Pin_1)*%
X182500000Y-78500000D02*
X185000000Y-76000000D01*
X182500000Y-79500000D02*
X182500000Y-78500000D01*
%TO.N,Net-(J1-Pin_1)*%
X182500000Y-71000000D02*
X185000000Y-68500000D01*
X182500000Y-72000000D02*
X182500000Y-71000000D01*
%TO.N,Net-(J3-Pin_1)*%
X182500000Y-64500000D02*
X182500000Y-63500000D01*
X182500000Y-63500000D02*
X185000000Y-61000000D01*
%TO.N,Net-(J5-Pin_1)*%
X216400000Y-86950000D02*
X216400000Y-86110000D01*
X216400000Y-86110000D02*
X213740000Y-83450000D01*
%TO.N,Net-(J4-Pin_1)*%
X216400000Y-79450000D02*
X216400000Y-78610000D01*
X216400000Y-78610000D02*
X213740000Y-75950000D01*
%TO.N,Net-(J7-Pin_1)*%
X216360000Y-71110000D02*
X213700000Y-68450000D01*
X216360000Y-71950000D02*
X216360000Y-71110000D01*
%TO.N,Net-(J8-Pin_1)*%
X216400000Y-63610000D02*
X213740000Y-60950000D01*
X216400000Y-64450000D02*
X216400000Y-63610000D01*
%TD*%
%TA.AperFunction,Conductor*%
%TO.N,GND*%
G36*
X181994075Y-68692993D02*
G01*
X182059901Y-68807007D01*
X182152993Y-68900099D01*
X182267007Y-68965925D01*
X182330590Y-68982962D01*
X181698282Y-69615269D01*
X181698282Y-69615270D01*
X181752449Y-69654624D01*
X181941782Y-69751095D01*
X182143870Y-69816757D01*
X182353754Y-69850000D01*
X182359979Y-69850000D01*
X182427018Y-69869685D01*
X182472773Y-69922489D01*
X182482717Y-69991647D01*
X182453692Y-70055203D01*
X182447660Y-70061681D01*
X181955887Y-70553454D01*
X181925220Y-70599352D01*
X181893913Y-70646208D01*
X181890990Y-70650582D01*
X181837378Y-70695388D01*
X181801140Y-70704982D01*
X181792516Y-70705908D01*
X181657671Y-70756202D01*
X181657664Y-70756206D01*
X181542455Y-70842452D01*
X181542452Y-70842455D01*
X181456206Y-70957664D01*
X181456202Y-70957671D01*
X181405908Y-71092517D01*
X181400974Y-71138414D01*
X181399501Y-71152123D01*
X181399500Y-71152135D01*
X181399500Y-72847870D01*
X181399501Y-72847876D01*
X181405908Y-72907483D01*
X181456202Y-73042328D01*
X181456206Y-73042335D01*
X181542452Y-73157544D01*
X181542455Y-73157547D01*
X181657664Y-73243793D01*
X181657671Y-73243797D01*
X181792517Y-73294091D01*
X181792516Y-73294091D01*
X181799444Y-73294835D01*
X181852127Y-73300500D01*
X183147872Y-73300499D01*
X183207483Y-73294091D01*
X183342331Y-73243796D01*
X183457546Y-73157546D01*
X183543796Y-73042331D01*
X183594091Y-72907483D01*
X183600500Y-72847873D01*
X183600499Y-71152128D01*
X183594091Y-71092517D01*
X183593584Y-71091157D01*
X183568708Y-71024460D01*
X183563724Y-70954768D01*
X183597207Y-70893448D01*
X184603838Y-69886818D01*
X184665161Y-69853333D01*
X184691519Y-69850499D01*
X185897871Y-69850499D01*
X185897872Y-69850499D01*
X185957483Y-69844091D01*
X186009385Y-69824733D01*
X186032167Y-69816236D01*
X186101859Y-69811252D01*
X186163182Y-69844737D01*
X186196666Y-69906061D01*
X186199500Y-69932418D01*
X186199500Y-70258480D01*
X186179815Y-70325519D01*
X186163181Y-70346161D01*
X185846161Y-70663181D01*
X185784838Y-70696666D01*
X185758480Y-70699500D01*
X184852129Y-70699500D01*
X184852123Y-70699501D01*
X184792516Y-70705908D01*
X184657671Y-70756202D01*
X184657664Y-70756206D01*
X184542455Y-70842452D01*
X184542452Y-70842455D01*
X184456206Y-70957664D01*
X184456202Y-70957671D01*
X184405908Y-71092517D01*
X184400974Y-71138414D01*
X184399501Y-71152123D01*
X184399500Y-71152135D01*
X184399500Y-72847870D01*
X184399501Y-72847876D01*
X184405908Y-72907483D01*
X184456202Y-73042328D01*
X184456206Y-73042335D01*
X184542452Y-73157544D01*
X184542455Y-73157547D01*
X184657664Y-73243793D01*
X184657671Y-73243797D01*
X184792517Y-73294091D01*
X184792516Y-73294091D01*
X184799444Y-73294835D01*
X184852127Y-73300500D01*
X186147872Y-73300499D01*
X186207483Y-73294091D01*
X186342331Y-73243796D01*
X186457546Y-73157546D01*
X186543796Y-73042331D01*
X186594091Y-72907483D01*
X186600500Y-72847873D01*
X186600499Y-71941517D01*
X186620183Y-71874479D01*
X186636813Y-71853842D01*
X187187820Y-71302836D01*
X187249142Y-71269352D01*
X187318834Y-71274336D01*
X187374767Y-71316208D01*
X187399184Y-71381672D01*
X187399500Y-71390518D01*
X187399500Y-76558480D01*
X187379815Y-76625519D01*
X187363181Y-76646161D01*
X185846160Y-78163181D01*
X185784837Y-78196666D01*
X185758479Y-78199500D01*
X184852129Y-78199500D01*
X184852123Y-78199501D01*
X184792516Y-78205908D01*
X184657671Y-78256202D01*
X184657664Y-78256206D01*
X184542455Y-78342452D01*
X184542452Y-78342455D01*
X184456206Y-78457664D01*
X184456202Y-78457671D01*
X184405908Y-78592517D01*
X184399501Y-78652116D01*
X184399501Y-78652123D01*
X184399500Y-78652135D01*
X184399500Y-80347870D01*
X184399501Y-80347876D01*
X184405908Y-80407483D01*
X184456202Y-80542328D01*
X184456206Y-80542335D01*
X184542452Y-80657544D01*
X184542455Y-80657547D01*
X184657664Y-80743793D01*
X184657671Y-80743797D01*
X184792517Y-80794091D01*
X184792516Y-80794091D01*
X184799444Y-80794835D01*
X184852127Y-80800500D01*
X186147872Y-80800499D01*
X186207483Y-80794091D01*
X186342331Y-80743796D01*
X186457546Y-80657546D01*
X186543796Y-80542331D01*
X186594091Y-80407483D01*
X186600500Y-80347873D01*
X186600499Y-79441517D01*
X186620183Y-79374479D01*
X186636813Y-79353842D01*
X188287820Y-77702835D01*
X188349142Y-77669352D01*
X188418834Y-77674336D01*
X188474767Y-77716208D01*
X188499184Y-77781672D01*
X188499500Y-77790518D01*
X188499500Y-82958480D01*
X188479815Y-83025519D01*
X188463181Y-83046161D01*
X185846160Y-85663181D01*
X185784837Y-85696666D01*
X185758479Y-85699500D01*
X184852129Y-85699500D01*
X184852123Y-85699501D01*
X184792516Y-85705908D01*
X184657671Y-85756202D01*
X184657664Y-85756206D01*
X184542455Y-85842452D01*
X184542452Y-85842455D01*
X184456206Y-85957664D01*
X184456204Y-85957669D01*
X184405908Y-86092517D01*
X184399501Y-86152116D01*
X184399501Y-86152123D01*
X184399500Y-86152135D01*
X184399500Y-87847870D01*
X184399501Y-87847876D01*
X184405908Y-87907483D01*
X184456202Y-88042328D01*
X184456206Y-88042335D01*
X184542452Y-88157544D01*
X184542455Y-88157547D01*
X184657664Y-88243793D01*
X184657671Y-88243797D01*
X184792517Y-88294091D01*
X184792516Y-88294091D01*
X184799444Y-88294835D01*
X184852127Y-88300500D01*
X185628638Y-88300499D01*
X185649885Y-88306737D01*
X185671970Y-88308317D01*
X185682751Y-88316387D01*
X185695677Y-88320183D01*
X185710179Y-88336919D01*
X185727904Y-88350188D01*
X185732610Y-88362806D01*
X185741432Y-88372987D01*
X185744583Y-88394905D01*
X185752322Y-88415652D01*
X185749459Y-88428813D01*
X185751376Y-88442146D01*
X185742177Y-88462287D01*
X185737471Y-88483925D01*
X185724200Y-88501651D01*
X185722351Y-88505702D01*
X185716320Y-88512179D01*
X185665320Y-88563180D01*
X185603997Y-88596666D01*
X185577638Y-88599500D01*
X182422362Y-88599500D01*
X182355323Y-88579815D01*
X182334681Y-88563181D01*
X182283680Y-88512180D01*
X182250195Y-88450857D01*
X182255179Y-88381165D01*
X182297051Y-88325232D01*
X182362515Y-88300815D01*
X182371361Y-88300499D01*
X183147871Y-88300499D01*
X183147872Y-88300499D01*
X183207483Y-88294091D01*
X183342331Y-88243796D01*
X183457546Y-88157546D01*
X183543796Y-88042331D01*
X183594091Y-87907483D01*
X183600500Y-87847873D01*
X183600499Y-86152128D01*
X183594091Y-86092517D01*
X183594091Y-86092516D01*
X183568708Y-86024460D01*
X183563724Y-85954768D01*
X183597207Y-85893448D01*
X184603838Y-84886818D01*
X184665161Y-84853333D01*
X184691519Y-84850499D01*
X185897871Y-84850499D01*
X185897872Y-84850499D01*
X185957483Y-84844091D01*
X186092331Y-84793796D01*
X186207546Y-84707546D01*
X186293796Y-84592331D01*
X186344091Y-84457483D01*
X186350500Y-84397873D01*
X186350499Y-82602128D01*
X186344091Y-82542517D01*
X186328231Y-82499995D01*
X186293797Y-82407671D01*
X186293793Y-82407664D01*
X186207547Y-82292455D01*
X186207544Y-82292452D01*
X186092335Y-82206206D01*
X186092328Y-82206202D01*
X185957482Y-82155908D01*
X185957483Y-82155908D01*
X185897883Y-82149501D01*
X185897881Y-82149500D01*
X185897873Y-82149500D01*
X185897864Y-82149500D01*
X184102129Y-82149500D01*
X184102123Y-82149501D01*
X184042516Y-82155908D01*
X183907671Y-82206202D01*
X183907664Y-82206206D01*
X183792455Y-82292452D01*
X183792452Y-82292455D01*
X183706206Y-82407664D01*
X183706202Y-82407671D01*
X183655908Y-82542517D01*
X183652931Y-82570213D01*
X183649501Y-82602123D01*
X183649500Y-82602135D01*
X183649500Y-82612690D01*
X183629815Y-82679729D01*
X183613181Y-82700371D01*
X182942962Y-83370590D01*
X182925925Y-83307007D01*
X182860099Y-83192993D01*
X182767007Y-83099901D01*
X182652993Y-83034075D01*
X182589409Y-83017037D01*
X183221716Y-82384728D01*
X183167550Y-82345375D01*
X182978217Y-82248904D01*
X182776129Y-82183242D01*
X182566246Y-82150000D01*
X182353754Y-82150000D01*
X182143872Y-82183242D01*
X182143869Y-82183242D01*
X181941782Y-82248904D01*
X181752439Y-82345380D01*
X181698282Y-82384727D01*
X181698282Y-82384728D01*
X182330591Y-83017037D01*
X182267007Y-83034075D01*
X182152993Y-83099901D01*
X182059901Y-83192993D01*
X181994075Y-83307007D01*
X181977037Y-83370591D01*
X181344728Y-82738282D01*
X181344727Y-82738282D01*
X181305380Y-82792440D01*
X181300483Y-82802051D01*
X181252506Y-82852845D01*
X181184684Y-82869638D01*
X181118550Y-82847098D01*
X181079516Y-82802048D01*
X181074626Y-82792452D01*
X181035270Y-82738282D01*
X181035269Y-82738282D01*
X180402962Y-83370590D01*
X180385925Y-83307007D01*
X180320099Y-83192993D01*
X180227007Y-83099901D01*
X180112993Y-83034075D01*
X180049409Y-83017037D01*
X180681716Y-82384728D01*
X180627550Y-82345375D01*
X180438217Y-82248904D01*
X180236129Y-82183242D01*
X180026246Y-82150000D01*
X179813754Y-82150000D01*
X179603872Y-82183242D01*
X179603869Y-82183242D01*
X179401782Y-82248904D01*
X179212439Y-82345380D01*
X179158282Y-82384727D01*
X179158282Y-82384728D01*
X179790591Y-83017037D01*
X179727007Y-83034075D01*
X179612993Y-83099901D01*
X179519901Y-83192993D01*
X179454075Y-83307007D01*
X179437037Y-83370591D01*
X178804728Y-82738282D01*
X178804727Y-82738282D01*
X178765380Y-82792440D01*
X178765376Y-82792446D01*
X178760760Y-82801505D01*
X178712781Y-82852297D01*
X178644959Y-82869087D01*
X178578826Y-82846543D01*
X178539794Y-82801493D01*
X178535051Y-82792184D01*
X178535049Y-82792181D01*
X178535048Y-82792179D01*
X178410109Y-82620213D01*
X178316819Y-82526923D01*
X178302115Y-82499995D01*
X178285523Y-82474177D01*
X178284631Y-82467976D01*
X178283334Y-82465600D01*
X178280500Y-82439242D01*
X178280500Y-77060758D01*
X178300185Y-76993719D01*
X178316819Y-76973077D01*
X178332414Y-76957482D01*
X178410104Y-76879792D01*
X178410106Y-76879788D01*
X178410109Y-76879786D01*
X178495890Y-76761717D01*
X178535051Y-76707816D01*
X178539793Y-76698508D01*
X178587763Y-76647711D01*
X178655583Y-76630911D01*
X178721719Y-76653445D01*
X178760763Y-76698500D01*
X178765373Y-76707547D01*
X178804728Y-76761716D01*
X179437037Y-76129408D01*
X179454075Y-76192993D01*
X179519901Y-76307007D01*
X179612993Y-76400099D01*
X179727007Y-76465925D01*
X179790590Y-76482962D01*
X179158282Y-77115269D01*
X179158282Y-77115270D01*
X179212449Y-77154624D01*
X179401782Y-77251095D01*
X179603870Y-77316757D01*
X179813754Y-77350000D01*
X180026246Y-77350000D01*
X180236127Y-77316757D01*
X180236130Y-77316757D01*
X180438217Y-77251095D01*
X180627554Y-77154622D01*
X180681716Y-77115270D01*
X180681717Y-77115270D01*
X180049408Y-76482962D01*
X180112993Y-76465925D01*
X180227007Y-76400099D01*
X180320099Y-76307007D01*
X180385925Y-76192993D01*
X180402962Y-76129408D01*
X181035270Y-76761717D01*
X181035270Y-76761716D01*
X181074622Y-76707554D01*
X181079514Y-76697954D01*
X181127488Y-76647157D01*
X181195308Y-76630361D01*
X181261444Y-76652897D01*
X181300486Y-76697954D01*
X181305375Y-76707550D01*
X181344728Y-76761716D01*
X181977037Y-76129408D01*
X181994075Y-76192993D01*
X182059901Y-76307007D01*
X182152993Y-76400099D01*
X182267007Y-76465925D01*
X182330590Y-76482962D01*
X181698282Y-77115269D01*
X181698282Y-77115270D01*
X181752449Y-77154624D01*
X181941782Y-77251095D01*
X182143870Y-77316757D01*
X182353754Y-77350000D01*
X182359979Y-77350000D01*
X182427018Y-77369685D01*
X182472773Y-77422489D01*
X182482717Y-77491647D01*
X182453692Y-77555203D01*
X182447660Y-77561681D01*
X181955887Y-78053454D01*
X181891712Y-78149501D01*
X181891711Y-78149503D01*
X181890988Y-78150585D01*
X181837375Y-78195389D01*
X181801140Y-78204982D01*
X181792516Y-78205908D01*
X181657671Y-78256202D01*
X181657664Y-78256206D01*
X181542455Y-78342452D01*
X181542452Y-78342455D01*
X181456206Y-78457664D01*
X181456202Y-78457671D01*
X181405908Y-78592517D01*
X181399501Y-78652116D01*
X181399501Y-78652123D01*
X181399500Y-78652135D01*
X181399500Y-80347870D01*
X181399501Y-80347876D01*
X181405908Y-80407483D01*
X181456202Y-80542328D01*
X181456206Y-80542335D01*
X181542452Y-80657544D01*
X181542455Y-80657547D01*
X181657664Y-80743793D01*
X181657671Y-80743797D01*
X181792517Y-80794091D01*
X181792516Y-80794091D01*
X181799444Y-80794835D01*
X181852127Y-80800500D01*
X183147872Y-80800499D01*
X183207483Y-80794091D01*
X183342331Y-80743796D01*
X183457546Y-80657546D01*
X183543796Y-80542331D01*
X183594091Y-80407483D01*
X183600500Y-80347873D01*
X183600499Y-78652128D01*
X183594091Y-78592517D01*
X183594091Y-78592516D01*
X183568708Y-78524460D01*
X183563724Y-78454768D01*
X183597207Y-78393448D01*
X184603838Y-77386818D01*
X184665161Y-77353333D01*
X184691519Y-77350499D01*
X185897871Y-77350499D01*
X185897872Y-77350499D01*
X185957483Y-77344091D01*
X186092331Y-77293796D01*
X186207546Y-77207546D01*
X186293796Y-77092331D01*
X186344091Y-76957483D01*
X186350500Y-76897873D01*
X186350499Y-75102128D01*
X186344091Y-75042517D01*
X186325442Y-74992517D01*
X186293797Y-74907671D01*
X186293793Y-74907664D01*
X186207547Y-74792455D01*
X186207544Y-74792452D01*
X186092335Y-74706206D01*
X186092328Y-74706202D01*
X185957482Y-74655908D01*
X185957483Y-74655908D01*
X185897883Y-74649501D01*
X185897881Y-74649500D01*
X185897873Y-74649500D01*
X185897864Y-74649500D01*
X184102129Y-74649500D01*
X184102123Y-74649501D01*
X184042516Y-74655908D01*
X183907671Y-74706202D01*
X183907664Y-74706206D01*
X183792455Y-74792452D01*
X183792452Y-74792455D01*
X183706206Y-74907664D01*
X183706202Y-74907671D01*
X183655908Y-75042517D01*
X183650907Y-75089036D01*
X183649501Y-75102123D01*
X183649500Y-75102135D01*
X183649500Y-75112690D01*
X183629815Y-75179729D01*
X183613181Y-75200371D01*
X182942962Y-75870590D01*
X182925925Y-75807007D01*
X182860099Y-75692993D01*
X182767007Y-75599901D01*
X182652993Y-75534075D01*
X182589409Y-75517037D01*
X183221716Y-74884728D01*
X183167550Y-74845375D01*
X182978217Y-74748904D01*
X182776129Y-74683242D01*
X182566246Y-74650000D01*
X182353754Y-74650000D01*
X182143872Y-74683242D01*
X182143869Y-74683242D01*
X181941782Y-74748904D01*
X181752439Y-74845380D01*
X181698282Y-74884727D01*
X181698282Y-74884728D01*
X182330591Y-75517037D01*
X182267007Y-75534075D01*
X182152993Y-75599901D01*
X182059901Y-75692993D01*
X181994075Y-75807007D01*
X181977037Y-75870591D01*
X181344728Y-75238282D01*
X181344727Y-75238282D01*
X181305380Y-75292440D01*
X181300483Y-75302051D01*
X181252506Y-75352845D01*
X181184684Y-75369638D01*
X181118550Y-75347098D01*
X181079516Y-75302048D01*
X181074626Y-75292452D01*
X181035270Y-75238282D01*
X181035269Y-75238282D01*
X180402962Y-75870590D01*
X180385925Y-75807007D01*
X180320099Y-75692993D01*
X180227007Y-75599901D01*
X180112993Y-75534075D01*
X180049409Y-75517037D01*
X180681716Y-74884728D01*
X180627550Y-74845375D01*
X180438217Y-74748904D01*
X180236129Y-74683242D01*
X180026246Y-74650000D01*
X179813754Y-74650000D01*
X179603872Y-74683242D01*
X179603869Y-74683242D01*
X179401782Y-74748904D01*
X179212439Y-74845380D01*
X179158282Y-74884727D01*
X179158282Y-74884728D01*
X179790591Y-75517037D01*
X179727007Y-75534075D01*
X179612993Y-75599901D01*
X179519901Y-75692993D01*
X179454075Y-75807007D01*
X179437037Y-75870591D01*
X178804728Y-75238282D01*
X178804727Y-75238282D01*
X178765380Y-75292440D01*
X178765376Y-75292446D01*
X178760760Y-75301505D01*
X178712781Y-75352297D01*
X178644959Y-75369087D01*
X178578826Y-75346543D01*
X178539794Y-75301493D01*
X178535051Y-75292184D01*
X178535049Y-75292181D01*
X178535048Y-75292179D01*
X178410109Y-75120213D01*
X178259786Y-74969890D01*
X178087820Y-74844951D01*
X177898414Y-74748444D01*
X177898413Y-74748443D01*
X177898412Y-74748443D01*
X177696243Y-74682754D01*
X177696241Y-74682753D01*
X177696240Y-74682753D01*
X177528601Y-74656202D01*
X177486287Y-74649500D01*
X177486286Y-74649500D01*
X177354362Y-74649500D01*
X177287323Y-74629815D01*
X177266681Y-74613181D01*
X173236819Y-70583319D01*
X173203334Y-70521996D01*
X173200500Y-70495638D01*
X173200500Y-69560758D01*
X173220185Y-69493719D01*
X173236819Y-69473077D01*
X173279566Y-69430330D01*
X173330104Y-69379792D01*
X173330106Y-69379788D01*
X173330109Y-69379786D01*
X173415890Y-69261717D01*
X173455051Y-69207816D01*
X173459793Y-69198508D01*
X173507763Y-69147711D01*
X173575583Y-69130911D01*
X173641719Y-69153445D01*
X173680763Y-69198500D01*
X173685373Y-69207547D01*
X173724728Y-69261716D01*
X174357037Y-68629408D01*
X174374075Y-68692993D01*
X174439901Y-68807007D01*
X174532993Y-68900099D01*
X174647007Y-68965925D01*
X174710590Y-68982962D01*
X174078282Y-69615269D01*
X174078282Y-69615270D01*
X174132449Y-69654624D01*
X174321782Y-69751095D01*
X174523870Y-69816757D01*
X174733754Y-69850000D01*
X174946246Y-69850000D01*
X175156127Y-69816757D01*
X175156130Y-69816757D01*
X175358217Y-69751095D01*
X175547554Y-69654622D01*
X175601716Y-69615270D01*
X175601717Y-69615270D01*
X174969408Y-68982962D01*
X175032993Y-68965925D01*
X175147007Y-68900099D01*
X175240099Y-68807007D01*
X175305925Y-68692993D01*
X175322962Y-68629409D01*
X175955270Y-69261717D01*
X175955270Y-69261716D01*
X175994622Y-69207554D01*
X175999514Y-69197954D01*
X176047488Y-69147157D01*
X176115308Y-69130361D01*
X176181444Y-69152897D01*
X176220486Y-69197954D01*
X176225375Y-69207550D01*
X176264728Y-69261716D01*
X176897037Y-68629408D01*
X176914075Y-68692993D01*
X176979901Y-68807007D01*
X177072993Y-68900099D01*
X177187007Y-68965925D01*
X177250590Y-68982962D01*
X176618282Y-69615269D01*
X176618282Y-69615270D01*
X176672449Y-69654624D01*
X176861782Y-69751095D01*
X177063870Y-69816757D01*
X177273754Y-69850000D01*
X177486246Y-69850000D01*
X177696127Y-69816757D01*
X177696130Y-69816757D01*
X177898217Y-69751095D01*
X178087554Y-69654622D01*
X178141716Y-69615270D01*
X178141717Y-69615270D01*
X177509408Y-68982962D01*
X177572993Y-68965925D01*
X177687007Y-68900099D01*
X177780099Y-68807007D01*
X177845925Y-68692993D01*
X177862962Y-68629408D01*
X178495270Y-69261717D01*
X178495270Y-69261716D01*
X178534622Y-69207554D01*
X178539514Y-69197954D01*
X178587488Y-69147157D01*
X178655308Y-69130361D01*
X178721444Y-69152897D01*
X178760486Y-69197954D01*
X178765375Y-69207550D01*
X178804728Y-69261716D01*
X179437037Y-68629408D01*
X179454075Y-68692993D01*
X179519901Y-68807007D01*
X179612993Y-68900099D01*
X179727007Y-68965925D01*
X179790590Y-68982962D01*
X179158282Y-69615269D01*
X179158282Y-69615270D01*
X179212449Y-69654624D01*
X179401782Y-69751095D01*
X179603870Y-69816757D01*
X179813754Y-69850000D01*
X180026246Y-69850000D01*
X180236127Y-69816757D01*
X180236130Y-69816757D01*
X180438217Y-69751095D01*
X180627554Y-69654622D01*
X180681716Y-69615270D01*
X180681717Y-69615270D01*
X180049408Y-68982962D01*
X180112993Y-68965925D01*
X180227007Y-68900099D01*
X180320099Y-68807007D01*
X180385925Y-68692993D01*
X180402962Y-68629408D01*
X181035270Y-69261717D01*
X181035270Y-69261716D01*
X181074622Y-69207554D01*
X181079514Y-69197954D01*
X181127488Y-69147157D01*
X181195308Y-69130361D01*
X181261444Y-69152897D01*
X181300486Y-69197954D01*
X181305375Y-69207550D01*
X181344728Y-69261716D01*
X181977037Y-68629408D01*
X181994075Y-68692993D01*
G37*
%TD.AperFunction*%
%TA.AperFunction,Conductor*%
G36*
X181994075Y-83692993D02*
G01*
X182059901Y-83807007D01*
X182152993Y-83900099D01*
X182267007Y-83965925D01*
X182330590Y-83982962D01*
X181698282Y-84615269D01*
X181698282Y-84615270D01*
X181752449Y-84654624D01*
X181941782Y-84751095D01*
X182143870Y-84816757D01*
X182353754Y-84850000D01*
X182359979Y-84850000D01*
X182427018Y-84869685D01*
X182472773Y-84922489D01*
X182482717Y-84991647D01*
X182453692Y-85055203D01*
X182447660Y-85061681D01*
X181955887Y-85553454D01*
X181891712Y-85649501D01*
X181891711Y-85649503D01*
X181890988Y-85650585D01*
X181837375Y-85695389D01*
X181801140Y-85704982D01*
X181792516Y-85705908D01*
X181657671Y-85756202D01*
X181657664Y-85756206D01*
X181542455Y-85842452D01*
X181542452Y-85842455D01*
X181456206Y-85957664D01*
X181456204Y-85957669D01*
X181405908Y-86092517D01*
X181399501Y-86152116D01*
X181399501Y-86152123D01*
X181399500Y-86152135D01*
X181399500Y-87328638D01*
X181379815Y-87395677D01*
X181327011Y-87441432D01*
X181257853Y-87451376D01*
X181194297Y-87422351D01*
X181187819Y-87416319D01*
X178368379Y-84596879D01*
X178334894Y-84535556D01*
X178339878Y-84465864D01*
X178368379Y-84421517D01*
X178388861Y-84401035D01*
X178410104Y-84379792D01*
X178410106Y-84379788D01*
X178410109Y-84379786D01*
X178495890Y-84261717D01*
X178535051Y-84207816D01*
X178539793Y-84198508D01*
X178587763Y-84147711D01*
X178655583Y-84130911D01*
X178721719Y-84153445D01*
X178760763Y-84198500D01*
X178765373Y-84207547D01*
X178804728Y-84261716D01*
X179437037Y-83629408D01*
X179454075Y-83692993D01*
X179519901Y-83807007D01*
X179612993Y-83900099D01*
X179727007Y-83965925D01*
X179790590Y-83982962D01*
X179158282Y-84615269D01*
X179158282Y-84615270D01*
X179212449Y-84654624D01*
X179401782Y-84751095D01*
X179603870Y-84816757D01*
X179813754Y-84850000D01*
X180026246Y-84850000D01*
X180236127Y-84816757D01*
X180236130Y-84816757D01*
X180438217Y-84751095D01*
X180627554Y-84654622D01*
X180681716Y-84615270D01*
X180681717Y-84615270D01*
X180049408Y-83982962D01*
X180112993Y-83965925D01*
X180227007Y-83900099D01*
X180320099Y-83807007D01*
X180385925Y-83692993D01*
X180402962Y-83629408D01*
X181035270Y-84261717D01*
X181035270Y-84261716D01*
X181074622Y-84207554D01*
X181079514Y-84197954D01*
X181127488Y-84147157D01*
X181195308Y-84130361D01*
X181261444Y-84152897D01*
X181300486Y-84197954D01*
X181305375Y-84207550D01*
X181344728Y-84261716D01*
X181977037Y-83629408D01*
X181994075Y-83692993D01*
G37*
%TD.AperFunction*%
%TA.AperFunction,Conductor*%
G36*
X217395270Y-84211717D02*
G01*
X217395270Y-84211716D01*
X217434622Y-84157555D01*
X217439232Y-84148507D01*
X217487205Y-84097709D01*
X217555025Y-84080912D01*
X217621161Y-84103447D01*
X217660204Y-84148504D01*
X217664949Y-84157817D01*
X217789890Y-84329786D01*
X217883181Y-84423077D01*
X217916666Y-84484400D01*
X217919500Y-84510758D01*
X217919500Y-87107637D01*
X217910855Y-87137077D01*
X217904332Y-87167064D01*
X217900577Y-87172079D01*
X217899815Y-87174676D01*
X217883181Y-87195318D01*
X217712180Y-87366319D01*
X217650857Y-87399804D01*
X217581165Y-87394820D01*
X217525232Y-87352948D01*
X217500815Y-87287484D01*
X217500499Y-87278638D01*
X217500499Y-86102129D01*
X217500498Y-86102123D01*
X217500497Y-86102116D01*
X217494091Y-86042517D01*
X217489209Y-86029429D01*
X217443797Y-85907671D01*
X217443793Y-85907664D01*
X217357547Y-85792455D01*
X217357544Y-85792452D01*
X217242335Y-85706206D01*
X217242328Y-85706202D01*
X217107482Y-85655908D01*
X217107483Y-85655908D01*
X217047883Y-85649501D01*
X217047881Y-85649500D01*
X217047873Y-85649500D01*
X217047865Y-85649500D01*
X216981519Y-85649500D01*
X216914480Y-85629815D01*
X216893838Y-85613181D01*
X216292338Y-85011681D01*
X216258853Y-84950358D01*
X216263837Y-84880666D01*
X216305709Y-84824733D01*
X216371173Y-84800316D01*
X216380019Y-84800000D01*
X216386246Y-84800000D01*
X216596127Y-84766757D01*
X216596130Y-84766757D01*
X216798217Y-84701095D01*
X216987554Y-84604622D01*
X217041716Y-84565270D01*
X217041717Y-84565270D01*
X216409408Y-83932962D01*
X216472993Y-83915925D01*
X216587007Y-83850099D01*
X216680099Y-83757007D01*
X216745925Y-83642993D01*
X216762962Y-83579409D01*
X217395270Y-84211717D01*
G37*
%TD.AperFunction*%
%TA.AperFunction,Conductor*%
G36*
X228003736Y-58500726D02*
G01*
X228293796Y-58518271D01*
X228308659Y-58520076D01*
X228590798Y-58571780D01*
X228605335Y-58575363D01*
X228879172Y-58660695D01*
X228893163Y-58666000D01*
X229154743Y-58783727D01*
X229167989Y-58790680D01*
X229413465Y-58939075D01*
X229425776Y-58947573D01*
X229640642Y-59115909D01*
X229651573Y-59124473D01*
X229662781Y-59134403D01*
X229865596Y-59337218D01*
X229875526Y-59348426D01*
X229890788Y-59367906D01*
X230042951Y-59562129D01*
X230052422Y-59574217D01*
X230060926Y-59586537D01*
X230181760Y-59786421D01*
X230209316Y-59832004D01*
X230216275Y-59845263D01*
X230333997Y-60106831D01*
X230339306Y-60120832D01*
X230424635Y-60394663D01*
X230428219Y-60409201D01*
X230479923Y-60691340D01*
X230481728Y-60706205D01*
X230499274Y-60996263D01*
X230499500Y-61003750D01*
X230499500Y-91996249D01*
X230499274Y-92003736D01*
X230481728Y-92293794D01*
X230479923Y-92308659D01*
X230428219Y-92590798D01*
X230424635Y-92605336D01*
X230339306Y-92879167D01*
X230333997Y-92893168D01*
X230216275Y-93154736D01*
X230209316Y-93167995D01*
X230060928Y-93413459D01*
X230052422Y-93425782D01*
X229875526Y-93651573D01*
X229865596Y-93662781D01*
X229662781Y-93865596D01*
X229651573Y-93875526D01*
X229425782Y-94052422D01*
X229413459Y-94060928D01*
X229167995Y-94209316D01*
X229154736Y-94216275D01*
X228893168Y-94333997D01*
X228879167Y-94339306D01*
X228605336Y-94424635D01*
X228590798Y-94428219D01*
X228308659Y-94479923D01*
X228293794Y-94481728D01*
X228003736Y-94499274D01*
X227996249Y-94499500D01*
X171003751Y-94499500D01*
X170996264Y-94499274D01*
X170706205Y-94481728D01*
X170691340Y-94479923D01*
X170409201Y-94428219D01*
X170394663Y-94424635D01*
X170120832Y-94339306D01*
X170106831Y-94333997D01*
X169845263Y-94216275D01*
X169832004Y-94209316D01*
X169586540Y-94060928D01*
X169574217Y-94052422D01*
X169348426Y-93875526D01*
X169337218Y-93865596D01*
X169134403Y-93662781D01*
X169124473Y-93651573D01*
X169028897Y-93529579D01*
X168947573Y-93425776D01*
X168939075Y-93413465D01*
X168790680Y-93167989D01*
X168783727Y-93154743D01*
X168666000Y-92893163D01*
X168660693Y-92879167D01*
X168656295Y-92865054D01*
X168575363Y-92605335D01*
X168571780Y-92590798D01*
X168520076Y-92308659D01*
X168518271Y-92293794D01*
X168500726Y-92003736D01*
X168500500Y-91996249D01*
X168500500Y-91870097D01*
X169349500Y-91870097D01*
X169349500Y-92129902D01*
X169390140Y-92386493D01*
X169470422Y-92633576D01*
X169551534Y-92792764D01*
X169588366Y-92865051D01*
X169741069Y-93075229D01*
X169924771Y-93258931D01*
X170134949Y-93411634D01*
X170282445Y-93486787D01*
X170366423Y-93529577D01*
X170366425Y-93529577D01*
X170366428Y-93529579D01*
X170613507Y-93609860D01*
X170745706Y-93630797D01*
X170870098Y-93650500D01*
X170870103Y-93650500D01*
X171129902Y-93650500D01*
X171243298Y-93632539D01*
X171386493Y-93609860D01*
X171633572Y-93529579D01*
X171865051Y-93411634D01*
X172075229Y-93258931D01*
X172258931Y-93075229D01*
X172411634Y-92865051D01*
X172529579Y-92633572D01*
X172609860Y-92386493D01*
X172643837Y-92171969D01*
X172650500Y-92129902D01*
X172650500Y-91870097D01*
X226349500Y-91870097D01*
X226349500Y-92129902D01*
X226390140Y-92386493D01*
X226470422Y-92633576D01*
X226551534Y-92792764D01*
X226588366Y-92865051D01*
X226741069Y-93075229D01*
X226924771Y-93258931D01*
X227134949Y-93411634D01*
X227282445Y-93486787D01*
X227366423Y-93529577D01*
X227366425Y-93529577D01*
X227366428Y-93529579D01*
X227613507Y-93609860D01*
X227745706Y-93630797D01*
X227870098Y-93650500D01*
X227870103Y-93650500D01*
X228129902Y-93650500D01*
X228243298Y-93632539D01*
X228386493Y-93609860D01*
X228633572Y-93529579D01*
X228865051Y-93411634D01*
X229075229Y-93258931D01*
X229258931Y-93075229D01*
X229411634Y-92865051D01*
X229529579Y-92633572D01*
X229609860Y-92386493D01*
X229643837Y-92171969D01*
X229650500Y-92129902D01*
X229650500Y-91870097D01*
X229628947Y-91734021D01*
X229609860Y-91613507D01*
X229529579Y-91366428D01*
X229529577Y-91366425D01*
X229529577Y-91366423D01*
X229486787Y-91282445D01*
X229411634Y-91134949D01*
X229258931Y-90924771D01*
X229075229Y-90741069D01*
X228865051Y-90588366D01*
X228792764Y-90551534D01*
X228633576Y-90470422D01*
X228386493Y-90390140D01*
X228129902Y-90349500D01*
X228129897Y-90349500D01*
X227870103Y-90349500D01*
X227870098Y-90349500D01*
X227613506Y-90390140D01*
X227366423Y-90470422D01*
X227134945Y-90588368D01*
X226924774Y-90741066D01*
X226924768Y-90741071D01*
X226741071Y-90924768D01*
X226741066Y-90924774D01*
X226588368Y-91134945D01*
X226470422Y-91366423D01*
X226390140Y-91613506D01*
X226349500Y-91870097D01*
X172650500Y-91870097D01*
X172628947Y-91734021D01*
X172609860Y-91613507D01*
X172529579Y-91366428D01*
X172529577Y-91366425D01*
X172529577Y-91366423D01*
X172486787Y-91282445D01*
X172411634Y-91134949D01*
X172258931Y-90924771D01*
X172075229Y-90741069D01*
X171865051Y-90588366D01*
X171792764Y-90551534D01*
X171633576Y-90470422D01*
X171386493Y-90390140D01*
X171129902Y-90349500D01*
X171129897Y-90349500D01*
X170870103Y-90349500D01*
X170870098Y-90349500D01*
X170613506Y-90390140D01*
X170366423Y-90470422D01*
X170134945Y-90588368D01*
X169924774Y-90741066D01*
X169924768Y-90741071D01*
X169741071Y-90924768D01*
X169741066Y-90924774D01*
X169588368Y-91134945D01*
X169470422Y-91366423D01*
X169390140Y-91613506D01*
X169349500Y-91870097D01*
X168500500Y-91870097D01*
X168500500Y-68393713D01*
X170949500Y-68393713D01*
X170949500Y-68606286D01*
X170978251Y-68787816D01*
X170982754Y-68816243D01*
X171029394Y-68959786D01*
X171048444Y-69018414D01*
X171144951Y-69207820D01*
X171269890Y-69379786D01*
X171363181Y-69473077D01*
X171396666Y-69534400D01*
X171399500Y-69560758D01*
X171399500Y-71008696D01*
X171434103Y-71182659D01*
X171434104Y-71182663D01*
X171434105Y-71182666D01*
X171465220Y-71257782D01*
X171501987Y-71346547D01*
X171561063Y-71434959D01*
X171564291Y-71439790D01*
X171564292Y-71439792D01*
X171600534Y-71494034D01*
X174581703Y-74475203D01*
X174615188Y-74536526D01*
X174610204Y-74606218D01*
X174568332Y-74662151D01*
X174528260Y-74680976D01*
X174528507Y-74681736D01*
X174321782Y-74748904D01*
X174132439Y-74845380D01*
X174078282Y-74884727D01*
X174078282Y-74884728D01*
X174710591Y-75517037D01*
X174647007Y-75534075D01*
X174532993Y-75599901D01*
X174439901Y-75692993D01*
X174374075Y-75807007D01*
X174357037Y-75870591D01*
X173724728Y-75238282D01*
X173724727Y-75238282D01*
X173685380Y-75292440D01*
X173680483Y-75302051D01*
X173632506Y-75352845D01*
X173564684Y-75369638D01*
X173498550Y-75347098D01*
X173459516Y-75302048D01*
X173454626Y-75292452D01*
X173415270Y-75238282D01*
X173415269Y-75238282D01*
X172782962Y-75870590D01*
X172765925Y-75807007D01*
X172700099Y-75692993D01*
X172607007Y-75599901D01*
X172492993Y-75534075D01*
X172429409Y-75517037D01*
X173061716Y-74884728D01*
X173007550Y-74845375D01*
X172818217Y-74748904D01*
X172616129Y-74683242D01*
X172406246Y-74650000D01*
X172193754Y-74650000D01*
X171983872Y-74683242D01*
X171983869Y-74683242D01*
X171781782Y-74748904D01*
X171592439Y-74845380D01*
X171538282Y-74884727D01*
X171538282Y-74884728D01*
X172170591Y-75517037D01*
X172107007Y-75534075D01*
X171992993Y-75599901D01*
X171899901Y-75692993D01*
X171834075Y-75807007D01*
X171817037Y-75870591D01*
X171184728Y-75238282D01*
X171184727Y-75238282D01*
X171145380Y-75292439D01*
X171048904Y-75481782D01*
X170983242Y-75683869D01*
X170983242Y-75683872D01*
X170950000Y-75893753D01*
X170950000Y-76106246D01*
X170983242Y-76316127D01*
X170983242Y-76316130D01*
X171048904Y-76518217D01*
X171145375Y-76707550D01*
X171184728Y-76761716D01*
X171817037Y-76129408D01*
X171834075Y-76192993D01*
X171899901Y-76307007D01*
X171992993Y-76400099D01*
X172107007Y-76465925D01*
X172170590Y-76482962D01*
X171538282Y-77115269D01*
X171538282Y-77115270D01*
X171592449Y-77154624D01*
X171781782Y-77251095D01*
X171983870Y-77316757D01*
X172193754Y-77350000D01*
X172406246Y-77350000D01*
X172616127Y-77316757D01*
X172616130Y-77316757D01*
X172818217Y-77251095D01*
X173007554Y-77154622D01*
X173061716Y-77115270D01*
X173061717Y-77115270D01*
X172429408Y-76482962D01*
X172492993Y-76465925D01*
X172607007Y-76400099D01*
X172700099Y-76307007D01*
X172765925Y-76192993D01*
X172782962Y-76129408D01*
X173415270Y-76761717D01*
X173415270Y-76761716D01*
X173454622Y-76707554D01*
X173459514Y-76697954D01*
X173507488Y-76647157D01*
X173575308Y-76630361D01*
X173641444Y-76652897D01*
X173680486Y-76697954D01*
X173685375Y-76707550D01*
X173724728Y-76761716D01*
X174357037Y-76129408D01*
X174374075Y-76192993D01*
X174439901Y-76307007D01*
X174532993Y-76400099D01*
X174647007Y-76465925D01*
X174710590Y-76482962D01*
X174078282Y-77115269D01*
X174078282Y-77115270D01*
X174132449Y-77154624D01*
X174321782Y-77251095D01*
X174523870Y-77316757D01*
X174733754Y-77350000D01*
X174946246Y-77350000D01*
X175156127Y-77316757D01*
X175156130Y-77316757D01*
X175358217Y-77251095D01*
X175547554Y-77154622D01*
X175601716Y-77115270D01*
X175601717Y-77115270D01*
X174969408Y-76482962D01*
X175032993Y-76465925D01*
X175147007Y-76400099D01*
X175240099Y-76307007D01*
X175305925Y-76192993D01*
X175322962Y-76129408D01*
X175955270Y-76761717D01*
X175955270Y-76761716D01*
X175994622Y-76707555D01*
X175999232Y-76698507D01*
X176047205Y-76647709D01*
X176115025Y-76630912D01*
X176181161Y-76653447D01*
X176220204Y-76698504D01*
X176224949Y-76707817D01*
X176349890Y-76879786D01*
X176443181Y-76973077D01*
X176476666Y-77034400D01*
X176479500Y-77060758D01*
X176479500Y-82439242D01*
X176459815Y-82506281D01*
X176443181Y-82526923D01*
X176349894Y-82620209D01*
X176349890Y-82620213D01*
X176224949Y-82792182D01*
X176220202Y-82801499D01*
X176172227Y-82852293D01*
X176104405Y-82869087D01*
X176038271Y-82846548D01*
X175999234Y-82801495D01*
X175994626Y-82792452D01*
X175955270Y-82738282D01*
X175955269Y-82738282D01*
X175322962Y-83370589D01*
X175305925Y-83307007D01*
X175240099Y-83192993D01*
X175147007Y-83099901D01*
X175032993Y-83034075D01*
X174969409Y-83017037D01*
X175601716Y-82384728D01*
X175547550Y-82345375D01*
X175358217Y-82248904D01*
X175156129Y-82183242D01*
X174946246Y-82150000D01*
X174733754Y-82150000D01*
X174523872Y-82183242D01*
X174523869Y-82183242D01*
X174321782Y-82248904D01*
X174132439Y-82345380D01*
X174078282Y-82384727D01*
X174078282Y-82384728D01*
X174710591Y-83017037D01*
X174647007Y-83034075D01*
X174532993Y-83099901D01*
X174439901Y-83192993D01*
X174374075Y-83307007D01*
X174357037Y-83370591D01*
X173724728Y-82738282D01*
X173724727Y-82738282D01*
X173685380Y-82792440D01*
X173685376Y-82792446D01*
X173680760Y-82801505D01*
X173632781Y-82852297D01*
X173564959Y-82869087D01*
X173498826Y-82846543D01*
X173459794Y-82801493D01*
X173455051Y-82792184D01*
X173455049Y-82792181D01*
X173455048Y-82792179D01*
X173330109Y-82620213D01*
X173179786Y-82469890D01*
X173007820Y-82344951D01*
X172818414Y-82248444D01*
X172818413Y-82248443D01*
X172818412Y-82248443D01*
X172616243Y-82182754D01*
X172616241Y-82182753D01*
X172616240Y-82182753D01*
X172448601Y-82156202D01*
X172406287Y-82149500D01*
X172193713Y-82149500D01*
X172151399Y-82156202D01*
X171983760Y-82182753D01*
X171781585Y-82248444D01*
X171592179Y-82344951D01*
X171420213Y-82469890D01*
X171269890Y-82620213D01*
X171144951Y-82792179D01*
X171048444Y-82981585D01*
X170982753Y-83183760D01*
X170949500Y-83393713D01*
X170949500Y-83606286D01*
X170974834Y-83766243D01*
X170982754Y-83816243D01*
X171026214Y-83950000D01*
X171048444Y-84018414D01*
X171144951Y-84207820D01*
X171269890Y-84379786D01*
X171420213Y-84530109D01*
X171592179Y-84655048D01*
X171592181Y-84655049D01*
X171592184Y-84655051D01*
X171781588Y-84751557D01*
X171983757Y-84817246D01*
X172193713Y-84850500D01*
X172325638Y-84850500D01*
X172392677Y-84870185D01*
X172413318Y-84886818D01*
X173251536Y-85725035D01*
X173318953Y-85792452D01*
X173376966Y-85850465D01*
X173524449Y-85949011D01*
X173524451Y-85949012D01*
X173545343Y-85957666D01*
X173545346Y-85957667D01*
X173545351Y-85957669D01*
X173688334Y-86016895D01*
X173862304Y-86051499D01*
X173862308Y-86051500D01*
X173862309Y-86051500D01*
X175817693Y-86051500D01*
X175817694Y-86051499D01*
X175991666Y-86016895D01*
X176073606Y-85982953D01*
X176155547Y-85949013D01*
X176243959Y-85889936D01*
X176303036Y-85850464D01*
X176601320Y-85552178D01*
X176662641Y-85518695D01*
X176732332Y-85523679D01*
X176776680Y-85552180D01*
X181423966Y-90199466D01*
X181458326Y-90222423D01*
X181483040Y-90238936D01*
X181571453Y-90298013D01*
X181653393Y-90331953D01*
X181659480Y-90334474D01*
X181659485Y-90334477D01*
X181695754Y-90349500D01*
X181735334Y-90365895D01*
X181857224Y-90390140D01*
X181909303Y-90400499D01*
X181909307Y-90400500D01*
X181909308Y-90400500D01*
X186090693Y-90400500D01*
X186090694Y-90400499D01*
X186264666Y-90365895D01*
X186346606Y-90331953D01*
X186428547Y-90298013D01*
X186516959Y-90238936D01*
X186576036Y-90199464D01*
X192374464Y-84401035D01*
X192388658Y-84379792D01*
X192473013Y-84253547D01*
X192495415Y-84199464D01*
X192540895Y-84089666D01*
X192575500Y-83915691D01*
X192575500Y-83738308D01*
X192575500Y-78173362D01*
X192595185Y-78106323D01*
X192647989Y-78060568D01*
X192717147Y-78050624D01*
X192780703Y-78079649D01*
X192787181Y-78085681D01*
X204900966Y-90199466D01*
X204935326Y-90222423D01*
X204960040Y-90238936D01*
X205048453Y-90298013D01*
X205130393Y-90331953D01*
X205136480Y-90334474D01*
X205136485Y-90334477D01*
X205172754Y-90349500D01*
X205212334Y-90365895D01*
X205334224Y-90390140D01*
X205386303Y-90400499D01*
X205386307Y-90400500D01*
X205386308Y-90400500D01*
X216940693Y-90400500D01*
X216940694Y-90400499D01*
X217114666Y-90365895D01*
X217196606Y-90331953D01*
X217278547Y-90298013D01*
X217366959Y-90238936D01*
X217426036Y-90199464D01*
X219519463Y-88106036D01*
X219519464Y-88106035D01*
X219618013Y-87958547D01*
X219685894Y-87794666D01*
X219714571Y-87650500D01*
X219720500Y-87620692D01*
X219720500Y-87443309D01*
X219720500Y-84510758D01*
X219740185Y-84443719D01*
X219756819Y-84423077D01*
X219800110Y-84379786D01*
X219850104Y-84329792D01*
X219850106Y-84329788D01*
X219850109Y-84329786D01*
X219935890Y-84211717D01*
X219975051Y-84157816D01*
X219979793Y-84148508D01*
X220027763Y-84097711D01*
X220095583Y-84080911D01*
X220161719Y-84103445D01*
X220200763Y-84148500D01*
X220205373Y-84157547D01*
X220244728Y-84211716D01*
X220877037Y-83579408D01*
X220894075Y-83642993D01*
X220959901Y-83757007D01*
X221052993Y-83850099D01*
X221167007Y-83915925D01*
X221230590Y-83932962D01*
X220598282Y-84565269D01*
X220598282Y-84565270D01*
X220652449Y-84604624D01*
X220841782Y-84701095D01*
X221043870Y-84766757D01*
X221253754Y-84800000D01*
X221466246Y-84800000D01*
X221676127Y-84766757D01*
X221676130Y-84766757D01*
X221878217Y-84701095D01*
X222067554Y-84604622D01*
X222121716Y-84565270D01*
X222121717Y-84565270D01*
X221489408Y-83932962D01*
X221552993Y-83915925D01*
X221667007Y-83850099D01*
X221760099Y-83757007D01*
X221825925Y-83642993D01*
X221842962Y-83579408D01*
X222475270Y-84211717D01*
X222475270Y-84211716D01*
X222514622Y-84157554D01*
X222519514Y-84147954D01*
X222567488Y-84097157D01*
X222635308Y-84080361D01*
X222701444Y-84102897D01*
X222740486Y-84147954D01*
X222745375Y-84157550D01*
X222784728Y-84211716D01*
X223417037Y-83579408D01*
X223434075Y-83642993D01*
X223499901Y-83757007D01*
X223592993Y-83850099D01*
X223707007Y-83915925D01*
X223770590Y-83932962D01*
X223138282Y-84565269D01*
X223138282Y-84565270D01*
X223192449Y-84604624D01*
X223381782Y-84701095D01*
X223583870Y-84766757D01*
X223793754Y-84800000D01*
X224006246Y-84800000D01*
X224216127Y-84766757D01*
X224216130Y-84766757D01*
X224418217Y-84701095D01*
X224607554Y-84604622D01*
X224661716Y-84565270D01*
X224661717Y-84565270D01*
X224029408Y-83932962D01*
X224092993Y-83915925D01*
X224207007Y-83850099D01*
X224300099Y-83757007D01*
X224365925Y-83642993D01*
X224382962Y-83579409D01*
X225015270Y-84211717D01*
X225015270Y-84211716D01*
X225054622Y-84157554D01*
X225059514Y-84147954D01*
X225107488Y-84097157D01*
X225175308Y-84080361D01*
X225241444Y-84102897D01*
X225280486Y-84147954D01*
X225285375Y-84157550D01*
X225324728Y-84211716D01*
X225957036Y-83579407D01*
X225974075Y-83642993D01*
X226039901Y-83757007D01*
X226132993Y-83850099D01*
X226247007Y-83915925D01*
X226310590Y-83932962D01*
X225678282Y-84565269D01*
X225678282Y-84565270D01*
X225732449Y-84604624D01*
X225921782Y-84701095D01*
X226123870Y-84766757D01*
X226333754Y-84800000D01*
X226546246Y-84800000D01*
X226756127Y-84766757D01*
X226756130Y-84766757D01*
X226958217Y-84701095D01*
X227147554Y-84604622D01*
X227201716Y-84565270D01*
X227201717Y-84565270D01*
X226569408Y-83932962D01*
X226632993Y-83915925D01*
X226747007Y-83850099D01*
X226840099Y-83757007D01*
X226905925Y-83642993D01*
X226922962Y-83579408D01*
X227555270Y-84211717D01*
X227555270Y-84211716D01*
X227594622Y-84157554D01*
X227691095Y-83968217D01*
X227756757Y-83766130D01*
X227756757Y-83766127D01*
X227790000Y-83556246D01*
X227790000Y-83343753D01*
X227756757Y-83133872D01*
X227756757Y-83133869D01*
X227691095Y-82931782D01*
X227594624Y-82742449D01*
X227555270Y-82688282D01*
X227555269Y-82688282D01*
X226922962Y-83320590D01*
X226905925Y-83257007D01*
X226840099Y-83142993D01*
X226747007Y-83049901D01*
X226632993Y-82984075D01*
X226569409Y-82967037D01*
X227201716Y-82334728D01*
X227147550Y-82295375D01*
X226958217Y-82198904D01*
X226756129Y-82133242D01*
X226546246Y-82100000D01*
X226333754Y-82100000D01*
X226123872Y-82133242D01*
X226123869Y-82133242D01*
X225921782Y-82198904D01*
X225732439Y-82295380D01*
X225678282Y-82334727D01*
X225678282Y-82334728D01*
X226310591Y-82967037D01*
X226247007Y-82984075D01*
X226132993Y-83049901D01*
X226039901Y-83142993D01*
X225974075Y-83257007D01*
X225957037Y-83320591D01*
X225324728Y-82688282D01*
X225324727Y-82688282D01*
X225285380Y-82742440D01*
X225280483Y-82752051D01*
X225232506Y-82802845D01*
X225164684Y-82819638D01*
X225098550Y-82797098D01*
X225059516Y-82752048D01*
X225054626Y-82742452D01*
X225015270Y-82688282D01*
X225015269Y-82688282D01*
X224382962Y-83320590D01*
X224365925Y-83257007D01*
X224300099Y-83142993D01*
X224207007Y-83049901D01*
X224092993Y-82984075D01*
X224029409Y-82967037D01*
X224661716Y-82334728D01*
X224607550Y-82295375D01*
X224418217Y-82198904D01*
X224216129Y-82133242D01*
X224006246Y-82100000D01*
X223793754Y-82100000D01*
X223583872Y-82133242D01*
X223583869Y-82133242D01*
X223381782Y-82198904D01*
X223192439Y-82295380D01*
X223138282Y-82334727D01*
X223138282Y-82334728D01*
X223770591Y-82967037D01*
X223707007Y-82984075D01*
X223592993Y-83049901D01*
X223499901Y-83142993D01*
X223434075Y-83257007D01*
X223417037Y-83320591D01*
X222784728Y-82688282D01*
X222784727Y-82688282D01*
X222745380Y-82742440D01*
X222740483Y-82752051D01*
X222692506Y-82802845D01*
X222624684Y-82819638D01*
X222558550Y-82797098D01*
X222519516Y-82752048D01*
X222514626Y-82742452D01*
X222475270Y-82688282D01*
X222475269Y-82688282D01*
X221842962Y-83320590D01*
X221825925Y-83257007D01*
X221760099Y-83142993D01*
X221667007Y-83049901D01*
X221552993Y-82984075D01*
X221489409Y-82967037D01*
X222121716Y-82334728D01*
X222067550Y-82295375D01*
X221878217Y-82198904D01*
X221676129Y-82133242D01*
X221466246Y-82100000D01*
X221253754Y-82100000D01*
X221043872Y-82133242D01*
X221043869Y-82133242D01*
X220841782Y-82198904D01*
X220652439Y-82295380D01*
X220598282Y-82334727D01*
X220598282Y-82334728D01*
X221230591Y-82967037D01*
X221167007Y-82984075D01*
X221052993Y-83049901D01*
X220959901Y-83142993D01*
X220894075Y-83257007D01*
X220877037Y-83320591D01*
X220244728Y-82688282D01*
X220244727Y-82688282D01*
X220205380Y-82742440D01*
X220205376Y-82742446D01*
X220200760Y-82751505D01*
X220152781Y-82802297D01*
X220084959Y-82819087D01*
X220018826Y-82796543D01*
X219979794Y-82751493D01*
X219975051Y-82742184D01*
X219975049Y-82742181D01*
X219975048Y-82742179D01*
X219850109Y-82570213D01*
X219756819Y-82476923D01*
X219742115Y-82449995D01*
X219725523Y-82424177D01*
X219724631Y-82417976D01*
X219723334Y-82415600D01*
X219720500Y-82389242D01*
X219720500Y-78414541D01*
X219740185Y-78347502D01*
X219792989Y-78301747D01*
X219862147Y-78291803D01*
X219913387Y-78311437D01*
X220044453Y-78399013D01*
X220065343Y-78407666D01*
X220065346Y-78407667D01*
X220065351Y-78407669D01*
X220208334Y-78466895D01*
X220382304Y-78501499D01*
X220382308Y-78501500D01*
X220382309Y-78501500D01*
X224877693Y-78501500D01*
X224877694Y-78501499D01*
X225051666Y-78466895D01*
X225138308Y-78431006D01*
X225215547Y-78399013D01*
X225303959Y-78339936D01*
X225363036Y-78300464D01*
X226326680Y-77336818D01*
X226388003Y-77303334D01*
X226414361Y-77300500D01*
X226546286Y-77300500D01*
X226546287Y-77300500D01*
X226756243Y-77267246D01*
X226958412Y-77201557D01*
X227147816Y-77105051D01*
X227234138Y-77042335D01*
X227319786Y-76980109D01*
X227319788Y-76980106D01*
X227319792Y-76980104D01*
X227470104Y-76829792D01*
X227470106Y-76829788D01*
X227470109Y-76829786D01*
X227595048Y-76657820D01*
X227595050Y-76657817D01*
X227595051Y-76657816D01*
X227691557Y-76468412D01*
X227757246Y-76266243D01*
X227790500Y-76056287D01*
X227790500Y-75843713D01*
X227757246Y-75633757D01*
X227691557Y-75431588D01*
X227595051Y-75242184D01*
X227595049Y-75242181D01*
X227595048Y-75242179D01*
X227470109Y-75070213D01*
X227319786Y-74919890D01*
X227147820Y-74794951D01*
X226958414Y-74698444D01*
X226958413Y-74698443D01*
X226958412Y-74698443D01*
X226756243Y-74632754D01*
X226756241Y-74632753D01*
X226756240Y-74632753D01*
X226588702Y-74606218D01*
X226546287Y-74599500D01*
X226333713Y-74599500D01*
X226291298Y-74606218D01*
X226123760Y-74632753D01*
X225921585Y-74698444D01*
X225732179Y-74794951D01*
X225560213Y-74919890D01*
X225409890Y-75070213D01*
X225284949Y-75242182D01*
X225280202Y-75251499D01*
X225232227Y-75302293D01*
X225164405Y-75319087D01*
X225098271Y-75296548D01*
X225059234Y-75251495D01*
X225054626Y-75242452D01*
X225015270Y-75188282D01*
X225015269Y-75188282D01*
X224382962Y-75820589D01*
X224365925Y-75757007D01*
X224300099Y-75642993D01*
X224207007Y-75549901D01*
X224092993Y-75484075D01*
X224029409Y-75467037D01*
X224661716Y-74834728D01*
X224607550Y-74795375D01*
X224418217Y-74698904D01*
X224216129Y-74633242D01*
X224006246Y-74600000D01*
X223793754Y-74600000D01*
X223583872Y-74633242D01*
X223583869Y-74633242D01*
X223381782Y-74698904D01*
X223192439Y-74795380D01*
X223138282Y-74834727D01*
X223138282Y-74834728D01*
X223770591Y-75467037D01*
X223707007Y-75484075D01*
X223592993Y-75549901D01*
X223499901Y-75642993D01*
X223434075Y-75757007D01*
X223417037Y-75820591D01*
X222784728Y-75188282D01*
X222784727Y-75188282D01*
X222745380Y-75242440D01*
X222740483Y-75252051D01*
X222692506Y-75302845D01*
X222624684Y-75319638D01*
X222558550Y-75297098D01*
X222519516Y-75252048D01*
X222514626Y-75242452D01*
X222475270Y-75188282D01*
X222475269Y-75188282D01*
X221842962Y-75820589D01*
X221825925Y-75757007D01*
X221760099Y-75642993D01*
X221667007Y-75549901D01*
X221552993Y-75484075D01*
X221489409Y-75467037D01*
X222121716Y-74834728D01*
X222067550Y-74795375D01*
X221878217Y-74698904D01*
X221676129Y-74633242D01*
X221466246Y-74600000D01*
X221253754Y-74600000D01*
X221043872Y-74633242D01*
X221043869Y-74633242D01*
X220841782Y-74698904D01*
X220652439Y-74795380D01*
X220598282Y-74834727D01*
X220598282Y-74834728D01*
X221230591Y-75467037D01*
X221167007Y-75484075D01*
X221052993Y-75549901D01*
X220959901Y-75642993D01*
X220894075Y-75757007D01*
X220877037Y-75820591D01*
X220244728Y-75188282D01*
X220244727Y-75188282D01*
X220205380Y-75242440D01*
X220205376Y-75242446D01*
X220200760Y-75251505D01*
X220152781Y-75302297D01*
X220084959Y-75319087D01*
X220018826Y-75296543D01*
X219979794Y-75251493D01*
X219975051Y-75242184D01*
X219975049Y-75242181D01*
X219975048Y-75242179D01*
X219850110Y-75070215D01*
X219850106Y-75070211D01*
X219850104Y-75070208D01*
X219749564Y-74969668D01*
X219749564Y-74969667D01*
X219716819Y-74936922D01*
X219683334Y-74875599D01*
X219680500Y-74849241D01*
X219680500Y-69510758D01*
X219700185Y-69443719D01*
X219716819Y-69423077D01*
X219753077Y-69386819D01*
X219814400Y-69353334D01*
X219840758Y-69350500D01*
X220259242Y-69350500D01*
X220326281Y-69370185D01*
X220346923Y-69386819D01*
X220440213Y-69480109D01*
X220612179Y-69605048D01*
X220612181Y-69605049D01*
X220612184Y-69605051D01*
X220801588Y-69701557D01*
X221003757Y-69767246D01*
X221213713Y-69800500D01*
X221213714Y-69800500D01*
X221426286Y-69800500D01*
X221426287Y-69800500D01*
X221636243Y-69767246D01*
X221838412Y-69701557D01*
X222027816Y-69605051D01*
X222114138Y-69542335D01*
X222199786Y-69480109D01*
X222199788Y-69480106D01*
X222199792Y-69480104D01*
X222350104Y-69329792D01*
X222350106Y-69329788D01*
X222350109Y-69329786D01*
X222435890Y-69211717D01*
X222475051Y-69157816D01*
X222479793Y-69148508D01*
X222527763Y-69097711D01*
X222595583Y-69080911D01*
X222661719Y-69103445D01*
X222700763Y-69148500D01*
X222705373Y-69157547D01*
X222744728Y-69211716D01*
X223377037Y-68579408D01*
X223394075Y-68642993D01*
X223459901Y-68757007D01*
X223552993Y-68850099D01*
X223667007Y-68915925D01*
X223730590Y-68932962D01*
X223098282Y-69565269D01*
X223098282Y-69565270D01*
X223152449Y-69604624D01*
X223341782Y-69701095D01*
X223543870Y-69766757D01*
X223753754Y-69800000D01*
X223966246Y-69800000D01*
X224176127Y-69766757D01*
X224176130Y-69766757D01*
X224378217Y-69701095D01*
X224567554Y-69604622D01*
X224621716Y-69565270D01*
X224621717Y-69565270D01*
X223989408Y-68932962D01*
X224052993Y-68915925D01*
X224167007Y-68850099D01*
X224260099Y-68757007D01*
X224325925Y-68642993D01*
X224342962Y-68579408D01*
X224975270Y-69211717D01*
X224975270Y-69211716D01*
X225014622Y-69157554D01*
X225019514Y-69147954D01*
X225067488Y-69097157D01*
X225135308Y-69080361D01*
X225201444Y-69102897D01*
X225240486Y-69147954D01*
X225245375Y-69157550D01*
X225284728Y-69211716D01*
X225917037Y-68579408D01*
X225934075Y-68642993D01*
X225999901Y-68757007D01*
X226092993Y-68850099D01*
X226207007Y-68915925D01*
X226270590Y-68932962D01*
X225638282Y-69565269D01*
X225638282Y-69565270D01*
X225692449Y-69604624D01*
X225881782Y-69701095D01*
X226083870Y-69766757D01*
X226293754Y-69800000D01*
X226506246Y-69800000D01*
X226716127Y-69766757D01*
X226716130Y-69766757D01*
X226918217Y-69701095D01*
X227107554Y-69604622D01*
X227161716Y-69565270D01*
X227161717Y-69565270D01*
X226529408Y-68932962D01*
X226592993Y-68915925D01*
X226707007Y-68850099D01*
X226800099Y-68757007D01*
X226865925Y-68642993D01*
X226882962Y-68579408D01*
X227515270Y-69211717D01*
X227515270Y-69211716D01*
X227554622Y-69157554D01*
X227651095Y-68968217D01*
X227716757Y-68766130D01*
X227716757Y-68766127D01*
X227750000Y-68556246D01*
X227750000Y-68343753D01*
X227716757Y-68133872D01*
X227716757Y-68133869D01*
X227651095Y-67931782D01*
X227554624Y-67742449D01*
X227515270Y-67688282D01*
X227515269Y-67688282D01*
X226882962Y-68320590D01*
X226865925Y-68257007D01*
X226800099Y-68142993D01*
X226707007Y-68049901D01*
X226592993Y-67984075D01*
X226529409Y-67967037D01*
X227161716Y-67334728D01*
X227107550Y-67295375D01*
X226918217Y-67198904D01*
X226716129Y-67133242D01*
X226506246Y-67100000D01*
X226293754Y-67100000D01*
X226083872Y-67133242D01*
X226083869Y-67133242D01*
X225881782Y-67198904D01*
X225692439Y-67295380D01*
X225638282Y-67334727D01*
X225638282Y-67334728D01*
X226270591Y-67967037D01*
X226207007Y-67984075D01*
X226092993Y-68049901D01*
X225999901Y-68142993D01*
X225934075Y-68257007D01*
X225917037Y-68320590D01*
X225284728Y-67688282D01*
X225284727Y-67688282D01*
X225245380Y-67742440D01*
X225240483Y-67752051D01*
X225192506Y-67802845D01*
X225124684Y-67819638D01*
X225058550Y-67797098D01*
X225019516Y-67752048D01*
X225014626Y-67742452D01*
X224975270Y-67688282D01*
X224975269Y-67688282D01*
X224342962Y-68320590D01*
X224325925Y-68257007D01*
X224260099Y-68142993D01*
X224167007Y-68049901D01*
X224052993Y-67984075D01*
X223989409Y-67967037D01*
X224621716Y-67334728D01*
X224567550Y-67295375D01*
X224378217Y-67198904D01*
X224176129Y-67133242D01*
X223966246Y-67100000D01*
X223753754Y-67100000D01*
X223543872Y-67133242D01*
X223543869Y-67133242D01*
X223341782Y-67198904D01*
X223152439Y-67295380D01*
X223098282Y-67334727D01*
X223098282Y-67334728D01*
X223730591Y-67967037D01*
X223667007Y-67984075D01*
X223552993Y-68049901D01*
X223459901Y-68142993D01*
X223394075Y-68257007D01*
X223377037Y-68320590D01*
X222744728Y-67688282D01*
X222744727Y-67688282D01*
X222705380Y-67742440D01*
X222705376Y-67742446D01*
X222700760Y-67751505D01*
X222652781Y-67802297D01*
X222584959Y-67819087D01*
X222518826Y-67796543D01*
X222479794Y-67751493D01*
X222475051Y-67742184D01*
X222475049Y-67742181D01*
X222475048Y-67742179D01*
X222350109Y-67570213D01*
X222199786Y-67419890D01*
X222027820Y-67294951D01*
X221838414Y-67198444D01*
X221838413Y-67198443D01*
X221838412Y-67198443D01*
X221636243Y-67132754D01*
X221636241Y-67132753D01*
X221636240Y-67132753D01*
X221474957Y-67107208D01*
X221426287Y-67099500D01*
X221213713Y-67099500D01*
X221165042Y-67107208D01*
X221003760Y-67132753D01*
X220801585Y-67198444D01*
X220612179Y-67294951D01*
X220440213Y-67419890D01*
X220440209Y-67419894D01*
X220346923Y-67513181D01*
X220285600Y-67546666D01*
X220259242Y-67549500D01*
X219844500Y-67549500D01*
X219777461Y-67529815D01*
X219731706Y-67477011D01*
X219720500Y-67425500D01*
X219720500Y-62010758D01*
X219729144Y-61981317D01*
X219735668Y-61951331D01*
X219739422Y-61946315D01*
X219740185Y-61943719D01*
X219756819Y-61923077D01*
X219793077Y-61886819D01*
X219854400Y-61853334D01*
X219880758Y-61850500D01*
X220299242Y-61850500D01*
X220366281Y-61870185D01*
X220386923Y-61886819D01*
X220480213Y-61980109D01*
X220652179Y-62105048D01*
X220652181Y-62105049D01*
X220652184Y-62105051D01*
X220841588Y-62201557D01*
X221043757Y-62267246D01*
X221253713Y-62300500D01*
X221385638Y-62300500D01*
X221452677Y-62320185D01*
X221473318Y-62336818D01*
X222311536Y-63175035D01*
X222392703Y-63256202D01*
X222436966Y-63300465D01*
X222584449Y-63399011D01*
X222584451Y-63399012D01*
X222605343Y-63407666D01*
X222605346Y-63407667D01*
X222605351Y-63407669D01*
X222748334Y-63466895D01*
X222922304Y-63501499D01*
X222922308Y-63501500D01*
X222922309Y-63501500D01*
X224877693Y-63501500D01*
X224877694Y-63501499D01*
X225051666Y-63466895D01*
X225138308Y-63431006D01*
X225215547Y-63399013D01*
X225316121Y-63331811D01*
X225363036Y-63300464D01*
X226326680Y-62336818D01*
X226388003Y-62303334D01*
X226414361Y-62300500D01*
X226546286Y-62300500D01*
X226546287Y-62300500D01*
X226756243Y-62267246D01*
X226958412Y-62201557D01*
X227147816Y-62105051D01*
X227234138Y-62042335D01*
X227319786Y-61980109D01*
X227319788Y-61980106D01*
X227319792Y-61980104D01*
X227470104Y-61829792D01*
X227470106Y-61829788D01*
X227470109Y-61829786D01*
X227595048Y-61657820D01*
X227595050Y-61657817D01*
X227595051Y-61657816D01*
X227691557Y-61468412D01*
X227757246Y-61266243D01*
X227790500Y-61056287D01*
X227790500Y-60843713D01*
X227757246Y-60633757D01*
X227691557Y-60431588D01*
X227595051Y-60242184D01*
X227595049Y-60242181D01*
X227595048Y-60242179D01*
X227470109Y-60070213D01*
X227319786Y-59919890D01*
X227147820Y-59794951D01*
X226958414Y-59698444D01*
X226958413Y-59698443D01*
X226958412Y-59698443D01*
X226756243Y-59632754D01*
X226756241Y-59632753D01*
X226756240Y-59632753D01*
X226594957Y-59607208D01*
X226546287Y-59599500D01*
X226333713Y-59599500D01*
X226285042Y-59607208D01*
X226123760Y-59632753D01*
X225921585Y-59698444D01*
X225732179Y-59794951D01*
X225560213Y-59919890D01*
X225409890Y-60070213D01*
X225284949Y-60242182D01*
X225280202Y-60251499D01*
X225232227Y-60302293D01*
X225164405Y-60319087D01*
X225098271Y-60296548D01*
X225059234Y-60251495D01*
X225054626Y-60242452D01*
X225015270Y-60188282D01*
X225015269Y-60188282D01*
X224382962Y-60820589D01*
X224365925Y-60757007D01*
X224300099Y-60642993D01*
X224207007Y-60549901D01*
X224092993Y-60484075D01*
X224029409Y-60467037D01*
X224661716Y-59834728D01*
X224607550Y-59795375D01*
X224418217Y-59698904D01*
X224216129Y-59633242D01*
X224006246Y-59600000D01*
X223793754Y-59600000D01*
X223583872Y-59633242D01*
X223583869Y-59633242D01*
X223381782Y-59698904D01*
X223192439Y-59795380D01*
X223138282Y-59834727D01*
X223138282Y-59834728D01*
X223770591Y-60467037D01*
X223707007Y-60484075D01*
X223592993Y-60549901D01*
X223499901Y-60642993D01*
X223434075Y-60757007D01*
X223417037Y-60820591D01*
X222784728Y-60188282D01*
X222784727Y-60188282D01*
X222745380Y-60242440D01*
X222745376Y-60242446D01*
X222740760Y-60251505D01*
X222692781Y-60302297D01*
X222624959Y-60319087D01*
X222558826Y-60296543D01*
X222519794Y-60251493D01*
X222515051Y-60242184D01*
X222515049Y-60242181D01*
X222515048Y-60242179D01*
X222390109Y-60070213D01*
X222239786Y-59919890D01*
X222067820Y-59794951D01*
X221878414Y-59698444D01*
X221878413Y-59698443D01*
X221878412Y-59698443D01*
X221676243Y-59632754D01*
X221676241Y-59632753D01*
X221676240Y-59632753D01*
X221514957Y-59607208D01*
X221466287Y-59599500D01*
X221253713Y-59599500D01*
X221205042Y-59607208D01*
X221043760Y-59632753D01*
X220841585Y-59698444D01*
X220652179Y-59794951D01*
X220480213Y-59919890D01*
X220480209Y-59919894D01*
X220386923Y-60013181D01*
X220325600Y-60046666D01*
X220299242Y-60049500D01*
X219880758Y-60049500D01*
X219813719Y-60029815D01*
X219793077Y-60013181D01*
X219699786Y-59919890D01*
X219527820Y-59794951D01*
X219338414Y-59698444D01*
X219338413Y-59698443D01*
X219338412Y-59698443D01*
X219136243Y-59632754D01*
X219136241Y-59632753D01*
X219136240Y-59632753D01*
X218974957Y-59607208D01*
X218926287Y-59599500D01*
X218713713Y-59599500D01*
X218665042Y-59607208D01*
X218503760Y-59632753D01*
X218301585Y-59698444D01*
X218112179Y-59794951D01*
X217940213Y-59919890D01*
X217789890Y-60070213D01*
X217664949Y-60242182D01*
X217660202Y-60251499D01*
X217612227Y-60302293D01*
X217544405Y-60319087D01*
X217478271Y-60296548D01*
X217439234Y-60251495D01*
X217434626Y-60242452D01*
X217395270Y-60188282D01*
X217395269Y-60188282D01*
X216762962Y-60820590D01*
X216745925Y-60757007D01*
X216680099Y-60642993D01*
X216587007Y-60549901D01*
X216472993Y-60484075D01*
X216409409Y-60467037D01*
X217041716Y-59834728D01*
X216987550Y-59795375D01*
X216798217Y-59698904D01*
X216596129Y-59633242D01*
X216386246Y-59600000D01*
X216173754Y-59600000D01*
X215963872Y-59633242D01*
X215963869Y-59633242D01*
X215761782Y-59698904D01*
X215572439Y-59795380D01*
X215518282Y-59834727D01*
X215518282Y-59834728D01*
X216150591Y-60467037D01*
X216087007Y-60484075D01*
X215972993Y-60549901D01*
X215879901Y-60642993D01*
X215814075Y-60757007D01*
X215797037Y-60820591D01*
X215126818Y-60150372D01*
X215093333Y-60089049D01*
X215093330Y-60089036D01*
X215090499Y-60076015D01*
X215090499Y-60052128D01*
X215084091Y-59992517D01*
X215052443Y-59907664D01*
X215033798Y-59857673D01*
X215033793Y-59857664D01*
X214947547Y-59742455D01*
X214947544Y-59742452D01*
X214832335Y-59656206D01*
X214832328Y-59656202D01*
X214697482Y-59605908D01*
X214697483Y-59605908D01*
X214637883Y-59599501D01*
X214637881Y-59599500D01*
X214637873Y-59599500D01*
X214637864Y-59599500D01*
X212842129Y-59599500D01*
X212842123Y-59599501D01*
X212782516Y-59605908D01*
X212647671Y-59656202D01*
X212647664Y-59656206D01*
X212532455Y-59742452D01*
X212532452Y-59742455D01*
X212446206Y-59857664D01*
X212446202Y-59857671D01*
X212395908Y-59992517D01*
X212389501Y-60052116D01*
X212389500Y-60052135D01*
X212389500Y-61847870D01*
X212389501Y-61847876D01*
X212395908Y-61907483D01*
X212446202Y-62042328D01*
X212446206Y-62042335D01*
X212532452Y-62157544D01*
X212532455Y-62157547D01*
X212647664Y-62243793D01*
X212647671Y-62243797D01*
X212782517Y-62294091D01*
X212782516Y-62294091D01*
X212789444Y-62294835D01*
X212842127Y-62300500D01*
X214048480Y-62300499D01*
X214115519Y-62320184D01*
X214136161Y-62336818D01*
X215267449Y-63468106D01*
X215300934Y-63529429D01*
X215303057Y-63569042D01*
X215299501Y-63602123D01*
X215299500Y-63602135D01*
X215299500Y-65297870D01*
X215299501Y-65297876D01*
X215305908Y-65357483D01*
X215356202Y-65492328D01*
X215356206Y-65492335D01*
X215442452Y-65607544D01*
X215442455Y-65607547D01*
X215557664Y-65693793D01*
X215557671Y-65693797D01*
X215692517Y-65744091D01*
X215692516Y-65744091D01*
X215699444Y-65744835D01*
X215752127Y-65750500D01*
X217047872Y-65750499D01*
X217107483Y-65744091D01*
X217242331Y-65693796D01*
X217357546Y-65607546D01*
X217443796Y-65492331D01*
X217494091Y-65357483D01*
X217500500Y-65297873D01*
X217500499Y-63602128D01*
X217494091Y-63542517D01*
X217489209Y-63529429D01*
X217443796Y-63407669D01*
X217443793Y-63407664D01*
X217357547Y-63292455D01*
X217357544Y-63292452D01*
X217242335Y-63206206D01*
X217242328Y-63206202D01*
X217107482Y-63155908D01*
X217107483Y-63155908D01*
X217047883Y-63149501D01*
X217047881Y-63149500D01*
X217047873Y-63149500D01*
X217047865Y-63149500D01*
X216981519Y-63149500D01*
X216914480Y-63129815D01*
X216893838Y-63113181D01*
X216292338Y-62511681D01*
X216258853Y-62450358D01*
X216263837Y-62380666D01*
X216305709Y-62324733D01*
X216371173Y-62300316D01*
X216380019Y-62300000D01*
X216386246Y-62300000D01*
X216596127Y-62266757D01*
X216596130Y-62266757D01*
X216798217Y-62201095D01*
X216987554Y-62104622D01*
X217041716Y-62065270D01*
X217041717Y-62065270D01*
X216409408Y-61432962D01*
X216472993Y-61415925D01*
X216587007Y-61350099D01*
X216680099Y-61257007D01*
X216745925Y-61142993D01*
X216762962Y-61079409D01*
X217395270Y-61711717D01*
X217395270Y-61711716D01*
X217434622Y-61657555D01*
X217439232Y-61648507D01*
X217487205Y-61597709D01*
X217555025Y-61580912D01*
X217621161Y-61603447D01*
X217660204Y-61648504D01*
X217664949Y-61657817D01*
X217789890Y-61829786D01*
X217883181Y-61923077D01*
X217916666Y-61984400D01*
X217919500Y-62010758D01*
X217919500Y-67349241D01*
X217899815Y-67416280D01*
X217883182Y-67436922D01*
X217749889Y-67570215D01*
X217624949Y-67742182D01*
X217620202Y-67751499D01*
X217572227Y-67802293D01*
X217504405Y-67819087D01*
X217438271Y-67796548D01*
X217399234Y-67751495D01*
X217394626Y-67742452D01*
X217355270Y-67688282D01*
X217355269Y-67688282D01*
X216722962Y-68320590D01*
X216705925Y-68257007D01*
X216640099Y-68142993D01*
X216547007Y-68049901D01*
X216432993Y-67984075D01*
X216369409Y-67967037D01*
X217001716Y-67334728D01*
X216947550Y-67295375D01*
X216758217Y-67198904D01*
X216556129Y-67133242D01*
X216346246Y-67100000D01*
X216133754Y-67100000D01*
X215923872Y-67133242D01*
X215923869Y-67133242D01*
X215721782Y-67198904D01*
X215532439Y-67295380D01*
X215478282Y-67334727D01*
X215478282Y-67334728D01*
X216110591Y-67967037D01*
X216047007Y-67984075D01*
X215932993Y-68049901D01*
X215839901Y-68142993D01*
X215774075Y-68257007D01*
X215757037Y-68320591D01*
X215086818Y-67650372D01*
X215053333Y-67589049D01*
X215053330Y-67589036D01*
X215050499Y-67576015D01*
X215050499Y-67552128D01*
X215044091Y-67492517D01*
X215015727Y-67416469D01*
X214993798Y-67357673D01*
X214993793Y-67357664D01*
X214907547Y-67242455D01*
X214907544Y-67242452D01*
X214792335Y-67156206D01*
X214792328Y-67156202D01*
X214657482Y-67105908D01*
X214657483Y-67105908D01*
X214597883Y-67099501D01*
X214597881Y-67099500D01*
X214597873Y-67099500D01*
X214597864Y-67099500D01*
X212802129Y-67099500D01*
X212802123Y-67099501D01*
X212742516Y-67105908D01*
X212607671Y-67156202D01*
X212607664Y-67156206D01*
X212492455Y-67242452D01*
X212492452Y-67242455D01*
X212406206Y-67357664D01*
X212406202Y-67357671D01*
X212355908Y-67492517D01*
X212349501Y-67552116D01*
X212349500Y-67552135D01*
X212349500Y-69347870D01*
X212349501Y-69347876D01*
X212355908Y-69407483D01*
X212406202Y-69542328D01*
X212406206Y-69542335D01*
X212492452Y-69657544D01*
X212492455Y-69657547D01*
X212607664Y-69743793D01*
X212607671Y-69743797D01*
X212742517Y-69794091D01*
X212742516Y-69794091D01*
X212749444Y-69794835D01*
X212802127Y-69800500D01*
X214008480Y-69800499D01*
X214075519Y-69820184D01*
X214096161Y-69836818D01*
X215227449Y-70968106D01*
X215260934Y-71029429D01*
X215263057Y-71069042D01*
X215259501Y-71102123D01*
X215259500Y-71102135D01*
X215259500Y-72797870D01*
X215259501Y-72797876D01*
X215265908Y-72857483D01*
X215316202Y-72992328D01*
X215316206Y-72992335D01*
X215402452Y-73107544D01*
X215402455Y-73107547D01*
X215517664Y-73193793D01*
X215517671Y-73193797D01*
X215652517Y-73244091D01*
X215652516Y-73244091D01*
X215659444Y-73244835D01*
X215712127Y-73250500D01*
X217007872Y-73250499D01*
X217067483Y-73244091D01*
X217202331Y-73193796D01*
X217317546Y-73107546D01*
X217403796Y-72992331D01*
X217454091Y-72857483D01*
X217460500Y-72797873D01*
X217460499Y-71102128D01*
X217454091Y-71042517D01*
X217449209Y-71029429D01*
X217403797Y-70907671D01*
X217403793Y-70907664D01*
X217317547Y-70792455D01*
X217317544Y-70792452D01*
X217202335Y-70706206D01*
X217202328Y-70706202D01*
X217067482Y-70655908D01*
X217067483Y-70655908D01*
X217007883Y-70649501D01*
X217007881Y-70649500D01*
X217007873Y-70649500D01*
X217007865Y-70649500D01*
X216941519Y-70649500D01*
X216874480Y-70629815D01*
X216853838Y-70613181D01*
X216252338Y-70011681D01*
X216218853Y-69950358D01*
X216223837Y-69880666D01*
X216265709Y-69824733D01*
X216331173Y-69800316D01*
X216340019Y-69800000D01*
X216346246Y-69800000D01*
X216556127Y-69766757D01*
X216556130Y-69766757D01*
X216758217Y-69701095D01*
X216947554Y-69604622D01*
X217001716Y-69565270D01*
X217001717Y-69565270D01*
X216369408Y-68932962D01*
X216432993Y-68915925D01*
X216547007Y-68850099D01*
X216640099Y-68757007D01*
X216705925Y-68642993D01*
X216722962Y-68579408D01*
X217355270Y-69211717D01*
X217355270Y-69211716D01*
X217394622Y-69157555D01*
X217399232Y-69148507D01*
X217447205Y-69097709D01*
X217515025Y-69080912D01*
X217581161Y-69103447D01*
X217620204Y-69148504D01*
X217624949Y-69157817D01*
X217749890Y-69329786D01*
X217843181Y-69423077D01*
X217876666Y-69484400D01*
X217879500Y-69510758D01*
X217879500Y-74929242D01*
X217859815Y-74996281D01*
X217843181Y-75016923D01*
X217789894Y-75070209D01*
X217789890Y-75070213D01*
X217664949Y-75242182D01*
X217660202Y-75251499D01*
X217612227Y-75302293D01*
X217544405Y-75319087D01*
X217478271Y-75296548D01*
X217439234Y-75251495D01*
X217434626Y-75242452D01*
X217395270Y-75188282D01*
X217395269Y-75188282D01*
X216762962Y-75820590D01*
X216745925Y-75757007D01*
X216680099Y-75642993D01*
X216587007Y-75549901D01*
X216472993Y-75484075D01*
X216409409Y-75467037D01*
X217041716Y-74834728D01*
X216987550Y-74795375D01*
X216798217Y-74698904D01*
X216596129Y-74633242D01*
X216386246Y-74600000D01*
X216173754Y-74600000D01*
X215963872Y-74633242D01*
X215963869Y-74633242D01*
X215761782Y-74698904D01*
X215572439Y-74795380D01*
X215518282Y-74834727D01*
X215518282Y-74834728D01*
X216150591Y-75467037D01*
X216087007Y-75484075D01*
X215972993Y-75549901D01*
X215879901Y-75642993D01*
X215814075Y-75757007D01*
X215797037Y-75820591D01*
X215126818Y-75150372D01*
X215093333Y-75089049D01*
X215093330Y-75089036D01*
X215090499Y-75076015D01*
X215090499Y-75052128D01*
X215084091Y-74992517D01*
X215051777Y-74905879D01*
X215033798Y-74857673D01*
X215033793Y-74857664D01*
X214947547Y-74742455D01*
X214947544Y-74742452D01*
X214832335Y-74656206D01*
X214832328Y-74656202D01*
X214697482Y-74605908D01*
X214697483Y-74605908D01*
X214637883Y-74599501D01*
X214637881Y-74599500D01*
X214637873Y-74599500D01*
X214637864Y-74599500D01*
X212842129Y-74599500D01*
X212842123Y-74599501D01*
X212782516Y-74605908D01*
X212647671Y-74656202D01*
X212647664Y-74656206D01*
X212532455Y-74742452D01*
X212532452Y-74742455D01*
X212446206Y-74857664D01*
X212446202Y-74857671D01*
X212395908Y-74992517D01*
X212389501Y-75052116D01*
X212389500Y-75052135D01*
X212389500Y-76847870D01*
X212389501Y-76847876D01*
X212395908Y-76907483D01*
X212446202Y-77042328D01*
X212446206Y-77042335D01*
X212532452Y-77157544D01*
X212532455Y-77157547D01*
X212647664Y-77243793D01*
X212647671Y-77243797D01*
X212782517Y-77294091D01*
X212782516Y-77294091D01*
X212789444Y-77294835D01*
X212842127Y-77300500D01*
X214048480Y-77300499D01*
X214115519Y-77320184D01*
X214136161Y-77336818D01*
X215267449Y-78468106D01*
X215300934Y-78529429D01*
X215303057Y-78569042D01*
X215299501Y-78602123D01*
X215299500Y-78602135D01*
X215299500Y-80297870D01*
X215299501Y-80297876D01*
X215305908Y-80357483D01*
X215356202Y-80492328D01*
X215356206Y-80492335D01*
X215442452Y-80607544D01*
X215442455Y-80607547D01*
X215557664Y-80693793D01*
X215557671Y-80693797D01*
X215692517Y-80744091D01*
X215692516Y-80744091D01*
X215699444Y-80744835D01*
X215752127Y-80750500D01*
X217047872Y-80750499D01*
X217107483Y-80744091D01*
X217242331Y-80693796D01*
X217357546Y-80607546D01*
X217443796Y-80492331D01*
X217494091Y-80357483D01*
X217500500Y-80297873D01*
X217500499Y-78602128D01*
X217494091Y-78542517D01*
X217489209Y-78529429D01*
X217443796Y-78407669D01*
X217443793Y-78407664D01*
X217357547Y-78292455D01*
X217357544Y-78292452D01*
X217242335Y-78206206D01*
X217242328Y-78206202D01*
X217107482Y-78155908D01*
X217107483Y-78155908D01*
X217047883Y-78149501D01*
X217047881Y-78149500D01*
X217047873Y-78149500D01*
X217047865Y-78149500D01*
X216981519Y-78149500D01*
X216914480Y-78129815D01*
X216893838Y-78113181D01*
X216292338Y-77511681D01*
X216258853Y-77450358D01*
X216263837Y-77380666D01*
X216305709Y-77324733D01*
X216371173Y-77300316D01*
X216380019Y-77300000D01*
X216386246Y-77300000D01*
X216596127Y-77266757D01*
X216596130Y-77266757D01*
X216798217Y-77201095D01*
X216987554Y-77104622D01*
X217041716Y-77065270D01*
X217041717Y-77065270D01*
X216409408Y-76432962D01*
X216472993Y-76415925D01*
X216587007Y-76350099D01*
X216680099Y-76257007D01*
X216745925Y-76142993D01*
X216762962Y-76079409D01*
X217395270Y-76711717D01*
X217395270Y-76711716D01*
X217434622Y-76657555D01*
X217439232Y-76648507D01*
X217487205Y-76597709D01*
X217555025Y-76580912D01*
X217621161Y-76603447D01*
X217660204Y-76648504D01*
X217664949Y-76657817D01*
X217789890Y-76829786D01*
X217883181Y-76923077D01*
X217916666Y-76984400D01*
X217919500Y-77010758D01*
X217919500Y-82389242D01*
X217899815Y-82456281D01*
X217883181Y-82476923D01*
X217789894Y-82570209D01*
X217789890Y-82570213D01*
X217664949Y-82742182D01*
X217660202Y-82751499D01*
X217612227Y-82802293D01*
X217544405Y-82819087D01*
X217478271Y-82796548D01*
X217439234Y-82751495D01*
X217434626Y-82742452D01*
X217395270Y-82688282D01*
X217395269Y-82688282D01*
X216762962Y-83320590D01*
X216745925Y-83257007D01*
X216680099Y-83142993D01*
X216587007Y-83049901D01*
X216472993Y-82984075D01*
X216409409Y-82967037D01*
X217041716Y-82334728D01*
X216987550Y-82295375D01*
X216798217Y-82198904D01*
X216596129Y-82133242D01*
X216386246Y-82100000D01*
X216173754Y-82100000D01*
X215963872Y-82133242D01*
X215963869Y-82133242D01*
X215761782Y-82198904D01*
X215572439Y-82295380D01*
X215518282Y-82334727D01*
X215518282Y-82334728D01*
X216150591Y-82967037D01*
X216087007Y-82984075D01*
X215972993Y-83049901D01*
X215879901Y-83142993D01*
X215814075Y-83257007D01*
X215797037Y-83320591D01*
X215126818Y-82650372D01*
X215093333Y-82589049D01*
X215093330Y-82589036D01*
X215090499Y-82576015D01*
X215090499Y-82552128D01*
X215084091Y-82492517D01*
X215045572Y-82389242D01*
X215033798Y-82357673D01*
X215033793Y-82357664D01*
X214947547Y-82242455D01*
X214947544Y-82242452D01*
X214832335Y-82156206D01*
X214832328Y-82156202D01*
X214697482Y-82105908D01*
X214697483Y-82105908D01*
X214637883Y-82099501D01*
X214637881Y-82099500D01*
X214637873Y-82099500D01*
X214637864Y-82099500D01*
X212842129Y-82099500D01*
X212842123Y-82099501D01*
X212782516Y-82105908D01*
X212647671Y-82156202D01*
X212647664Y-82156206D01*
X212532455Y-82242452D01*
X212532452Y-82242455D01*
X212446206Y-82357664D01*
X212446202Y-82357671D01*
X212395908Y-82492517D01*
X212389501Y-82552116D01*
X212389500Y-82552135D01*
X212389500Y-84347870D01*
X212389501Y-84347876D01*
X212395908Y-84407483D01*
X212446202Y-84542328D01*
X212446206Y-84542335D01*
X212532452Y-84657544D01*
X212532455Y-84657547D01*
X212647664Y-84743793D01*
X212647671Y-84743797D01*
X212782517Y-84794091D01*
X212782516Y-84794091D01*
X212789444Y-84794835D01*
X212842127Y-84800500D01*
X214048480Y-84800499D01*
X214115519Y-84820184D01*
X214136161Y-84836818D01*
X215267449Y-85968106D01*
X215300934Y-86029429D01*
X215303057Y-86069042D01*
X215299501Y-86102123D01*
X215299500Y-86102135D01*
X215299500Y-87797870D01*
X215299501Y-87797876D01*
X215305908Y-87857483D01*
X215356202Y-87992328D01*
X215356206Y-87992335D01*
X215442452Y-88107544D01*
X215442455Y-88107547D01*
X215557664Y-88193793D01*
X215557671Y-88193797D01*
X215692517Y-88244091D01*
X215692516Y-88244091D01*
X215699444Y-88244835D01*
X215752127Y-88250500D01*
X216528638Y-88250499D01*
X216549884Y-88256737D01*
X216571971Y-88258317D01*
X216582753Y-88266388D01*
X216595677Y-88270183D01*
X216610177Y-88286917D01*
X216627905Y-88300188D01*
X216632612Y-88312808D01*
X216641432Y-88322987D01*
X216644583Y-88344903D01*
X216652322Y-88365652D01*
X216649458Y-88378813D01*
X216651376Y-88392146D01*
X216642176Y-88412290D01*
X216637470Y-88433925D01*
X216624200Y-88451652D01*
X216622351Y-88455702D01*
X216616320Y-88462180D01*
X216515317Y-88563182D01*
X216453997Y-88596666D01*
X216427638Y-88599500D01*
X205899362Y-88599500D01*
X205832323Y-88579815D01*
X205811681Y-88563181D01*
X193061819Y-75813319D01*
X193028334Y-75751996D01*
X193025500Y-75725638D01*
X193025500Y-75593713D01*
X193008135Y-75484075D01*
X192992246Y-75383757D01*
X192926557Y-75181588D01*
X192830051Y-74992184D01*
X192830049Y-74992181D01*
X192830048Y-74992179D01*
X192705109Y-74820213D01*
X192554786Y-74669890D01*
X192382820Y-74544951D01*
X192382115Y-74544591D01*
X192374054Y-74540485D01*
X192323259Y-74492512D01*
X192306463Y-74424692D01*
X192328999Y-74358556D01*
X192374054Y-74319515D01*
X192382816Y-74315051D01*
X192404789Y-74299086D01*
X192554786Y-74190109D01*
X192554788Y-74190106D01*
X192554792Y-74190104D01*
X192705104Y-74039792D01*
X192705106Y-74039788D01*
X192705109Y-74039786D01*
X192830048Y-73867820D01*
X192830047Y-73867820D01*
X192830051Y-73867816D01*
X192926557Y-73678412D01*
X192992246Y-73476243D01*
X193025500Y-73266287D01*
X193025500Y-73053713D01*
X192992246Y-72843757D01*
X192926557Y-72641588D01*
X192830051Y-72452184D01*
X192830049Y-72452181D01*
X192830048Y-72452179D01*
X192705109Y-72280213D01*
X192554786Y-72129890D01*
X192382820Y-72004951D01*
X192382115Y-72004591D01*
X192374054Y-72000485D01*
X192323259Y-71952512D01*
X192306463Y-71884692D01*
X192328999Y-71818556D01*
X192374054Y-71779515D01*
X192382816Y-71775051D01*
X192404789Y-71759086D01*
X192554786Y-71650109D01*
X192554788Y-71650106D01*
X192554792Y-71650104D01*
X192705104Y-71499792D01*
X192705106Y-71499788D01*
X192705109Y-71499786D01*
X192830048Y-71327820D01*
X192830047Y-71327820D01*
X192830051Y-71327816D01*
X192926557Y-71138412D01*
X192992246Y-70936243D01*
X193025500Y-70726287D01*
X193025500Y-70513713D01*
X192992246Y-70303757D01*
X192926557Y-70101588D01*
X192830051Y-69912184D01*
X192830049Y-69912181D01*
X192830048Y-69912179D01*
X192705109Y-69740213D01*
X192554786Y-69589890D01*
X192382820Y-69464951D01*
X192382115Y-69464591D01*
X192374054Y-69460485D01*
X192323259Y-69412512D01*
X192306463Y-69344692D01*
X192328999Y-69278556D01*
X192374054Y-69239515D01*
X192382816Y-69235051D01*
X192433111Y-69198510D01*
X192554786Y-69110109D01*
X192554788Y-69110106D01*
X192554792Y-69110104D01*
X192705104Y-68959792D01*
X192705106Y-68959788D01*
X192705109Y-68959786D01*
X192830048Y-68787820D01*
X192830047Y-68787820D01*
X192830051Y-68787816D01*
X192926557Y-68598412D01*
X192992246Y-68396243D01*
X193025500Y-68186287D01*
X193025500Y-67973713D01*
X192992246Y-67763757D01*
X192926557Y-67561588D01*
X192830051Y-67372184D01*
X192830049Y-67372181D01*
X192830048Y-67372179D01*
X192705109Y-67200213D01*
X192554786Y-67049890D01*
X192382820Y-66924951D01*
X192382115Y-66924591D01*
X192374054Y-66920485D01*
X192323259Y-66872512D01*
X192306463Y-66804692D01*
X192328999Y-66738556D01*
X192374054Y-66699515D01*
X192382816Y-66695051D01*
X192404789Y-66679086D01*
X192554786Y-66570109D01*
X192554788Y-66570106D01*
X192554792Y-66570104D01*
X192705104Y-66419792D01*
X192705106Y-66419788D01*
X192705109Y-66419786D01*
X192830048Y-66247820D01*
X192830047Y-66247820D01*
X192830051Y-66247816D01*
X192926557Y-66058412D01*
X192992246Y-65856243D01*
X193025500Y-65646287D01*
X193025500Y-65433713D01*
X192992246Y-65223757D01*
X192926557Y-65021588D01*
X192830051Y-64832184D01*
X192830049Y-64832181D01*
X192830048Y-64832179D01*
X192705109Y-64660213D01*
X192554786Y-64509890D01*
X192382820Y-64384951D01*
X192382115Y-64384591D01*
X192374054Y-64380485D01*
X192323259Y-64332512D01*
X192306463Y-64264692D01*
X192328999Y-64198556D01*
X192374054Y-64159515D01*
X192382816Y-64155051D01*
X192404789Y-64139086D01*
X192554786Y-64030109D01*
X192554788Y-64030106D01*
X192554792Y-64030104D01*
X192705104Y-63879792D01*
X192705106Y-63879788D01*
X192705109Y-63879786D01*
X192830048Y-63707820D01*
X192830047Y-63707820D01*
X192830051Y-63707816D01*
X192926557Y-63518412D01*
X192992246Y-63316243D01*
X193025500Y-63106287D01*
X193025500Y-62893713D01*
X205649500Y-62893713D01*
X205649500Y-63106287D01*
X205656345Y-63149503D01*
X205680254Y-63300462D01*
X205682754Y-63316243D01*
X205747767Y-63516332D01*
X205748444Y-63518414D01*
X205844951Y-63707820D01*
X205969890Y-63879786D01*
X206120213Y-64030109D01*
X206292182Y-64155050D01*
X206300946Y-64159516D01*
X206351742Y-64207491D01*
X206368536Y-64275312D01*
X206345998Y-64341447D01*
X206300946Y-64380484D01*
X206292182Y-64384949D01*
X206120213Y-64509890D01*
X205969890Y-64660213D01*
X205844951Y-64832179D01*
X205748444Y-65021585D01*
X205682753Y-65223760D01*
X205666918Y-65323738D01*
X205649500Y-65433713D01*
X205649500Y-65646287D01*
X205657024Y-65693793D01*
X205666005Y-65750498D01*
X205682754Y-65856243D01*
X205685291Y-65864052D01*
X205748444Y-66058414D01*
X205844951Y-66247820D01*
X205969890Y-66419786D01*
X206120213Y-66570109D01*
X206292182Y-66695050D01*
X206300946Y-66699516D01*
X206351742Y-66747491D01*
X206368536Y-66815312D01*
X206345998Y-66881447D01*
X206300946Y-66920484D01*
X206292182Y-66924949D01*
X206120213Y-67049890D01*
X205969890Y-67200213D01*
X205844951Y-67372179D01*
X205748444Y-67561585D01*
X205748443Y-67561587D01*
X205748443Y-67561588D01*
X205719595Y-67650372D01*
X205682753Y-67763760D01*
X205649500Y-67973713D01*
X205649500Y-68186286D01*
X205674541Y-68344393D01*
X205682754Y-68396243D01*
X205734742Y-68556246D01*
X205748444Y-68598414D01*
X205844951Y-68787820D01*
X205969890Y-68959786D01*
X206120213Y-69110109D01*
X206292182Y-69235050D01*
X206300946Y-69239516D01*
X206351742Y-69287491D01*
X206368536Y-69355312D01*
X206345998Y-69421447D01*
X206300946Y-69460484D01*
X206292182Y-69464949D01*
X206120213Y-69589890D01*
X205969890Y-69740213D01*
X205844951Y-69912179D01*
X205748444Y-70101585D01*
X205682753Y-70303760D01*
X205666918Y-70403738D01*
X205649500Y-70513713D01*
X205649500Y-70726287D01*
X205654239Y-70756206D01*
X205678228Y-70907671D01*
X205682754Y-70936243D01*
X205736653Y-71102127D01*
X205748444Y-71138414D01*
X205844951Y-71327820D01*
X205969890Y-71499786D01*
X206120213Y-71650109D01*
X206292182Y-71775050D01*
X206300946Y-71779516D01*
X206351742Y-71827491D01*
X206368536Y-71895312D01*
X206345998Y-71961447D01*
X206300946Y-72000484D01*
X206292182Y-72004949D01*
X206120213Y-72129890D01*
X205969890Y-72280213D01*
X205844951Y-72452179D01*
X205748444Y-72641585D01*
X205682753Y-72843760D01*
X205649500Y-73053713D01*
X205649500Y-73266286D01*
X205682753Y-73476239D01*
X205748444Y-73678414D01*
X205844951Y-73867820D01*
X205969890Y-74039786D01*
X206120213Y-74190109D01*
X206292182Y-74315050D01*
X206300946Y-74319516D01*
X206351742Y-74367491D01*
X206368536Y-74435312D01*
X206345998Y-74501447D01*
X206300946Y-74540484D01*
X206292182Y-74544949D01*
X206120213Y-74669890D01*
X205969890Y-74820213D01*
X205844951Y-74992179D01*
X205748444Y-75181585D01*
X205682753Y-75383760D01*
X205675178Y-75431588D01*
X205649500Y-75593713D01*
X205649500Y-75806287D01*
X205682754Y-76016243D01*
X205712011Y-76106287D01*
X205748444Y-76218414D01*
X205844951Y-76407820D01*
X205969890Y-76579786D01*
X206120211Y-76730107D01*
X206191200Y-76781682D01*
X206248385Y-76823229D01*
X206291051Y-76878558D01*
X206299500Y-76923547D01*
X206299500Y-80481006D01*
X206299500Y-80618994D01*
X206299500Y-80618996D01*
X206299499Y-80618996D01*
X206326418Y-80754322D01*
X206326421Y-80754332D01*
X206379222Y-80881807D01*
X206455887Y-80996545D01*
X206455888Y-80996546D01*
X212263181Y-86803838D01*
X212296666Y-86865161D01*
X212299500Y-86891519D01*
X212299500Y-87797870D01*
X212299501Y-87797876D01*
X212305908Y-87857483D01*
X212356202Y-87992328D01*
X212356206Y-87992335D01*
X212442452Y-88107544D01*
X212442455Y-88107547D01*
X212557664Y-88193793D01*
X212557671Y-88193797D01*
X212692517Y-88244091D01*
X212692516Y-88244091D01*
X212699444Y-88244835D01*
X212752127Y-88250500D01*
X214047872Y-88250499D01*
X214107483Y-88244091D01*
X214242331Y-88193796D01*
X214357546Y-88107546D01*
X214443796Y-87992331D01*
X214494091Y-87857483D01*
X214500500Y-87797873D01*
X214500499Y-86102128D01*
X214494091Y-86042517D01*
X214489209Y-86029429D01*
X214443797Y-85907671D01*
X214443793Y-85907664D01*
X214357547Y-85792455D01*
X214357544Y-85792452D01*
X214242335Y-85706206D01*
X214242328Y-85706202D01*
X214107482Y-85655908D01*
X214107483Y-85655908D01*
X214047883Y-85649501D01*
X214047881Y-85649500D01*
X214047873Y-85649500D01*
X214047865Y-85649500D01*
X213141519Y-85649500D01*
X213074480Y-85629815D01*
X213053838Y-85613181D01*
X207736819Y-80296162D01*
X207703334Y-80234839D01*
X207700500Y-80208481D01*
X207700500Y-76923547D01*
X207720185Y-76856508D01*
X207751614Y-76823230D01*
X207879792Y-76730104D01*
X208030104Y-76579792D01*
X208030106Y-76579788D01*
X208030109Y-76579786D01*
X208139086Y-76429789D01*
X208155051Y-76407816D01*
X208251557Y-76218412D01*
X208317246Y-76016243D01*
X208350500Y-75806287D01*
X208350500Y-75800519D01*
X208370185Y-75733480D01*
X208422989Y-75687725D01*
X208492147Y-75677781D01*
X208555703Y-75706806D01*
X208562181Y-75712838D01*
X212263181Y-79413838D01*
X212296666Y-79475161D01*
X212299500Y-79501519D01*
X212299500Y-80297870D01*
X212299501Y-80297876D01*
X212305908Y-80357483D01*
X212356202Y-80492328D01*
X212356206Y-80492335D01*
X212442452Y-80607544D01*
X212442455Y-80607547D01*
X212557664Y-80693793D01*
X212557671Y-80693797D01*
X212692517Y-80744091D01*
X212692516Y-80744091D01*
X212699444Y-80744835D01*
X212752127Y-80750500D01*
X214047872Y-80750499D01*
X214107483Y-80744091D01*
X214242331Y-80693796D01*
X214357546Y-80607546D01*
X214443796Y-80492331D01*
X214494091Y-80357483D01*
X214500500Y-80297873D01*
X214500499Y-78602128D01*
X214494091Y-78542517D01*
X214489209Y-78529429D01*
X214443796Y-78407669D01*
X214443793Y-78407664D01*
X214357547Y-78292455D01*
X214357544Y-78292452D01*
X214242335Y-78206206D01*
X214242328Y-78206202D01*
X214107482Y-78155908D01*
X214107483Y-78155908D01*
X214047883Y-78149501D01*
X214047881Y-78149500D01*
X214047873Y-78149500D01*
X214047865Y-78149500D01*
X213031519Y-78149500D01*
X212964480Y-78129815D01*
X212943838Y-78113181D01*
X208360507Y-73529850D01*
X208327022Y-73468527D01*
X208325715Y-73422771D01*
X208350500Y-73266286D01*
X208350500Y-73053713D01*
X208340778Y-72992331D01*
X208317246Y-72843757D01*
X208307192Y-72812817D01*
X208305198Y-72742977D01*
X208341278Y-72683144D01*
X208403979Y-72652316D01*
X208425124Y-72650500D01*
X212135501Y-72650500D01*
X212202540Y-72670185D01*
X212248295Y-72722989D01*
X212259501Y-72774500D01*
X212259501Y-72797876D01*
X212265908Y-72857483D01*
X212316202Y-72992328D01*
X212316206Y-72992335D01*
X212402452Y-73107544D01*
X212402455Y-73107547D01*
X212517664Y-73193793D01*
X212517671Y-73193797D01*
X212652517Y-73244091D01*
X212652516Y-73244091D01*
X212659444Y-73244835D01*
X212712127Y-73250500D01*
X214007872Y-73250499D01*
X214067483Y-73244091D01*
X214202331Y-73193796D01*
X214317546Y-73107546D01*
X214403796Y-72992331D01*
X214454091Y-72857483D01*
X214460500Y-72797873D01*
X214460499Y-71102128D01*
X214454091Y-71042517D01*
X214449209Y-71029429D01*
X214403797Y-70907671D01*
X214403793Y-70907664D01*
X214317547Y-70792455D01*
X214317544Y-70792452D01*
X214202335Y-70706206D01*
X214202328Y-70706202D01*
X214067482Y-70655908D01*
X214067483Y-70655908D01*
X214007883Y-70649501D01*
X214007881Y-70649500D01*
X214007873Y-70649500D01*
X214007864Y-70649500D01*
X212712129Y-70649500D01*
X212712123Y-70649501D01*
X212652516Y-70655908D01*
X212517671Y-70706202D01*
X212517664Y-70706206D01*
X212402455Y-70792452D01*
X212402452Y-70792455D01*
X212316206Y-70907664D01*
X212316202Y-70907671D01*
X212265908Y-71042517D01*
X212263057Y-71069042D01*
X212259501Y-71102123D01*
X212259500Y-71102135D01*
X212259500Y-71125500D01*
X212239815Y-71192539D01*
X212187011Y-71238294D01*
X212135500Y-71249500D01*
X208671519Y-71249500D01*
X208604480Y-71229815D01*
X208583838Y-71213181D01*
X208360507Y-70989850D01*
X208327022Y-70928527D01*
X208325715Y-70882771D01*
X208332101Y-70842455D01*
X208350500Y-70726287D01*
X208350500Y-70513713D01*
X208317246Y-70303757D01*
X208251557Y-70101588D01*
X208155051Y-69912184D01*
X208155049Y-69912181D01*
X208155048Y-69912179D01*
X208030109Y-69740213D01*
X207879786Y-69589890D01*
X207707820Y-69464951D01*
X207707115Y-69464591D01*
X207699054Y-69460485D01*
X207648259Y-69412512D01*
X207631463Y-69344692D01*
X207653999Y-69278556D01*
X207699054Y-69239515D01*
X207707816Y-69235051D01*
X207758111Y-69198510D01*
X207879786Y-69110109D01*
X207879788Y-69110106D01*
X207879792Y-69110104D01*
X208030104Y-68959792D01*
X208030106Y-68959788D01*
X208030109Y-68959786D01*
X208155048Y-68787820D01*
X208155047Y-68787820D01*
X208155051Y-68787816D01*
X208251557Y-68598412D01*
X208317246Y-68396243D01*
X208350500Y-68186287D01*
X208350500Y-67973713D01*
X208331356Y-67852845D01*
X208325715Y-67817227D01*
X208334670Y-67747933D01*
X208360504Y-67710151D01*
X210883838Y-65186819D01*
X210945161Y-65153334D01*
X210971519Y-65150500D01*
X212175501Y-65150500D01*
X212242540Y-65170185D01*
X212288295Y-65222989D01*
X212299501Y-65274500D01*
X212299501Y-65297876D01*
X212305908Y-65357483D01*
X212356202Y-65492328D01*
X212356206Y-65492335D01*
X212442452Y-65607544D01*
X212442455Y-65607547D01*
X212557664Y-65693793D01*
X212557671Y-65693797D01*
X212692517Y-65744091D01*
X212692516Y-65744091D01*
X212699444Y-65744835D01*
X212752127Y-65750500D01*
X214047872Y-65750499D01*
X214107483Y-65744091D01*
X214242331Y-65693796D01*
X214357546Y-65607546D01*
X214443796Y-65492331D01*
X214494091Y-65357483D01*
X214500500Y-65297873D01*
X214500499Y-63602128D01*
X214494091Y-63542517D01*
X214489209Y-63529429D01*
X214443796Y-63407669D01*
X214443793Y-63407664D01*
X214357547Y-63292455D01*
X214357544Y-63292452D01*
X214242335Y-63206206D01*
X214242328Y-63206202D01*
X214107482Y-63155908D01*
X214107483Y-63155908D01*
X214047883Y-63149501D01*
X214047881Y-63149500D01*
X214047873Y-63149500D01*
X214047864Y-63149500D01*
X212752129Y-63149500D01*
X212752123Y-63149501D01*
X212692516Y-63155908D01*
X212557671Y-63206202D01*
X212557664Y-63206206D01*
X212442455Y-63292452D01*
X212442452Y-63292455D01*
X212356206Y-63407664D01*
X212356204Y-63407669D01*
X212305908Y-63542517D01*
X212303057Y-63569042D01*
X212299501Y-63602123D01*
X212299500Y-63602135D01*
X212299500Y-63625500D01*
X212279815Y-63692539D01*
X212227011Y-63738294D01*
X212175500Y-63749500D01*
X210561003Y-63749500D01*
X210452590Y-63771065D01*
X210452589Y-63771065D01*
X210425671Y-63776420D01*
X210298190Y-63829224D01*
X210183454Y-63905887D01*
X210183453Y-63905888D01*
X208562181Y-65527161D01*
X208500858Y-65560646D01*
X208431166Y-65555662D01*
X208375233Y-65513790D01*
X208350816Y-65448326D01*
X208350500Y-65439480D01*
X208350500Y-65433713D01*
X208317246Y-65223757D01*
X208251557Y-65021588D01*
X208155051Y-64832184D01*
X208155049Y-64832181D01*
X208155048Y-64832179D01*
X208030109Y-64660213D01*
X207879786Y-64509890D01*
X207707820Y-64384951D01*
X207707115Y-64384591D01*
X207699054Y-64380485D01*
X207648259Y-64332512D01*
X207631463Y-64264692D01*
X207653999Y-64198556D01*
X207699054Y-64159515D01*
X207707816Y-64155051D01*
X207729789Y-64139086D01*
X207879786Y-64030109D01*
X207879788Y-64030106D01*
X207879792Y-64030104D01*
X208030104Y-63879792D01*
X208030106Y-63879788D01*
X208030109Y-63879786D01*
X208155048Y-63707820D01*
X208155047Y-63707820D01*
X208155051Y-63707816D01*
X208251557Y-63518412D01*
X208317246Y-63316243D01*
X208350500Y-63106287D01*
X208350500Y-62893713D01*
X208317246Y-62683757D01*
X208251557Y-62481588D01*
X208155051Y-62292184D01*
X208155049Y-62292181D01*
X208155048Y-62292179D01*
X208030109Y-62120213D01*
X207916181Y-62006285D01*
X207882696Y-61944962D01*
X207887680Y-61875270D01*
X207929552Y-61819337D01*
X207960529Y-61802422D01*
X208092086Y-61753354D01*
X208092093Y-61753350D01*
X208207187Y-61667190D01*
X208207190Y-61667187D01*
X208293350Y-61552093D01*
X208293354Y-61552086D01*
X208343596Y-61417379D01*
X208343598Y-61417372D01*
X208349999Y-61357844D01*
X208350000Y-61357827D01*
X208350000Y-60710000D01*
X207433012Y-60710000D01*
X207465925Y-60652993D01*
X207500000Y-60525826D01*
X207500000Y-60394174D01*
X207465925Y-60267007D01*
X207433012Y-60210000D01*
X208350000Y-60210000D01*
X208350000Y-59562172D01*
X208349999Y-59562155D01*
X208343598Y-59502627D01*
X208343596Y-59502620D01*
X208293354Y-59367913D01*
X208293350Y-59367906D01*
X208207190Y-59252812D01*
X208207187Y-59252809D01*
X208092093Y-59166649D01*
X208092086Y-59166645D01*
X207957379Y-59116403D01*
X207957372Y-59116401D01*
X207897844Y-59110000D01*
X207250000Y-59110000D01*
X207250000Y-60026988D01*
X207192993Y-59994075D01*
X207065826Y-59960000D01*
X206934174Y-59960000D01*
X206807007Y-59994075D01*
X206750000Y-60026988D01*
X206750000Y-59110000D01*
X206102155Y-59110000D01*
X206042627Y-59116401D01*
X206042620Y-59116403D01*
X205907913Y-59166645D01*
X205907906Y-59166649D01*
X205792812Y-59252809D01*
X205792809Y-59252812D01*
X205706649Y-59367906D01*
X205706645Y-59367913D01*
X205656403Y-59502620D01*
X205656401Y-59502627D01*
X205650000Y-59562155D01*
X205650000Y-60210000D01*
X206566988Y-60210000D01*
X206534075Y-60267007D01*
X206500000Y-60394174D01*
X206500000Y-60525826D01*
X206534075Y-60652993D01*
X206566988Y-60710000D01*
X205650000Y-60710000D01*
X205650000Y-61357844D01*
X205656401Y-61417372D01*
X205656403Y-61417379D01*
X205706645Y-61552086D01*
X205706649Y-61552093D01*
X205792809Y-61667187D01*
X205792812Y-61667190D01*
X205907906Y-61753350D01*
X205907913Y-61753354D01*
X206039470Y-61802422D01*
X206095404Y-61844293D01*
X206119821Y-61909758D01*
X206104969Y-61978031D01*
X206083819Y-62006285D01*
X205969889Y-62120215D01*
X205844951Y-62292179D01*
X205748444Y-62481585D01*
X205682753Y-62683760D01*
X205649500Y-62893713D01*
X193025500Y-62893713D01*
X192992246Y-62683757D01*
X192926557Y-62481588D01*
X192830051Y-62292184D01*
X192830049Y-62292181D01*
X192830048Y-62292179D01*
X192705109Y-62120213D01*
X192591569Y-62006673D01*
X192558084Y-61945350D01*
X192563068Y-61875658D01*
X192604940Y-61819725D01*
X192635915Y-61802810D01*
X192767331Y-61753796D01*
X192882546Y-61667546D01*
X192968796Y-61552331D01*
X193019091Y-61417483D01*
X193025500Y-61357873D01*
X193025499Y-60870097D01*
X197849500Y-60870097D01*
X197849500Y-61129902D01*
X197890140Y-61386493D01*
X197970422Y-61633576D01*
X198010238Y-61711717D01*
X198078123Y-61844949D01*
X198088368Y-61865054D01*
X198164540Y-61969896D01*
X198241069Y-62075229D01*
X198424771Y-62258931D01*
X198634949Y-62411634D01*
X198772235Y-62481585D01*
X198866423Y-62529577D01*
X198866425Y-62529577D01*
X198866428Y-62529579D01*
X199113507Y-62609860D01*
X199245706Y-62630797D01*
X199370098Y-62650500D01*
X199370103Y-62650500D01*
X199629902Y-62650500D01*
X199743298Y-62632539D01*
X199886493Y-62609860D01*
X200133572Y-62529579D01*
X200365051Y-62411634D01*
X200575229Y-62258931D01*
X200758931Y-62075229D01*
X200911634Y-61865051D01*
X201029579Y-61633572D01*
X201109860Y-61386493D01*
X201140507Y-61192993D01*
X201150500Y-61129902D01*
X201150500Y-60870097D01*
X201125143Y-60710000D01*
X201109860Y-60613507D01*
X201029579Y-60366428D01*
X201029577Y-60366425D01*
X201029577Y-60366423D01*
X200978921Y-60267007D01*
X200911634Y-60134949D01*
X200758931Y-59924771D01*
X200575229Y-59741069D01*
X200462502Y-59659168D01*
X200462501Y-59659167D01*
X200365054Y-59588368D01*
X200365053Y-59588367D01*
X200365051Y-59588366D01*
X200292764Y-59551534D01*
X200133576Y-59470422D01*
X199886493Y-59390140D01*
X199629902Y-59349500D01*
X199629897Y-59349500D01*
X199370103Y-59349500D01*
X199370098Y-59349500D01*
X199113506Y-59390140D01*
X198866423Y-59470422D01*
X198634945Y-59588368D01*
X198424774Y-59741066D01*
X198424768Y-59741071D01*
X198241071Y-59924768D01*
X198241066Y-59924774D01*
X198088368Y-60134945D01*
X197970422Y-60366423D01*
X197890140Y-60613506D01*
X197849500Y-60870097D01*
X193025499Y-60870097D01*
X193025499Y-60450000D01*
X193025499Y-59562129D01*
X193025498Y-59562123D01*
X193025497Y-59562116D01*
X193019091Y-59502517D01*
X193007120Y-59470422D01*
X192968797Y-59367671D01*
X192968793Y-59367664D01*
X192882547Y-59252455D01*
X192882544Y-59252452D01*
X192767335Y-59166206D01*
X192767328Y-59166202D01*
X192632482Y-59115908D01*
X192632483Y-59115908D01*
X192572883Y-59109501D01*
X192572881Y-59109500D01*
X192572873Y-59109500D01*
X192572864Y-59109500D01*
X190777129Y-59109500D01*
X190777123Y-59109501D01*
X190717516Y-59115908D01*
X190582671Y-59166202D01*
X190582664Y-59166206D01*
X190467455Y-59252452D01*
X190467452Y-59252455D01*
X190381206Y-59367664D01*
X190381202Y-59367671D01*
X190330908Y-59502517D01*
X190324501Y-59562116D01*
X190324501Y-59562123D01*
X190324500Y-59562135D01*
X190324500Y-59635500D01*
X190304815Y-59702539D01*
X190252011Y-59748294D01*
X190200500Y-59759500D01*
X189471004Y-59759500D01*
X189335677Y-59786418D01*
X189335667Y-59786421D01*
X189208192Y-59839222D01*
X189093454Y-59915887D01*
X185846160Y-63163181D01*
X185784837Y-63196666D01*
X185758479Y-63199500D01*
X184852129Y-63199500D01*
X184852123Y-63199501D01*
X184792516Y-63205908D01*
X184657671Y-63256202D01*
X184657664Y-63256206D01*
X184542455Y-63342452D01*
X184542452Y-63342455D01*
X184456206Y-63457664D01*
X184456202Y-63457671D01*
X184405908Y-63592517D01*
X184399501Y-63652116D01*
X184399501Y-63652123D01*
X184399500Y-63652135D01*
X184399500Y-65347870D01*
X184399501Y-65347876D01*
X184405908Y-65407483D01*
X184456202Y-65542328D01*
X184456206Y-65542335D01*
X184542452Y-65657544D01*
X184542455Y-65657547D01*
X184657664Y-65743793D01*
X184657671Y-65743797D01*
X184792517Y-65794091D01*
X184792516Y-65794091D01*
X184799444Y-65794835D01*
X184852127Y-65800500D01*
X186147872Y-65800499D01*
X186207483Y-65794091D01*
X186342331Y-65743796D01*
X186457546Y-65657546D01*
X186543796Y-65542331D01*
X186594091Y-65407483D01*
X186600500Y-65347873D01*
X186600499Y-64441517D01*
X186620183Y-64374479D01*
X186636813Y-64353842D01*
X189793838Y-61196819D01*
X189855161Y-61163334D01*
X189881519Y-61160500D01*
X190200501Y-61160500D01*
X190267540Y-61180185D01*
X190313295Y-61232989D01*
X190324501Y-61284500D01*
X190324501Y-61357876D01*
X190330908Y-61417483D01*
X190381202Y-61552328D01*
X190381206Y-61552335D01*
X190467452Y-61667544D01*
X190467455Y-61667547D01*
X190582664Y-61753793D01*
X190582671Y-61753797D01*
X190714082Y-61802810D01*
X190770016Y-61844681D01*
X190794433Y-61910145D01*
X190779582Y-61978418D01*
X190758431Y-62006673D01*
X190644889Y-62120215D01*
X190519951Y-62292179D01*
X190423444Y-62481585D01*
X190357753Y-62683760D01*
X190324500Y-62893713D01*
X190324500Y-63106287D01*
X190324499Y-63106287D01*
X190349284Y-63262771D01*
X190340329Y-63332064D01*
X190314492Y-63369849D01*
X186387398Y-67296944D01*
X186326075Y-67330429D01*
X186256383Y-67325445D01*
X186212036Y-67296944D01*
X186207544Y-67292452D01*
X186092335Y-67206206D01*
X186092328Y-67206202D01*
X185957482Y-67155908D01*
X185957483Y-67155908D01*
X185897883Y-67149501D01*
X185897881Y-67149500D01*
X185897873Y-67149500D01*
X185897864Y-67149500D01*
X184102129Y-67149500D01*
X184102123Y-67149501D01*
X184042516Y-67155908D01*
X183907671Y-67206202D01*
X183907664Y-67206206D01*
X183792455Y-67292452D01*
X183792452Y-67292455D01*
X183706206Y-67407664D01*
X183706202Y-67407671D01*
X183655908Y-67542517D01*
X183649501Y-67602116D01*
X183649500Y-67602135D01*
X183649500Y-67612690D01*
X183629815Y-67679729D01*
X183613181Y-67700371D01*
X182942962Y-68370590D01*
X182925925Y-68307007D01*
X182860099Y-68192993D01*
X182767007Y-68099901D01*
X182652993Y-68034075D01*
X182589409Y-68017037D01*
X183221716Y-67384728D01*
X183167550Y-67345375D01*
X182978217Y-67248904D01*
X182776129Y-67183242D01*
X182566246Y-67150000D01*
X182353754Y-67150000D01*
X182143872Y-67183242D01*
X182143869Y-67183242D01*
X181941782Y-67248904D01*
X181752439Y-67345380D01*
X181698282Y-67384727D01*
X181698282Y-67384728D01*
X182330591Y-68017037D01*
X182267007Y-68034075D01*
X182152993Y-68099901D01*
X182059901Y-68192993D01*
X181994075Y-68307007D01*
X181977037Y-68370591D01*
X181344728Y-67738282D01*
X181344727Y-67738282D01*
X181305380Y-67792440D01*
X181300483Y-67802051D01*
X181252506Y-67852845D01*
X181184684Y-67869638D01*
X181118550Y-67847098D01*
X181079516Y-67802048D01*
X181074626Y-67792452D01*
X181035270Y-67738282D01*
X181035269Y-67738282D01*
X180402962Y-68370590D01*
X180385925Y-68307007D01*
X180320099Y-68192993D01*
X180227007Y-68099901D01*
X180112993Y-68034075D01*
X180049409Y-68017037D01*
X180681716Y-67384728D01*
X180627550Y-67345375D01*
X180438217Y-67248904D01*
X180236129Y-67183242D01*
X180026246Y-67150000D01*
X179813754Y-67150000D01*
X179603872Y-67183242D01*
X179603869Y-67183242D01*
X179401782Y-67248904D01*
X179212439Y-67345380D01*
X179158282Y-67384727D01*
X179158282Y-67384728D01*
X179790591Y-68017037D01*
X179727007Y-68034075D01*
X179612993Y-68099901D01*
X179519901Y-68192993D01*
X179454075Y-68307007D01*
X179437037Y-68370591D01*
X178804728Y-67738282D01*
X178804727Y-67738282D01*
X178765380Y-67792440D01*
X178760483Y-67802051D01*
X178712506Y-67852845D01*
X178644684Y-67869638D01*
X178578550Y-67847098D01*
X178539516Y-67802048D01*
X178534626Y-67792452D01*
X178495270Y-67738282D01*
X178495269Y-67738282D01*
X177862962Y-68370590D01*
X177845925Y-68307007D01*
X177780099Y-68192993D01*
X177687007Y-68099901D01*
X177572993Y-68034075D01*
X177509409Y-68017037D01*
X178141716Y-67384728D01*
X178087550Y-67345375D01*
X177898217Y-67248904D01*
X177696129Y-67183242D01*
X177486246Y-67150000D01*
X177273754Y-67150000D01*
X177063872Y-67183242D01*
X177063869Y-67183242D01*
X176861782Y-67248904D01*
X176672439Y-67345380D01*
X176618282Y-67384727D01*
X176618282Y-67384728D01*
X177250591Y-68017037D01*
X177187007Y-68034075D01*
X177072993Y-68099901D01*
X176979901Y-68192993D01*
X176914075Y-68307007D01*
X176897037Y-68370591D01*
X176264728Y-67738282D01*
X176264727Y-67738282D01*
X176225380Y-67792440D01*
X176220483Y-67802051D01*
X176172506Y-67852845D01*
X176104684Y-67869638D01*
X176038550Y-67847098D01*
X175999516Y-67802048D01*
X175994626Y-67792452D01*
X175955270Y-67738282D01*
X175955269Y-67738282D01*
X175322962Y-68370590D01*
X175305925Y-68307007D01*
X175240099Y-68192993D01*
X175147007Y-68099901D01*
X175032993Y-68034075D01*
X174969409Y-68017037D01*
X175601716Y-67384728D01*
X175547550Y-67345375D01*
X175358217Y-67248904D01*
X175156129Y-67183242D01*
X174946246Y-67150000D01*
X174733754Y-67150000D01*
X174523872Y-67183242D01*
X174523869Y-67183242D01*
X174321782Y-67248904D01*
X174132439Y-67345380D01*
X174078282Y-67384727D01*
X174078282Y-67384728D01*
X174710591Y-68017037D01*
X174647007Y-68034075D01*
X174532993Y-68099901D01*
X174439901Y-68192993D01*
X174374075Y-68307007D01*
X174357037Y-68370591D01*
X173724728Y-67738282D01*
X173724727Y-67738282D01*
X173685380Y-67792440D01*
X173685376Y-67792446D01*
X173680760Y-67801505D01*
X173632781Y-67852297D01*
X173564959Y-67869087D01*
X173498826Y-67846543D01*
X173459794Y-67801493D01*
X173455051Y-67792184D01*
X173455049Y-67792181D01*
X173455048Y-67792179D01*
X173330109Y-67620213D01*
X173179786Y-67469890D01*
X173007820Y-67344951D01*
X172818414Y-67248444D01*
X172818413Y-67248443D01*
X172818412Y-67248443D01*
X172616243Y-67182754D01*
X172616241Y-67182753D01*
X172616240Y-67182753D01*
X172448601Y-67156202D01*
X172406287Y-67149500D01*
X172193713Y-67149500D01*
X172151399Y-67156202D01*
X171983760Y-67182753D01*
X171781585Y-67248444D01*
X171592179Y-67344951D01*
X171420213Y-67469890D01*
X171269890Y-67620213D01*
X171144951Y-67792179D01*
X171048444Y-67981585D01*
X170982753Y-68183760D01*
X170949500Y-68393713D01*
X168500500Y-68393713D01*
X168500500Y-61003750D01*
X168500726Y-60996263D01*
X168506927Y-60893753D01*
X170950000Y-60893753D01*
X170950000Y-61106246D01*
X170983242Y-61316127D01*
X170983242Y-61316130D01*
X171048904Y-61518217D01*
X171145375Y-61707550D01*
X171184728Y-61761716D01*
X171817037Y-61129408D01*
X171834075Y-61192993D01*
X171899901Y-61307007D01*
X171992993Y-61400099D01*
X172107007Y-61465925D01*
X172170590Y-61482962D01*
X171538282Y-62115269D01*
X171538282Y-62115270D01*
X171592449Y-62154624D01*
X171781782Y-62251095D01*
X171983870Y-62316757D01*
X172193754Y-62350000D01*
X172406246Y-62350000D01*
X172616127Y-62316757D01*
X172616130Y-62316757D01*
X172818217Y-62251095D01*
X173007554Y-62154622D01*
X173061716Y-62115270D01*
X173061717Y-62115270D01*
X172429408Y-61482962D01*
X172492993Y-61465925D01*
X172607007Y-61400099D01*
X172700099Y-61307007D01*
X172765925Y-61192993D01*
X172782962Y-61129409D01*
X173415270Y-61761717D01*
X173415270Y-61761716D01*
X173454622Y-61707554D01*
X173459514Y-61697954D01*
X173507488Y-61647157D01*
X173575308Y-61630361D01*
X173641444Y-61652897D01*
X173680486Y-61697954D01*
X173685375Y-61707550D01*
X173724728Y-61761716D01*
X174357037Y-61129408D01*
X174374075Y-61192993D01*
X174439901Y-61307007D01*
X174532993Y-61400099D01*
X174647007Y-61465925D01*
X174710590Y-61482962D01*
X174078282Y-62115269D01*
X174078282Y-62115270D01*
X174132449Y-62154624D01*
X174321782Y-62251095D01*
X174523870Y-62316757D01*
X174733754Y-62350000D01*
X174946246Y-62350000D01*
X175156127Y-62316757D01*
X175156130Y-62316757D01*
X175358217Y-62251095D01*
X175547554Y-62154622D01*
X175601716Y-62115270D01*
X175601717Y-62115270D01*
X174969408Y-61482962D01*
X175032993Y-61465925D01*
X175147007Y-61400099D01*
X175240099Y-61307007D01*
X175305925Y-61192993D01*
X175322962Y-61129409D01*
X175955270Y-61761717D01*
X175955270Y-61761716D01*
X175994622Y-61707554D01*
X175999514Y-61697954D01*
X176047488Y-61647157D01*
X176115308Y-61630361D01*
X176181444Y-61652897D01*
X176220486Y-61697954D01*
X176225375Y-61707550D01*
X176264728Y-61761716D01*
X176897037Y-61129408D01*
X176914075Y-61192993D01*
X176979901Y-61307007D01*
X177072993Y-61400099D01*
X177187007Y-61465925D01*
X177250590Y-61482962D01*
X176618282Y-62115269D01*
X176618282Y-62115270D01*
X176672449Y-62154624D01*
X176861782Y-62251095D01*
X177063870Y-62316757D01*
X177273754Y-62350000D01*
X177486246Y-62350000D01*
X177696127Y-62316757D01*
X177696130Y-62316757D01*
X177898217Y-62251095D01*
X178087554Y-62154622D01*
X178141716Y-62115270D01*
X178141717Y-62115270D01*
X177509408Y-61482962D01*
X177572993Y-61465925D01*
X177687007Y-61400099D01*
X177780099Y-61307007D01*
X177845925Y-61192993D01*
X177862962Y-61129408D01*
X178495270Y-61761717D01*
X178495270Y-61761716D01*
X178534622Y-61707554D01*
X178539514Y-61697954D01*
X178587488Y-61647157D01*
X178655308Y-61630361D01*
X178721444Y-61652897D01*
X178760486Y-61697954D01*
X178765375Y-61707550D01*
X178804728Y-61761716D01*
X179437037Y-61129408D01*
X179454075Y-61192993D01*
X179519901Y-61307007D01*
X179612993Y-61400099D01*
X179727007Y-61465925D01*
X179790590Y-61482962D01*
X179158282Y-62115269D01*
X179158282Y-62115270D01*
X179212449Y-62154624D01*
X179401782Y-62251095D01*
X179603870Y-62316757D01*
X179813754Y-62350000D01*
X180026246Y-62350000D01*
X180236127Y-62316757D01*
X180236130Y-62316757D01*
X180438217Y-62251095D01*
X180627554Y-62154622D01*
X180681716Y-62115270D01*
X180681717Y-62115270D01*
X180049408Y-61482962D01*
X180112993Y-61465925D01*
X180227007Y-61400099D01*
X180320099Y-61307007D01*
X180385925Y-61192993D01*
X180402962Y-61129409D01*
X181035270Y-61761717D01*
X181035270Y-61761716D01*
X181074622Y-61707554D01*
X181079514Y-61697954D01*
X181127488Y-61647157D01*
X181195308Y-61630361D01*
X181261444Y-61652897D01*
X181300486Y-61697954D01*
X181305375Y-61707550D01*
X181344728Y-61761716D01*
X181977037Y-61129408D01*
X181994075Y-61192993D01*
X182059901Y-61307007D01*
X182152993Y-61400099D01*
X182267007Y-61465925D01*
X182330590Y-61482962D01*
X181698282Y-62115269D01*
X181698282Y-62115270D01*
X181752449Y-62154624D01*
X181941782Y-62251095D01*
X182143870Y-62316757D01*
X182353754Y-62350000D01*
X182359979Y-62350000D01*
X182427018Y-62369685D01*
X182472773Y-62422489D01*
X182482717Y-62491647D01*
X182453692Y-62555203D01*
X182447660Y-62561681D01*
X181955887Y-63053454D01*
X181891712Y-63149501D01*
X181891711Y-63149503D01*
X181890988Y-63150585D01*
X181837375Y-63195389D01*
X181801140Y-63204982D01*
X181792516Y-63205908D01*
X181657671Y-63256202D01*
X181657664Y-63256206D01*
X181542455Y-63342452D01*
X181542452Y-63342455D01*
X181456206Y-63457664D01*
X181456202Y-63457671D01*
X181405908Y-63592517D01*
X181399501Y-63652116D01*
X181399501Y-63652123D01*
X181399500Y-63652135D01*
X181399500Y-65347870D01*
X181399501Y-65347876D01*
X181405908Y-65407483D01*
X181456202Y-65542328D01*
X181456206Y-65542335D01*
X181542452Y-65657544D01*
X181542455Y-65657547D01*
X181657664Y-65743793D01*
X181657671Y-65743797D01*
X181792517Y-65794091D01*
X181792516Y-65794091D01*
X181799444Y-65794835D01*
X181852127Y-65800500D01*
X183147872Y-65800499D01*
X183207483Y-65794091D01*
X183342331Y-65743796D01*
X183457546Y-65657546D01*
X183543796Y-65542331D01*
X183594091Y-65407483D01*
X183600500Y-65347873D01*
X183600499Y-63652128D01*
X183594091Y-63592517D01*
X183594091Y-63592516D01*
X183568708Y-63524460D01*
X183563724Y-63454768D01*
X183597207Y-63393448D01*
X184603838Y-62386818D01*
X184665161Y-62353333D01*
X184691519Y-62350499D01*
X185897871Y-62350499D01*
X185897872Y-62350499D01*
X185957483Y-62344091D01*
X186092331Y-62293796D01*
X186207546Y-62207546D01*
X186293796Y-62092331D01*
X186344091Y-61957483D01*
X186350500Y-61897873D01*
X186350499Y-60102128D01*
X186344091Y-60042517D01*
X186339353Y-60029815D01*
X186293797Y-59907671D01*
X186293793Y-59907664D01*
X186207547Y-59792455D01*
X186207544Y-59792452D01*
X186092335Y-59706206D01*
X186092328Y-59706202D01*
X185957482Y-59655908D01*
X185957483Y-59655908D01*
X185897883Y-59649501D01*
X185897881Y-59649500D01*
X185897873Y-59649500D01*
X185897864Y-59649500D01*
X184102129Y-59649500D01*
X184102123Y-59649501D01*
X184042516Y-59655908D01*
X183907671Y-59706202D01*
X183907664Y-59706206D01*
X183792455Y-59792452D01*
X183792452Y-59792455D01*
X183706206Y-59907664D01*
X183706202Y-59907671D01*
X183655908Y-60042517D01*
X183652931Y-60070213D01*
X183649501Y-60102123D01*
X183649500Y-60102135D01*
X183649500Y-60112690D01*
X183629815Y-60179729D01*
X183613181Y-60200371D01*
X182942962Y-60870590D01*
X182925925Y-60807007D01*
X182860099Y-60692993D01*
X182767007Y-60599901D01*
X182652993Y-60534075D01*
X182589409Y-60517037D01*
X183221716Y-59884728D01*
X183167550Y-59845375D01*
X182978217Y-59748904D01*
X182776129Y-59683242D01*
X182566246Y-59650000D01*
X182353754Y-59650000D01*
X182143872Y-59683242D01*
X182143869Y-59683242D01*
X181941782Y-59748904D01*
X181752439Y-59845380D01*
X181698282Y-59884727D01*
X181698282Y-59884728D01*
X182330591Y-60517037D01*
X182267007Y-60534075D01*
X182152993Y-60599901D01*
X182059901Y-60692993D01*
X181994075Y-60807007D01*
X181977037Y-60870591D01*
X181344728Y-60238282D01*
X181344727Y-60238282D01*
X181305380Y-60292440D01*
X181300483Y-60302051D01*
X181252506Y-60352845D01*
X181184684Y-60369638D01*
X181118550Y-60347098D01*
X181079516Y-60302048D01*
X181074626Y-60292452D01*
X181035270Y-60238282D01*
X181035269Y-60238282D01*
X180402962Y-60870590D01*
X180385925Y-60807007D01*
X180320099Y-60692993D01*
X180227007Y-60599901D01*
X180112993Y-60534075D01*
X180049409Y-60517037D01*
X180681716Y-59884728D01*
X180627550Y-59845375D01*
X180438217Y-59748904D01*
X180236129Y-59683242D01*
X180026246Y-59650000D01*
X179813754Y-59650000D01*
X179603872Y-59683242D01*
X179603869Y-59683242D01*
X179401782Y-59748904D01*
X179212439Y-59845380D01*
X179158282Y-59884727D01*
X179158282Y-59884728D01*
X179790591Y-60517037D01*
X179727007Y-60534075D01*
X179612993Y-60599901D01*
X179519901Y-60692993D01*
X179454075Y-60807007D01*
X179437037Y-60870591D01*
X178804728Y-60238282D01*
X178804727Y-60238282D01*
X178765380Y-60292440D01*
X178760483Y-60302051D01*
X178712506Y-60352845D01*
X178644684Y-60369638D01*
X178578550Y-60347098D01*
X178539516Y-60302048D01*
X178534626Y-60292452D01*
X178495270Y-60238282D01*
X178495269Y-60238282D01*
X177862962Y-60870590D01*
X177845925Y-60807007D01*
X177780099Y-60692993D01*
X177687007Y-60599901D01*
X177572993Y-60534075D01*
X177509409Y-60517037D01*
X178141716Y-59884728D01*
X178087550Y-59845375D01*
X177898217Y-59748904D01*
X177696129Y-59683242D01*
X177486246Y-59650000D01*
X177273754Y-59650000D01*
X177063872Y-59683242D01*
X177063869Y-59683242D01*
X176861782Y-59748904D01*
X176672439Y-59845380D01*
X176618282Y-59884727D01*
X176618282Y-59884728D01*
X177250591Y-60517037D01*
X177187007Y-60534075D01*
X177072993Y-60599901D01*
X176979901Y-60692993D01*
X176914075Y-60807007D01*
X176897037Y-60870591D01*
X176264728Y-60238282D01*
X176264727Y-60238282D01*
X176225380Y-60292440D01*
X176220483Y-60302051D01*
X176172506Y-60352845D01*
X176104684Y-60369638D01*
X176038550Y-60347098D01*
X175999516Y-60302048D01*
X175994626Y-60292452D01*
X175955270Y-60238282D01*
X175955269Y-60238282D01*
X175322962Y-60870590D01*
X175305925Y-60807007D01*
X175240099Y-60692993D01*
X175147007Y-60599901D01*
X175032993Y-60534075D01*
X174969409Y-60517037D01*
X175601716Y-59884728D01*
X175547550Y-59845375D01*
X175358217Y-59748904D01*
X175156129Y-59683242D01*
X174946246Y-59650000D01*
X174733754Y-59650000D01*
X174523872Y-59683242D01*
X174523869Y-59683242D01*
X174321782Y-59748904D01*
X174132439Y-59845380D01*
X174078282Y-59884727D01*
X174078282Y-59884728D01*
X174710591Y-60517037D01*
X174647007Y-60534075D01*
X174532993Y-60599901D01*
X174439901Y-60692993D01*
X174374075Y-60807007D01*
X174357037Y-60870591D01*
X173724728Y-60238282D01*
X173724727Y-60238282D01*
X173685380Y-60292440D01*
X173680483Y-60302051D01*
X173632506Y-60352845D01*
X173564684Y-60369638D01*
X173498550Y-60347098D01*
X173459516Y-60302048D01*
X173454626Y-60292452D01*
X173415270Y-60238282D01*
X173415269Y-60238282D01*
X172782962Y-60870590D01*
X172765925Y-60807007D01*
X172700099Y-60692993D01*
X172607007Y-60599901D01*
X172492993Y-60534075D01*
X172429409Y-60517037D01*
X173061716Y-59884728D01*
X173007550Y-59845375D01*
X172818217Y-59748904D01*
X172616129Y-59683242D01*
X172406246Y-59650000D01*
X172193754Y-59650000D01*
X171983872Y-59683242D01*
X171983869Y-59683242D01*
X171781782Y-59748904D01*
X171592439Y-59845380D01*
X171538282Y-59884727D01*
X171538282Y-59884728D01*
X172170591Y-60517037D01*
X172107007Y-60534075D01*
X171992993Y-60599901D01*
X171899901Y-60692993D01*
X171834075Y-60807007D01*
X171817037Y-60870591D01*
X171184728Y-60238282D01*
X171184727Y-60238282D01*
X171145380Y-60292439D01*
X171048904Y-60481782D01*
X170983242Y-60683869D01*
X170983242Y-60683872D01*
X170950000Y-60893753D01*
X168506927Y-60893753D01*
X168518271Y-60706201D01*
X168520076Y-60691340D01*
X168527104Y-60652993D01*
X168571780Y-60409197D01*
X168575364Y-60394663D01*
X168660696Y-60120822D01*
X168665998Y-60106841D01*
X168783731Y-59845249D01*
X168790676Y-59832016D01*
X168939080Y-59586526D01*
X168947567Y-59574230D01*
X169124480Y-59348417D01*
X169134395Y-59337226D01*
X169337226Y-59134395D01*
X169348417Y-59124480D01*
X169574230Y-58947567D01*
X169586526Y-58939080D01*
X169832016Y-58790676D01*
X169845249Y-58783731D01*
X170106841Y-58665998D01*
X170120822Y-58660696D01*
X170394668Y-58575362D01*
X170409197Y-58571780D01*
X170691344Y-58520075D01*
X170706201Y-58518271D01*
X170996264Y-58500726D01*
X171003751Y-58500500D01*
X171065892Y-58500500D01*
X227934108Y-58500500D01*
X227996249Y-58500500D01*
X228003736Y-58500726D01*
G37*
%TD.AperFunction*%
%TD*%
M02*
