%TF.GenerationSoftware,KiCad,Pcbnew,9.0.5*%
%TF.CreationDate,2025-10-11T11:12:23-04:00*%
%TF.ProjectId,agent-main-mk1,6167656e-742d-46d6-9169-6e2d6d6b312e,rev?*%
%TF.SameCoordinates,Original*%
%TF.FileFunction,Copper,L2,Bot*%
%TF.FilePolarity,Positive*%
%FSLAX46Y46*%
G04 Gerber Fmt 4.6, Leading zero omitted, Abs format (unit mm)*
G04 Created by KiCad (PCBNEW 9.0.5) date 2025-10-11 11:12:23*
%MOMM*%
%LPD*%
G01*
G04 APERTURE LIST*
%TA.AperFunction,ComponentPad*%
%ADD10R,1.700000X1.700000*%
%TD*%
%TA.AperFunction,ComponentPad*%
%ADD11C,1.700000*%
%TD*%
G04 APERTURE END LIST*
D10*
%TO.P,J4,1,Pin_1*%
%TO.N,Net-(J4-Pin_1)*%
X217460000Y-71000000D03*
D11*
%TO.P,J4,2,Pin_2*%
%TO.N,GND*%
X220000000Y-71000000D03*
%TO.P,J4,3,Pin_3*%
%TO.N,Pull up*%
X222540000Y-71000000D03*
%TO.P,J4,4,Pin_4*%
%TO.N,GND*%
X225080000Y-71000000D03*
%TO.P,J4,5,Pin_5*%
X227620000Y-71000000D03*
%TO.P,J4,6,Pin_6*%
%TO.N,Pull up*%
X230160000Y-71000000D03*
%TD*%
D10*
%TO.P,J8,1,Pin_1*%
%TO.N,Net-(J8-Pin_1)*%
X217460000Y-61000000D03*
D11*
%TO.P,J8,2,Pin_2*%
%TO.N,GND*%
X220000000Y-61000000D03*
%TO.P,J8,3,Pin_3*%
%TO.N,Pull up*%
X222540000Y-61000000D03*
%TO.P,J8,4,Pin_4*%
X225080000Y-61000000D03*
%TO.P,J8,5,Pin_5*%
%TO.N,GND*%
X227620000Y-61000000D03*
%TO.P,J8,6,Pin_6*%
%TO.N,Pull up*%
X230160000Y-61000000D03*
%TD*%
D10*
%TO.P,J1,1,Pin_1*%
%TO.N,Net-(J1-Pin_1)*%
X181040000Y-66000000D03*
D11*
%TO.P,J1,2,Pin_2*%
%TO.N,GND*%
X178500000Y-66000000D03*
%TO.P,J1,3,Pin_3*%
X175960000Y-66000000D03*
%TO.P,J1,4,Pin_4*%
X173420000Y-66000000D03*
%TO.P,J1,5,Pin_5*%
X170880000Y-66000000D03*
%TO.P,J1,6,Pin_6*%
%TO.N,Pull up*%
X168340000Y-66000000D03*
%TD*%
D10*
%TO.P,J3,1,Pin_1*%
%TO.N,Net-(J3-Pin_1)*%
X181000000Y-61000000D03*
D11*
%TO.P,J3,2,Pin_2*%
%TO.N,GND*%
X178460000Y-61000000D03*
%TO.P,J3,3,Pin_3*%
X175920000Y-61000000D03*
%TO.P,J3,4,Pin_4*%
X173380000Y-61000000D03*
%TO.P,J3,5,Pin_5*%
X170840000Y-61000000D03*
%TO.P,J3,6,Pin_6*%
X168300000Y-61000000D03*
%TD*%
D10*
%TO.P,J5,1,Pin_1*%
%TO.N,Net-(J5-Pin_1)*%
X217420000Y-76000000D03*
D11*
%TO.P,J5,2,Pin_2*%
%TO.N,GND*%
X219960000Y-76000000D03*
%TO.P,J5,3,Pin_3*%
%TO.N,Pull up*%
X222500000Y-76000000D03*
%TO.P,J5,4,Pin_4*%
%TO.N,GND*%
X225040000Y-76000000D03*
%TO.P,J5,5,Pin_5*%
X227580000Y-76000000D03*
%TO.P,J5,6,Pin_6*%
X230120000Y-76000000D03*
%TD*%
D10*
%TO.P,J2,1,Pin_1*%
%TO.N,Net-(J2-Pin_1)*%
X181040000Y-71000000D03*
D11*
%TO.P,J2,2,Pin_2*%
%TO.N,GND*%
X178500000Y-71000000D03*
%TO.P,J2,3,Pin_3*%
X175960000Y-71000000D03*
%TO.P,J2,4,Pin_4*%
%TO.N,Pull up*%
X173420000Y-71000000D03*
%TO.P,J2,5,Pin_5*%
%TO.N,GND*%
X170880000Y-71000000D03*
%TO.P,J2,6,Pin_6*%
X168340000Y-71000000D03*
%TD*%
D10*
%TO.P,J10,1,Pin_1*%
%TO.N,GND*%
X207000000Y-60460000D03*
D11*
%TO.P,J10,2,Pin_2*%
%TO.N,unconnected-(J10-Pin_2-Pad2)*%
X207000000Y-63000000D03*
%TO.P,J10,3,Pin_3*%
%TO.N,unconnected-(J10-Pin_3-Pad3)*%
X207000000Y-65540000D03*
%TO.P,J10,4,Pin_4*%
%TO.N,LED8*%
X207000000Y-68080000D03*
%TO.P,J10,5,Pin_5*%
%TO.N,LED7*%
X207000000Y-70620000D03*
%TO.P,J10,6,Pin_6*%
%TO.N,LED6*%
X207000000Y-73160000D03*
%TO.P,J10,7,Pin_7*%
%TO.N,LED5*%
X207000000Y-75700000D03*
%TD*%
D10*
%TO.P,J9,1,Pin_1*%
%TO.N,LED1*%
X191675000Y-60460000D03*
D11*
%TO.P,J9,2,Pin_2*%
%TO.N,LED2*%
X191675000Y-63000000D03*
%TO.P,J9,3,Pin_3*%
%TO.N,LED3*%
X191675000Y-65540000D03*
%TO.P,J9,4,Pin_4*%
%TO.N,LED4*%
X191675000Y-68080000D03*
%TO.P,J9,5,Pin_5*%
%TO.N,unconnected-(J9-Pin_5-Pad5)*%
X191675000Y-70620000D03*
%TO.P,J9,6,Pin_6*%
%TO.N,unconnected-(J9-Pin_6-Pad6)*%
X191675000Y-73160000D03*
%TO.P,J9,7,Pin_7*%
%TO.N,Pull up*%
X191675000Y-75700000D03*
%TD*%
D10*
%TO.P,J6,1,Pin_1*%
%TO.N,Net-(J6-Pin_1)*%
X181000000Y-76000000D03*
D11*
%TO.P,J6,2,Pin_2*%
%TO.N,GND*%
X178460000Y-76000000D03*
%TO.P,J6,3,Pin_3*%
X175920000Y-76000000D03*
%TO.P,J6,4,Pin_4*%
%TO.N,Pull up*%
X173380000Y-76000000D03*
%TO.P,J6,5,Pin_5*%
%TO.N,GND*%
X170840000Y-76000000D03*
%TO.P,J6,6,Pin_6*%
%TO.N,Pull up*%
X168300000Y-76000000D03*
%TD*%
D10*
%TO.P,J7,1,Pin_1*%
%TO.N,Net-(J7-Pin_1)*%
X217460000Y-66000000D03*
D11*
%TO.P,J7,2,Pin_2*%
%TO.N,GND*%
X220000000Y-66000000D03*
%TO.P,J7,3,Pin_3*%
%TO.N,Pull up*%
X222540000Y-66000000D03*
%TO.P,J7,4,Pin_4*%
X225080000Y-66000000D03*
%TO.P,J7,5,Pin_5*%
%TO.N,GND*%
X227620000Y-66000000D03*
%TO.P,J7,6,Pin_6*%
X230160000Y-66000000D03*
%TD*%
%TA.AperFunction,Conductor*%
%TO.N,GND*%
G36*
X231003736Y-57500726D02*
G01*
X231293796Y-57518271D01*
X231308659Y-57520076D01*
X231590798Y-57571780D01*
X231605335Y-57575363D01*
X231879172Y-57660695D01*
X231893163Y-57666000D01*
X232154743Y-57783727D01*
X232167989Y-57790680D01*
X232413465Y-57939075D01*
X232425776Y-57947573D01*
X232651573Y-58124473D01*
X232662781Y-58134403D01*
X232865596Y-58337218D01*
X232875526Y-58348426D01*
X232995481Y-58501538D01*
X233052422Y-58574217D01*
X233060928Y-58586540D01*
X233209316Y-58832004D01*
X233216275Y-58845263D01*
X233333997Y-59106831D01*
X233339306Y-59120832D01*
X233424635Y-59394663D01*
X233428219Y-59409201D01*
X233479923Y-59691340D01*
X233481728Y-59706205D01*
X233499274Y-59996263D01*
X233499500Y-60003750D01*
X233499500Y-76996249D01*
X233499274Y-77003736D01*
X233481728Y-77293794D01*
X233479923Y-77308659D01*
X233428219Y-77590798D01*
X233424635Y-77605336D01*
X233339306Y-77879167D01*
X233333997Y-77893168D01*
X233216275Y-78154736D01*
X233209316Y-78167995D01*
X233060928Y-78413459D01*
X233052422Y-78425782D01*
X232875526Y-78651573D01*
X232865596Y-78662781D01*
X232662781Y-78865596D01*
X232651573Y-78875526D01*
X232425782Y-79052422D01*
X232413459Y-79060928D01*
X232167995Y-79209316D01*
X232154736Y-79216275D01*
X231893168Y-79333997D01*
X231879167Y-79339306D01*
X231605336Y-79424635D01*
X231590798Y-79428219D01*
X231308659Y-79479923D01*
X231293794Y-79481728D01*
X231003736Y-79499274D01*
X230996249Y-79499500D01*
X167003751Y-79499500D01*
X166996264Y-79499274D01*
X166706205Y-79481728D01*
X166691340Y-79479923D01*
X166409201Y-79428219D01*
X166394663Y-79424635D01*
X166120832Y-79339306D01*
X166106831Y-79333997D01*
X165845263Y-79216275D01*
X165832004Y-79209316D01*
X165586540Y-79060928D01*
X165574217Y-79052422D01*
X165348426Y-78875526D01*
X165337218Y-78865596D01*
X165134403Y-78662781D01*
X165124473Y-78651573D01*
X164947573Y-78425776D01*
X164939075Y-78413465D01*
X164790680Y-78167989D01*
X164783727Y-78154743D01*
X164666000Y-77893163D01*
X164660693Y-77879167D01*
X164575364Y-77605336D01*
X164571780Y-77590798D01*
X164527744Y-77350500D01*
X164520075Y-77308657D01*
X164518271Y-77293794D01*
X164500726Y-77003736D01*
X164500500Y-76996249D01*
X164500500Y-75893713D01*
X166949500Y-75893713D01*
X166949500Y-76106286D01*
X166982735Y-76316127D01*
X166982754Y-76316243D01*
X167012509Y-76407820D01*
X167048444Y-76518414D01*
X167144951Y-76707820D01*
X167269890Y-76879786D01*
X167420213Y-77030109D01*
X167592179Y-77155048D01*
X167592181Y-77155049D01*
X167592184Y-77155051D01*
X167781588Y-77251557D01*
X167983757Y-77317246D01*
X168193713Y-77350500D01*
X168193714Y-77350500D01*
X168406286Y-77350500D01*
X168406287Y-77350500D01*
X168616243Y-77317246D01*
X168818412Y-77251557D01*
X169007816Y-77155051D01*
X169094138Y-77092335D01*
X169179786Y-77030109D01*
X169179788Y-77030106D01*
X169179792Y-77030104D01*
X169330104Y-76879792D01*
X169330106Y-76879788D01*
X169330109Y-76879786D01*
X169415890Y-76761717D01*
X169455051Y-76707816D01*
X169459793Y-76698508D01*
X169507763Y-76647711D01*
X169575583Y-76630911D01*
X169641719Y-76653445D01*
X169680763Y-76698500D01*
X169685373Y-76707547D01*
X169724728Y-76761716D01*
X170357037Y-76129408D01*
X170374075Y-76192993D01*
X170439901Y-76307007D01*
X170532993Y-76400099D01*
X170647007Y-76465925D01*
X170710590Y-76482962D01*
X170078282Y-77115269D01*
X170078282Y-77115270D01*
X170132449Y-77154624D01*
X170321782Y-77251095D01*
X170523870Y-77316757D01*
X170733754Y-77350000D01*
X170946246Y-77350000D01*
X171156127Y-77316757D01*
X171156130Y-77316757D01*
X171358217Y-77251095D01*
X171547554Y-77154622D01*
X171601716Y-77115270D01*
X171601717Y-77115270D01*
X170969408Y-76482962D01*
X171032993Y-76465925D01*
X171147007Y-76400099D01*
X171240099Y-76307007D01*
X171305925Y-76192993D01*
X171322962Y-76129408D01*
X171955270Y-76761717D01*
X171955270Y-76761716D01*
X171994622Y-76707555D01*
X171999232Y-76698507D01*
X172047205Y-76647709D01*
X172115025Y-76630912D01*
X172181161Y-76653447D01*
X172220204Y-76698504D01*
X172224949Y-76707817D01*
X172349890Y-76879786D01*
X172500213Y-77030109D01*
X172672179Y-77155048D01*
X172672181Y-77155049D01*
X172672184Y-77155051D01*
X172861588Y-77251557D01*
X173063757Y-77317246D01*
X173273713Y-77350500D01*
X173273714Y-77350500D01*
X173486286Y-77350500D01*
X173486287Y-77350500D01*
X173696243Y-77317246D01*
X173898412Y-77251557D01*
X174087816Y-77155051D01*
X174174138Y-77092335D01*
X174259786Y-77030109D01*
X174259788Y-77030106D01*
X174259792Y-77030104D01*
X174410104Y-76879792D01*
X174410106Y-76879788D01*
X174410109Y-76879786D01*
X174495890Y-76761717D01*
X174535051Y-76707816D01*
X174539793Y-76698508D01*
X174587763Y-76647711D01*
X174655583Y-76630911D01*
X174721719Y-76653445D01*
X174760763Y-76698500D01*
X174765373Y-76707547D01*
X174804728Y-76761716D01*
X175437037Y-76129408D01*
X175454075Y-76192993D01*
X175519901Y-76307007D01*
X175612993Y-76400099D01*
X175727007Y-76465925D01*
X175790590Y-76482962D01*
X175158282Y-77115269D01*
X175158282Y-77115270D01*
X175212449Y-77154624D01*
X175401782Y-77251095D01*
X175603870Y-77316757D01*
X175813754Y-77350000D01*
X176026246Y-77350000D01*
X176236127Y-77316757D01*
X176236130Y-77316757D01*
X176438217Y-77251095D01*
X176627554Y-77154622D01*
X176681716Y-77115270D01*
X176681717Y-77115270D01*
X176049408Y-76482962D01*
X176112993Y-76465925D01*
X176227007Y-76400099D01*
X176320099Y-76307007D01*
X176385925Y-76192993D01*
X176402962Y-76129408D01*
X177035270Y-76761717D01*
X177035270Y-76761716D01*
X177074622Y-76707554D01*
X177079514Y-76697954D01*
X177127488Y-76647157D01*
X177195308Y-76630361D01*
X177261444Y-76652897D01*
X177300486Y-76697954D01*
X177305375Y-76707550D01*
X177344728Y-76761716D01*
X177977037Y-76129408D01*
X177994075Y-76192993D01*
X178059901Y-76307007D01*
X178152993Y-76400099D01*
X178267007Y-76465925D01*
X178330590Y-76482962D01*
X177698282Y-77115269D01*
X177698282Y-77115270D01*
X177752449Y-77154624D01*
X177941782Y-77251095D01*
X178143870Y-77316757D01*
X178353754Y-77350000D01*
X178566246Y-77350000D01*
X178776127Y-77316757D01*
X178776130Y-77316757D01*
X178978217Y-77251095D01*
X179167554Y-77154622D01*
X179221716Y-77115270D01*
X179221717Y-77115270D01*
X178589408Y-76482962D01*
X178652993Y-76465925D01*
X178767007Y-76400099D01*
X178860099Y-76307007D01*
X178925925Y-76192993D01*
X178942962Y-76129409D01*
X179613181Y-76799628D01*
X179646666Y-76860951D01*
X179649500Y-76887300D01*
X179649500Y-76897865D01*
X179649501Y-76897876D01*
X179655908Y-76957483D01*
X179706202Y-77092328D01*
X179706206Y-77092335D01*
X179792452Y-77207544D01*
X179792455Y-77207547D01*
X179907664Y-77293793D01*
X179907671Y-77293797D01*
X180042517Y-77344091D01*
X180042516Y-77344091D01*
X180049444Y-77344835D01*
X180102127Y-77350500D01*
X181897872Y-77350499D01*
X181957483Y-77344091D01*
X182092331Y-77293796D01*
X182207546Y-77207546D01*
X182293796Y-77092331D01*
X182344091Y-76957483D01*
X182350500Y-76897873D01*
X182350499Y-75102128D01*
X182344091Y-75042517D01*
X182293797Y-74907673D01*
X182293797Y-74907671D01*
X182293793Y-74907664D01*
X182207547Y-74792455D01*
X182207544Y-74792452D01*
X182092335Y-74706206D01*
X182092328Y-74706202D01*
X181957482Y-74655908D01*
X181957483Y-74655908D01*
X181897883Y-74649501D01*
X181897881Y-74649500D01*
X181897873Y-74649500D01*
X181897864Y-74649500D01*
X180102129Y-74649500D01*
X180102123Y-74649501D01*
X180042516Y-74655908D01*
X179907671Y-74706202D01*
X179907664Y-74706206D01*
X179792455Y-74792452D01*
X179792452Y-74792455D01*
X179706206Y-74907664D01*
X179706202Y-74907671D01*
X179655908Y-75042517D01*
X179649501Y-75102116D01*
X179649501Y-75102123D01*
X179649500Y-75102135D01*
X179649500Y-75112690D01*
X179629815Y-75179729D01*
X179613181Y-75200371D01*
X178942962Y-75870590D01*
X178925925Y-75807007D01*
X178860099Y-75692993D01*
X178767007Y-75599901D01*
X178652993Y-75534075D01*
X178589409Y-75517037D01*
X179221716Y-74884728D01*
X179167550Y-74845375D01*
X178978217Y-74748904D01*
X178776129Y-74683242D01*
X178566246Y-74650000D01*
X178353754Y-74650000D01*
X178143872Y-74683242D01*
X178143869Y-74683242D01*
X177941782Y-74748904D01*
X177752439Y-74845380D01*
X177698282Y-74884727D01*
X177698282Y-74884728D01*
X178330591Y-75517037D01*
X178267007Y-75534075D01*
X178152993Y-75599901D01*
X178059901Y-75692993D01*
X177994075Y-75807007D01*
X177977037Y-75870591D01*
X177344728Y-75238282D01*
X177344727Y-75238282D01*
X177305380Y-75292440D01*
X177300483Y-75302051D01*
X177252506Y-75352845D01*
X177184684Y-75369638D01*
X177118550Y-75347098D01*
X177079516Y-75302048D01*
X177074626Y-75292452D01*
X177035270Y-75238282D01*
X176402962Y-75870590D01*
X176385925Y-75807007D01*
X176320099Y-75692993D01*
X176227007Y-75599901D01*
X176112993Y-75534075D01*
X176049409Y-75517037D01*
X176681716Y-74884728D01*
X176627550Y-74845375D01*
X176438217Y-74748904D01*
X176236129Y-74683242D01*
X176026246Y-74650000D01*
X175813754Y-74650000D01*
X175603872Y-74683242D01*
X175603869Y-74683242D01*
X175401782Y-74748904D01*
X175212439Y-74845380D01*
X175158282Y-74884727D01*
X175158282Y-74884728D01*
X175790591Y-75517037D01*
X175727007Y-75534075D01*
X175612993Y-75599901D01*
X175519901Y-75692993D01*
X175454075Y-75807007D01*
X175437037Y-75870591D01*
X174804728Y-75238282D01*
X174804727Y-75238282D01*
X174765380Y-75292440D01*
X174765376Y-75292446D01*
X174760760Y-75301505D01*
X174712781Y-75352297D01*
X174644959Y-75369087D01*
X174578826Y-75346543D01*
X174539794Y-75301493D01*
X174535051Y-75292184D01*
X174535049Y-75292181D01*
X174535048Y-75292179D01*
X174410109Y-75120213D01*
X174259786Y-74969890D01*
X174087820Y-74844951D01*
X173898414Y-74748444D01*
X173898413Y-74748443D01*
X173898412Y-74748443D01*
X173696243Y-74682754D01*
X173696241Y-74682753D01*
X173696240Y-74682753D01*
X173534957Y-74657208D01*
X173486287Y-74649500D01*
X173273713Y-74649500D01*
X173225042Y-74657208D01*
X173063760Y-74682753D01*
X172861585Y-74748444D01*
X172672179Y-74844951D01*
X172500213Y-74969890D01*
X172349890Y-75120213D01*
X172224949Y-75292182D01*
X172220202Y-75301499D01*
X172172227Y-75352293D01*
X172104405Y-75369087D01*
X172038271Y-75346548D01*
X171999234Y-75301495D01*
X171994626Y-75292452D01*
X171955270Y-75238282D01*
X171955269Y-75238282D01*
X171322962Y-75870590D01*
X171305925Y-75807007D01*
X171240099Y-75692993D01*
X171147007Y-75599901D01*
X171032993Y-75534075D01*
X170969409Y-75517037D01*
X171601716Y-74884728D01*
X171547550Y-74845375D01*
X171358217Y-74748904D01*
X171156129Y-74683242D01*
X170946246Y-74650000D01*
X170733754Y-74650000D01*
X170523872Y-74683242D01*
X170523869Y-74683242D01*
X170321782Y-74748904D01*
X170132439Y-74845380D01*
X170078282Y-74884727D01*
X170078282Y-74884728D01*
X170710591Y-75517037D01*
X170647007Y-75534075D01*
X170532993Y-75599901D01*
X170439901Y-75692993D01*
X170374075Y-75807007D01*
X170357037Y-75870591D01*
X169724728Y-75238282D01*
X169724727Y-75238282D01*
X169685380Y-75292440D01*
X169685376Y-75292446D01*
X169680760Y-75301505D01*
X169632781Y-75352297D01*
X169564959Y-75369087D01*
X169498826Y-75346543D01*
X169459794Y-75301493D01*
X169455051Y-75292184D01*
X169455049Y-75292181D01*
X169455048Y-75292179D01*
X169330109Y-75120213D01*
X169179786Y-74969890D01*
X169007820Y-74844951D01*
X168818414Y-74748444D01*
X168818413Y-74748443D01*
X168818412Y-74748443D01*
X168616243Y-74682754D01*
X168616241Y-74682753D01*
X168616240Y-74682753D01*
X168454957Y-74657208D01*
X168406287Y-74649500D01*
X168193713Y-74649500D01*
X168145042Y-74657208D01*
X167983760Y-74682753D01*
X167781585Y-74748444D01*
X167592179Y-74844951D01*
X167420213Y-74969890D01*
X167269890Y-75120213D01*
X167144951Y-75292179D01*
X167048444Y-75481585D01*
X166982753Y-75683760D01*
X166949500Y-75893713D01*
X164500500Y-75893713D01*
X164500500Y-70893753D01*
X166990000Y-70893753D01*
X166990000Y-71106246D01*
X167023242Y-71316127D01*
X167023242Y-71316130D01*
X167088904Y-71518217D01*
X167185375Y-71707550D01*
X167224728Y-71761716D01*
X167857037Y-71129408D01*
X167874075Y-71192993D01*
X167939901Y-71307007D01*
X168032993Y-71400099D01*
X168147007Y-71465925D01*
X168210590Y-71482962D01*
X167578282Y-72115269D01*
X167578282Y-72115270D01*
X167632449Y-72154624D01*
X167821782Y-72251095D01*
X168023870Y-72316757D01*
X168233754Y-72350000D01*
X168446246Y-72350000D01*
X168656127Y-72316757D01*
X168656130Y-72316757D01*
X168858217Y-72251095D01*
X169047554Y-72154622D01*
X169101716Y-72115270D01*
X169101717Y-72115270D01*
X168469408Y-71482962D01*
X168532993Y-71465925D01*
X168647007Y-71400099D01*
X168740099Y-71307007D01*
X168805925Y-71192993D01*
X168822962Y-71129409D01*
X169455270Y-71761717D01*
X169455270Y-71761716D01*
X169494622Y-71707554D01*
X169499514Y-71697954D01*
X169547488Y-71647157D01*
X169615308Y-71630361D01*
X169681444Y-71652897D01*
X169720486Y-71697954D01*
X169725375Y-71707550D01*
X169764728Y-71761716D01*
X170397037Y-71129408D01*
X170414075Y-71192993D01*
X170479901Y-71307007D01*
X170572993Y-71400099D01*
X170687007Y-71465925D01*
X170750590Y-71482962D01*
X170118282Y-72115269D01*
X170118282Y-72115270D01*
X170172449Y-72154624D01*
X170361782Y-72251095D01*
X170563870Y-72316757D01*
X170773754Y-72350000D01*
X170986246Y-72350000D01*
X171196127Y-72316757D01*
X171196130Y-72316757D01*
X171398217Y-72251095D01*
X171587554Y-72154622D01*
X171641716Y-72115270D01*
X171641717Y-72115270D01*
X171009408Y-71482962D01*
X171072993Y-71465925D01*
X171187007Y-71400099D01*
X171280099Y-71307007D01*
X171345925Y-71192993D01*
X171362962Y-71129408D01*
X171995270Y-71761717D01*
X171995270Y-71761716D01*
X172034622Y-71707555D01*
X172039232Y-71698507D01*
X172087205Y-71647709D01*
X172155025Y-71630912D01*
X172221161Y-71653447D01*
X172260204Y-71698504D01*
X172264949Y-71707817D01*
X172389890Y-71879786D01*
X172540213Y-72030109D01*
X172712179Y-72155048D01*
X172712181Y-72155049D01*
X172712184Y-72155051D01*
X172901588Y-72251557D01*
X173103757Y-72317246D01*
X173313713Y-72350500D01*
X173313714Y-72350500D01*
X173526286Y-72350500D01*
X173526287Y-72350500D01*
X173736243Y-72317246D01*
X173938412Y-72251557D01*
X174127816Y-72155051D01*
X174214138Y-72092335D01*
X174299786Y-72030109D01*
X174299788Y-72030106D01*
X174299792Y-72030104D01*
X174450104Y-71879792D01*
X174450106Y-71879788D01*
X174450109Y-71879786D01*
X174535890Y-71761717D01*
X174575051Y-71707816D01*
X174579793Y-71698508D01*
X174627763Y-71647711D01*
X174695583Y-71630911D01*
X174761719Y-71653445D01*
X174800763Y-71698500D01*
X174805373Y-71707547D01*
X174844728Y-71761716D01*
X175477037Y-71129408D01*
X175494075Y-71192993D01*
X175559901Y-71307007D01*
X175652993Y-71400099D01*
X175767007Y-71465925D01*
X175830590Y-71482962D01*
X175198282Y-72115269D01*
X175198282Y-72115270D01*
X175252449Y-72154624D01*
X175441782Y-72251095D01*
X175643870Y-72316757D01*
X175853754Y-72350000D01*
X176066246Y-72350000D01*
X176276127Y-72316757D01*
X176276130Y-72316757D01*
X176478217Y-72251095D01*
X176667554Y-72154622D01*
X176721716Y-72115270D01*
X176721717Y-72115270D01*
X176089408Y-71482962D01*
X176152993Y-71465925D01*
X176267007Y-71400099D01*
X176360099Y-71307007D01*
X176425925Y-71192993D01*
X176442962Y-71129408D01*
X177075270Y-71761717D01*
X177075270Y-71761716D01*
X177114622Y-71707554D01*
X177119514Y-71697954D01*
X177167488Y-71647157D01*
X177235308Y-71630361D01*
X177301444Y-71652897D01*
X177340486Y-71697954D01*
X177345375Y-71707550D01*
X177384728Y-71761716D01*
X178017037Y-71129408D01*
X178034075Y-71192993D01*
X178099901Y-71307007D01*
X178192993Y-71400099D01*
X178307007Y-71465925D01*
X178370590Y-71482962D01*
X177738282Y-72115269D01*
X177738282Y-72115270D01*
X177792449Y-72154624D01*
X177981782Y-72251095D01*
X178183870Y-72316757D01*
X178393754Y-72350000D01*
X178606246Y-72350000D01*
X178816127Y-72316757D01*
X178816130Y-72316757D01*
X179018217Y-72251095D01*
X179207554Y-72154622D01*
X179261716Y-72115270D01*
X179261717Y-72115270D01*
X178629408Y-71482962D01*
X178692993Y-71465925D01*
X178807007Y-71400099D01*
X178900099Y-71307007D01*
X178965925Y-71192993D01*
X178982962Y-71129409D01*
X179653181Y-71799628D01*
X179686666Y-71860951D01*
X179689500Y-71887300D01*
X179689500Y-71897865D01*
X179689501Y-71897876D01*
X179695908Y-71957483D01*
X179746202Y-72092328D01*
X179746206Y-72092335D01*
X179832452Y-72207544D01*
X179832455Y-72207547D01*
X179947664Y-72293793D01*
X179947671Y-72293797D01*
X180082517Y-72344091D01*
X180082516Y-72344091D01*
X180089444Y-72344835D01*
X180142127Y-72350500D01*
X181937872Y-72350499D01*
X181997483Y-72344091D01*
X182132331Y-72293796D01*
X182247546Y-72207546D01*
X182333796Y-72092331D01*
X182384091Y-71957483D01*
X182390500Y-71897873D01*
X182390499Y-70102128D01*
X182384091Y-70042517D01*
X182333797Y-69907673D01*
X182333797Y-69907671D01*
X182333793Y-69907664D01*
X182247547Y-69792455D01*
X182247544Y-69792452D01*
X182132335Y-69706206D01*
X182132328Y-69706202D01*
X181997482Y-69655908D01*
X181997483Y-69655908D01*
X181937883Y-69649501D01*
X181937881Y-69649500D01*
X181937873Y-69649500D01*
X181937864Y-69649500D01*
X180142129Y-69649500D01*
X180142123Y-69649501D01*
X180082516Y-69655908D01*
X179947671Y-69706202D01*
X179947664Y-69706206D01*
X179832455Y-69792452D01*
X179832452Y-69792455D01*
X179746206Y-69907664D01*
X179746202Y-69907671D01*
X179695908Y-70042517D01*
X179689558Y-70101585D01*
X179689501Y-70102123D01*
X179689500Y-70102135D01*
X179689500Y-70112690D01*
X179669815Y-70179729D01*
X179653181Y-70200371D01*
X178982962Y-70870590D01*
X178965925Y-70807007D01*
X178900099Y-70692993D01*
X178807007Y-70599901D01*
X178692993Y-70534075D01*
X178629409Y-70517037D01*
X179261716Y-69884728D01*
X179207550Y-69845375D01*
X179018217Y-69748904D01*
X178816129Y-69683242D01*
X178606246Y-69650000D01*
X178393754Y-69650000D01*
X178183872Y-69683242D01*
X178183869Y-69683242D01*
X177981782Y-69748904D01*
X177792439Y-69845380D01*
X177738282Y-69884727D01*
X177738282Y-69884728D01*
X178370591Y-70517037D01*
X178307007Y-70534075D01*
X178192993Y-70599901D01*
X178099901Y-70692993D01*
X178034075Y-70807007D01*
X178017037Y-70870591D01*
X177384728Y-70238282D01*
X177384727Y-70238282D01*
X177345380Y-70292440D01*
X177340483Y-70302051D01*
X177292506Y-70352845D01*
X177224684Y-70369638D01*
X177158550Y-70347098D01*
X177119516Y-70302048D01*
X177114626Y-70292452D01*
X177075270Y-70238282D01*
X176442962Y-70870590D01*
X176425925Y-70807007D01*
X176360099Y-70692993D01*
X176267007Y-70599901D01*
X176152993Y-70534075D01*
X176089409Y-70517037D01*
X176721716Y-69884728D01*
X176667550Y-69845375D01*
X176478217Y-69748904D01*
X176276129Y-69683242D01*
X176066246Y-69650000D01*
X175853754Y-69650000D01*
X175643872Y-69683242D01*
X175643869Y-69683242D01*
X175441782Y-69748904D01*
X175252439Y-69845380D01*
X175198282Y-69884727D01*
X175198282Y-69884728D01*
X175830591Y-70517037D01*
X175767007Y-70534075D01*
X175652993Y-70599901D01*
X175559901Y-70692993D01*
X175494075Y-70807007D01*
X175477037Y-70870591D01*
X174844728Y-70238282D01*
X174844727Y-70238282D01*
X174805380Y-70292440D01*
X174805376Y-70292446D01*
X174800760Y-70301505D01*
X174752781Y-70352297D01*
X174684959Y-70369087D01*
X174618826Y-70346543D01*
X174579794Y-70301493D01*
X174575051Y-70292184D01*
X174575049Y-70292181D01*
X174575048Y-70292179D01*
X174450109Y-70120213D01*
X174299786Y-69969890D01*
X174127820Y-69844951D01*
X173938414Y-69748444D01*
X173938413Y-69748443D01*
X173938412Y-69748443D01*
X173736243Y-69682754D01*
X173736241Y-69682753D01*
X173736240Y-69682753D01*
X173574957Y-69657208D01*
X173526287Y-69649500D01*
X173313713Y-69649500D01*
X173265042Y-69657208D01*
X173103760Y-69682753D01*
X172901585Y-69748444D01*
X172712179Y-69844951D01*
X172540213Y-69969890D01*
X172389890Y-70120213D01*
X172264949Y-70292182D01*
X172260202Y-70301499D01*
X172212227Y-70352293D01*
X172144405Y-70369087D01*
X172078271Y-70346548D01*
X172039234Y-70301495D01*
X172034626Y-70292452D01*
X171995270Y-70238282D01*
X171995269Y-70238282D01*
X171362962Y-70870590D01*
X171345925Y-70807007D01*
X171280099Y-70692993D01*
X171187007Y-70599901D01*
X171072993Y-70534075D01*
X171009409Y-70517037D01*
X171641716Y-69884728D01*
X171587550Y-69845375D01*
X171398217Y-69748904D01*
X171196129Y-69683242D01*
X170986246Y-69650000D01*
X170773754Y-69650000D01*
X170563872Y-69683242D01*
X170563869Y-69683242D01*
X170361782Y-69748904D01*
X170172439Y-69845380D01*
X170118282Y-69884727D01*
X170118282Y-69884728D01*
X170750591Y-70517037D01*
X170687007Y-70534075D01*
X170572993Y-70599901D01*
X170479901Y-70692993D01*
X170414075Y-70807007D01*
X170397037Y-70870591D01*
X169764728Y-70238282D01*
X169764727Y-70238282D01*
X169725380Y-70292440D01*
X169720483Y-70302051D01*
X169672506Y-70352845D01*
X169604684Y-70369638D01*
X169538550Y-70347098D01*
X169499516Y-70302048D01*
X169494626Y-70292452D01*
X169455270Y-70238282D01*
X169455269Y-70238282D01*
X168822962Y-70870590D01*
X168805925Y-70807007D01*
X168740099Y-70692993D01*
X168647007Y-70599901D01*
X168532993Y-70534075D01*
X168469409Y-70517037D01*
X169101716Y-69884728D01*
X169047550Y-69845375D01*
X168858217Y-69748904D01*
X168656129Y-69683242D01*
X168446246Y-69650000D01*
X168233754Y-69650000D01*
X168023872Y-69683242D01*
X168023869Y-69683242D01*
X167821782Y-69748904D01*
X167632439Y-69845380D01*
X167578282Y-69884727D01*
X167578282Y-69884728D01*
X168210591Y-70517037D01*
X168147007Y-70534075D01*
X168032993Y-70599901D01*
X167939901Y-70692993D01*
X167874075Y-70807007D01*
X167857037Y-70870591D01*
X167224728Y-70238282D01*
X167224727Y-70238282D01*
X167185380Y-70292439D01*
X167088904Y-70481782D01*
X167023242Y-70683869D01*
X167023242Y-70683872D01*
X166990000Y-70893753D01*
X164500500Y-70893753D01*
X164500500Y-65893713D01*
X166989500Y-65893713D01*
X166989500Y-66106286D01*
X167022735Y-66316127D01*
X167022754Y-66316243D01*
X167056399Y-66419792D01*
X167088444Y-66518414D01*
X167184951Y-66707820D01*
X167309890Y-66879786D01*
X167460213Y-67030109D01*
X167632179Y-67155048D01*
X167632181Y-67155049D01*
X167632184Y-67155051D01*
X167821588Y-67251557D01*
X168023757Y-67317246D01*
X168233713Y-67350500D01*
X168233714Y-67350500D01*
X168446286Y-67350500D01*
X168446287Y-67350500D01*
X168656243Y-67317246D01*
X168858412Y-67251557D01*
X169047816Y-67155051D01*
X169134138Y-67092335D01*
X169219786Y-67030109D01*
X169219788Y-67030106D01*
X169219792Y-67030104D01*
X169370104Y-66879792D01*
X169370106Y-66879788D01*
X169370109Y-66879786D01*
X169455890Y-66761717D01*
X169495051Y-66707816D01*
X169499793Y-66698508D01*
X169547763Y-66647711D01*
X169615583Y-66630911D01*
X169681719Y-66653445D01*
X169720763Y-66698500D01*
X169725373Y-66707547D01*
X169764728Y-66761716D01*
X170397037Y-66129408D01*
X170414075Y-66192993D01*
X170479901Y-66307007D01*
X170572993Y-66400099D01*
X170687007Y-66465925D01*
X170750590Y-66482962D01*
X170118282Y-67115269D01*
X170118282Y-67115270D01*
X170172449Y-67154624D01*
X170361782Y-67251095D01*
X170563870Y-67316757D01*
X170773754Y-67350000D01*
X170986246Y-67350000D01*
X171196127Y-67316757D01*
X171196130Y-67316757D01*
X171398217Y-67251095D01*
X171587554Y-67154622D01*
X171641716Y-67115270D01*
X171641717Y-67115270D01*
X171009408Y-66482962D01*
X171072993Y-66465925D01*
X171187007Y-66400099D01*
X171280099Y-66307007D01*
X171345925Y-66192993D01*
X171362962Y-66129408D01*
X171995270Y-66761717D01*
X171995270Y-66761716D01*
X172034622Y-66707554D01*
X172039514Y-66697954D01*
X172087488Y-66647157D01*
X172155308Y-66630361D01*
X172221444Y-66652897D01*
X172260486Y-66697954D01*
X172265375Y-66707550D01*
X172304728Y-66761716D01*
X172937037Y-66129408D01*
X172954075Y-66192993D01*
X173019901Y-66307007D01*
X173112993Y-66400099D01*
X173227007Y-66465925D01*
X173290590Y-66482962D01*
X172658282Y-67115269D01*
X172658282Y-67115270D01*
X172712449Y-67154624D01*
X172901782Y-67251095D01*
X173103870Y-67316757D01*
X173313754Y-67350000D01*
X173526246Y-67350000D01*
X173736127Y-67316757D01*
X173736130Y-67316757D01*
X173938217Y-67251095D01*
X174127554Y-67154622D01*
X174181716Y-67115270D01*
X174181717Y-67115270D01*
X173549408Y-66482962D01*
X173612993Y-66465925D01*
X173727007Y-66400099D01*
X173820099Y-66307007D01*
X173885925Y-66192993D01*
X173902962Y-66129408D01*
X174535270Y-66761717D01*
X174535270Y-66761716D01*
X174574622Y-66707554D01*
X174579514Y-66697954D01*
X174627488Y-66647157D01*
X174695308Y-66630361D01*
X174761444Y-66652897D01*
X174800486Y-66697954D01*
X174805375Y-66707550D01*
X174844728Y-66761716D01*
X175477037Y-66129408D01*
X175494075Y-66192993D01*
X175559901Y-66307007D01*
X175652993Y-66400099D01*
X175767007Y-66465925D01*
X175830590Y-66482962D01*
X175198282Y-67115269D01*
X175198282Y-67115270D01*
X175252449Y-67154624D01*
X175441782Y-67251095D01*
X175643870Y-67316757D01*
X175853754Y-67350000D01*
X176066246Y-67350000D01*
X176276127Y-67316757D01*
X176276130Y-67316757D01*
X176478217Y-67251095D01*
X176667554Y-67154622D01*
X176721716Y-67115270D01*
X176721717Y-67115270D01*
X176089408Y-66482962D01*
X176152993Y-66465925D01*
X176267007Y-66400099D01*
X176360099Y-66307007D01*
X176425925Y-66192993D01*
X176442962Y-66129408D01*
X177075270Y-66761717D01*
X177075270Y-66761716D01*
X177114622Y-66707554D01*
X177119514Y-66697954D01*
X177167488Y-66647157D01*
X177235308Y-66630361D01*
X177301444Y-66652897D01*
X177340486Y-66697954D01*
X177345375Y-66707550D01*
X177384728Y-66761716D01*
X178017037Y-66129408D01*
X178034075Y-66192993D01*
X178099901Y-66307007D01*
X178192993Y-66400099D01*
X178307007Y-66465925D01*
X178370590Y-66482962D01*
X177738282Y-67115269D01*
X177738282Y-67115270D01*
X177792449Y-67154624D01*
X177981782Y-67251095D01*
X178183870Y-67316757D01*
X178393754Y-67350000D01*
X178606246Y-67350000D01*
X178816127Y-67316757D01*
X178816130Y-67316757D01*
X179018217Y-67251095D01*
X179207554Y-67154622D01*
X179261716Y-67115270D01*
X179261717Y-67115270D01*
X178629408Y-66482962D01*
X178692993Y-66465925D01*
X178807007Y-66400099D01*
X178900099Y-66307007D01*
X178965925Y-66192993D01*
X178982962Y-66129408D01*
X179653181Y-66799628D01*
X179686666Y-66860951D01*
X179689500Y-66887300D01*
X179689500Y-66897865D01*
X179689501Y-66897876D01*
X179695908Y-66957483D01*
X179746202Y-67092328D01*
X179746206Y-67092335D01*
X179832452Y-67207544D01*
X179832455Y-67207547D01*
X179947664Y-67293793D01*
X179947671Y-67293797D01*
X180082517Y-67344091D01*
X180082516Y-67344091D01*
X180089444Y-67344835D01*
X180142127Y-67350500D01*
X181937872Y-67350499D01*
X181997483Y-67344091D01*
X182132331Y-67293796D01*
X182247546Y-67207546D01*
X182333796Y-67092331D01*
X182384091Y-66957483D01*
X182390500Y-66897873D01*
X182390499Y-65102128D01*
X182384091Y-65042517D01*
X182333797Y-64907673D01*
X182333797Y-64907671D01*
X182333793Y-64907664D01*
X182247547Y-64792455D01*
X182247544Y-64792452D01*
X182132335Y-64706206D01*
X182132328Y-64706202D01*
X181997482Y-64655908D01*
X181997483Y-64655908D01*
X181937883Y-64649501D01*
X181937881Y-64649500D01*
X181937873Y-64649500D01*
X181937864Y-64649500D01*
X180142129Y-64649500D01*
X180142123Y-64649501D01*
X180082516Y-64655908D01*
X179947671Y-64706202D01*
X179947664Y-64706206D01*
X179832455Y-64792452D01*
X179832452Y-64792455D01*
X179746206Y-64907664D01*
X179746202Y-64907671D01*
X179695908Y-65042517D01*
X179689501Y-65102116D01*
X179689501Y-65102123D01*
X179689500Y-65102135D01*
X179689500Y-65112690D01*
X179669815Y-65179729D01*
X179653181Y-65200371D01*
X178982962Y-65870590D01*
X178965925Y-65807007D01*
X178900099Y-65692993D01*
X178807007Y-65599901D01*
X178692993Y-65534075D01*
X178629409Y-65517037D01*
X179261716Y-64884728D01*
X179207550Y-64845375D01*
X179018217Y-64748904D01*
X178816129Y-64683242D01*
X178606246Y-64650000D01*
X178393754Y-64650000D01*
X178183872Y-64683242D01*
X178183869Y-64683242D01*
X177981782Y-64748904D01*
X177792439Y-64845380D01*
X177738282Y-64884727D01*
X177738282Y-64884728D01*
X178370591Y-65517037D01*
X178307007Y-65534075D01*
X178192993Y-65599901D01*
X178099901Y-65692993D01*
X178034075Y-65807007D01*
X178017037Y-65870591D01*
X177384728Y-65238282D01*
X177384727Y-65238282D01*
X177345380Y-65292440D01*
X177340483Y-65302051D01*
X177292506Y-65352845D01*
X177224684Y-65369638D01*
X177158550Y-65347098D01*
X177119516Y-65302048D01*
X177114626Y-65292452D01*
X177075270Y-65238282D01*
X176442962Y-65870590D01*
X176425925Y-65807007D01*
X176360099Y-65692993D01*
X176267007Y-65599901D01*
X176152993Y-65534075D01*
X176089409Y-65517037D01*
X176721716Y-64884728D01*
X176667550Y-64845375D01*
X176478217Y-64748904D01*
X176276129Y-64683242D01*
X176066246Y-64650000D01*
X175853754Y-64650000D01*
X175643872Y-64683242D01*
X175643869Y-64683242D01*
X175441782Y-64748904D01*
X175252439Y-64845380D01*
X175198282Y-64884727D01*
X175198282Y-64884728D01*
X175830591Y-65517037D01*
X175767007Y-65534075D01*
X175652993Y-65599901D01*
X175559901Y-65692993D01*
X175494075Y-65807007D01*
X175477037Y-65870591D01*
X174844728Y-65238282D01*
X174844727Y-65238282D01*
X174805380Y-65292440D01*
X174800483Y-65302051D01*
X174752506Y-65352845D01*
X174684684Y-65369638D01*
X174618550Y-65347098D01*
X174579516Y-65302048D01*
X174574626Y-65292452D01*
X174535270Y-65238282D01*
X174535269Y-65238282D01*
X173902962Y-65870590D01*
X173885925Y-65807007D01*
X173820099Y-65692993D01*
X173727007Y-65599901D01*
X173612993Y-65534075D01*
X173549409Y-65517037D01*
X174181716Y-64884728D01*
X174127550Y-64845375D01*
X173938217Y-64748904D01*
X173736129Y-64683242D01*
X173526246Y-64650000D01*
X173313754Y-64650000D01*
X173103872Y-64683242D01*
X173103869Y-64683242D01*
X172901782Y-64748904D01*
X172712439Y-64845380D01*
X172658282Y-64884727D01*
X172658282Y-64884728D01*
X173290591Y-65517037D01*
X173227007Y-65534075D01*
X173112993Y-65599901D01*
X173019901Y-65692993D01*
X172954075Y-65807007D01*
X172937037Y-65870591D01*
X172304728Y-65238282D01*
X172304727Y-65238282D01*
X172265380Y-65292440D01*
X172260483Y-65302051D01*
X172212506Y-65352845D01*
X172144684Y-65369638D01*
X172078550Y-65347098D01*
X172039516Y-65302048D01*
X172034626Y-65292452D01*
X171995270Y-65238282D01*
X171995269Y-65238282D01*
X171362962Y-65870590D01*
X171345925Y-65807007D01*
X171280099Y-65692993D01*
X171187007Y-65599901D01*
X171072993Y-65534075D01*
X171009409Y-65517037D01*
X171641716Y-64884728D01*
X171587550Y-64845375D01*
X171398217Y-64748904D01*
X171196129Y-64683242D01*
X170986246Y-64650000D01*
X170773754Y-64650000D01*
X170563872Y-64683242D01*
X170563869Y-64683242D01*
X170361782Y-64748904D01*
X170172439Y-64845380D01*
X170118282Y-64884727D01*
X170118282Y-64884728D01*
X170750591Y-65517037D01*
X170687007Y-65534075D01*
X170572993Y-65599901D01*
X170479901Y-65692993D01*
X170414075Y-65807007D01*
X170397037Y-65870591D01*
X169764728Y-65238282D01*
X169764727Y-65238282D01*
X169725380Y-65292440D01*
X169725376Y-65292446D01*
X169720760Y-65301505D01*
X169672781Y-65352297D01*
X169604959Y-65369087D01*
X169538826Y-65346543D01*
X169499794Y-65301493D01*
X169495051Y-65292184D01*
X169495049Y-65292181D01*
X169495048Y-65292179D01*
X169370109Y-65120213D01*
X169219786Y-64969890D01*
X169047820Y-64844951D01*
X168858414Y-64748444D01*
X168858413Y-64748443D01*
X168858412Y-64748443D01*
X168656243Y-64682754D01*
X168656241Y-64682753D01*
X168656240Y-64682753D01*
X168494957Y-64657208D01*
X168446287Y-64649500D01*
X168233713Y-64649500D01*
X168185042Y-64657208D01*
X168023760Y-64682753D01*
X167821585Y-64748444D01*
X167632179Y-64844951D01*
X167460213Y-64969890D01*
X167309890Y-65120213D01*
X167184951Y-65292179D01*
X167088444Y-65481585D01*
X167022753Y-65683760D01*
X166989500Y-65893713D01*
X164500500Y-65893713D01*
X164500500Y-60893753D01*
X166950000Y-60893753D01*
X166950000Y-61106246D01*
X166983242Y-61316127D01*
X166983242Y-61316130D01*
X167048904Y-61518217D01*
X167145375Y-61707550D01*
X167184728Y-61761716D01*
X167817037Y-61129408D01*
X167834075Y-61192993D01*
X167899901Y-61307007D01*
X167992993Y-61400099D01*
X168107007Y-61465925D01*
X168170590Y-61482962D01*
X167538282Y-62115269D01*
X167538282Y-62115270D01*
X167592449Y-62154624D01*
X167781782Y-62251095D01*
X167983870Y-62316757D01*
X168193754Y-62350000D01*
X168406246Y-62350000D01*
X168616127Y-62316757D01*
X168616130Y-62316757D01*
X168818217Y-62251095D01*
X169007554Y-62154622D01*
X169061716Y-62115270D01*
X169061717Y-62115270D01*
X168429408Y-61482962D01*
X168492993Y-61465925D01*
X168607007Y-61400099D01*
X168700099Y-61307007D01*
X168765925Y-61192993D01*
X168782962Y-61129408D01*
X169415270Y-61761717D01*
X169415270Y-61761716D01*
X169454622Y-61707554D01*
X169459514Y-61697954D01*
X169507488Y-61647157D01*
X169575308Y-61630361D01*
X169641444Y-61652897D01*
X169680486Y-61697954D01*
X169685375Y-61707550D01*
X169724728Y-61761716D01*
X170357037Y-61129408D01*
X170374075Y-61192993D01*
X170439901Y-61307007D01*
X170532993Y-61400099D01*
X170647007Y-61465925D01*
X170710590Y-61482962D01*
X170078282Y-62115269D01*
X170078282Y-62115270D01*
X170132449Y-62154624D01*
X170321782Y-62251095D01*
X170523870Y-62316757D01*
X170733754Y-62350000D01*
X170946246Y-62350000D01*
X171156127Y-62316757D01*
X171156130Y-62316757D01*
X171358217Y-62251095D01*
X171547554Y-62154622D01*
X171601716Y-62115270D01*
X171601717Y-62115270D01*
X170969408Y-61482962D01*
X171032993Y-61465925D01*
X171147007Y-61400099D01*
X171240099Y-61307007D01*
X171305925Y-61192993D01*
X171322962Y-61129408D01*
X171955270Y-61761717D01*
X171955270Y-61761716D01*
X171994622Y-61707554D01*
X171999514Y-61697954D01*
X172047488Y-61647157D01*
X172115308Y-61630361D01*
X172181444Y-61652897D01*
X172220486Y-61697954D01*
X172225375Y-61707550D01*
X172264728Y-61761716D01*
X172897037Y-61129408D01*
X172914075Y-61192993D01*
X172979901Y-61307007D01*
X173072993Y-61400099D01*
X173187007Y-61465925D01*
X173250590Y-61482962D01*
X172618282Y-62115269D01*
X172618282Y-62115270D01*
X172672449Y-62154624D01*
X172861782Y-62251095D01*
X173063870Y-62316757D01*
X173273754Y-62350000D01*
X173486246Y-62350000D01*
X173696127Y-62316757D01*
X173696130Y-62316757D01*
X173898217Y-62251095D01*
X174087554Y-62154622D01*
X174141716Y-62115270D01*
X174141717Y-62115270D01*
X173509408Y-61482962D01*
X173572993Y-61465925D01*
X173687007Y-61400099D01*
X173780099Y-61307007D01*
X173845925Y-61192993D01*
X173862962Y-61129408D01*
X174495270Y-61761717D01*
X174495270Y-61761716D01*
X174534622Y-61707554D01*
X174539514Y-61697954D01*
X174587488Y-61647157D01*
X174655308Y-61630361D01*
X174721444Y-61652897D01*
X174760486Y-61697954D01*
X174765375Y-61707550D01*
X174804728Y-61761716D01*
X175437037Y-61129408D01*
X175454075Y-61192993D01*
X175519901Y-61307007D01*
X175612993Y-61400099D01*
X175727007Y-61465925D01*
X175790590Y-61482962D01*
X175158282Y-62115269D01*
X175158282Y-62115270D01*
X175212449Y-62154624D01*
X175401782Y-62251095D01*
X175603870Y-62316757D01*
X175813754Y-62350000D01*
X176026246Y-62350000D01*
X176236127Y-62316757D01*
X176236130Y-62316757D01*
X176438217Y-62251095D01*
X176627554Y-62154622D01*
X176681716Y-62115270D01*
X176681717Y-62115270D01*
X176049408Y-61482962D01*
X176112993Y-61465925D01*
X176227007Y-61400099D01*
X176320099Y-61307007D01*
X176385925Y-61192993D01*
X176402962Y-61129408D01*
X177035270Y-61761717D01*
X177035270Y-61761716D01*
X177074622Y-61707554D01*
X177079514Y-61697954D01*
X177127488Y-61647157D01*
X177195308Y-61630361D01*
X177261444Y-61652897D01*
X177300486Y-61697954D01*
X177305375Y-61707550D01*
X177344728Y-61761716D01*
X177977037Y-61129408D01*
X177994075Y-61192993D01*
X178059901Y-61307007D01*
X178152993Y-61400099D01*
X178267007Y-61465925D01*
X178330590Y-61482962D01*
X177698282Y-62115269D01*
X177698282Y-62115270D01*
X177752449Y-62154624D01*
X177941782Y-62251095D01*
X178143870Y-62316757D01*
X178353754Y-62350000D01*
X178566246Y-62350000D01*
X178776127Y-62316757D01*
X178776130Y-62316757D01*
X178978217Y-62251095D01*
X179167554Y-62154622D01*
X179221716Y-62115270D01*
X179221717Y-62115270D01*
X178589408Y-61482962D01*
X178652993Y-61465925D01*
X178767007Y-61400099D01*
X178860099Y-61307007D01*
X178925925Y-61192993D01*
X178942962Y-61129408D01*
X179613181Y-61799628D01*
X179646666Y-61860951D01*
X179649500Y-61887300D01*
X179649500Y-61897865D01*
X179649501Y-61897876D01*
X179655908Y-61957483D01*
X179706202Y-62092328D01*
X179706206Y-62092335D01*
X179792452Y-62207544D01*
X179792455Y-62207547D01*
X179907664Y-62293793D01*
X179907671Y-62293797D01*
X180042517Y-62344091D01*
X180042516Y-62344091D01*
X180049444Y-62344835D01*
X180102127Y-62350500D01*
X181897872Y-62350499D01*
X181957483Y-62344091D01*
X182092331Y-62293796D01*
X182207546Y-62207546D01*
X182293796Y-62092331D01*
X182344091Y-61957483D01*
X182350500Y-61897873D01*
X182350499Y-60102128D01*
X182344091Y-60042517D01*
X182328233Y-60000000D01*
X182293797Y-59907671D01*
X182293793Y-59907664D01*
X182207547Y-59792455D01*
X182207544Y-59792452D01*
X182092335Y-59706206D01*
X182092328Y-59706202D01*
X182008637Y-59674988D01*
X181957482Y-59655908D01*
X181957483Y-59655908D01*
X181897883Y-59649501D01*
X181897881Y-59649500D01*
X181897873Y-59649500D01*
X181897864Y-59649500D01*
X180102129Y-59649500D01*
X180102123Y-59649501D01*
X180042516Y-59655908D01*
X179907671Y-59706202D01*
X179907664Y-59706206D01*
X179792455Y-59792452D01*
X179792452Y-59792455D01*
X179706206Y-59907664D01*
X179706202Y-59907671D01*
X179655908Y-60042517D01*
X179649501Y-60102116D01*
X179649501Y-60102123D01*
X179649500Y-60102135D01*
X179649500Y-60112690D01*
X179629815Y-60179729D01*
X179613181Y-60200371D01*
X178942962Y-60870590D01*
X178925925Y-60807007D01*
X178860099Y-60692993D01*
X178767007Y-60599901D01*
X178652993Y-60534075D01*
X178589409Y-60517037D01*
X179221716Y-59884728D01*
X179167550Y-59845375D01*
X178978217Y-59748904D01*
X178776129Y-59683242D01*
X178566246Y-59650000D01*
X178353754Y-59650000D01*
X178143872Y-59683242D01*
X178143869Y-59683242D01*
X177941782Y-59748904D01*
X177752439Y-59845380D01*
X177698282Y-59884727D01*
X177698282Y-59884728D01*
X178330591Y-60517037D01*
X178267007Y-60534075D01*
X178152993Y-60599901D01*
X178059901Y-60692993D01*
X177994075Y-60807007D01*
X177977037Y-60870591D01*
X177344728Y-60238282D01*
X177344727Y-60238282D01*
X177305380Y-60292440D01*
X177300483Y-60302051D01*
X177252506Y-60352845D01*
X177184684Y-60369638D01*
X177118550Y-60347098D01*
X177079516Y-60302048D01*
X177074626Y-60292452D01*
X177035270Y-60238282D01*
X176402962Y-60870590D01*
X176385925Y-60807007D01*
X176320099Y-60692993D01*
X176227007Y-60599901D01*
X176112993Y-60534075D01*
X176049409Y-60517037D01*
X176681716Y-59884728D01*
X176627550Y-59845375D01*
X176438217Y-59748904D01*
X176236129Y-59683242D01*
X176026246Y-59650000D01*
X175813754Y-59650000D01*
X175603872Y-59683242D01*
X175603869Y-59683242D01*
X175401782Y-59748904D01*
X175212439Y-59845380D01*
X175158282Y-59884727D01*
X175158282Y-59884728D01*
X175790591Y-60517037D01*
X175727007Y-60534075D01*
X175612993Y-60599901D01*
X175519901Y-60692993D01*
X175454075Y-60807007D01*
X175437037Y-60870591D01*
X174804728Y-60238282D01*
X174804727Y-60238282D01*
X174765380Y-60292440D01*
X174760483Y-60302051D01*
X174712506Y-60352845D01*
X174644684Y-60369638D01*
X174578550Y-60347098D01*
X174539516Y-60302048D01*
X174534626Y-60292452D01*
X174495270Y-60238282D01*
X174495269Y-60238282D01*
X173862962Y-60870590D01*
X173845925Y-60807007D01*
X173780099Y-60692993D01*
X173687007Y-60599901D01*
X173572993Y-60534075D01*
X173509409Y-60517037D01*
X174141716Y-59884728D01*
X174087550Y-59845375D01*
X173898217Y-59748904D01*
X173696129Y-59683242D01*
X173486246Y-59650000D01*
X173273754Y-59650000D01*
X173063872Y-59683242D01*
X173063869Y-59683242D01*
X172861782Y-59748904D01*
X172672439Y-59845380D01*
X172618282Y-59884727D01*
X172618282Y-59884728D01*
X173250591Y-60517037D01*
X173187007Y-60534075D01*
X173072993Y-60599901D01*
X172979901Y-60692993D01*
X172914075Y-60807007D01*
X172897037Y-60870591D01*
X172264728Y-60238282D01*
X172264727Y-60238282D01*
X172225380Y-60292440D01*
X172220483Y-60302051D01*
X172172506Y-60352845D01*
X172104684Y-60369638D01*
X172038550Y-60347098D01*
X171999516Y-60302048D01*
X171994626Y-60292452D01*
X171955270Y-60238282D01*
X171955269Y-60238282D01*
X171322962Y-60870590D01*
X171305925Y-60807007D01*
X171240099Y-60692993D01*
X171147007Y-60599901D01*
X171032993Y-60534075D01*
X170969409Y-60517037D01*
X171601716Y-59884728D01*
X171547550Y-59845375D01*
X171358217Y-59748904D01*
X171156129Y-59683242D01*
X170946246Y-59650000D01*
X170733754Y-59650000D01*
X170523872Y-59683242D01*
X170523869Y-59683242D01*
X170321782Y-59748904D01*
X170132439Y-59845380D01*
X170078282Y-59884727D01*
X170078282Y-59884728D01*
X170710591Y-60517037D01*
X170647007Y-60534075D01*
X170532993Y-60599901D01*
X170439901Y-60692993D01*
X170374075Y-60807007D01*
X170357037Y-60870591D01*
X169724728Y-60238282D01*
X169724727Y-60238282D01*
X169685380Y-60292440D01*
X169680483Y-60302051D01*
X169632506Y-60352845D01*
X169564684Y-60369638D01*
X169498550Y-60347098D01*
X169459516Y-60302048D01*
X169454626Y-60292452D01*
X169415270Y-60238282D01*
X168782962Y-60870590D01*
X168765925Y-60807007D01*
X168700099Y-60692993D01*
X168607007Y-60599901D01*
X168492993Y-60534075D01*
X168429409Y-60517037D01*
X169061716Y-59884728D01*
X169007550Y-59845375D01*
X168818217Y-59748904D01*
X168616129Y-59683242D01*
X168406246Y-59650000D01*
X168193754Y-59650000D01*
X167983872Y-59683242D01*
X167983869Y-59683242D01*
X167781782Y-59748904D01*
X167592439Y-59845380D01*
X167538282Y-59884727D01*
X167538282Y-59884728D01*
X168170591Y-60517037D01*
X168107007Y-60534075D01*
X167992993Y-60599901D01*
X167899901Y-60692993D01*
X167834075Y-60807007D01*
X167817037Y-60870591D01*
X167184728Y-60238282D01*
X167184727Y-60238282D01*
X167145380Y-60292439D01*
X167048904Y-60481782D01*
X166983242Y-60683869D01*
X166983242Y-60683872D01*
X166950000Y-60893753D01*
X164500500Y-60893753D01*
X164500500Y-60003750D01*
X164500726Y-59996263D01*
X164505067Y-59924500D01*
X164518271Y-59706205D01*
X164520076Y-59691340D01*
X164521650Y-59682754D01*
X164543754Y-59562135D01*
X190324500Y-59562135D01*
X190324500Y-61357870D01*
X190324501Y-61357876D01*
X190330908Y-61417483D01*
X190381202Y-61552328D01*
X190381206Y-61552335D01*
X190467452Y-61667544D01*
X190467455Y-61667547D01*
X190582664Y-61753793D01*
X190582671Y-61753797D01*
X190714082Y-61802810D01*
X190770016Y-61844681D01*
X190794433Y-61910145D01*
X190779582Y-61978418D01*
X190758431Y-62006673D01*
X190644889Y-62120215D01*
X190519951Y-62292179D01*
X190423444Y-62481585D01*
X190357753Y-62683760D01*
X190324500Y-62893713D01*
X190324500Y-63106286D01*
X190357753Y-63316239D01*
X190423444Y-63518414D01*
X190519951Y-63707820D01*
X190644890Y-63879786D01*
X190795213Y-64030109D01*
X190967182Y-64155050D01*
X190975946Y-64159516D01*
X191026742Y-64207491D01*
X191043536Y-64275312D01*
X191020998Y-64341447D01*
X190975946Y-64380484D01*
X190967182Y-64384949D01*
X190795213Y-64509890D01*
X190644890Y-64660213D01*
X190519951Y-64832179D01*
X190423444Y-65021585D01*
X190357753Y-65223760D01*
X190324500Y-65433713D01*
X190324500Y-65646287D01*
X190330453Y-65683872D01*
X190349955Y-65807007D01*
X190357754Y-65856243D01*
X190404463Y-65999999D01*
X190423444Y-66058414D01*
X190519951Y-66247820D01*
X190644890Y-66419786D01*
X190795213Y-66570109D01*
X190967182Y-66695050D01*
X190975946Y-66699516D01*
X191026742Y-66747491D01*
X191043536Y-66815312D01*
X191020998Y-66881447D01*
X190975946Y-66920484D01*
X190967182Y-66924949D01*
X190795213Y-67049890D01*
X190644890Y-67200213D01*
X190519951Y-67372179D01*
X190423444Y-67561585D01*
X190357753Y-67763760D01*
X190324500Y-67973713D01*
X190324500Y-68186286D01*
X190357753Y-68396239D01*
X190423444Y-68598414D01*
X190519951Y-68787820D01*
X190644890Y-68959786D01*
X190795213Y-69110109D01*
X190967182Y-69235050D01*
X190975946Y-69239516D01*
X191026742Y-69287491D01*
X191043536Y-69355312D01*
X191020998Y-69421447D01*
X190975946Y-69460484D01*
X190967182Y-69464949D01*
X190795213Y-69589890D01*
X190644890Y-69740213D01*
X190519951Y-69912179D01*
X190423444Y-70101585D01*
X190357753Y-70303760D01*
X190347319Y-70369638D01*
X190324500Y-70513713D01*
X190324500Y-70726287D01*
X190357754Y-70936243D01*
X190399858Y-71065826D01*
X190423444Y-71138414D01*
X190519951Y-71327820D01*
X190644890Y-71499786D01*
X190795213Y-71650109D01*
X190967182Y-71775050D01*
X190975946Y-71779516D01*
X191026742Y-71827491D01*
X191043536Y-71895312D01*
X191020998Y-71961447D01*
X190975946Y-72000484D01*
X190967182Y-72004949D01*
X190795213Y-72129890D01*
X190644890Y-72280213D01*
X190519951Y-72452179D01*
X190423444Y-72641585D01*
X190357753Y-72843760D01*
X190324500Y-73053713D01*
X190324500Y-73266286D01*
X190357753Y-73476239D01*
X190423444Y-73678414D01*
X190519951Y-73867820D01*
X190644890Y-74039786D01*
X190795213Y-74190109D01*
X190967182Y-74315050D01*
X190975946Y-74319516D01*
X191026742Y-74367491D01*
X191043536Y-74435312D01*
X191020998Y-74501447D01*
X190975946Y-74540484D01*
X190967182Y-74544949D01*
X190795213Y-74669890D01*
X190644890Y-74820213D01*
X190519951Y-74992179D01*
X190423444Y-75181585D01*
X190357753Y-75383760D01*
X190324500Y-75593713D01*
X190324500Y-75806286D01*
X190355181Y-76000001D01*
X190357754Y-76016243D01*
X190387011Y-76106287D01*
X190423444Y-76218414D01*
X190519951Y-76407820D01*
X190644890Y-76579786D01*
X190795213Y-76730109D01*
X190967179Y-76855048D01*
X190967181Y-76855049D01*
X190967184Y-76855051D01*
X191156588Y-76951557D01*
X191358757Y-77017246D01*
X191568713Y-77050500D01*
X191568714Y-77050500D01*
X191781286Y-77050500D01*
X191781287Y-77050500D01*
X191991243Y-77017246D01*
X192193412Y-76951557D01*
X192382816Y-76855051D01*
X192404789Y-76839086D01*
X192554786Y-76730109D01*
X192554788Y-76730106D01*
X192554792Y-76730104D01*
X192705104Y-76579792D01*
X192705106Y-76579788D01*
X192705109Y-76579786D01*
X192830048Y-76407820D01*
X192830047Y-76407820D01*
X192830051Y-76407816D01*
X192926557Y-76218412D01*
X192992246Y-76016243D01*
X193025500Y-75806287D01*
X193025500Y-75593713D01*
X192992246Y-75383757D01*
X192926557Y-75181588D01*
X192830051Y-74992184D01*
X192830049Y-74992181D01*
X192830048Y-74992179D01*
X192705109Y-74820213D01*
X192554786Y-74669890D01*
X192382820Y-74544951D01*
X192382115Y-74544591D01*
X192374054Y-74540485D01*
X192323259Y-74492512D01*
X192306463Y-74424692D01*
X192328999Y-74358556D01*
X192374054Y-74319515D01*
X192382816Y-74315051D01*
X192404789Y-74299086D01*
X192554786Y-74190109D01*
X192554788Y-74190106D01*
X192554792Y-74190104D01*
X192705104Y-74039792D01*
X192705106Y-74039788D01*
X192705109Y-74039786D01*
X192830048Y-73867820D01*
X192830047Y-73867820D01*
X192830051Y-73867816D01*
X192926557Y-73678412D01*
X192992246Y-73476243D01*
X193025500Y-73266287D01*
X193025500Y-73053713D01*
X192992246Y-72843757D01*
X192926557Y-72641588D01*
X192830051Y-72452184D01*
X192830049Y-72452181D01*
X192830048Y-72452179D01*
X192705109Y-72280213D01*
X192554786Y-72129890D01*
X192382820Y-72004951D01*
X192382115Y-72004591D01*
X192374054Y-72000485D01*
X192323259Y-71952512D01*
X192306463Y-71884692D01*
X192328999Y-71818556D01*
X192374054Y-71779515D01*
X192382816Y-71775051D01*
X192404789Y-71759086D01*
X192554786Y-71650109D01*
X192554788Y-71650106D01*
X192554792Y-71650104D01*
X192705104Y-71499792D01*
X192705106Y-71499788D01*
X192705109Y-71499786D01*
X192830048Y-71327820D01*
X192830047Y-71327820D01*
X192830051Y-71327816D01*
X192926557Y-71138412D01*
X192992246Y-70936243D01*
X193025500Y-70726287D01*
X193025500Y-70513713D01*
X192992246Y-70303757D01*
X192926557Y-70101588D01*
X192830051Y-69912184D01*
X192830049Y-69912181D01*
X192830048Y-69912179D01*
X192705109Y-69740213D01*
X192554786Y-69589890D01*
X192382820Y-69464951D01*
X192382115Y-69464591D01*
X192374054Y-69460485D01*
X192323259Y-69412512D01*
X192306463Y-69344692D01*
X192328999Y-69278556D01*
X192374054Y-69239515D01*
X192382816Y-69235051D01*
X192404789Y-69219086D01*
X192554786Y-69110109D01*
X192554788Y-69110106D01*
X192554792Y-69110104D01*
X192705104Y-68959792D01*
X192705106Y-68959788D01*
X192705109Y-68959786D01*
X192830048Y-68787820D01*
X192830047Y-68787820D01*
X192830051Y-68787816D01*
X192926557Y-68598412D01*
X192992246Y-68396243D01*
X193025500Y-68186287D01*
X193025500Y-67973713D01*
X192992246Y-67763757D01*
X192926557Y-67561588D01*
X192830051Y-67372184D01*
X192830049Y-67372181D01*
X192830048Y-67372179D01*
X192705109Y-67200213D01*
X192554786Y-67049890D01*
X192382820Y-66924951D01*
X192382115Y-66924591D01*
X192374054Y-66920485D01*
X192323259Y-66872512D01*
X192306463Y-66804692D01*
X192328999Y-66738556D01*
X192374054Y-66699515D01*
X192382816Y-66695051D01*
X192439320Y-66653999D01*
X192554786Y-66570109D01*
X192554788Y-66570106D01*
X192554792Y-66570104D01*
X192705104Y-66419792D01*
X192705106Y-66419788D01*
X192705109Y-66419786D01*
X192830048Y-66247820D01*
X192830047Y-66247820D01*
X192830051Y-66247816D01*
X192926557Y-66058412D01*
X192992246Y-65856243D01*
X193025500Y-65646287D01*
X193025500Y-65433713D01*
X192992246Y-65223757D01*
X192926557Y-65021588D01*
X192830051Y-64832184D01*
X192830049Y-64832181D01*
X192830048Y-64832179D01*
X192705109Y-64660213D01*
X192554786Y-64509890D01*
X192382820Y-64384951D01*
X192382115Y-64384591D01*
X192374054Y-64380485D01*
X192323259Y-64332512D01*
X192306463Y-64264692D01*
X192328999Y-64198556D01*
X192374054Y-64159515D01*
X192382816Y-64155051D01*
X192404789Y-64139086D01*
X192554786Y-64030109D01*
X192554788Y-64030106D01*
X192554792Y-64030104D01*
X192705104Y-63879792D01*
X192705106Y-63879788D01*
X192705109Y-63879786D01*
X192830048Y-63707820D01*
X192830047Y-63707820D01*
X192830051Y-63707816D01*
X192926557Y-63518412D01*
X192992246Y-63316243D01*
X193025500Y-63106287D01*
X193025500Y-62893713D01*
X205649500Y-62893713D01*
X205649500Y-63106286D01*
X205682753Y-63316239D01*
X205748444Y-63518414D01*
X205844951Y-63707820D01*
X205969890Y-63879786D01*
X206120213Y-64030109D01*
X206292182Y-64155050D01*
X206300946Y-64159516D01*
X206351742Y-64207491D01*
X206368536Y-64275312D01*
X206345998Y-64341447D01*
X206300946Y-64380484D01*
X206292182Y-64384949D01*
X206120213Y-64509890D01*
X205969890Y-64660213D01*
X205844951Y-64832179D01*
X205748444Y-65021585D01*
X205682753Y-65223760D01*
X205649500Y-65433713D01*
X205649500Y-65646287D01*
X205655453Y-65683872D01*
X205674955Y-65807007D01*
X205682754Y-65856243D01*
X205729463Y-65999999D01*
X205748444Y-66058414D01*
X205844951Y-66247820D01*
X205969890Y-66419786D01*
X206120213Y-66570109D01*
X206292182Y-66695050D01*
X206300946Y-66699516D01*
X206351742Y-66747491D01*
X206368536Y-66815312D01*
X206345998Y-66881447D01*
X206300946Y-66920484D01*
X206292182Y-66924949D01*
X206120213Y-67049890D01*
X205969890Y-67200213D01*
X205844951Y-67372179D01*
X205748444Y-67561585D01*
X205682753Y-67763760D01*
X205649500Y-67973713D01*
X205649500Y-68186286D01*
X205682753Y-68396239D01*
X205748444Y-68598414D01*
X205844951Y-68787820D01*
X205969890Y-68959786D01*
X206120213Y-69110109D01*
X206292182Y-69235050D01*
X206300946Y-69239516D01*
X206351742Y-69287491D01*
X206368536Y-69355312D01*
X206345998Y-69421447D01*
X206300946Y-69460484D01*
X206292182Y-69464949D01*
X206120213Y-69589890D01*
X205969890Y-69740213D01*
X205844951Y-69912179D01*
X205748444Y-70101585D01*
X205682753Y-70303760D01*
X205672319Y-70369638D01*
X205649500Y-70513713D01*
X205649500Y-70726287D01*
X205682754Y-70936243D01*
X205724858Y-71065826D01*
X205748444Y-71138414D01*
X205844951Y-71327820D01*
X205969890Y-71499786D01*
X206120213Y-71650109D01*
X206292182Y-71775050D01*
X206300946Y-71779516D01*
X206351742Y-71827491D01*
X206368536Y-71895312D01*
X206345998Y-71961447D01*
X206300946Y-72000484D01*
X206292182Y-72004949D01*
X206120213Y-72129890D01*
X205969890Y-72280213D01*
X205844951Y-72452179D01*
X205748444Y-72641585D01*
X205682753Y-72843760D01*
X205649500Y-73053713D01*
X205649500Y-73266286D01*
X205682753Y-73476239D01*
X205748444Y-73678414D01*
X205844951Y-73867820D01*
X205969890Y-74039786D01*
X206120213Y-74190109D01*
X206292182Y-74315050D01*
X206300946Y-74319516D01*
X206351742Y-74367491D01*
X206368536Y-74435312D01*
X206345998Y-74501447D01*
X206300946Y-74540484D01*
X206292182Y-74544949D01*
X206120213Y-74669890D01*
X205969890Y-74820213D01*
X205844951Y-74992179D01*
X205748444Y-75181585D01*
X205682753Y-75383760D01*
X205649500Y-75593713D01*
X205649500Y-75806286D01*
X205680181Y-76000001D01*
X205682754Y-76016243D01*
X205712011Y-76106287D01*
X205748444Y-76218414D01*
X205844951Y-76407820D01*
X205969890Y-76579786D01*
X206120213Y-76730109D01*
X206292179Y-76855048D01*
X206292181Y-76855049D01*
X206292184Y-76855051D01*
X206481588Y-76951557D01*
X206683757Y-77017246D01*
X206893713Y-77050500D01*
X206893714Y-77050500D01*
X207106286Y-77050500D01*
X207106287Y-77050500D01*
X207316243Y-77017246D01*
X207518412Y-76951557D01*
X207707816Y-76855051D01*
X207729789Y-76839086D01*
X207879786Y-76730109D01*
X207879788Y-76730106D01*
X207879792Y-76730104D01*
X208030104Y-76579792D01*
X208030106Y-76579788D01*
X208030109Y-76579786D01*
X208155048Y-76407820D01*
X208155047Y-76407820D01*
X208155051Y-76407816D01*
X208251557Y-76218412D01*
X208317246Y-76016243D01*
X208350500Y-75806287D01*
X208350500Y-75593713D01*
X208317246Y-75383757D01*
X208251557Y-75181588D01*
X208251555Y-75181585D01*
X208251555Y-75181583D01*
X208238062Y-75155102D01*
X208238061Y-75155101D01*
X208229882Y-75139049D01*
X208211073Y-75102135D01*
X216069500Y-75102135D01*
X216069500Y-76897870D01*
X216069501Y-76897876D01*
X216075908Y-76957483D01*
X216126202Y-77092328D01*
X216126206Y-77092335D01*
X216212452Y-77207544D01*
X216212455Y-77207547D01*
X216327664Y-77293793D01*
X216327671Y-77293797D01*
X216462517Y-77344091D01*
X216462516Y-77344091D01*
X216469444Y-77344835D01*
X216522127Y-77350500D01*
X218317872Y-77350499D01*
X218377483Y-77344091D01*
X218512331Y-77293796D01*
X218627546Y-77207546D01*
X218713796Y-77092331D01*
X218764091Y-76957483D01*
X218770500Y-76897873D01*
X218770499Y-76873979D01*
X218773330Y-76860963D01*
X218783940Y-76841525D01*
X218790179Y-76820275D01*
X218806803Y-76799643D01*
X218806808Y-76799636D01*
X218806811Y-76799634D01*
X218806818Y-76799626D01*
X219477037Y-76129408D01*
X219494075Y-76192993D01*
X219559901Y-76307007D01*
X219652993Y-76400099D01*
X219767007Y-76465925D01*
X219830590Y-76482962D01*
X219198282Y-77115269D01*
X219198282Y-77115270D01*
X219252449Y-77154624D01*
X219441782Y-77251095D01*
X219643870Y-77316757D01*
X219853754Y-77350000D01*
X220066246Y-77350000D01*
X220276127Y-77316757D01*
X220276130Y-77316757D01*
X220478217Y-77251095D01*
X220667554Y-77154622D01*
X220721716Y-77115270D01*
X220721717Y-77115270D01*
X220089408Y-76482962D01*
X220152993Y-76465925D01*
X220267007Y-76400099D01*
X220360099Y-76307007D01*
X220425925Y-76192993D01*
X220442962Y-76129409D01*
X221075270Y-76761717D01*
X221075270Y-76761716D01*
X221114622Y-76707555D01*
X221119232Y-76698507D01*
X221167205Y-76647709D01*
X221235025Y-76630912D01*
X221301161Y-76653447D01*
X221340204Y-76698504D01*
X221344949Y-76707817D01*
X221469890Y-76879786D01*
X221620213Y-77030109D01*
X221792179Y-77155048D01*
X221792181Y-77155049D01*
X221792184Y-77155051D01*
X221981588Y-77251557D01*
X222183757Y-77317246D01*
X222393713Y-77350500D01*
X222393714Y-77350500D01*
X222606286Y-77350500D01*
X222606287Y-77350500D01*
X222816243Y-77317246D01*
X223018412Y-77251557D01*
X223207816Y-77155051D01*
X223294138Y-77092335D01*
X223379786Y-77030109D01*
X223379788Y-77030106D01*
X223379792Y-77030104D01*
X223530104Y-76879792D01*
X223530106Y-76879788D01*
X223530109Y-76879786D01*
X223615890Y-76761717D01*
X223655051Y-76707816D01*
X223659793Y-76698508D01*
X223707763Y-76647711D01*
X223775583Y-76630911D01*
X223841719Y-76653445D01*
X223880763Y-76698500D01*
X223885373Y-76707547D01*
X223924728Y-76761716D01*
X224557037Y-76129408D01*
X224574075Y-76192993D01*
X224639901Y-76307007D01*
X224732993Y-76400099D01*
X224847007Y-76465925D01*
X224910590Y-76482962D01*
X224278282Y-77115269D01*
X224278282Y-77115270D01*
X224332449Y-77154624D01*
X224521782Y-77251095D01*
X224723870Y-77316757D01*
X224933754Y-77350000D01*
X225146246Y-77350000D01*
X225356127Y-77316757D01*
X225356130Y-77316757D01*
X225558217Y-77251095D01*
X225747554Y-77154622D01*
X225801716Y-77115270D01*
X225801717Y-77115270D01*
X225169408Y-76482962D01*
X225232993Y-76465925D01*
X225347007Y-76400099D01*
X225440099Y-76307007D01*
X225505925Y-76192993D01*
X225522962Y-76129409D01*
X226155270Y-76761717D01*
X226155270Y-76761716D01*
X226194622Y-76707554D01*
X226199514Y-76697954D01*
X226247488Y-76647157D01*
X226315308Y-76630361D01*
X226381444Y-76652897D01*
X226420486Y-76697954D01*
X226425375Y-76707550D01*
X226464728Y-76761716D01*
X227097037Y-76129408D01*
X227114075Y-76192993D01*
X227179901Y-76307007D01*
X227272993Y-76400099D01*
X227387007Y-76465925D01*
X227450590Y-76482962D01*
X226818282Y-77115269D01*
X226818282Y-77115270D01*
X226872449Y-77154624D01*
X227061782Y-77251095D01*
X227263870Y-77316757D01*
X227473754Y-77350000D01*
X227686246Y-77350000D01*
X227896127Y-77316757D01*
X227896130Y-77316757D01*
X228098217Y-77251095D01*
X228287554Y-77154622D01*
X228341716Y-77115270D01*
X228341717Y-77115270D01*
X227709408Y-76482962D01*
X227772993Y-76465925D01*
X227887007Y-76400099D01*
X227980099Y-76307007D01*
X228045925Y-76192993D01*
X228062962Y-76129408D01*
X228695270Y-76761717D01*
X228695270Y-76761716D01*
X228734622Y-76707554D01*
X228739514Y-76697954D01*
X228787488Y-76647157D01*
X228855308Y-76630361D01*
X228921444Y-76652897D01*
X228960486Y-76697954D01*
X228965375Y-76707550D01*
X229004728Y-76761716D01*
X229637037Y-76129408D01*
X229654075Y-76192993D01*
X229719901Y-76307007D01*
X229812993Y-76400099D01*
X229927007Y-76465925D01*
X229990590Y-76482962D01*
X229358282Y-77115269D01*
X229358282Y-77115270D01*
X229412449Y-77154624D01*
X229601782Y-77251095D01*
X229803870Y-77316757D01*
X230013754Y-77350000D01*
X230226246Y-77350000D01*
X230436127Y-77316757D01*
X230436130Y-77316757D01*
X230638217Y-77251095D01*
X230827554Y-77154622D01*
X230881716Y-77115270D01*
X230881717Y-77115270D01*
X230249408Y-76482962D01*
X230312993Y-76465925D01*
X230427007Y-76400099D01*
X230520099Y-76307007D01*
X230585925Y-76192993D01*
X230602962Y-76129408D01*
X231235270Y-76761717D01*
X231235270Y-76761716D01*
X231274622Y-76707554D01*
X231371095Y-76518217D01*
X231436757Y-76316130D01*
X231436757Y-76316127D01*
X231470000Y-76106246D01*
X231470000Y-75893753D01*
X231436757Y-75683872D01*
X231436757Y-75683869D01*
X231371095Y-75481782D01*
X231274624Y-75292449D01*
X231235270Y-75238282D01*
X230602962Y-75870590D01*
X230585925Y-75807007D01*
X230520099Y-75692993D01*
X230427007Y-75599901D01*
X230312993Y-75534075D01*
X230249409Y-75517037D01*
X230881716Y-74884728D01*
X230827550Y-74845375D01*
X230638217Y-74748904D01*
X230436129Y-74683242D01*
X230226246Y-74650000D01*
X230013754Y-74650000D01*
X229803872Y-74683242D01*
X229803869Y-74683242D01*
X229601782Y-74748904D01*
X229412439Y-74845380D01*
X229358282Y-74884727D01*
X229358282Y-74884728D01*
X229990591Y-75517037D01*
X229927007Y-75534075D01*
X229812993Y-75599901D01*
X229719901Y-75692993D01*
X229654075Y-75807007D01*
X229637037Y-75870591D01*
X229004728Y-75238282D01*
X229004727Y-75238282D01*
X228965380Y-75292440D01*
X228960483Y-75302051D01*
X228912506Y-75352845D01*
X228844684Y-75369638D01*
X228778550Y-75347098D01*
X228739516Y-75302048D01*
X228734626Y-75292452D01*
X228695270Y-75238282D01*
X228062962Y-75870590D01*
X228045925Y-75807007D01*
X227980099Y-75692993D01*
X227887007Y-75599901D01*
X227772993Y-75534075D01*
X227709409Y-75517037D01*
X228341716Y-74884728D01*
X228287550Y-74845375D01*
X228098217Y-74748904D01*
X227896129Y-74683242D01*
X227686246Y-74650000D01*
X227473754Y-74650000D01*
X227263872Y-74683242D01*
X227263869Y-74683242D01*
X227061782Y-74748904D01*
X226872439Y-74845380D01*
X226818282Y-74884727D01*
X226818282Y-74884728D01*
X227450591Y-75517037D01*
X227387007Y-75534075D01*
X227272993Y-75599901D01*
X227179901Y-75692993D01*
X227114075Y-75807007D01*
X227097037Y-75870591D01*
X226464728Y-75238282D01*
X226464727Y-75238282D01*
X226425380Y-75292440D01*
X226420483Y-75302051D01*
X226372506Y-75352845D01*
X226304684Y-75369638D01*
X226238550Y-75347098D01*
X226199516Y-75302048D01*
X226194626Y-75292452D01*
X226155270Y-75238282D01*
X226155269Y-75238282D01*
X225522962Y-75870590D01*
X225505925Y-75807007D01*
X225440099Y-75692993D01*
X225347007Y-75599901D01*
X225232993Y-75534075D01*
X225169409Y-75517037D01*
X225801716Y-74884728D01*
X225747550Y-74845375D01*
X225558217Y-74748904D01*
X225356129Y-74683242D01*
X225146246Y-74650000D01*
X224933754Y-74650000D01*
X224723872Y-74683242D01*
X224723869Y-74683242D01*
X224521782Y-74748904D01*
X224332439Y-74845380D01*
X224278282Y-74884727D01*
X224278282Y-74884728D01*
X224910591Y-75517037D01*
X224847007Y-75534075D01*
X224732993Y-75599901D01*
X224639901Y-75692993D01*
X224574075Y-75807007D01*
X224557037Y-75870591D01*
X223924728Y-75238282D01*
X223924727Y-75238282D01*
X223885380Y-75292440D01*
X223885376Y-75292446D01*
X223880760Y-75301505D01*
X223832781Y-75352297D01*
X223764959Y-75369087D01*
X223698826Y-75346543D01*
X223659794Y-75301493D01*
X223655051Y-75292184D01*
X223655049Y-75292181D01*
X223655048Y-75292179D01*
X223530109Y-75120213D01*
X223379786Y-74969890D01*
X223207820Y-74844951D01*
X223018414Y-74748444D01*
X223018413Y-74748443D01*
X223018412Y-74748443D01*
X222816243Y-74682754D01*
X222816241Y-74682753D01*
X222816240Y-74682753D01*
X222654957Y-74657208D01*
X222606287Y-74649500D01*
X222393713Y-74649500D01*
X222345042Y-74657208D01*
X222183760Y-74682753D01*
X221981585Y-74748444D01*
X221792179Y-74844951D01*
X221620213Y-74969890D01*
X221469890Y-75120213D01*
X221344949Y-75292182D01*
X221340202Y-75301499D01*
X221292227Y-75352293D01*
X221224405Y-75369087D01*
X221158271Y-75346548D01*
X221119234Y-75301495D01*
X221114626Y-75292452D01*
X221075270Y-75238282D01*
X220442962Y-75870590D01*
X220425925Y-75807007D01*
X220360099Y-75692993D01*
X220267007Y-75599901D01*
X220152993Y-75534075D01*
X220089409Y-75517037D01*
X220721716Y-74884728D01*
X220667550Y-74845375D01*
X220478217Y-74748904D01*
X220276129Y-74683242D01*
X220066246Y-74650000D01*
X219853754Y-74650000D01*
X219643872Y-74683242D01*
X219643869Y-74683242D01*
X219441782Y-74748904D01*
X219252439Y-74845380D01*
X219198282Y-74884727D01*
X219198282Y-74884728D01*
X219830591Y-75517037D01*
X219767007Y-75534075D01*
X219652993Y-75599901D01*
X219559901Y-75692993D01*
X219494075Y-75807007D01*
X219477037Y-75870591D01*
X218806818Y-75200372D01*
X218773333Y-75139049D01*
X218773330Y-75139036D01*
X218770499Y-75126015D01*
X218770499Y-75102128D01*
X218764091Y-75042517D01*
X218735926Y-74967002D01*
X218713798Y-74907673D01*
X218713793Y-74907664D01*
X218627547Y-74792455D01*
X218627544Y-74792452D01*
X218512335Y-74706206D01*
X218512328Y-74706202D01*
X218377482Y-74655908D01*
X218377483Y-74655908D01*
X218317883Y-74649501D01*
X218317881Y-74649500D01*
X218317873Y-74649500D01*
X218317864Y-74649500D01*
X216522129Y-74649500D01*
X216522123Y-74649501D01*
X216462516Y-74655908D01*
X216327671Y-74706202D01*
X216327664Y-74706206D01*
X216212455Y-74792452D01*
X216212452Y-74792455D01*
X216126206Y-74907664D01*
X216126202Y-74907671D01*
X216075908Y-75042517D01*
X216069501Y-75102116D01*
X216069501Y-75102123D01*
X216069500Y-75102135D01*
X208211073Y-75102135D01*
X208155051Y-74992184D01*
X208155049Y-74992181D01*
X208155048Y-74992179D01*
X208030109Y-74820213D01*
X207879786Y-74669890D01*
X207707820Y-74544951D01*
X207707115Y-74544591D01*
X207699054Y-74540485D01*
X207648259Y-74492512D01*
X207631463Y-74424692D01*
X207653999Y-74358556D01*
X207699054Y-74319515D01*
X207707816Y-74315051D01*
X207729789Y-74299086D01*
X207879786Y-74190109D01*
X207879788Y-74190106D01*
X207879792Y-74190104D01*
X208030104Y-74039792D01*
X208030106Y-74039788D01*
X208030109Y-74039786D01*
X208155048Y-73867820D01*
X208155047Y-73867820D01*
X208155051Y-73867816D01*
X208251557Y-73678412D01*
X208317246Y-73476243D01*
X208350500Y-73266287D01*
X208350500Y-73053713D01*
X208317246Y-72843757D01*
X208251557Y-72641588D01*
X208155051Y-72452184D01*
X208155049Y-72452181D01*
X208155048Y-72452179D01*
X208030109Y-72280213D01*
X207879786Y-72129890D01*
X207707820Y-72004951D01*
X207707115Y-72004591D01*
X207699054Y-72000485D01*
X207648259Y-71952512D01*
X207631463Y-71884692D01*
X207653999Y-71818556D01*
X207699054Y-71779515D01*
X207707816Y-71775051D01*
X207729789Y-71759086D01*
X207879786Y-71650109D01*
X207879788Y-71650106D01*
X207879792Y-71650104D01*
X208030104Y-71499792D01*
X208030106Y-71499788D01*
X208030109Y-71499786D01*
X208155048Y-71327820D01*
X208155047Y-71327820D01*
X208155051Y-71327816D01*
X208251557Y-71138412D01*
X208317246Y-70936243D01*
X208350500Y-70726287D01*
X208350500Y-70513713D01*
X208317246Y-70303757D01*
X208251735Y-70102135D01*
X216109500Y-70102135D01*
X216109500Y-71897870D01*
X216109501Y-71897876D01*
X216115908Y-71957483D01*
X216166202Y-72092328D01*
X216166206Y-72092335D01*
X216252452Y-72207544D01*
X216252455Y-72207547D01*
X216367664Y-72293793D01*
X216367671Y-72293797D01*
X216502517Y-72344091D01*
X216502516Y-72344091D01*
X216509444Y-72344835D01*
X216562127Y-72350500D01*
X218357872Y-72350499D01*
X218417483Y-72344091D01*
X218552331Y-72293796D01*
X218667546Y-72207546D01*
X218753796Y-72092331D01*
X218804091Y-71957483D01*
X218810500Y-71897873D01*
X218810499Y-71873979D01*
X218813330Y-71860963D01*
X218823940Y-71841525D01*
X218830179Y-71820275D01*
X218846803Y-71799643D01*
X218846808Y-71799636D01*
X218846811Y-71799634D01*
X218846818Y-71799626D01*
X219517037Y-71129408D01*
X219534075Y-71192993D01*
X219599901Y-71307007D01*
X219692993Y-71400099D01*
X219807007Y-71465925D01*
X219870590Y-71482962D01*
X219238282Y-72115269D01*
X219238282Y-72115270D01*
X219292449Y-72154624D01*
X219481782Y-72251095D01*
X219683870Y-72316757D01*
X219893754Y-72350000D01*
X220106246Y-72350000D01*
X220316127Y-72316757D01*
X220316130Y-72316757D01*
X220518217Y-72251095D01*
X220707554Y-72154622D01*
X220761716Y-72115270D01*
X220761717Y-72115270D01*
X220129408Y-71482962D01*
X220192993Y-71465925D01*
X220307007Y-71400099D01*
X220400099Y-71307007D01*
X220465925Y-71192993D01*
X220482962Y-71129408D01*
X221115270Y-71761717D01*
X221115270Y-71761716D01*
X221154622Y-71707555D01*
X221159232Y-71698507D01*
X221207205Y-71647709D01*
X221275025Y-71630912D01*
X221341161Y-71653447D01*
X221380204Y-71698504D01*
X221384949Y-71707817D01*
X221509890Y-71879786D01*
X221660213Y-72030109D01*
X221832179Y-72155048D01*
X221832181Y-72155049D01*
X221832184Y-72155051D01*
X222021588Y-72251557D01*
X222223757Y-72317246D01*
X222433713Y-72350500D01*
X222433714Y-72350500D01*
X222646286Y-72350500D01*
X222646287Y-72350500D01*
X222856243Y-72317246D01*
X223058412Y-72251557D01*
X223247816Y-72155051D01*
X223334138Y-72092335D01*
X223419786Y-72030109D01*
X223419788Y-72030106D01*
X223419792Y-72030104D01*
X223570104Y-71879792D01*
X223570106Y-71879788D01*
X223570109Y-71879786D01*
X223655890Y-71761717D01*
X223695051Y-71707816D01*
X223699793Y-71698508D01*
X223747763Y-71647711D01*
X223815583Y-71630911D01*
X223881719Y-71653445D01*
X223920763Y-71698500D01*
X223925373Y-71707547D01*
X223964728Y-71761716D01*
X224597037Y-71129408D01*
X224614075Y-71192993D01*
X224679901Y-71307007D01*
X224772993Y-71400099D01*
X224887007Y-71465925D01*
X224950590Y-71482962D01*
X224318282Y-72115269D01*
X224318282Y-72115270D01*
X224372449Y-72154624D01*
X224561782Y-72251095D01*
X224763870Y-72316757D01*
X224973754Y-72350000D01*
X225186246Y-72350000D01*
X225396127Y-72316757D01*
X225396130Y-72316757D01*
X225598217Y-72251095D01*
X225787554Y-72154622D01*
X225841716Y-72115270D01*
X225841717Y-72115270D01*
X225209408Y-71482962D01*
X225272993Y-71465925D01*
X225387007Y-71400099D01*
X225480099Y-71307007D01*
X225545925Y-71192993D01*
X225562962Y-71129408D01*
X226195270Y-71761717D01*
X226195270Y-71761716D01*
X226234622Y-71707554D01*
X226239514Y-71697954D01*
X226287488Y-71647157D01*
X226355308Y-71630361D01*
X226421444Y-71652897D01*
X226460486Y-71697954D01*
X226465375Y-71707550D01*
X226504728Y-71761716D01*
X227137037Y-71129408D01*
X227154075Y-71192993D01*
X227219901Y-71307007D01*
X227312993Y-71400099D01*
X227427007Y-71465925D01*
X227490590Y-71482962D01*
X226858282Y-72115269D01*
X226858282Y-72115270D01*
X226912449Y-72154624D01*
X227101782Y-72251095D01*
X227303870Y-72316757D01*
X227513754Y-72350000D01*
X227726246Y-72350000D01*
X227936127Y-72316757D01*
X227936130Y-72316757D01*
X228138217Y-72251095D01*
X228327554Y-72154622D01*
X228381716Y-72115270D01*
X228381717Y-72115270D01*
X227749408Y-71482962D01*
X227812993Y-71465925D01*
X227927007Y-71400099D01*
X228020099Y-71307007D01*
X228085925Y-71192993D01*
X228102962Y-71129408D01*
X228735270Y-71761717D01*
X228735270Y-71761716D01*
X228774622Y-71707555D01*
X228779232Y-71698507D01*
X228827205Y-71647709D01*
X228895025Y-71630912D01*
X228961161Y-71653447D01*
X229000204Y-71698504D01*
X229004949Y-71707817D01*
X229129890Y-71879786D01*
X229280213Y-72030109D01*
X229452179Y-72155048D01*
X229452181Y-72155049D01*
X229452184Y-72155051D01*
X229641588Y-72251557D01*
X229843757Y-72317246D01*
X230053713Y-72350500D01*
X230053714Y-72350500D01*
X230266286Y-72350500D01*
X230266287Y-72350500D01*
X230476243Y-72317246D01*
X230678412Y-72251557D01*
X230867816Y-72155051D01*
X230954138Y-72092335D01*
X231039786Y-72030109D01*
X231039788Y-72030106D01*
X231039792Y-72030104D01*
X231190104Y-71879792D01*
X231190106Y-71879788D01*
X231190109Y-71879786D01*
X231315048Y-71707820D01*
X231315047Y-71707820D01*
X231315051Y-71707816D01*
X231411557Y-71518412D01*
X231477246Y-71316243D01*
X231510500Y-71106287D01*
X231510500Y-70893713D01*
X231477246Y-70683757D01*
X231411557Y-70481588D01*
X231315051Y-70292184D01*
X231315049Y-70292181D01*
X231315048Y-70292179D01*
X231190109Y-70120213D01*
X231039786Y-69969890D01*
X230867820Y-69844951D01*
X230678414Y-69748444D01*
X230678413Y-69748443D01*
X230678412Y-69748443D01*
X230476243Y-69682754D01*
X230476241Y-69682753D01*
X230476240Y-69682753D01*
X230314957Y-69657208D01*
X230266287Y-69649500D01*
X230053713Y-69649500D01*
X230005042Y-69657208D01*
X229843760Y-69682753D01*
X229641585Y-69748444D01*
X229452179Y-69844951D01*
X229280213Y-69969890D01*
X229129890Y-70120213D01*
X229004949Y-70292182D01*
X229000202Y-70301499D01*
X228952227Y-70352293D01*
X228884405Y-70369087D01*
X228818271Y-70346548D01*
X228779234Y-70301495D01*
X228774626Y-70292452D01*
X228735270Y-70238282D01*
X228735269Y-70238282D01*
X228102962Y-70870590D01*
X228085925Y-70807007D01*
X228020099Y-70692993D01*
X227927007Y-70599901D01*
X227812993Y-70534075D01*
X227749409Y-70517037D01*
X228381716Y-69884728D01*
X228327550Y-69845375D01*
X228138217Y-69748904D01*
X227936129Y-69683242D01*
X227726246Y-69650000D01*
X227513754Y-69650000D01*
X227303872Y-69683242D01*
X227303869Y-69683242D01*
X227101782Y-69748904D01*
X226912439Y-69845380D01*
X226858282Y-69884727D01*
X226858282Y-69884728D01*
X227490591Y-70517037D01*
X227427007Y-70534075D01*
X227312993Y-70599901D01*
X227219901Y-70692993D01*
X227154075Y-70807007D01*
X227137037Y-70870591D01*
X226504728Y-70238282D01*
X226504727Y-70238282D01*
X226465380Y-70292440D01*
X226460483Y-70302051D01*
X226412506Y-70352845D01*
X226344684Y-70369638D01*
X226278550Y-70347098D01*
X226239516Y-70302048D01*
X226234626Y-70292452D01*
X226195270Y-70238282D01*
X226195269Y-70238282D01*
X225562962Y-70870590D01*
X225545925Y-70807007D01*
X225480099Y-70692993D01*
X225387007Y-70599901D01*
X225272993Y-70534075D01*
X225209409Y-70517037D01*
X225841716Y-69884728D01*
X225787550Y-69845375D01*
X225598217Y-69748904D01*
X225396129Y-69683242D01*
X225186246Y-69650000D01*
X224973754Y-69650000D01*
X224763872Y-69683242D01*
X224763869Y-69683242D01*
X224561782Y-69748904D01*
X224372439Y-69845380D01*
X224318282Y-69884727D01*
X224318282Y-69884728D01*
X224950591Y-70517037D01*
X224887007Y-70534075D01*
X224772993Y-70599901D01*
X224679901Y-70692993D01*
X224614075Y-70807007D01*
X224597037Y-70870590D01*
X223964728Y-70238282D01*
X223964727Y-70238282D01*
X223925380Y-70292440D01*
X223925376Y-70292446D01*
X223920760Y-70301505D01*
X223872781Y-70352297D01*
X223804959Y-70369087D01*
X223738826Y-70346543D01*
X223699794Y-70301493D01*
X223695051Y-70292184D01*
X223695049Y-70292181D01*
X223695048Y-70292179D01*
X223570109Y-70120213D01*
X223419786Y-69969890D01*
X223247820Y-69844951D01*
X223058414Y-69748444D01*
X223058413Y-69748443D01*
X223058412Y-69748443D01*
X222856243Y-69682754D01*
X222856241Y-69682753D01*
X222856240Y-69682753D01*
X222694957Y-69657208D01*
X222646287Y-69649500D01*
X222433713Y-69649500D01*
X222385042Y-69657208D01*
X222223760Y-69682753D01*
X222021585Y-69748444D01*
X221832179Y-69844951D01*
X221660213Y-69969890D01*
X221509890Y-70120213D01*
X221384949Y-70292182D01*
X221380202Y-70301499D01*
X221332227Y-70352293D01*
X221264405Y-70369087D01*
X221198271Y-70346548D01*
X221159234Y-70301495D01*
X221154626Y-70292452D01*
X221115270Y-70238282D01*
X220482962Y-70870590D01*
X220465925Y-70807007D01*
X220400099Y-70692993D01*
X220307007Y-70599901D01*
X220192993Y-70534075D01*
X220129409Y-70517037D01*
X220761716Y-69884728D01*
X220707550Y-69845375D01*
X220518217Y-69748904D01*
X220316129Y-69683242D01*
X220106246Y-69650000D01*
X219893754Y-69650000D01*
X219683872Y-69683242D01*
X219683869Y-69683242D01*
X219481782Y-69748904D01*
X219292439Y-69845380D01*
X219238282Y-69884727D01*
X219238282Y-69884728D01*
X219870591Y-70517037D01*
X219807007Y-70534075D01*
X219692993Y-70599901D01*
X219599901Y-70692993D01*
X219534075Y-70807007D01*
X219517037Y-70870591D01*
X218846818Y-70200372D01*
X218813333Y-70139049D01*
X218813330Y-70139036D01*
X218810499Y-70126015D01*
X218810499Y-70102128D01*
X218804091Y-70042517D01*
X218755480Y-69912184D01*
X218753798Y-69907673D01*
X218753793Y-69907664D01*
X218667547Y-69792455D01*
X218667544Y-69792452D01*
X218552335Y-69706206D01*
X218552328Y-69706202D01*
X218417482Y-69655908D01*
X218417483Y-69655908D01*
X218357883Y-69649501D01*
X218357881Y-69649500D01*
X218357873Y-69649500D01*
X218357864Y-69649500D01*
X216562129Y-69649500D01*
X216562123Y-69649501D01*
X216502516Y-69655908D01*
X216367671Y-69706202D01*
X216367664Y-69706206D01*
X216252455Y-69792452D01*
X216252452Y-69792455D01*
X216166206Y-69907664D01*
X216166202Y-69907671D01*
X216115908Y-70042517D01*
X216109558Y-70101585D01*
X216109501Y-70102123D01*
X216109500Y-70102135D01*
X208251735Y-70102135D01*
X208251557Y-70101588D01*
X208155051Y-69912184D01*
X208155049Y-69912181D01*
X208155048Y-69912179D01*
X208030109Y-69740213D01*
X207879786Y-69589890D01*
X207707820Y-69464951D01*
X207707115Y-69464591D01*
X207699054Y-69460485D01*
X207648259Y-69412512D01*
X207631463Y-69344692D01*
X207653999Y-69278556D01*
X207699054Y-69239515D01*
X207707816Y-69235051D01*
X207729789Y-69219086D01*
X207879786Y-69110109D01*
X207879788Y-69110106D01*
X207879792Y-69110104D01*
X208030104Y-68959792D01*
X208030106Y-68959788D01*
X208030109Y-68959786D01*
X208155048Y-68787820D01*
X208155047Y-68787820D01*
X208155051Y-68787816D01*
X208251557Y-68598412D01*
X208317246Y-68396243D01*
X208350500Y-68186287D01*
X208350500Y-67973713D01*
X208317246Y-67763757D01*
X208251557Y-67561588D01*
X208155051Y-67372184D01*
X208155049Y-67372181D01*
X208155048Y-67372179D01*
X208030109Y-67200213D01*
X207879786Y-67049890D01*
X207707820Y-66924951D01*
X207707115Y-66924591D01*
X207699054Y-66920485D01*
X207648259Y-66872512D01*
X207631463Y-66804692D01*
X207653999Y-66738556D01*
X207699054Y-66699515D01*
X207707816Y-66695051D01*
X207764320Y-66653999D01*
X207879786Y-66570109D01*
X207879788Y-66570106D01*
X207879792Y-66570104D01*
X208030104Y-66419792D01*
X208030106Y-66419788D01*
X208030109Y-66419786D01*
X208155048Y-66247820D01*
X208155047Y-66247820D01*
X208155051Y-66247816D01*
X208251557Y-66058412D01*
X208317246Y-65856243D01*
X208350500Y-65646287D01*
X208350500Y-65433713D01*
X208317246Y-65223757D01*
X208277728Y-65102135D01*
X216109500Y-65102135D01*
X216109500Y-66897870D01*
X216109501Y-66897876D01*
X216115908Y-66957483D01*
X216166202Y-67092328D01*
X216166206Y-67092335D01*
X216252452Y-67207544D01*
X216252455Y-67207547D01*
X216367664Y-67293793D01*
X216367671Y-67293797D01*
X216502517Y-67344091D01*
X216502516Y-67344091D01*
X216509444Y-67344835D01*
X216562127Y-67350500D01*
X218357872Y-67350499D01*
X218417483Y-67344091D01*
X218552331Y-67293796D01*
X218667546Y-67207546D01*
X218753796Y-67092331D01*
X218804091Y-66957483D01*
X218810500Y-66897873D01*
X218810499Y-66873979D01*
X218813330Y-66860963D01*
X218823940Y-66841525D01*
X218830179Y-66820275D01*
X218846803Y-66799643D01*
X218846808Y-66799636D01*
X218846811Y-66799634D01*
X218846818Y-66799626D01*
X219517037Y-66129408D01*
X219534075Y-66192993D01*
X219599901Y-66307007D01*
X219692993Y-66400099D01*
X219807007Y-66465925D01*
X219870590Y-66482962D01*
X219238282Y-67115269D01*
X219238282Y-67115270D01*
X219292449Y-67154624D01*
X219481782Y-67251095D01*
X219683870Y-67316757D01*
X219893754Y-67350000D01*
X220106246Y-67350000D01*
X220316127Y-67316757D01*
X220316130Y-67316757D01*
X220518217Y-67251095D01*
X220707554Y-67154622D01*
X220761716Y-67115270D01*
X220761717Y-67115270D01*
X220129408Y-66482962D01*
X220192993Y-66465925D01*
X220307007Y-66400099D01*
X220400099Y-66307007D01*
X220465925Y-66192993D01*
X220482962Y-66129408D01*
X221115270Y-66761717D01*
X221115270Y-66761716D01*
X221154622Y-66707555D01*
X221159232Y-66698507D01*
X221207205Y-66647709D01*
X221275025Y-66630912D01*
X221341161Y-66653447D01*
X221380204Y-66698504D01*
X221384949Y-66707817D01*
X221509890Y-66879786D01*
X221660213Y-67030109D01*
X221832179Y-67155048D01*
X221832181Y-67155049D01*
X221832184Y-67155051D01*
X222021588Y-67251557D01*
X222223757Y-67317246D01*
X222433713Y-67350500D01*
X222433714Y-67350500D01*
X222646286Y-67350500D01*
X222646287Y-67350500D01*
X222856243Y-67317246D01*
X223058412Y-67251557D01*
X223247816Y-67155051D01*
X223334138Y-67092335D01*
X223419786Y-67030109D01*
X223419788Y-67030106D01*
X223419792Y-67030104D01*
X223570104Y-66879792D01*
X223570106Y-66879788D01*
X223570109Y-66879786D01*
X223695048Y-66707820D01*
X223695047Y-66707820D01*
X223695051Y-66707816D01*
X223699514Y-66699054D01*
X223747488Y-66648259D01*
X223815308Y-66631463D01*
X223881444Y-66653999D01*
X223920486Y-66699056D01*
X223924951Y-66707820D01*
X224049890Y-66879786D01*
X224200213Y-67030109D01*
X224372179Y-67155048D01*
X224372181Y-67155049D01*
X224372184Y-67155051D01*
X224561588Y-67251557D01*
X224763757Y-67317246D01*
X224973713Y-67350500D01*
X224973714Y-67350500D01*
X225186286Y-67350500D01*
X225186287Y-67350500D01*
X225396243Y-67317246D01*
X225598412Y-67251557D01*
X225787816Y-67155051D01*
X225874138Y-67092335D01*
X225959786Y-67030109D01*
X225959788Y-67030106D01*
X225959792Y-67030104D01*
X226110104Y-66879792D01*
X226110106Y-66879788D01*
X226110109Y-66879786D01*
X226195890Y-66761717D01*
X226235051Y-66707816D01*
X226239793Y-66698508D01*
X226287763Y-66647711D01*
X226355583Y-66630911D01*
X226421719Y-66653445D01*
X226460763Y-66698500D01*
X226465373Y-66707547D01*
X226504728Y-66761716D01*
X227137037Y-66129408D01*
X227154075Y-66192993D01*
X227219901Y-66307007D01*
X227312993Y-66400099D01*
X227427007Y-66465925D01*
X227490590Y-66482962D01*
X226858282Y-67115269D01*
X226858282Y-67115270D01*
X226912449Y-67154624D01*
X227101782Y-67251095D01*
X227303870Y-67316757D01*
X227513754Y-67350000D01*
X227726246Y-67350000D01*
X227936127Y-67316757D01*
X227936130Y-67316757D01*
X228138217Y-67251095D01*
X228327554Y-67154622D01*
X228381716Y-67115270D01*
X228381717Y-67115270D01*
X227749408Y-66482962D01*
X227812993Y-66465925D01*
X227927007Y-66400099D01*
X228020099Y-66307007D01*
X228085925Y-66192993D01*
X228102962Y-66129408D01*
X228735270Y-66761717D01*
X228735270Y-66761716D01*
X228774622Y-66707554D01*
X228779514Y-66697954D01*
X228827488Y-66647157D01*
X228895308Y-66630361D01*
X228961444Y-66652897D01*
X229000486Y-66697954D01*
X229005375Y-66707550D01*
X229044728Y-66761716D01*
X229677037Y-66129408D01*
X229694075Y-66192993D01*
X229759901Y-66307007D01*
X229852993Y-66400099D01*
X229967007Y-66465925D01*
X230030590Y-66482962D01*
X229398282Y-67115269D01*
X229398282Y-67115270D01*
X229452449Y-67154624D01*
X229641782Y-67251095D01*
X229843870Y-67316757D01*
X230053754Y-67350000D01*
X230266246Y-67350000D01*
X230476127Y-67316757D01*
X230476130Y-67316757D01*
X230678217Y-67251095D01*
X230867554Y-67154622D01*
X230921716Y-67115270D01*
X230921717Y-67115270D01*
X230289408Y-66482962D01*
X230352993Y-66465925D01*
X230467007Y-66400099D01*
X230560099Y-66307007D01*
X230625925Y-66192993D01*
X230642962Y-66129408D01*
X231275270Y-66761717D01*
X231275270Y-66761716D01*
X231314622Y-66707554D01*
X231411095Y-66518217D01*
X231476757Y-66316130D01*
X231476757Y-66316127D01*
X231510000Y-66106246D01*
X231510000Y-65893753D01*
X231476757Y-65683872D01*
X231476757Y-65683869D01*
X231411095Y-65481782D01*
X231314624Y-65292449D01*
X231275270Y-65238282D01*
X231275269Y-65238282D01*
X230642962Y-65870590D01*
X230625925Y-65807007D01*
X230560099Y-65692993D01*
X230467007Y-65599901D01*
X230352993Y-65534075D01*
X230289409Y-65517037D01*
X230921716Y-64884728D01*
X230867550Y-64845375D01*
X230678217Y-64748904D01*
X230476129Y-64683242D01*
X230266246Y-64650000D01*
X230053754Y-64650000D01*
X229843872Y-64683242D01*
X229843869Y-64683242D01*
X229641782Y-64748904D01*
X229452439Y-64845380D01*
X229398282Y-64884727D01*
X229398282Y-64884728D01*
X230030591Y-65517037D01*
X229967007Y-65534075D01*
X229852993Y-65599901D01*
X229759901Y-65692993D01*
X229694075Y-65807007D01*
X229677037Y-65870591D01*
X229044728Y-65238282D01*
X229044727Y-65238282D01*
X229005380Y-65292440D01*
X229000483Y-65302051D01*
X228952506Y-65352845D01*
X228884684Y-65369638D01*
X228818550Y-65347098D01*
X228779516Y-65302048D01*
X228774626Y-65292452D01*
X228735270Y-65238282D01*
X228735269Y-65238282D01*
X228102962Y-65870590D01*
X228085925Y-65807007D01*
X228020099Y-65692993D01*
X227927007Y-65599901D01*
X227812993Y-65534075D01*
X227749409Y-65517037D01*
X228381716Y-64884728D01*
X228327550Y-64845375D01*
X228138217Y-64748904D01*
X227936129Y-64683242D01*
X227726246Y-64650000D01*
X227513754Y-64650000D01*
X227303872Y-64683242D01*
X227303869Y-64683242D01*
X227101782Y-64748904D01*
X226912439Y-64845380D01*
X226858282Y-64884727D01*
X226858282Y-64884728D01*
X227490591Y-65517037D01*
X227427007Y-65534075D01*
X227312993Y-65599901D01*
X227219901Y-65692993D01*
X227154075Y-65807007D01*
X227137037Y-65870591D01*
X226504728Y-65238282D01*
X226504727Y-65238282D01*
X226465380Y-65292440D01*
X226465376Y-65292446D01*
X226460760Y-65301505D01*
X226412781Y-65352297D01*
X226344959Y-65369087D01*
X226278826Y-65346543D01*
X226239794Y-65301493D01*
X226235051Y-65292184D01*
X226235049Y-65292181D01*
X226235048Y-65292179D01*
X226110109Y-65120213D01*
X225959786Y-64969890D01*
X225787820Y-64844951D01*
X225598414Y-64748444D01*
X225598413Y-64748443D01*
X225598412Y-64748443D01*
X225396243Y-64682754D01*
X225396241Y-64682753D01*
X225396240Y-64682753D01*
X225234957Y-64657208D01*
X225186287Y-64649500D01*
X224973713Y-64649500D01*
X224925042Y-64657208D01*
X224763760Y-64682753D01*
X224561585Y-64748444D01*
X224372179Y-64844951D01*
X224200213Y-64969890D01*
X224049890Y-65120213D01*
X223924949Y-65292182D01*
X223920484Y-65300946D01*
X223872509Y-65351742D01*
X223804688Y-65368536D01*
X223738553Y-65345998D01*
X223699516Y-65300946D01*
X223695050Y-65292182D01*
X223570109Y-65120213D01*
X223419786Y-64969890D01*
X223247820Y-64844951D01*
X223058414Y-64748444D01*
X223058413Y-64748443D01*
X223058412Y-64748443D01*
X222856243Y-64682754D01*
X222856241Y-64682753D01*
X222856240Y-64682753D01*
X222694957Y-64657208D01*
X222646287Y-64649500D01*
X222433713Y-64649500D01*
X222385042Y-64657208D01*
X222223760Y-64682753D01*
X222021585Y-64748444D01*
X221832179Y-64844951D01*
X221660213Y-64969890D01*
X221509890Y-65120213D01*
X221384949Y-65292182D01*
X221380202Y-65301499D01*
X221332227Y-65352293D01*
X221264405Y-65369087D01*
X221198271Y-65346548D01*
X221159234Y-65301495D01*
X221154626Y-65292452D01*
X221115270Y-65238282D01*
X220482962Y-65870590D01*
X220465925Y-65807007D01*
X220400099Y-65692993D01*
X220307007Y-65599901D01*
X220192993Y-65534075D01*
X220129409Y-65517037D01*
X220761716Y-64884728D01*
X220707550Y-64845375D01*
X220518217Y-64748904D01*
X220316129Y-64683242D01*
X220106246Y-64650000D01*
X219893754Y-64650000D01*
X219683872Y-64683242D01*
X219683869Y-64683242D01*
X219481782Y-64748904D01*
X219292439Y-64845380D01*
X219238282Y-64884727D01*
X219238282Y-64884728D01*
X219870591Y-65517037D01*
X219807007Y-65534075D01*
X219692993Y-65599901D01*
X219599901Y-65692993D01*
X219534075Y-65807007D01*
X219517037Y-65870591D01*
X218846818Y-65200372D01*
X218813333Y-65139049D01*
X218813330Y-65139036D01*
X218810499Y-65126015D01*
X218810499Y-65102128D01*
X218804091Y-65042517D01*
X218775926Y-64967002D01*
X218753798Y-64907673D01*
X218753793Y-64907664D01*
X218667547Y-64792455D01*
X218667544Y-64792452D01*
X218552335Y-64706206D01*
X218552328Y-64706202D01*
X218417482Y-64655908D01*
X218417483Y-64655908D01*
X218357883Y-64649501D01*
X218357881Y-64649500D01*
X218357873Y-64649500D01*
X218357864Y-64649500D01*
X216562129Y-64649500D01*
X216562123Y-64649501D01*
X216502516Y-64655908D01*
X216367671Y-64706202D01*
X216367664Y-64706206D01*
X216252455Y-64792452D01*
X216252452Y-64792455D01*
X216166206Y-64907664D01*
X216166202Y-64907671D01*
X216115908Y-65042517D01*
X216109501Y-65102116D01*
X216109501Y-65102123D01*
X216109500Y-65102135D01*
X208277728Y-65102135D01*
X208251557Y-65021588D01*
X208155051Y-64832184D01*
X208155049Y-64832181D01*
X208155048Y-64832179D01*
X208030109Y-64660213D01*
X207879786Y-64509890D01*
X207707820Y-64384951D01*
X207707115Y-64384591D01*
X207699054Y-64380485D01*
X207648259Y-64332512D01*
X207631463Y-64264692D01*
X207653999Y-64198556D01*
X207699054Y-64159515D01*
X207707816Y-64155051D01*
X207729789Y-64139086D01*
X207879786Y-64030109D01*
X207879788Y-64030106D01*
X207879792Y-64030104D01*
X208030104Y-63879792D01*
X208030106Y-63879788D01*
X208030109Y-63879786D01*
X208155048Y-63707820D01*
X208155047Y-63707820D01*
X208155051Y-63707816D01*
X208251557Y-63518412D01*
X208317246Y-63316243D01*
X208350500Y-63106287D01*
X208350500Y-62893713D01*
X208317246Y-62683757D01*
X208251557Y-62481588D01*
X208155051Y-62292184D01*
X208155049Y-62292181D01*
X208155048Y-62292179D01*
X208030109Y-62120213D01*
X207916181Y-62006285D01*
X207882696Y-61944962D01*
X207887680Y-61875270D01*
X207929552Y-61819337D01*
X207960529Y-61802422D01*
X208092086Y-61753354D01*
X208092093Y-61753350D01*
X208207187Y-61667190D01*
X208207190Y-61667187D01*
X208293350Y-61552093D01*
X208293354Y-61552086D01*
X208343596Y-61417379D01*
X208343598Y-61417372D01*
X208349999Y-61357844D01*
X208350000Y-61357827D01*
X208350000Y-60710000D01*
X207433012Y-60710000D01*
X207465925Y-60652993D01*
X207500000Y-60525826D01*
X207500000Y-60394174D01*
X207465925Y-60267007D01*
X207433012Y-60210000D01*
X208350000Y-60210000D01*
X208350000Y-60102135D01*
X216109500Y-60102135D01*
X216109500Y-61897870D01*
X216109501Y-61897876D01*
X216115908Y-61957483D01*
X216166202Y-62092328D01*
X216166206Y-62092335D01*
X216252452Y-62207544D01*
X216252455Y-62207547D01*
X216367664Y-62293793D01*
X216367671Y-62293797D01*
X216502517Y-62344091D01*
X216502516Y-62344091D01*
X216509444Y-62344835D01*
X216562127Y-62350500D01*
X218357872Y-62350499D01*
X218417483Y-62344091D01*
X218552331Y-62293796D01*
X218667546Y-62207546D01*
X218753796Y-62092331D01*
X218804091Y-61957483D01*
X218810500Y-61897873D01*
X218810499Y-61873979D01*
X218813330Y-61860963D01*
X218823940Y-61841525D01*
X218830179Y-61820275D01*
X218846803Y-61799643D01*
X218846808Y-61799636D01*
X218846811Y-61799634D01*
X218846818Y-61799626D01*
X219517037Y-61129408D01*
X219534075Y-61192993D01*
X219599901Y-61307007D01*
X219692993Y-61400099D01*
X219807007Y-61465925D01*
X219870590Y-61482962D01*
X219238282Y-62115269D01*
X219238282Y-62115270D01*
X219292449Y-62154624D01*
X219481782Y-62251095D01*
X219683870Y-62316757D01*
X219893754Y-62350000D01*
X220106246Y-62350000D01*
X220316127Y-62316757D01*
X220316130Y-62316757D01*
X220518217Y-62251095D01*
X220707554Y-62154622D01*
X220761716Y-62115270D01*
X220761717Y-62115270D01*
X220129408Y-61482962D01*
X220192993Y-61465925D01*
X220307007Y-61400099D01*
X220400099Y-61307007D01*
X220465925Y-61192993D01*
X220482962Y-61129408D01*
X221115270Y-61761717D01*
X221115270Y-61761716D01*
X221154622Y-61707555D01*
X221159232Y-61698507D01*
X221207205Y-61647709D01*
X221275025Y-61630912D01*
X221341161Y-61653447D01*
X221380204Y-61698504D01*
X221384949Y-61707817D01*
X221509890Y-61879786D01*
X221660213Y-62030109D01*
X221832179Y-62155048D01*
X221832181Y-62155049D01*
X221832184Y-62155051D01*
X222021588Y-62251557D01*
X222223757Y-62317246D01*
X222433713Y-62350500D01*
X222433714Y-62350500D01*
X222646286Y-62350500D01*
X222646287Y-62350500D01*
X222856243Y-62317246D01*
X223058412Y-62251557D01*
X223247816Y-62155051D01*
X223334138Y-62092335D01*
X223419786Y-62030109D01*
X223419788Y-62030106D01*
X223419792Y-62030104D01*
X223570104Y-61879792D01*
X223570106Y-61879788D01*
X223570109Y-61879786D01*
X223695048Y-61707820D01*
X223695047Y-61707820D01*
X223695051Y-61707816D01*
X223699514Y-61699054D01*
X223747488Y-61648259D01*
X223815308Y-61631463D01*
X223881444Y-61653999D01*
X223920486Y-61699056D01*
X223924951Y-61707820D01*
X224049890Y-61879786D01*
X224200213Y-62030109D01*
X224372179Y-62155048D01*
X224372181Y-62155049D01*
X224372184Y-62155051D01*
X224561588Y-62251557D01*
X224763757Y-62317246D01*
X224973713Y-62350500D01*
X224973714Y-62350500D01*
X225186286Y-62350500D01*
X225186287Y-62350500D01*
X225396243Y-62317246D01*
X225598412Y-62251557D01*
X225787816Y-62155051D01*
X225874138Y-62092335D01*
X225959786Y-62030109D01*
X225959788Y-62030106D01*
X225959792Y-62030104D01*
X226110104Y-61879792D01*
X226110106Y-61879788D01*
X226110109Y-61879786D01*
X226195890Y-61761717D01*
X226235051Y-61707816D01*
X226239793Y-61698508D01*
X226287763Y-61647711D01*
X226355583Y-61630911D01*
X226421719Y-61653445D01*
X226460763Y-61698500D01*
X226465373Y-61707547D01*
X226504728Y-61761716D01*
X227137037Y-61129408D01*
X227154075Y-61192993D01*
X227219901Y-61307007D01*
X227312993Y-61400099D01*
X227427007Y-61465925D01*
X227490590Y-61482962D01*
X226858282Y-62115269D01*
X226858282Y-62115270D01*
X226912449Y-62154624D01*
X227101782Y-62251095D01*
X227303870Y-62316757D01*
X227513754Y-62350000D01*
X227726246Y-62350000D01*
X227936127Y-62316757D01*
X227936130Y-62316757D01*
X228138217Y-62251095D01*
X228327554Y-62154622D01*
X228381716Y-62115270D01*
X228381717Y-62115270D01*
X227749408Y-61482962D01*
X227812993Y-61465925D01*
X227927007Y-61400099D01*
X228020099Y-61307007D01*
X228085925Y-61192993D01*
X228102962Y-61129408D01*
X228735270Y-61761717D01*
X228735270Y-61761716D01*
X228774622Y-61707555D01*
X228779232Y-61698507D01*
X228827205Y-61647709D01*
X228895025Y-61630912D01*
X228961161Y-61653447D01*
X229000204Y-61698504D01*
X229004949Y-61707817D01*
X229129890Y-61879786D01*
X229280213Y-62030109D01*
X229452179Y-62155048D01*
X229452181Y-62155049D01*
X229452184Y-62155051D01*
X229641588Y-62251557D01*
X229843757Y-62317246D01*
X230053713Y-62350500D01*
X230053714Y-62350500D01*
X230266286Y-62350500D01*
X230266287Y-62350500D01*
X230476243Y-62317246D01*
X230678412Y-62251557D01*
X230867816Y-62155051D01*
X230954138Y-62092335D01*
X231039786Y-62030109D01*
X231039788Y-62030106D01*
X231039792Y-62030104D01*
X231190104Y-61879792D01*
X231190106Y-61879788D01*
X231190109Y-61879786D01*
X231315048Y-61707820D01*
X231315047Y-61707820D01*
X231315051Y-61707816D01*
X231411557Y-61518412D01*
X231477246Y-61316243D01*
X231510500Y-61106287D01*
X231510500Y-60893713D01*
X231477246Y-60683757D01*
X231411557Y-60481588D01*
X231315051Y-60292184D01*
X231315049Y-60292181D01*
X231315048Y-60292179D01*
X231190109Y-60120213D01*
X231039786Y-59969890D01*
X230867820Y-59844951D01*
X230678414Y-59748444D01*
X230678413Y-59748443D01*
X230678412Y-59748443D01*
X230476243Y-59682754D01*
X230476241Y-59682753D01*
X230476240Y-59682753D01*
X230314957Y-59657208D01*
X230266287Y-59649500D01*
X230053713Y-59649500D01*
X230005042Y-59657208D01*
X229843760Y-59682753D01*
X229641585Y-59748444D01*
X229452179Y-59844951D01*
X229280213Y-59969890D01*
X229129890Y-60120213D01*
X229004949Y-60292182D01*
X229000202Y-60301499D01*
X228952227Y-60352293D01*
X228884405Y-60369087D01*
X228818271Y-60346548D01*
X228779234Y-60301495D01*
X228774626Y-60292452D01*
X228735270Y-60238282D01*
X228102962Y-60870590D01*
X228085925Y-60807007D01*
X228020099Y-60692993D01*
X227927007Y-60599901D01*
X227812993Y-60534075D01*
X227749409Y-60517037D01*
X228381716Y-59884728D01*
X228327550Y-59845375D01*
X228138217Y-59748904D01*
X227936129Y-59683242D01*
X227726246Y-59650000D01*
X227513754Y-59650000D01*
X227303872Y-59683242D01*
X227303869Y-59683242D01*
X227101782Y-59748904D01*
X226912439Y-59845380D01*
X226858282Y-59884727D01*
X226858282Y-59884728D01*
X227490591Y-60517037D01*
X227427007Y-60534075D01*
X227312993Y-60599901D01*
X227219901Y-60692993D01*
X227154075Y-60807007D01*
X227137037Y-60870591D01*
X226504728Y-60238282D01*
X226504727Y-60238282D01*
X226465380Y-60292440D01*
X226465376Y-60292446D01*
X226460760Y-60301505D01*
X226412781Y-60352297D01*
X226344959Y-60369087D01*
X226278826Y-60346543D01*
X226239794Y-60301493D01*
X226235051Y-60292184D01*
X226235049Y-60292181D01*
X226235048Y-60292179D01*
X226110109Y-60120213D01*
X225959786Y-59969890D01*
X225787820Y-59844951D01*
X225598414Y-59748444D01*
X225598413Y-59748443D01*
X225598412Y-59748443D01*
X225396243Y-59682754D01*
X225396241Y-59682753D01*
X225396240Y-59682753D01*
X225234957Y-59657208D01*
X225186287Y-59649500D01*
X224973713Y-59649500D01*
X224925042Y-59657208D01*
X224763760Y-59682753D01*
X224561585Y-59748444D01*
X224372179Y-59844951D01*
X224200213Y-59969890D01*
X224049890Y-60120213D01*
X223924949Y-60292182D01*
X223920484Y-60300946D01*
X223872509Y-60351742D01*
X223804688Y-60368536D01*
X223738553Y-60345998D01*
X223699516Y-60300946D01*
X223695050Y-60292182D01*
X223570109Y-60120213D01*
X223419786Y-59969890D01*
X223247820Y-59844951D01*
X223058414Y-59748444D01*
X223058413Y-59748443D01*
X223058412Y-59748443D01*
X222856243Y-59682754D01*
X222856241Y-59682753D01*
X222856240Y-59682753D01*
X222694957Y-59657208D01*
X222646287Y-59649500D01*
X222433713Y-59649500D01*
X222385042Y-59657208D01*
X222223760Y-59682753D01*
X222021585Y-59748444D01*
X221832179Y-59844951D01*
X221660213Y-59969890D01*
X221509890Y-60120213D01*
X221384949Y-60292182D01*
X221380202Y-60301499D01*
X221332227Y-60352293D01*
X221264405Y-60369087D01*
X221198271Y-60346548D01*
X221159234Y-60301495D01*
X221154626Y-60292452D01*
X221115270Y-60238282D01*
X220482962Y-60870590D01*
X220465925Y-60807007D01*
X220400099Y-60692993D01*
X220307007Y-60599901D01*
X220192993Y-60534075D01*
X220129409Y-60517037D01*
X220761716Y-59884728D01*
X220707550Y-59845375D01*
X220518217Y-59748904D01*
X220316129Y-59683242D01*
X220106246Y-59650000D01*
X219893754Y-59650000D01*
X219683872Y-59683242D01*
X219683869Y-59683242D01*
X219481782Y-59748904D01*
X219292439Y-59845380D01*
X219238282Y-59884727D01*
X219238282Y-59884728D01*
X219870591Y-60517037D01*
X219807007Y-60534075D01*
X219692993Y-60599901D01*
X219599901Y-60692993D01*
X219534075Y-60807007D01*
X219517037Y-60870591D01*
X218846818Y-60200372D01*
X218813333Y-60139049D01*
X218813330Y-60139036D01*
X218810499Y-60126015D01*
X218810499Y-60102128D01*
X218804091Y-60042517D01*
X218760074Y-59924500D01*
X218753798Y-59907673D01*
X218753793Y-59907664D01*
X218667547Y-59792455D01*
X218667544Y-59792452D01*
X218552335Y-59706206D01*
X218552328Y-59706202D01*
X218417482Y-59655908D01*
X218417483Y-59655908D01*
X218357883Y-59649501D01*
X218357881Y-59649500D01*
X218357873Y-59649500D01*
X218357864Y-59649500D01*
X216562129Y-59649500D01*
X216562123Y-59649501D01*
X216502516Y-59655908D01*
X216367671Y-59706202D01*
X216367664Y-59706206D01*
X216252455Y-59792452D01*
X216252452Y-59792455D01*
X216166206Y-59907664D01*
X216166202Y-59907671D01*
X216115908Y-60042517D01*
X216109501Y-60102116D01*
X216109501Y-60102123D01*
X216109500Y-60102135D01*
X208350000Y-60102135D01*
X208350000Y-59562172D01*
X208349999Y-59562155D01*
X208343598Y-59502627D01*
X208343596Y-59502620D01*
X208293354Y-59367913D01*
X208293350Y-59367906D01*
X208207190Y-59252812D01*
X208207187Y-59252809D01*
X208092093Y-59166649D01*
X208092086Y-59166645D01*
X207957379Y-59116403D01*
X207957372Y-59116401D01*
X207897844Y-59110000D01*
X207250000Y-59110000D01*
X207250000Y-60026988D01*
X207192993Y-59994075D01*
X207065826Y-59960000D01*
X206934174Y-59960000D01*
X206807007Y-59994075D01*
X206750000Y-60026988D01*
X206750000Y-59110000D01*
X206102155Y-59110000D01*
X206042627Y-59116401D01*
X206042620Y-59116403D01*
X205907913Y-59166645D01*
X205907906Y-59166649D01*
X205792812Y-59252809D01*
X205792809Y-59252812D01*
X205706649Y-59367906D01*
X205706645Y-59367913D01*
X205656403Y-59502620D01*
X205656401Y-59502627D01*
X205650000Y-59562155D01*
X205650000Y-60210000D01*
X206566988Y-60210000D01*
X206534075Y-60267007D01*
X206500000Y-60394174D01*
X206500000Y-60525826D01*
X206534075Y-60652993D01*
X206566988Y-60710000D01*
X205650000Y-60710000D01*
X205650000Y-61357844D01*
X205656401Y-61417372D01*
X205656403Y-61417379D01*
X205706645Y-61552086D01*
X205706649Y-61552093D01*
X205792809Y-61667187D01*
X205792812Y-61667190D01*
X205907906Y-61753350D01*
X205907913Y-61753354D01*
X206039470Y-61802422D01*
X206095404Y-61844293D01*
X206119821Y-61909758D01*
X206104969Y-61978031D01*
X206083819Y-62006285D01*
X205969889Y-62120215D01*
X205844951Y-62292179D01*
X205748444Y-62481585D01*
X205682753Y-62683760D01*
X205649500Y-62893713D01*
X193025500Y-62893713D01*
X192992246Y-62683757D01*
X192926557Y-62481588D01*
X192830051Y-62292184D01*
X192830049Y-62292181D01*
X192830048Y-62292179D01*
X192705109Y-62120213D01*
X192591569Y-62006673D01*
X192558084Y-61945350D01*
X192563068Y-61875658D01*
X192604940Y-61819725D01*
X192635915Y-61802810D01*
X192767331Y-61753796D01*
X192882546Y-61667546D01*
X192968796Y-61552331D01*
X193019091Y-61417483D01*
X193025500Y-61357873D01*
X193025499Y-59562128D01*
X193019091Y-59502517D01*
X193012837Y-59485750D01*
X192968797Y-59367671D01*
X192968793Y-59367664D01*
X192882547Y-59252455D01*
X192882544Y-59252452D01*
X192767335Y-59166206D01*
X192767328Y-59166202D01*
X192632482Y-59115908D01*
X192632483Y-59115908D01*
X192572883Y-59109501D01*
X192572881Y-59109500D01*
X192572873Y-59109500D01*
X192572864Y-59109500D01*
X190777129Y-59109500D01*
X190777123Y-59109501D01*
X190717516Y-59115908D01*
X190582671Y-59166202D01*
X190582664Y-59166206D01*
X190467455Y-59252452D01*
X190467452Y-59252455D01*
X190381206Y-59367664D01*
X190381202Y-59367671D01*
X190330908Y-59502517D01*
X190324501Y-59562116D01*
X190324501Y-59562123D01*
X190324500Y-59562135D01*
X164543754Y-59562135D01*
X164571780Y-59409197D01*
X164575364Y-59394663D01*
X164583776Y-59367669D01*
X164660696Y-59120822D01*
X164665998Y-59106841D01*
X164783731Y-58845249D01*
X164790676Y-58832016D01*
X164939080Y-58586526D01*
X164947567Y-58574230D01*
X165124480Y-58348417D01*
X165134395Y-58337226D01*
X165337226Y-58134395D01*
X165348417Y-58124480D01*
X165574230Y-57947567D01*
X165586526Y-57939080D01*
X165832016Y-57790676D01*
X165845249Y-57783731D01*
X166106841Y-57665998D01*
X166120822Y-57660696D01*
X166394668Y-57575362D01*
X166409197Y-57571780D01*
X166691344Y-57520075D01*
X166706201Y-57518271D01*
X166996264Y-57500726D01*
X167003751Y-57500500D01*
X167065892Y-57500500D01*
X230934108Y-57500500D01*
X230996249Y-57500500D01*
X231003736Y-57500726D01*
G37*
%TD.AperFunction*%
%TD*%
M02*
