M48
; DRILL file {KiCad 9.0.5} date 2025-10-11T11:12:28-0400
; FORMAT={-:-/ absolute / metric / decimal}
; #@! TF.CreationDate,2025-10-11T11:12:28-04:00
; #@! TF.GenerationSoftware,Kicad,Pcbnew,9.0.5
; #@! TF.FileFunction,Plated,1,2,PTH
FMAT,2
METRIC
; #@! TA.AperFunction,Plated,PTH,ComponentDrill
T1C1.000
%
G90
G05
T1
X168.3Y-61.0
X168.3Y-76.0
X168.34Y-66.0
X168.34Y-71.0
X170.84Y-61.0
X170.84Y-76.0
X170.88Y-66.0
X170.88Y-71.0
X173.38Y-61.0
X173.38Y-76.0
X173.42Y-66.0
X173.42Y-71.0
X175.92Y-61.0
X175.92Y-76.0
X175.96Y-66.0
X175.96Y-71.0
X178.46Y-61.0
X178.46Y-76.0
X178.5Y-66.0
X178.5Y-71.0
X181.0Y-61.0
X181.0Y-76.0
X181.04Y-66.0
X181.04Y-71.0
X191.675Y-60.46
X191.675Y-63.0
X191.675Y-65.54
X191.675Y-68.08
X191.675Y-70.62
X191.675Y-73.16
X191.675Y-75.7
X207.0Y-60.46
X207.0Y-63.0
X207.0Y-65.54
X207.0Y-68.08
X207.0Y-70.62
X207.0Y-73.16
X207.0Y-75.7
X217.42Y-76.0
X217.46Y-61.0
X217.46Y-66.0
X217.46Y-71.0
X219.96Y-76.0
X220.0Y-61.0
X220.0Y-66.0
X220.0Y-71.0
X222.5Y-76.0
X222.54Y-61.0
X222.54Y-66.0
X222.54Y-71.0
X225.04Y-76.0
X225.08Y-61.0
X225.08Y-66.0
X225.08Y-71.0
X227.58Y-76.0
X227.62Y-61.0
X227.62Y-66.0
X227.62Y-71.0
X230.12Y-76.0
X230.16Y-61.0
X230.16Y-66.0
X230.16Y-71.0
M30
