%TF.GenerationSoftware,KiCad,Pcbnew,9.0.5*%
%TF.CreationDate,2025-10-11T00:16:22-04:00*%
%TF.ProjectId,audio-board,61756469-6f2d-4626-9f61-72642e6b6963,rev?*%
%TF.SameCoordinates,Original*%
%TF.FileFunction,Legend,Top*%
%TF.FilePolarity,Positive*%
%FSLAX46Y46*%
G04 Gerber Fmt 4.6, Leading zero omitted, Abs format (unit mm)*
G04 Created by KiCad (PCBNEW 9.0.5) date 2025-10-11 00:16:22*
%MOMM*%
%LPD*%
G01*
G04 APERTURE LIST*
%ADD10C,0.150000*%
%ADD11C,0.120000*%
%ADD12C,0.100000*%
G04 APERTURE END LIST*
D10*
X141140476Y-71684819D02*
X141140476Y-70684819D01*
X141140476Y-70684819D02*
X141473809Y-71399104D01*
X141473809Y-71399104D02*
X141807142Y-70684819D01*
X141807142Y-70684819D02*
X141807142Y-71684819D01*
X142283333Y-71684819D02*
X142283333Y-70684819D01*
X142854761Y-71684819D02*
X142426190Y-71113390D01*
X142854761Y-70684819D02*
X142283333Y-71256247D01*
X143807142Y-71684819D02*
X143235714Y-71684819D01*
X143521428Y-71684819D02*
X143521428Y-70684819D01*
X143521428Y-70684819D02*
X143426190Y-70827676D01*
X143426190Y-70827676D02*
X143330952Y-70922914D01*
X143330952Y-70922914D02*
X143235714Y-70970533D01*
X132524819Y-85333333D02*
X133239104Y-85333333D01*
X133239104Y-85333333D02*
X133381961Y-85380952D01*
X133381961Y-85380952D02*
X133477200Y-85476190D01*
X133477200Y-85476190D02*
X133524819Y-85619047D01*
X133524819Y-85619047D02*
X133524819Y-85714285D01*
X133524819Y-84333333D02*
X133524819Y-84904761D01*
X133524819Y-84619047D02*
X132524819Y-84619047D01*
X132524819Y-84619047D02*
X132667676Y-84714285D01*
X132667676Y-84714285D02*
X132762914Y-84809523D01*
X132762914Y-84809523D02*
X132810533Y-84904761D01*
D11*
%TO.C,MK1*%
X140500000Y-72100000D02*
X140500000Y-72400000D01*
X140500000Y-72100000D02*
X143500000Y-72100000D01*
X140500000Y-76000000D02*
X140500000Y-75700000D01*
X143500000Y-72100000D02*
X143500000Y-72400000D01*
X143500000Y-76000000D02*
X140500000Y-76000000D01*
X143500000Y-76000000D02*
X143500000Y-75700000D01*
D12*
X140300000Y-72700000D02*
X140100000Y-72900000D01*
X140100000Y-72500000D01*
X140300000Y-72700000D01*
G36*
X140300000Y-72700000D02*
G01*
X140100000Y-72900000D01*
X140100000Y-72500000D01*
X140300000Y-72700000D01*
G37*
D11*
%TO.C,J1*%
X137110000Y-86330000D02*
X149870000Y-86330000D01*
X137110000Y-86330000D02*
X137110000Y-83670000D01*
X149870000Y-86330000D02*
X149870000Y-83670000D01*
X134510000Y-85000000D02*
X134510000Y-83670000D01*
X134510000Y-83670000D02*
X135840000Y-83670000D01*
X137110000Y-83670000D02*
X149870000Y-83670000D01*
%TD*%
M02*
