<svg width="260" height="24" viewBox="0 0 260 24" fill="none" xmlns="http://www.w3.org/2000/svg">
<g clip-path="url(#clip0_11_35)">
<path d="M61.4707 5.16H58.6027C58.4107 5.16 58.2187 5.08 58.0267 4.92L57.7027 4.644C57.5347 4.508 57.4507 4.348 57.4507 4.164V1.68C57.4507 1.44 57.5467 1.24 57.7387 1.08L58.0267 0.84C58.2187 0.68 58.4107 0.599999 58.6027 0.599999H61.7947C61.9867 0.599999 62.1787 0.68 62.3707 0.84L62.6587 1.08C62.8507 1.24 62.9467 1.44 62.9467 1.68V2.16H61.9387V1.932C61.9387 1.812 61.9307 1.736 61.9147 1.704C61.9067 1.664 61.8667 1.616 61.7947 1.56C61.7227 1.504 61.6667 1.472 61.6267 1.464C61.5867 1.448 61.4947 1.44 61.3507 1.44H59.0467C58.9027 1.44 58.8107 1.448 58.7707 1.464C58.7307 1.472 58.6747 1.504 58.6027 1.56C58.5307 1.616 58.4867 1.664 58.4707 1.704C58.4627 1.736 58.4587 1.812 58.4587 1.932V3.828C58.4587 3.948 58.4627 4.028 58.4707 4.068C58.4867 4.1 58.5307 4.144 58.6027 4.2C58.6747 4.256 58.7307 4.292 58.7707 4.308C58.8107 4.316 58.9027 4.32 59.0467 4.32H61.9147C62.1067 4.32 62.2987 4.4 62.4907 4.56L62.7787 4.8C62.9707 4.96 63.0667 5.16 63.0667 5.4V7.92C63.0667 8.16 62.9707 8.36 62.7787 8.52L62.4907 8.76C62.2987 8.92 62.1067 9 61.9147 9H58.4827C58.2907 9 58.0987 8.92 57.9067 8.76L57.6187 8.52C57.4267 8.36 57.3307 8.16 57.3307 7.92V7.44H58.3387V7.668C58.3387 7.788 58.3427 7.868 58.3507 7.908C58.3667 7.94 58.4107 7.984 58.4827 8.04C58.5547 8.096 58.6107 8.132 58.6507 8.148C58.6907 8.156 58.7827 8.16 58.9267 8.16H61.4707C61.6147 8.16 61.7067 8.156 61.7467 8.148C61.7867 8.132 61.8427 8.096 61.9147 8.04C61.9867 7.984 62.0267 7.94 62.0347 7.908C62.0507 7.868 62.0587 7.788 62.0587 7.668V5.652C62.0587 5.532 62.0507 5.456 62.0347 5.424C62.0267 5.384 61.9867 5.336 61.9147 5.28C61.8427 5.224 61.7867 5.192 61.7467 5.184C61.7067 5.168 61.6147 5.16 61.4707 5.16ZM71.4539 9L69.7019 1.776L69.6419 1.476H69.5939L69.5339 1.776L67.8179 9H66.4019L64.1459 0.599999H65.2139L67.0139 7.992L67.0739 8.292H67.1339L67.1819 7.992L68.9579 0.599999H70.2899L72.1139 7.992L72.1859 8.292H72.2339L72.2819 7.992L74.0219 0.599999H75.0899L72.8339 9H71.4539ZM76.3456 0.599999H77.3536V9H76.3456V0.599999ZM78.4837 0.599999H84.8197V1.44H82.1557V9H81.1477V1.44H78.4837V0.599999ZM92.1229 2.16H91.1149V1.932C91.1149 1.812 91.1069 1.736 91.0909 1.704C91.0829 1.664 91.0429 1.616 90.9709 1.56C90.8989 1.504 90.8429 1.472 90.8029 1.464C90.7629 1.448 90.6709 1.44 90.5269 1.44H87.5509C87.4069 1.44 87.3149 1.448 87.2749 1.464C87.2349 1.472 87.1789 1.504 87.1069 1.56C87.0349 1.616 86.9909 1.664 86.9749 1.704C86.9669 1.736 86.9629 1.812 86.9629 1.932V7.668C86.9629 7.788 86.9669 7.868 86.9749 7.908C86.9909 7.94 87.0349 7.984 87.1069 8.04C87.1789 8.096 87.2349 8.132 87.2749 8.148C87.3149 8.156 87.4069 8.16 87.5509 8.16H90.5269C90.6709 8.16 90.7629 8.156 90.8029 8.148C90.8429 8.132 90.8989 8.096 90.9709 8.04C91.0429 7.984 91.0829 7.94 91.0909 7.908C91.1069 7.868 91.1149 7.788 91.1149 7.668V7.44H92.1229V7.92C92.1229 8.16 92.0269 8.36 91.8349 8.52L91.5469 8.76C91.3549 8.92 91.1629 9 90.9709 9H87.1069C86.9149 9 86.7229 8.92 86.5309 8.76L86.2429 8.52C86.0509 8.36 85.9549 8.16 85.9549 7.92V1.68C85.9549 1.44 86.0509 1.24 86.2429 1.08L86.5309 0.84C86.7229 0.68 86.9149 0.599999 87.1069 0.599999H90.9709C91.1629 0.599999 91.3549 0.68 91.5469 0.84L91.8349 1.08C92.0269 1.24 92.1229 1.44 92.1229 1.68V2.16ZM99.288 0.599999H100.296V9H99.288V5.1H94.92V9H93.912V0.599999H94.92V4.32H99.288V0.599999ZM107.225 5.532L106.961 5.316C106.865 5.236 106.797 5.192 106.757 5.184C106.717 5.168 106.637 5.16 106.517 5.16H103.709V8.16H106.841C106.985 8.16 107.077 8.156 107.117 8.148C107.157 8.132 107.213 8.096 107.285 8.04C107.357 7.984 107.397 7.94 107.405 7.908C107.421 7.868 107.429 7.788 107.429 7.668V5.964C107.429 5.836 107.421 5.752 107.405 5.712C107.389 5.672 107.329 5.612 107.225 5.532ZM103.709 1.44V4.32H106.313C106.457 4.32 106.549 4.316 106.589 4.308C106.637 4.292 106.701 4.252 106.781 4.188L107.093 3.936C107.189 3.856 107.245 3.796 107.261 3.756C107.277 3.716 107.285 3.628 107.285 3.492V1.932C107.285 1.812 107.277 1.736 107.261 1.704C107.253 1.664 107.213 1.616 107.141 1.56C107.069 1.504 107.013 1.472 106.973 1.464C106.933 1.448 106.841 1.44 106.697 1.44H103.709ZM107.357 4.608V4.668C107.453 4.668 107.565 4.72 107.693 4.824L108.269 5.292C108.341 5.356 108.385 5.416 108.401 5.472C108.425 5.52 108.437 5.616 108.437 5.76V7.92C108.437 8.16 108.341 8.36 108.149 8.52C108.085 8.568 107.989 8.648 107.861 8.76C107.669 8.92 107.477 9 107.285 9H102.701V0.599999H107.141C107.333 0.599999 107.525 0.68 107.717 0.84L108.005 1.08C108.197 1.24 108.293 1.44 108.293 1.68V3.732C108.293 3.9 108.229 4.036 108.101 4.14L107.693 4.452C107.565 4.556 107.453 4.608 107.357 4.608ZM111.693 0.599999H116.085C116.277 0.599999 116.469 0.68 116.661 0.84L116.949 1.08C117.141 1.24 117.237 1.44 117.237 1.68V7.92C117.237 8.16 117.141 8.36 116.949 8.52L116.661 8.76C116.469 8.92 116.277 9 116.085 9H111.693C111.501 9 111.309 8.92 111.117 8.76L110.829 8.52C110.637 8.36 110.541 8.16 110.541 7.92V1.68C110.541 1.44 110.637 1.24 110.829 1.08L111.117 0.84C111.309 0.68 111.501 0.599999 111.693 0.599999ZM116.229 7.668V1.932C116.229 1.812 116.221 1.736 116.205 1.704C116.197 1.664 116.157 1.616 116.085 1.56C116.013 1.504 115.957 1.472 115.917 1.464C115.877 1.448 115.785 1.44 115.641 1.44H112.137C111.993 1.44 111.901 1.448 111.861 1.464C111.821 1.472 111.765 1.504 111.693 1.56C111.621 1.616 111.577 1.664 111.561 1.704C111.553 1.736 111.549 1.812 111.549 1.932V7.668C111.549 7.788 111.553 7.868 111.561 7.908C111.577 7.94 111.621 7.984 111.693 8.04C111.765 8.096 111.821 8.132 111.861 8.148C111.901 8.156 111.993 8.16 112.137 8.16H115.641C115.785 8.16 115.877 8.156 115.917 8.148C115.957 8.132 116.013 8.096 116.085 8.04C116.157 7.984 116.197 7.94 116.205 7.908C116.221 7.868 116.229 7.788 116.229 7.668ZM119.035 9L121.915 0.599999H123.331L126.271 9H125.263L124.639 7.26H120.643L120.043 9H119.035ZM122.647 1.32H122.599C122.599 1.416 122.571 1.532 122.515 1.668L120.895 6.48H124.387L122.731 1.668C122.675 1.532 122.647 1.416 122.647 1.32ZM128.072 0.599999H132.512C132.704 0.599999 132.896 0.68 133.088 0.84L133.376 1.08C133.568 1.24 133.664 1.44 133.664 1.68V4.488C133.664 4.736 133.564 4.944 133.364 5.112L133.064 5.364C132.888 5.508 132.704 5.58 132.512 5.58H131.84L133.076 7.5C133.164 7.636 133.224 7.724 133.256 7.764C133.296 7.796 133.38 7.848 133.508 7.92L133.64 7.992C133.784 8.072 133.868 8.136 133.892 8.184C133.916 8.232 133.928 8.348 133.928 8.532V9H133.628C133.484 9 133.384 8.992 133.328 8.976C133.28 8.96 133.192 8.908 133.064 8.82L132.836 8.664C132.66 8.544 132.516 8.388 132.404 8.196L130.808 5.64H129.08V9H128.072V0.599999ZM129.08 1.44V4.8H132.068C132.212 4.8 132.304 4.796 132.344 4.788C132.384 4.772 132.44 4.736 132.512 4.68C132.584 4.624 132.624 4.58 132.632 4.548C132.648 4.508 132.656 4.428 132.656 4.308V1.932C132.656 1.812 132.648 1.736 132.632 1.704C132.624 1.664 132.584 1.616 132.512 1.56C132.44 1.504 132.384 1.472 132.344 1.464C132.304 1.448 132.212 1.44 132.068 1.44H129.08ZM136.146 9V0.599999H140.586C140.794 0.599999 140.986 0.68 141.162 0.84L142.314 1.8C142.506 1.96 142.602 2.12 142.602 2.28V7.32C142.602 7.48 142.506 7.64 142.314 7.8L141.162 8.76C140.986 8.92 140.794 9 140.586 9H136.146ZM141.594 6.96V2.64C141.594 2.48 141.498 2.32 141.306 2.16L140.73 1.68C140.554 1.52 140.362 1.44 140.154 1.44H137.154V8.16H140.154C140.362 8.16 140.554 8.08 140.73 7.92L141.306 7.44C141.498 7.28 141.594 7.12 141.594 6.96ZM147.701 0.599999H148.709V9H147.701V0.599999ZM156.511 7.44L156.547 7.428C156.491 7.236 156.463 7.044 156.463 6.852V0.599999H157.471V9H156.463L152.071 2.256L152.035 2.268C152.091 2.46 152.119 2.652 152.119 2.844V9H151.111V0.599999H152.119L156.511 7.44ZM160.885 5.64V9H159.877V0.599999H164.317C164.509 0.599999 164.701 0.68 164.893 0.84L165.181 1.08C165.373 1.24 165.469 1.44 165.469 1.68V4.56C165.469 4.8 165.373 5 165.181 5.16L164.893 5.4C164.701 5.56 164.509 5.64 164.317 5.64H160.885ZM160.885 1.44V4.8H163.873C164.017 4.8 164.109 4.796 164.149 4.788C164.189 4.772 164.245 4.736 164.317 4.68C164.389 4.624 164.429 4.58 164.437 4.548C164.453 4.508 164.461 4.428 164.461 4.308V1.932C164.461 1.812 164.453 1.736 164.437 1.704C164.429 1.664 164.389 1.616 164.317 1.56C164.245 1.504 164.189 1.472 164.149 1.464C164.109 1.448 164.017 1.44 163.873 1.44H160.885ZM172.94 0.599999H173.948V7.92C173.948 8.16 173.852 8.36 173.66 8.52L173.372 8.76C173.18 8.92 172.988 9 172.796 9H168.716C168.524 9 168.332 8.92 168.14 8.76L167.852 8.52C167.66 8.36 167.564 8.16 167.564 7.92V0.599999H168.572V7.668C168.572 7.788 168.576 7.868 168.584 7.908C168.6 7.94 168.644 7.984 168.716 8.04C168.788 8.096 168.844 8.132 168.884 8.148C168.924 8.156 169.016 8.16 169.16 8.16H172.352C172.496 8.16 172.588 8.156 172.628 8.148C172.668 8.132 172.724 8.096 172.796 8.04C172.868 7.984 172.908 7.94 172.916 7.908C172.932 7.868 172.94 7.788 172.94 7.668V0.599999ZM175.081 0.599999H181.417V1.44H178.753V9H177.745V1.44H175.081V0.599999ZM187.293 3.48H190.005C190.197 3.48 190.389 3.56 190.581 3.72L190.869 3.96C191.061 4.12 191.157 4.32 191.157 4.56V7.92C191.157 8.16 191.061 8.36 190.869 8.52L190.581 8.76C190.389 8.92 190.197 9 190.005 9H186.405C186.213 9 186.021 8.92 185.829 8.76L185.541 8.52C185.349 8.36 185.253 8.16 185.253 7.92V7.44H186.261V7.668C186.261 7.788 186.265 7.868 186.273 7.908C186.289 7.94 186.333 7.984 186.405 8.04C186.477 8.096 186.533 8.132 186.573 8.148C186.613 8.156 186.705 8.16 186.849 8.16H189.561C189.705 8.16 189.797 8.156 189.837 8.148C189.877 8.132 189.933 8.096 190.005 8.04C190.077 7.984 190.117 7.94 190.125 7.908C190.141 7.868 190.149 7.788 190.149 7.668V4.812C190.149 4.692 190.141 4.616 190.125 4.584C190.117 4.544 190.077 4.496 190.005 4.44C189.933 4.384 189.877 4.352 189.837 4.344C189.797 4.328 189.705 4.32 189.561 4.32H187.245C187.053 4.32 186.861 4.4 186.669 4.56C186.477 4.72 186.381 4.88 186.381 5.04H185.373V0.599999H191.013V1.44H186.381V4.068H186.429C186.437 3.98 186.525 3.872 186.693 3.744C186.933 3.568 187.133 3.48 187.293 3.48ZM195.781 8.256H195.829C195.829 8.208 195.853 8.104 195.901 7.944L198.181 0.599999H199.249L196.465 9H195.145L192.361 0.599999H193.429L195.709 7.944C195.757 8.104 195.781 8.208 195.781 8.256ZM218.587 3.024L218.023 2.436L219.715 0.599999H221.119V9H220.183V1.584C220.183 1.424 220.195 1.32 220.219 1.272L220.183 1.236L218.587 3.024ZM223.745 8.292V8.568C223.745 8.688 223.741 8.764 223.733 8.796C223.725 8.828 223.693 8.868 223.637 8.916C223.581 8.972 223.461 9 223.277 9H223.217C223.025 9 222.897 8.972 222.833 8.916C222.769 8.852 222.737 8.736 222.737 8.568V8.292C222.737 8.172 222.741 8.096 222.749 8.064C222.757 8.032 222.789 7.992 222.845 7.944C222.901 7.888 223.025 7.86 223.217 7.86H223.265C223.457 7.86 223.585 7.888 223.649 7.944C223.713 8.008 223.745 8.124 223.745 8.292ZM226.77 0.599999H231.522C231.714 0.599999 231.906 0.68 232.098 0.84L232.386 1.08C232.578 1.24 232.674 1.44 232.674 1.68V7.92C232.674 8.16 232.578 8.36 232.386 8.52L232.098 8.76C231.906 8.92 231.714 9 231.522 9H226.77C226.578 9 226.386 8.92 226.194 8.76L225.906 8.52C225.714 8.36 225.618 8.16 225.618 7.92V1.68C225.618 1.44 225.714 1.24 225.906 1.08L226.194 0.84C226.386 0.68 226.578 0.599999 226.77 0.599999ZM231.666 7.668V1.932C231.666 1.812 231.658 1.736 231.642 1.704C231.634 1.664 231.594 1.616 231.522 1.56C231.45 1.504 231.394 1.472 231.354 1.464C231.314 1.448 231.222 1.44 231.078 1.44H227.214C227.07 1.44 226.978 1.448 226.938 1.464C226.898 1.472 226.842 1.504 226.77 1.56C226.698 1.616 226.654 1.664 226.638 1.704C226.63 1.736 226.626 1.812 226.626 1.932V7.668C226.626 7.788 226.63 7.868 226.638 7.908C226.654 7.94 226.698 7.984 226.77 8.04C226.842 8.096 226.898 8.132 226.938 8.148C226.978 8.156 227.07 8.16 227.214 8.16H231.078C231.222 8.16 231.314 8.156 231.354 8.148C231.394 8.132 231.45 8.096 231.522 8.04C231.594 7.984 231.634 7.94 231.642 7.908C231.658 7.868 231.666 7.788 231.666 7.668ZM234.429 9L237.309 0.599999H238.725L241.665 9H240.657L240.033 7.26H236.037L235.437 9H234.429ZM238.041 1.32H237.993C237.993 1.416 237.965 1.532 237.909 1.668L236.289 6.48H239.781L238.125 1.668C238.069 1.532 238.041 1.416 238.041 1.32ZM57.6307 23V14.6H62.0707C62.2787 14.6 62.4707 14.68 62.6467 14.84L63.7987 15.8C63.9907 15.96 64.0867 16.12 64.0867 16.28V21.32C64.0867 21.48 63.9907 21.64 63.7987 21.8L62.6467 22.76C62.4707 22.92 62.2787 23 62.0707 23H57.6307ZM63.0787 20.96V16.64C63.0787 16.48 62.9827 16.32 62.7907 16.16L62.2147 15.68C62.0387 15.52 61.8467 15.44 61.6387 15.44H58.6387V22.16H61.6387C61.8467 22.16 62.0387 22.08 62.2147 21.92L62.7907 21.44C62.9827 21.28 63.0787 21.12 63.0787 20.96ZM71.5614 22.16V23H66.1854V14.6H71.5614V15.44H67.1934V18.32H70.8894V19.16H67.1934V22.16H71.5614ZM77.502 19.16H74.634C74.442 19.16 74.25 19.08 74.058 18.92L73.734 18.644C73.566 18.508 73.482 18.348 73.482 18.164V15.68C73.482 15.44 73.578 15.24 73.77 15.08L74.058 14.84C74.25 14.68 74.442 14.6 74.634 14.6H77.826C78.018 14.6 78.21 14.68 78.402 14.84L78.69 15.08C78.882 15.24 78.978 15.44 78.978 15.68V16.16H77.97V15.932C77.97 15.812 77.962 15.736 77.946 15.704C77.938 15.664 77.898 15.616 77.826 15.56C77.754 15.504 77.698 15.472 77.658 15.464C77.618 15.448 77.526 15.44 77.382 15.44H75.078C74.934 15.44 74.842 15.448 74.802 15.464C74.762 15.472 74.706 15.504 74.634 15.56C74.562 15.616 74.518 15.664 74.502 15.704C74.494 15.736 74.49 15.812 74.49 15.932V17.828C74.49 17.948 74.494 18.028 74.502 18.068C74.518 18.1 74.562 18.144 74.634 18.2C74.706 18.256 74.762 18.292 74.802 18.308C74.842 18.316 74.934 18.32 75.078 18.32H77.946C78.138 18.32 78.33 18.4 78.522 18.56L78.81 18.8C79.002 18.96 79.098 19.16 79.098 19.4V21.92C79.098 22.16 79.002 22.36 78.81 22.52L78.522 22.76C78.33 22.92 78.138 23 77.946 23H74.514C74.322 23 74.13 22.92 73.938 22.76L73.65 22.52C73.458 22.36 73.362 22.16 73.362 21.92V21.44H74.37V21.668C74.37 21.788 74.374 21.868 74.382 21.908C74.398 21.94 74.442 21.984 74.514 22.04C74.586 22.096 74.642 22.132 74.682 22.148C74.722 22.156 74.814 22.16 74.958 22.16H77.502C77.646 22.16 77.738 22.156 77.778 22.148C77.818 22.132 77.874 22.096 77.946 22.04C78.018 21.984 78.058 21.94 78.066 21.908C78.082 21.868 78.09 21.788 78.09 21.668V19.652C78.09 19.532 78.082 19.456 78.066 19.424C78.058 19.384 78.018 19.336 77.946 19.28C77.874 19.224 77.818 19.192 77.778 19.184C77.738 19.168 77.646 19.16 77.502 19.16ZM81.1971 14.6H82.2051V23H81.1971V14.6ZM90.7513 16.16H89.7433V15.932C89.7433 15.812 89.7353 15.736 89.7193 15.704C89.7113 15.664 89.6713 15.616 89.5993 15.56C89.5273 15.504 89.4713 15.472 89.4313 15.464C89.3913 15.448 89.2993 15.44 89.1553 15.44H86.2033C86.0593 15.44 85.9673 15.448 85.9273 15.464C85.8873 15.472 85.8313 15.504 85.7593 15.56C85.6873 15.616 85.6433 15.664 85.6273 15.704C85.6193 15.736 85.6153 15.812 85.6153 15.932V21.668C85.6153 21.788 85.6193 21.868 85.6273 21.908C85.6433 21.94 85.6873 21.984 85.7593 22.04C85.8313 22.096 85.8873 22.132 85.9273 22.148C85.9673 22.156 86.0593 22.16 86.2033 22.16H89.1553C89.2993 22.16 89.3913 22.156 89.4313 22.148C89.4713 22.132 89.5273 22.096 89.5993 22.04C89.6713 21.984 89.7113 21.94 89.7193 21.908C89.7353 21.868 89.7433 21.788 89.7433 21.668V19.52H87.9193V18.68H90.7513V21.92C90.7513 22.16 90.6553 22.36 90.4633 22.52L90.1753 22.76C89.9833 22.92 89.7913 23 89.5993 23H85.7593C85.5673 23 85.3753 22.92 85.1833 22.76L84.8953 22.52C84.7033 22.36 84.6073 22.16 84.6073 21.92V15.68C84.6073 15.44 84.7033 15.24 84.8953 15.08L85.1833 14.84C85.3753 14.68 85.5673 14.6 85.7593 14.6H89.5993C89.7913 14.6 89.9833 14.68 90.1753 14.84L90.4633 15.08C90.6553 15.24 90.7513 15.44 90.7513 15.68V16.16ZM98.2456 21.44L98.2816 21.428C98.2256 21.236 98.1976 21.044 98.1976 20.852V14.6H99.2056V23H98.1976L93.8056 16.256L93.7696 16.268C93.8256 16.46 93.8536 16.652 93.8536 16.844V23H92.8456V14.6H93.8536L98.2456 21.44ZM106.987 22.16V23H101.611V14.6H106.987V15.44H102.619V18.32H106.315V19.16H102.619V22.16H106.987ZM109.088 23V14.6H113.528C113.736 14.6 113.928 14.68 114.104 14.84L115.256 15.8C115.448 15.96 115.544 16.12 115.544 16.28V21.32C115.544 21.48 115.448 21.64 115.256 21.8L114.104 22.76C113.928 22.92 113.736 23 113.528 23H109.088ZM114.536 20.96V16.64C114.536 16.48 114.44 16.32 114.248 16.16L113.672 15.68C113.496 15.52 113.304 15.44 113.096 15.44H110.096V22.16H113.096C113.304 22.16 113.496 22.08 113.672 21.92L114.248 21.44C114.44 21.28 114.536 21.12 114.536 20.96ZM120.042 23L122.922 14.6H124.338L127.278 23H126.27L125.646 21.26H121.65L121.05 23H120.042ZM123.654 15.32H123.606C123.606 15.416 123.578 15.532 123.522 15.668L121.902 20.48H125.394L123.738 15.668C123.682 15.532 123.654 15.416 123.654 15.32ZM127.808 14.6H134.144V15.44H131.48V23H130.472V15.44H127.808V14.6ZM139.239 15.32L139.203 15.332C139.259 15.524 139.287 15.716 139.287 15.908V23H138.279V14.6H139.911L142.479 21.308C142.527 21.444 142.551 21.556 142.551 21.644H142.599C142.599 21.556 142.623 21.444 142.671 21.308L145.251 14.6H146.871V23H145.863V15.908C145.863 15.716 145.891 15.524 145.947 15.332L145.911 15.32L142.959 23H142.191C141.823 22.096 141.471 21.22 141.135 20.372C140.807 19.524 140.535 18.816 140.319 18.248C140.103 17.672 139.915 17.168 139.755 16.736C139.595 16.296 139.471 15.956 139.383 15.716C139.295 15.476 139.247 15.344 139.239 15.32ZM149.271 14.6H150.279V23H149.271V14.6ZM151.41 14.6H157.746V15.44H155.082V23H154.074V15.44H151.41V14.6ZM167.257 14.6H168.265V23H167.257V19.1H162.889V23H161.881V14.6H162.889V18.32H167.257V14.6ZM169.398 14.6H175.734V15.44H173.07V23H172.062V15.44H169.398V14.6ZM177.829 15.32L177.793 15.332C177.849 15.524 177.877 15.716 177.877 15.908V23H176.869V14.6H178.501L181.069 21.308C181.117 21.444 181.141 21.556 181.141 21.644H181.189C181.189 21.556 181.213 21.444 181.261 21.308L183.841 14.6H185.461V23H184.453V15.908C184.453 15.716 184.481 15.524 184.537 15.332L184.501 15.32L181.549 23H180.781C180.413 22.096 180.061 21.22 179.725 20.372C179.397 19.524 179.125 18.816 178.909 18.248C178.693 17.672 178.505 17.168 178.345 16.736C178.185 16.296 178.061 15.956 177.973 15.716C177.885 15.476 177.837 15.344 177.829 15.32ZM187.261 23L190.141 14.6H191.557L194.497 23H193.489L192.865 21.26H188.869L188.269 23H187.261ZM190.873 15.32H190.825C190.825 15.416 190.797 15.532 190.741 15.668L189.121 20.48H192.613L190.957 15.668C190.901 15.532 190.873 15.416 190.873 15.32ZM195.699 23L198.579 14.6H199.995L202.935 23H201.927L201.303 21.26H197.307L196.707 23H195.699ZM199.311 15.32H199.263C199.263 15.416 199.235 15.532 199.179 15.668L197.559 20.48H201.051L199.395 15.668C199.339 15.532 199.311 15.416 199.311 15.32ZM204.436 23V21.728C204.436 21.584 204.444 21.492 204.46 21.452C204.484 21.404 204.552 21.332 204.664 21.236L208.648 17.6C208.752 17.512 208.816 17.432 208.84 17.36C208.864 17.28 208.876 17.16 208.876 17V15.932C208.876 15.812 208.868 15.736 208.852 15.704C208.844 15.664 208.804 15.616 208.732 15.56C208.66 15.504 208.604 15.472 208.564 15.464C208.524 15.448 208.432 15.44 208.288 15.44H206.152C206.008 15.44 205.916 15.448 205.876 15.464C205.836 15.472 205.78 15.504 205.708 15.56C205.636 15.616 205.592 15.664 205.576 15.704C205.568 15.736 205.564 15.812 205.564 15.932V16.16H204.556V15.68C204.556 15.44 204.652 15.24 204.844 15.08L205.132 14.84C205.324 14.68 205.516 14.6 205.708 14.6H208.732C208.924 14.6 209.116 14.68 209.308 14.84L209.596 15.08C209.788 15.24 209.884 15.44 209.884 15.68V17.372C209.884 17.532 209.872 17.652 209.848 17.732C209.824 17.804 209.76 17.884 209.656 17.972L205.684 21.56C205.572 21.664 205.504 21.744 205.48 21.8C205.456 21.856 205.444 21.96 205.444 22.112V22.16H209.884V23H204.436ZM213.718 17.48H216.43C216.622 17.48 216.814 17.56 217.006 17.72L217.294 17.96C217.486 18.12 217.582 18.32 217.582 18.56V21.92C217.582 22.16 217.486 22.36 217.294 22.52L217.006 22.76C216.814 22.92 216.622 23 216.43 23H212.83C212.638 23 212.446 22.92 212.254 22.76L211.966 22.52C211.774 22.36 211.678 22.16 211.678 21.92V21.44H212.686V21.668C212.686 21.788 212.69 21.868 212.698 21.908C212.714 21.94 212.758 21.984 212.83 22.04C212.902 22.096 212.958 22.132 212.998 22.148C213.038 22.156 213.13 22.16 213.274 22.16H215.986C216.13 22.16 216.222 22.156 216.262 22.148C216.302 22.132 216.358 22.096 216.43 22.04C216.502 21.984 216.542 21.94 216.55 21.908C216.566 21.868 216.574 21.788 216.574 21.668V18.812C216.574 18.692 216.566 18.616 216.55 18.584C216.542 18.544 216.502 18.496 216.43 18.44C216.358 18.384 216.302 18.352 216.262 18.344C216.222 18.328 216.13 18.32 215.986 18.32H213.67C213.478 18.32 213.286 18.4 213.094 18.56C212.902 18.72 212.806 18.88 212.806 19.04H211.798V14.6H217.438V15.44H212.806V18.068H212.854C212.862 17.98 212.95 17.872 213.118 17.744C213.358 17.568 213.558 17.48 213.718 17.48Z" fill="black"/>
<rect width="5.06024" height="24" fill="#A31F34"/>
<rect x="8.24094" width="5.06024" height="16.3373" fill="#A31F34"/>
<rect x="16.4819" width="5.06024" height="24" fill="#A31F34"/>
<rect x="24.7229" width="5.06024" height="4.77108" fill="#A31F34"/>
<rect x="24.7229" y="7.66265" width="5.06024" height="16.3373" fill="#8A8B8C"/>
<rect x="33.1084" y="7.66265" width="5.06024" height="16.3373" fill="#A31F34"/>
<rect x="33.1084" width="13.3012" height="4.77108" fill="#A31F34"/>
<rect x="215" y="3.95" width="14" height="0.95" transform="rotate(-180 215 3.95)" fill="black"/>
<rect x="204.231" y="7" width="3.23077" height="1" transform="rotate(-180 204.231 7)" fill="black"/>
<rect x="209.615" y="7" width="3.23077" height="1" transform="rotate(-180 209.615 7)" fill="black"/>
<rect x="215" y="7" width="3.23077" height="1" transform="rotate(-180 215 7)" fill="black"/>
</g>
<defs>
<clipPath id="clip0_11_35">
<rect width="260" height="24" fill="white"/>
</clipPath>
</defs>
</svg>
