<svg width="260" height="24" viewBox="0 0 260 24" fill="none" xmlns="http://www.w3.org/2000/svg">
<g clip-path="url(#clip0_11_2)">
<path d="M58.352 0.599999H62.744C62.936 0.599999 63.128 0.68 63.32 0.84L63.608 1.08C63.8 1.24 63.896 1.44 63.896 1.68V7.92C63.896 8.16 63.8 8.36 63.608 8.52L63.32 8.76C63.128 8.92 62.936 9 62.744 9H58.352C58.16 9 57.968 8.92 57.776 8.76L57.488 8.52C57.296 8.36 57.2 8.16 57.2 7.92V1.68C57.2 1.44 57.296 1.24 57.488 1.08L57.776 0.84C57.968 0.68 58.16 0.599999 58.352 0.599999ZM62.888 7.668V1.932C62.888 1.812 62.88 1.736 62.864 1.704C62.856 1.664 62.816 1.616 62.744 1.56C62.672 1.504 62.616 1.472 62.576 1.464C62.536 1.448 62.444 1.44 62.3 1.44H58.796C58.652 1.44 58.56 1.448 58.52 1.464C58.48 1.472 58.424 1.504 58.352 1.56C58.28 1.616 58.236 1.664 58.22 1.704C58.212 1.736 58.208 1.812 58.208 1.932V7.668C58.208 7.788 58.212 7.868 58.22 7.908C58.236 7.94 58.28 7.984 58.352 8.04C58.424 8.096 58.48 8.132 58.52 8.148C58.56 8.156 58.652 8.16 58.796 8.16H62.3C62.444 8.16 62.536 8.156 62.576 8.148C62.616 8.132 62.672 8.096 62.744 8.04C62.816 7.984 62.856 7.94 62.864 7.908C62.88 7.868 62.888 7.788 62.888 7.668ZM67.3018 5.64V9H66.2938V0.599999H70.7338C70.9258 0.599999 71.1178 0.68 71.3098 0.84L71.5978 1.08C71.7898 1.24 71.8858 1.44 71.8858 1.68V4.56C71.8858 4.8 71.7898 5 71.5978 5.16L71.3098 5.4C71.1178 5.56 70.9258 5.64 70.7338 5.64H67.3018ZM67.3018 1.44V4.8H70.2898C70.4338 4.8 70.5258 4.796 70.5658 4.788C70.6058 4.772 70.6618 4.736 70.7338 4.68C70.8058 4.624 70.8458 4.58 70.8538 4.548C70.8698 4.508 70.8778 4.428 70.8778 4.308V1.932C70.8778 1.812 70.8698 1.736 70.8538 1.704C70.8458 1.664 70.8058 1.616 70.7338 1.56C70.6618 1.504 70.6058 1.472 70.5658 1.464C70.5258 1.448 70.4338 1.44 70.2898 1.44H67.3018ZM79.3573 8.16V9H73.9813V0.599999H79.3573V1.44H74.9893V4.32H78.6853V5.16H74.9893V8.16H79.3573ZM81.4578 0.599999H85.8978C86.0898 0.599999 86.2818 0.68 86.4738 0.84L86.7618 1.08C86.9538 1.24 87.0498 1.44 87.0498 1.68V4.488C87.0498 4.736 86.9498 4.944 86.7498 5.112L86.4498 5.364C86.2738 5.508 86.0898 5.58 85.8978 5.58H85.2258L86.4618 7.5C86.5498 7.636 86.6098 7.724 86.6418 7.764C86.6818 7.796 86.7658 7.848 86.8938 7.92L87.0258 7.992C87.1698 8.072 87.2538 8.136 87.2778 8.184C87.3018 8.232 87.3138 8.348 87.3138 8.532V9H87.0138C86.8698 9 86.7698 8.992 86.7138 8.976C86.6658 8.96 86.5778 8.908 86.4498 8.82L86.2218 8.664C86.0458 8.544 85.9018 8.388 85.7898 8.196L84.1938 5.64H82.4658V9H81.4578V0.599999ZM82.4658 1.44V4.8H85.4538C85.5978 4.8 85.6898 4.796 85.7298 4.788C85.7698 4.772 85.8258 4.736 85.8978 4.68C85.9698 4.624 86.0098 4.58 86.0178 4.548C86.0338 4.508 86.0418 4.428 86.0418 4.308V1.932C86.0418 1.812 86.0338 1.736 86.0178 1.704C86.0098 1.664 85.9698 1.616 85.8978 1.56C85.8258 1.504 85.7698 1.472 85.7298 1.464C85.6898 1.448 85.5978 1.44 85.4538 1.44H82.4658ZM88.932 9L91.812 0.599999H93.228L96.168 9H95.16L94.536 7.26H90.54L89.94 9H88.932ZM92.544 1.32H92.496C92.496 1.416 92.468 1.532 92.412 1.668L90.792 6.48H94.284L92.628 1.668C92.572 1.532 92.544 1.416 92.544 1.32ZM96.6975 0.599999H103.034V1.44H100.37V9H99.3615V1.44H96.6975V0.599999ZM105.321 0.599999H109.713C109.905 0.599999 110.097 0.68 110.289 0.84L110.577 1.08C110.769 1.24 110.865 1.44 110.865 1.68V7.92C110.865 8.16 110.769 8.36 110.577 8.52L110.289 8.76C110.097 8.92 109.905 9 109.713 9H105.321C105.129 9 104.937 8.92 104.745 8.76L104.457 8.52C104.265 8.36 104.169 8.16 104.169 7.92V1.68C104.169 1.44 104.265 1.24 104.457 1.08L104.745 0.84C104.937 0.68 105.129 0.599999 105.321 0.599999ZM109.857 7.668V1.932C109.857 1.812 109.849 1.736 109.833 1.704C109.825 1.664 109.785 1.616 109.713 1.56C109.641 1.504 109.585 1.472 109.545 1.464C109.505 1.448 109.413 1.44 109.269 1.44H105.765C105.621 1.44 105.529 1.448 105.489 1.464C105.449 1.472 105.393 1.504 105.321 1.56C105.249 1.616 105.205 1.664 105.189 1.704C105.181 1.736 105.177 1.812 105.177 1.932V7.668C105.177 7.788 105.181 7.868 105.189 7.908C105.205 7.94 105.249 7.984 105.321 8.04C105.393 8.096 105.449 8.132 105.489 8.148C105.529 8.156 105.621 8.16 105.765 8.16H109.269C109.413 8.16 109.505 8.156 109.545 8.148C109.585 8.132 109.641 8.096 109.713 8.04C109.785 7.984 109.825 7.94 109.833 7.908C109.849 7.868 109.857 7.788 109.857 7.668ZM113.263 0.599999H117.703C117.895 0.599999 118.087 0.68 118.279 0.84L118.567 1.08C118.759 1.24 118.855 1.44 118.855 1.68V4.488C118.855 4.736 118.755 4.944 118.555 5.112L118.255 5.364C118.079 5.508 117.895 5.58 117.703 5.58H117.031L118.267 7.5C118.355 7.636 118.414 7.724 118.447 7.764C118.487 7.796 118.571 7.848 118.699 7.92L118.831 7.992C118.975 8.072 119.059 8.136 119.083 8.184C119.107 8.232 119.118 8.348 119.118 8.532V9H118.819C118.675 9 118.575 8.992 118.519 8.976C118.471 8.96 118.383 8.908 118.255 8.82L118.027 8.664C117.851 8.544 117.707 8.388 117.595 8.196L115.999 5.64H114.271V9H113.263V0.599999ZM114.271 1.44V4.8H117.259C117.403 4.8 117.495 4.796 117.535 4.788C117.575 4.772 117.631 4.736 117.703 4.68C117.775 4.624 117.815 4.58 117.823 4.548C117.839 4.508 117.847 4.428 117.847 4.308V1.932C117.847 1.812 117.839 1.736 117.823 1.704C117.815 1.664 117.775 1.616 117.703 1.56C117.631 1.504 117.575 1.472 117.535 1.464C117.495 1.448 117.403 1.44 117.259 1.44H114.271ZM124.337 0.599999H125.345V9H124.337V0.599999ZM133.147 7.44L133.183 7.428C133.127 7.236 133.099 7.044 133.099 6.852V0.599999H134.107V9H133.099L128.707 2.256L128.671 2.268C128.727 2.46 128.755 2.652 128.755 2.844V9H127.747V0.599999H128.755L133.147 7.44ZM137.521 5.64V9H136.513V0.599999H140.953C141.145 0.599999 141.337 0.68 141.529 0.84L141.817 1.08C142.009 1.24 142.105 1.44 142.105 1.68V4.56C142.105 4.8 142.009 5 141.817 5.16L141.529 5.4C141.337 5.56 141.145 5.64 140.953 5.64H137.521ZM137.521 1.44V4.8H140.509C140.653 4.8 140.745 4.796 140.785 4.788C140.825 4.772 140.881 4.736 140.953 4.68C141.025 4.624 141.065 4.58 141.073 4.548C141.089 4.508 141.097 4.428 141.097 4.308V1.932C141.097 1.812 141.089 1.736 141.073 1.704C141.065 1.664 141.025 1.616 140.953 1.56C140.881 1.504 140.825 1.472 140.785 1.464C140.745 1.448 140.653 1.44 140.509 1.44H137.521ZM149.576 0.599999H150.584V7.92C150.584 8.16 150.488 8.36 150.296 8.52L150.008 8.76C149.816 8.92 149.624 9 149.432 9H145.352C145.16 9 144.968 8.92 144.776 8.76L144.488 8.52C144.296 8.36 144.2 8.16 144.2 7.92V0.599999H145.208V7.668C145.208 7.788 145.212 7.868 145.22 7.908C145.236 7.94 145.28 7.984 145.352 8.04C145.424 8.096 145.48 8.132 145.52 8.148C145.56 8.156 145.652 8.16 145.796 8.16H148.988C149.132 8.16 149.224 8.156 149.264 8.148C149.304 8.132 149.36 8.096 149.432 8.04C149.504 7.984 149.544 7.94 149.552 7.908C149.568 7.868 149.576 7.788 149.576 7.668V0.599999ZM151.717 0.599999H158.053V1.44H155.389V9H154.381V1.44H151.717V0.599999ZM163.928 3.48H166.64C166.832 3.48 167.024 3.56 167.216 3.72L167.504 3.96C167.696 4.12 167.792 4.32 167.792 4.56V7.92C167.792 8.16 167.696 8.36 167.504 8.52L167.216 8.76C167.024 8.92 166.832 9 166.64 9H163.04C162.848 9 162.656 8.92 162.464 8.76L162.176 8.52C161.984 8.36 161.888 8.16 161.888 7.92V7.44H162.896V7.668C162.896 7.788 162.9 7.868 162.908 7.908C162.924 7.94 162.968 7.984 163.04 8.04C163.112 8.096 163.168 8.132 163.208 8.148C163.248 8.156 163.34 8.16 163.484 8.16H166.196C166.34 8.16 166.432 8.156 166.472 8.148C166.512 8.132 166.568 8.096 166.64 8.04C166.712 7.984 166.752 7.94 166.76 7.908C166.776 7.868 166.784 7.788 166.784 7.668V4.812C166.784 4.692 166.776 4.616 166.76 4.584C166.752 4.544 166.712 4.496 166.64 4.44C166.568 4.384 166.512 4.352 166.472 4.344C166.432 4.328 166.34 4.32 166.196 4.32H163.88C163.688 4.32 163.496 4.4 163.304 4.56C163.112 4.72 163.016 4.88 163.016 5.04H162.008V0.599999H167.648V1.44H163.016V4.068H163.064C163.072 3.98 163.16 3.872 163.328 3.744C163.568 3.568 163.768 3.48 163.928 3.48ZM172.416 8.256H172.464C172.464 8.208 172.488 8.104 172.536 7.944L174.816 0.599999H175.884L173.1 9H171.78L168.996 0.599999H170.064L172.344 7.944C172.392 8.104 172.416 8.208 172.416 8.256ZM195.223 3.024L194.659 2.436L196.351 0.599999H197.755V9H196.819V1.584C196.819 1.424 196.831 1.32 196.855 1.272L196.819 1.236L195.223 3.024ZM200.38 8.292V8.568C200.38 8.688 200.376 8.764 200.368 8.796C200.36 8.828 200.328 8.868 200.272 8.916C200.216 8.972 200.096 9 199.912 9H199.852C199.66 9 199.532 8.972 199.468 8.916C199.404 8.852 199.372 8.736 199.372 8.568V8.292C199.372 8.172 199.376 8.096 199.384 8.064C199.392 8.032 199.424 7.992 199.48 7.944C199.536 7.888 199.66 7.86 199.852 7.86H199.9C200.092 7.86 200.22 7.888 200.284 7.944C200.348 8.008 200.38 8.124 200.38 8.292ZM203.406 0.599999H208.158C208.35 0.599999 208.542 0.68 208.734 0.84L209.022 1.08C209.214 1.24 209.31 1.44 209.31 1.68V7.92C209.31 8.16 209.214 8.36 209.022 8.52L208.734 8.76C208.542 8.92 208.35 9 208.158 9H203.406C203.214 9 203.022 8.92 202.83 8.76L202.542 8.52C202.35 8.36 202.254 8.16 202.254 7.92V1.68C202.254 1.44 202.35 1.24 202.542 1.08L202.83 0.84C203.022 0.68 203.214 0.599999 203.406 0.599999ZM208.302 7.668V1.932C208.302 1.812 208.294 1.736 208.278 1.704C208.27 1.664 208.23 1.616 208.158 1.56C208.086 1.504 208.03 1.472 207.99 1.464C207.95 1.448 207.858 1.44 207.714 1.44H203.85C203.706 1.44 203.614 1.448 203.574 1.464C203.534 1.472 203.478 1.504 203.406 1.56C203.334 1.616 203.29 1.664 203.274 1.704C203.266 1.736 203.262 1.812 203.262 1.932V7.668C203.262 7.788 203.266 7.868 203.274 7.908C203.29 7.94 203.334 7.984 203.406 8.04C203.478 8.096 203.534 8.132 203.574 8.148C203.614 8.156 203.706 8.16 203.85 8.16H207.714C207.858 8.16 207.95 8.156 207.99 8.148C208.03 8.132 208.086 8.096 208.158 8.04C208.23 7.984 208.27 7.94 208.278 7.908C208.294 7.868 208.302 7.788 208.302 7.668ZM211.065 9L213.945 0.599999H215.361L218.301 9H217.293L216.669 7.26H212.673L212.073 9H211.065ZM214.677 1.32H214.629C214.629 1.416 214.601 1.532 214.545 1.668L212.925 6.48H216.417L214.761 1.668C214.705 1.532 214.677 1.416 214.677 1.32ZM57.2 23V14.6H61.64C61.848 14.6 62.04 14.68 62.216 14.84L63.368 15.8C63.56 15.96 63.656 16.12 63.656 16.28V21.32C63.656 21.48 63.56 21.64 63.368 21.8L62.216 22.76C62.04 22.92 61.848 23 61.64 23H57.2ZM62.648 20.96V16.64C62.648 16.48 62.552 16.32 62.36 16.16L61.784 15.68C61.608 15.52 61.416 15.44 61.208 15.44H58.208V22.16H61.208C61.416 22.16 61.608 22.08 61.784 21.92L62.36 21.44C62.552 21.28 62.648 21.12 62.648 20.96ZM71.1307 22.16V23H65.7547V14.6H71.1307V15.44H66.7627V18.32H70.4587V19.16H66.7627V22.16H71.1307ZM77.0713 19.16H74.2033C74.0113 19.16 73.8193 19.08 73.6273 18.92L73.3033 18.644C73.1353 18.508 73.0513 18.348 73.0513 18.164V15.68C73.0513 15.44 73.1473 15.24 73.3393 15.08L73.6273 14.84C73.8193 14.68 74.0113 14.6 74.2033 14.6H77.3953C77.5873 14.6 77.7793 14.68 77.9713 14.84L78.2593 15.08C78.4513 15.24 78.5473 15.44 78.5473 15.68V16.16H77.5393V15.932C77.5393 15.812 77.5313 15.736 77.5153 15.704C77.5073 15.664 77.4673 15.616 77.3953 15.56C77.3233 15.504 77.2673 15.472 77.2273 15.464C77.1873 15.448 77.0953 15.44 76.9513 15.44H74.6473C74.5033 15.44 74.4113 15.448 74.3713 15.464C74.3313 15.472 74.2753 15.504 74.2033 15.56C74.1313 15.616 74.0873 15.664 74.0713 15.704C74.0633 15.736 74.0593 15.812 74.0593 15.932V17.828C74.0593 17.948 74.0633 18.028 74.0713 18.068C74.0873 18.1 74.1313 18.144 74.2033 18.2C74.2753 18.256 74.3313 18.292 74.3713 18.308C74.4113 18.316 74.5033 18.32 74.6473 18.32H77.5153C77.7073 18.32 77.8993 18.4 78.0912 18.56L78.3793 18.8C78.5713 18.96 78.6673 19.16 78.6673 19.4V21.92C78.6673 22.16 78.5713 22.36 78.3793 22.52L78.0912 22.76C77.8993 22.92 77.7073 23 77.5153 23H74.0833C73.8913 23 73.6993 22.92 73.5073 22.76L73.2193 22.52C73.0273 22.36 72.9313 22.16 72.9313 21.92V21.44H73.9393V21.668C73.9393 21.788 73.9433 21.868 73.9513 21.908C73.9673 21.94 74.0113 21.984 74.0833 22.04C74.1553 22.096 74.2113 22.132 74.2513 22.148C74.2913 22.156 74.3833 22.16 74.5273 22.16H77.0713C77.2153 22.16 77.3073 22.156 77.3473 22.148C77.3873 22.132 77.4433 22.096 77.5153 22.04C77.5873 21.984 77.6273 21.94 77.6353 21.908C77.6513 21.868 77.6593 21.788 77.6593 21.668V19.652C77.6593 19.532 77.6513 19.456 77.6353 19.424C77.6273 19.384 77.5873 19.336 77.5153 19.28C77.4433 19.224 77.3873 19.192 77.3473 19.184C77.3073 19.168 77.2153 19.16 77.0713 19.16ZM80.7664 14.6H81.7744V23H80.7664V14.6ZM90.3206 16.16H89.3126V15.932C89.3126 15.812 89.3046 15.736 89.2886 15.704C89.2806 15.664 89.2406 15.616 89.1686 15.56C89.0966 15.504 89.0406 15.472 89.0006 15.464C88.9606 15.448 88.8686 15.44 88.7246 15.44H85.7726C85.6286 15.44 85.5366 15.448 85.4966 15.464C85.4566 15.472 85.4006 15.504 85.3286 15.56C85.2566 15.616 85.2126 15.664 85.1966 15.704C85.1886 15.736 85.1846 15.812 85.1846 15.932V21.668C85.1846 21.788 85.1886 21.868 85.1966 21.908C85.2126 21.94 85.2566 21.984 85.3286 22.04C85.4006 22.096 85.4566 22.132 85.4966 22.148C85.5366 22.156 85.6286 22.16 85.7726 22.16H88.7246C88.8686 22.16 88.9606 22.156 89.0006 22.148C89.0406 22.132 89.0966 22.096 89.1686 22.04C89.2406 21.984 89.2806 21.94 89.2886 21.908C89.3046 21.868 89.3126 21.788 89.3126 21.668V19.52H87.4886V18.68H90.3206V21.92C90.3206 22.16 90.2246 22.36 90.0326 22.52L89.7446 22.76C89.5526 22.92 89.3606 23 89.1686 23H85.3286C85.1366 23 84.9446 22.92 84.7526 22.76L84.4646 22.52C84.2726 22.36 84.1766 22.16 84.1766 21.92V15.68C84.1766 15.44 84.2726 15.24 84.4646 15.08L84.7526 14.84C84.9446 14.68 85.1366 14.6 85.3286 14.6H89.1686C89.3606 14.6 89.5526 14.68 89.7446 14.84L90.0326 15.08C90.2246 15.24 90.3206 15.44 90.3206 15.68V16.16ZM97.8148 21.44L97.8508 21.428C97.7948 21.236 97.7668 21.044 97.7668 20.852V14.6H98.7748V23H97.7668L93.3748 16.256L93.3388 16.268C93.3948 16.46 93.4228 16.652 93.4228 16.844V23H92.4148V14.6H93.4228L97.8148 21.44ZM106.556 22.16V23H101.18V14.6H106.556V15.44H102.188V18.32H105.884V19.16H102.188V22.16H106.556ZM108.657 23V14.6H113.097C113.305 14.6 113.497 14.68 113.673 14.84L114.825 15.8C115.017 15.96 115.113 16.12 115.113 16.28V21.32C115.113 21.48 115.017 21.64 114.825 21.8L113.673 22.76C113.497 22.92 113.305 23 113.097 23H108.657ZM114.105 20.96V16.64C114.105 16.48 114.009 16.32 113.817 16.16L113.241 15.68C113.065 15.52 112.873 15.44 112.665 15.44H109.665V22.16H112.665C112.873 22.16 113.065 22.08 113.241 21.92L113.817 21.44C114.009 21.28 114.105 21.12 114.105 20.96ZM119.612 23L122.492 14.6H123.908L126.848 23H125.84L125.216 21.26H121.22L120.62 23H119.612ZM123.224 15.32H123.176C123.176 15.416 123.148 15.532 123.092 15.668L121.472 20.48H124.964L123.308 15.668C123.252 15.532 123.224 15.416 123.224 15.32ZM127.377 14.6H133.713V15.44H131.049V23H130.041V15.44H127.377V14.6ZM138.808 15.32L138.772 15.332C138.828 15.524 138.856 15.716 138.856 15.908V23H137.848V14.6H139.48L142.048 21.308C142.096 21.444 142.12 21.556 142.12 21.644H142.168C142.168 21.556 142.192 21.444 142.24 21.308L144.82 14.6H146.44V23H145.432V15.908C145.432 15.716 145.46 15.524 145.516 15.332L145.48 15.32L142.528 23H141.76C141.392 22.096 141.04 21.22 140.704 20.372C140.376 19.524 140.104 18.816 139.888 18.248C139.672 17.672 139.484 17.168 139.324 16.736C139.164 16.296 139.04 15.956 138.952 15.716C138.864 15.476 138.816 15.344 138.808 15.32ZM148.841 14.6H149.849V23H148.841V14.6ZM150.979 14.6H157.315V15.44H154.651V23H153.643V15.44H150.979V14.6ZM166.826 14.6H167.834V23H166.826V19.1H162.458V23H161.45V14.6H162.458V18.32H166.826V14.6ZM168.967 14.6H175.303V15.44H172.639V23H171.631V15.44H168.967V14.6ZM177.398 15.32L177.362 15.332C177.418 15.524 177.446 15.716 177.446 15.908V23H176.438V14.6H178.07L180.638 21.308C180.686 21.444 180.71 21.556 180.71 21.644H180.758C180.758 21.556 180.782 21.444 180.83 21.308L183.41 14.6H185.03V23H184.022V15.908C184.022 15.716 184.05 15.524 184.106 15.332L184.07 15.32L181.118 23H180.35C179.982 22.096 179.63 21.22 179.294 20.372C178.966 19.524 178.694 18.816 178.478 18.248C178.262 17.672 178.074 17.168 177.914 16.736C177.754 16.296 177.63 15.956 177.542 15.716C177.454 15.476 177.406 15.344 177.398 15.32ZM186.83 23L189.71 14.6H191.126L194.066 23H193.058L192.434 21.26H188.438L187.838 23H186.83ZM190.442 15.32H190.394C190.394 15.416 190.366 15.532 190.31 15.668L188.69 20.48H192.182L190.526 15.668C190.47 15.532 190.442 15.416 190.442 15.32ZM195.268 23L198.148 14.6H199.564L202.504 23H201.496L200.872 21.26H196.876L196.276 23H195.268ZM198.88 15.32H198.832C198.832 15.416 198.804 15.532 198.748 15.668L197.128 20.48H200.62L198.964 15.668C198.908 15.532 198.88 15.416 198.88 15.32ZM204.005 23V21.728C204.005 21.584 204.013 21.492 204.029 21.452C204.053 21.404 204.121 21.332 204.233 21.236L208.217 17.6C208.321 17.512 208.385 17.432 208.409 17.36C208.433 17.28 208.445 17.16 208.445 17V15.932C208.445 15.812 208.437 15.736 208.421 15.704C208.413 15.664 208.373 15.616 208.301 15.56C208.229 15.504 208.173 15.472 208.133 15.464C208.093 15.448 208.001 15.44 207.857 15.44H205.721C205.577 15.44 205.485 15.448 205.445 15.464C205.405 15.472 205.349 15.504 205.277 15.56C205.205 15.616 205.161 15.664 205.145 15.704C205.137 15.736 205.133 15.812 205.133 15.932V16.16H204.125V15.68C204.125 15.44 204.221 15.24 204.413 15.08L204.701 14.84C204.893 14.68 205.085 14.6 205.277 14.6H208.301C208.493 14.6 208.685 14.68 208.877 14.84L209.165 15.08C209.357 15.24 209.453 15.44 209.453 15.68V17.372C209.453 17.532 209.441 17.652 209.417 17.732C209.393 17.804 209.329 17.884 209.225 17.972L205.253 21.56C205.141 21.664 205.073 21.744 205.049 21.8C205.025 21.856 205.013 21.96 205.013 22.112V22.16H209.453V23H204.005ZM213.288 17.48H216C216.192 17.48 216.384 17.56 216.576 17.72L216.864 17.96C217.056 18.12 217.152 18.32 217.152 18.56V21.92C217.152 22.16 217.056 22.36 216.864 22.52L216.576 22.76C216.384 22.92 216.192 23 216 23H212.4C212.208 23 212.016 22.92 211.824 22.76L211.536 22.52C211.344 22.36 211.248 22.16 211.248 21.92V21.44H212.256V21.668C212.256 21.788 212.26 21.868 212.268 21.908C212.284 21.94 212.328 21.984 212.4 22.04C212.472 22.096 212.528 22.132 212.568 22.148C212.608 22.156 212.7 22.16 212.844 22.16H215.556C215.7 22.16 215.792 22.156 215.832 22.148C215.872 22.132 215.928 22.096 216 22.04C216.072 21.984 216.112 21.94 216.12 21.908C216.136 21.868 216.144 21.788 216.144 21.668V18.812C216.144 18.692 216.136 18.616 216.12 18.584C216.112 18.544 216.072 18.496 216 18.44C215.928 18.384 215.872 18.352 215.832 18.344C215.792 18.328 215.7 18.32 215.556 18.32H213.24C213.048 18.32 212.856 18.4 212.664 18.56C212.472 18.72 212.376 18.88 212.376 19.04H211.368V14.6H217.008V15.44H212.376V18.068H212.424C212.432 17.98 212.52 17.872 212.688 17.744C212.928 17.568 213.128 17.48 213.288 17.48Z" fill="black"/>
<rect x="-0.430731" width="5.06024" height="24" fill="#A31F34"/>
<rect x="7.81022" width="5.06024" height="16.3373" fill="#A31F34"/>
<rect x="16.0512" width="5.06024" height="24" fill="#A31F34"/>
<rect x="24.2922" width="5.06024" height="4.77108" fill="#A31F34"/>
<rect x="24.2922" y="7.66265" width="5.06024" height="16.3373" fill="#8A8B8C"/>
<rect x="32.6777" y="7.66265" width="5.06024" height="16.3373" fill="#A31F34"/>
<rect x="32.6777" width="13.3012" height="4.77108" fill="#A31F34"/>
<rect x="192" y="3.95" width="14" height="0.95" transform="rotate(-180 192 3.95)" fill="black"/>
<rect x="181.231" y="7" width="3.23077" height="1" transform="rotate(-180 181.231 7)" fill="black"/>
<rect x="186.615" y="7" width="3.23077" height="1" transform="rotate(-180 186.615 7)" fill="black"/>
<rect x="192" y="7" width="3.23077" height="1" transform="rotate(-180 192 7)" fill="black"/>
</g>
<defs>
<clipPath id="clip0_11_2">
<rect width="260" height="24" fill="white"/>
</clipPath>
</defs>
</svg>
