%TF.GenerationSoftware,KiCad,Pcbnew,9.0.5*%
%TF.CreationDate,2025-10-11T11:20:09-04:00*%
%TF.ProjectId,agent-dev-mk1,6167656e-742d-4646-9576-2d6d6b312e6b,rev?*%
%TF.SameCoordinates,Original*%
%TF.FileFunction,Copper,L2,Bot*%
%TF.FilePolarity,Positive*%
%FSLAX46Y46*%
G04 Gerber Fmt 4.6, Leading zero omitted, Abs format (unit mm)*
G04 Created by KiCad (PCBNEW 9.0.5) date 2025-10-11 11:20:09*
%MOMM*%
%LPD*%
G01*
G04 APERTURE LIST*
%TA.AperFunction,ComponentPad*%
%ADD10R,1.700000X1.700000*%
%TD*%
%TA.AperFunction,ComponentPad*%
%ADD11C,1.700000*%
%TD*%
%TA.AperFunction,Conductor*%
%ADD12C,0.400000*%
%TD*%
G04 APERTURE END LIST*
D10*
%TO.P,J4,1,Pin_1*%
%TO.N,3V*%
X153500000Y-90060000D03*
D11*
%TO.P,J4,2,Pin_2*%
%TO.N,GND*%
X153500000Y-92600000D03*
%TO.P,J4,3,Pin_3*%
%TO.N,unconnected-(J4-Pin_3-Pad3)*%
X153500000Y-95140000D03*
%TO.P,J4,4,Pin_4*%
%TO.N,unconnected-(J4-Pin_4-Pad4)*%
X153500000Y-97680000D03*
%TO.P,J4,5,Pin_5*%
%TO.N,DIN*%
X153500000Y-100220000D03*
%TO.P,J4,6,Pin_6*%
%TO.N,BCLK*%
X153500000Y-102760000D03*
%TO.P,J4,7,Pin_7*%
%TO.N,LRC*%
X153500000Y-105300000D03*
%TD*%
D10*
%TO.P,J3,1,Pin_1*%
%TO.N,D9*%
X155040000Y-112000000D03*
D11*
%TO.P,J3,2,Pin_2*%
%TO.N,GND*%
X152500000Y-112000000D03*
%TO.P,J3,3,Pin_3*%
%TO.N,D8*%
X149960000Y-112000000D03*
%TO.P,J3,4,Pin_4*%
%TO.N,GND*%
X147420000Y-112000000D03*
%TD*%
D10*
%TO.P,J5,1,Pin_1*%
%TO.N,BCLK*%
X128000000Y-90060000D03*
D11*
%TO.P,J5,2,Pin_2*%
%TO.N,DOUT*%
X128000000Y-92600000D03*
%TO.P,J5,3,Pin_3*%
%TO.N,LRC*%
X128000000Y-95140000D03*
%TO.P,J5,4,Pin_4*%
%TO.N,D3*%
X128000000Y-97680000D03*
%TO.P,J5,5,Pin_5*%
%TO.N,D4*%
X128000000Y-100220000D03*
%TO.P,J5,6,Pin_6*%
%TO.N,D5*%
X128000000Y-102760000D03*
%TO.P,J5,7,Pin_7*%
%TO.N,D6*%
X128000000Y-105300000D03*
%TD*%
D10*
%TO.P,J8,1,Pin_1*%
%TO.N,GND*%
X114720000Y-111950000D03*
D11*
%TO.P,J8,2,Pin_2*%
%TO.N,D3*%
X117260000Y-111950000D03*
%TO.P,J8,3,Pin_3*%
%TO.N,D4*%
X119800000Y-111950000D03*
%TO.P,J8,4,Pin_4*%
%TO.N,D5*%
X122340000Y-111950000D03*
%TD*%
D10*
%TO.P,J6,1,Pin_1*%
%TO.N,unconnected-(J6-Pin_1-Pad1)*%
X143235000Y-90060000D03*
D11*
%TO.P,J6,2,Pin_2*%
%TO.N,GND*%
X143235000Y-92600000D03*
%TO.P,J6,3,Pin_3*%
%TO.N,3V*%
X143235000Y-95140000D03*
%TO.P,J6,4,Pin_4*%
%TO.N,DIN*%
X143235000Y-97680000D03*
%TO.P,J6,5,Pin_5*%
%TO.N,D9*%
X143235000Y-100220000D03*
%TO.P,J6,6,Pin_6*%
%TO.N,D8*%
X143235000Y-102760000D03*
%TO.P,J6,7,Pin_7*%
%TO.N,D7*%
X143235000Y-105300000D03*
%TD*%
D10*
%TO.P,J1,1,Pin_1*%
%TO.N,D7*%
X138320000Y-112000000D03*
D11*
%TO.P,J1,2,Pin_2*%
%TO.N,GND*%
X135780000Y-112000000D03*
%TO.P,J1,3,Pin_3*%
%TO.N,D6*%
X133240000Y-112000000D03*
%TD*%
D10*
%TO.P,J2,1,Pin_1*%
%TO.N,3V*%
X118100000Y-90060000D03*
D11*
%TO.P,J2,2,Pin_2*%
%TO.N,GND*%
X118100000Y-92600000D03*
%TO.P,J2,3,Pin_3*%
%TO.N,BCLK*%
X118100000Y-95140000D03*
%TO.P,J2,4,Pin_4*%
%TO.N,DOUT*%
X118100000Y-97680000D03*
%TO.P,J2,5,Pin_5*%
%TO.N,LRC*%
X118100000Y-100220000D03*
%TO.P,J2,6,Pin_6*%
%TO.N,unconnected-(J2-Pin_6-Pad6)*%
X118100000Y-102760000D03*
%TD*%
D12*
%TO.N,BCLK*%
X129451000Y-88609000D02*
X145609000Y-88609000D01*
X148500000Y-97760000D02*
X153500000Y-102760000D01*
X128000000Y-90060000D02*
X129451000Y-88609000D01*
X148500000Y-91500000D02*
X148500000Y-97760000D01*
X145609000Y-88609000D02*
X148500000Y-91500000D01*
%TO.N,LRC*%
X139611000Y-106751000D02*
X152049000Y-106751000D01*
X152049000Y-106751000D02*
X153500000Y-105300000D01*
X128000000Y-95140000D02*
X139611000Y-106751000D01*
%TD*%
%TA.AperFunction,Conductor*%
%TO.N,GND*%
G36*
X141827539Y-89329185D02*
G01*
X141873294Y-89381989D01*
X141884500Y-89433500D01*
X141884500Y-90957870D01*
X141884501Y-90957876D01*
X141890908Y-91017483D01*
X141941202Y-91152328D01*
X141941206Y-91152335D01*
X142027452Y-91267544D01*
X142027455Y-91267547D01*
X142142664Y-91353793D01*
X142142671Y-91353797D01*
X142187618Y-91370561D01*
X142277517Y-91404091D01*
X142337127Y-91410500D01*
X142347685Y-91410499D01*
X142414723Y-91430179D01*
X142435372Y-91446818D01*
X143105591Y-92117037D01*
X143042007Y-92134075D01*
X142927993Y-92199901D01*
X142834901Y-92292993D01*
X142769075Y-92407007D01*
X142752037Y-92470591D01*
X142119728Y-91838282D01*
X142119727Y-91838282D01*
X142080380Y-91892439D01*
X141983904Y-92081782D01*
X141918242Y-92283869D01*
X141918242Y-92283872D01*
X141885000Y-92493753D01*
X141885000Y-92706246D01*
X141918242Y-92916127D01*
X141918242Y-92916130D01*
X141983904Y-93118217D01*
X142080375Y-93307550D01*
X142119728Y-93361716D01*
X142752037Y-92729408D01*
X142769075Y-92792993D01*
X142834901Y-92907007D01*
X142927993Y-93000099D01*
X143042007Y-93065925D01*
X143105590Y-93082962D01*
X142473282Y-93715269D01*
X142473282Y-93715270D01*
X142527452Y-93754626D01*
X142527451Y-93754626D01*
X142536495Y-93759234D01*
X142587292Y-93807208D01*
X142604087Y-93875029D01*
X142581550Y-93941164D01*
X142536499Y-93980202D01*
X142527182Y-93984949D01*
X142355213Y-94109890D01*
X142204890Y-94260213D01*
X142079951Y-94432179D01*
X141983444Y-94621585D01*
X141917753Y-94823760D01*
X141884500Y-95033713D01*
X141884500Y-95246286D01*
X141917753Y-95456239D01*
X141983444Y-95658414D01*
X142079951Y-95847820D01*
X142204890Y-96019786D01*
X142355213Y-96170109D01*
X142527182Y-96295050D01*
X142535946Y-96299516D01*
X142586742Y-96347491D01*
X142603536Y-96415312D01*
X142580998Y-96481447D01*
X142535946Y-96520484D01*
X142527182Y-96524949D01*
X142355213Y-96649890D01*
X142204890Y-96800213D01*
X142079951Y-96972179D01*
X141983444Y-97161585D01*
X141917753Y-97363760D01*
X141895199Y-97506162D01*
X141884500Y-97573713D01*
X141884500Y-97786287D01*
X141894534Y-97849644D01*
X141917753Y-97996239D01*
X141983444Y-98198414D01*
X142079951Y-98387820D01*
X142204890Y-98559786D01*
X142355213Y-98710109D01*
X142527182Y-98835050D01*
X142535946Y-98839516D01*
X142586742Y-98887491D01*
X142603536Y-98955312D01*
X142580998Y-99021447D01*
X142535946Y-99060484D01*
X142527182Y-99064949D01*
X142355213Y-99189890D01*
X142204890Y-99340213D01*
X142079951Y-99512179D01*
X141983444Y-99701585D01*
X141917753Y-99903760D01*
X141884500Y-100113713D01*
X141884500Y-100326286D01*
X141917753Y-100536239D01*
X141983444Y-100738414D01*
X142079951Y-100927820D01*
X142204890Y-101099786D01*
X142355213Y-101250109D01*
X142527182Y-101375050D01*
X142535946Y-101379516D01*
X142586742Y-101427491D01*
X142603536Y-101495312D01*
X142580998Y-101561447D01*
X142535946Y-101600484D01*
X142527182Y-101604949D01*
X142355213Y-101729890D01*
X142204890Y-101880213D01*
X142079951Y-102052179D01*
X141983444Y-102241585D01*
X141917753Y-102443760D01*
X141884500Y-102653713D01*
X141884500Y-102866286D01*
X141917753Y-103076239D01*
X141983444Y-103278414D01*
X142079951Y-103467820D01*
X142204890Y-103639786D01*
X142355213Y-103790109D01*
X142527182Y-103915050D01*
X142535946Y-103919516D01*
X142586742Y-103967491D01*
X142603536Y-104035312D01*
X142580998Y-104101447D01*
X142535946Y-104140484D01*
X142527182Y-104144949D01*
X142355213Y-104269890D01*
X142204890Y-104420213D01*
X142079951Y-104592179D01*
X141983444Y-104781585D01*
X141917753Y-104983760D01*
X141884500Y-105193713D01*
X141884500Y-105406286D01*
X141917753Y-105616239D01*
X141983444Y-105818414D01*
X142009833Y-105870205D01*
X142022729Y-105938874D01*
X141996453Y-106003614D01*
X141939347Y-106043872D01*
X141899348Y-106050500D01*
X139952519Y-106050500D01*
X139885480Y-106030815D01*
X139864838Y-106014181D01*
X129360507Y-95509850D01*
X129327022Y-95448527D01*
X129325715Y-95402771D01*
X129350500Y-95246286D01*
X129350500Y-95033713D01*
X129317246Y-94823760D01*
X129317246Y-94823757D01*
X129251557Y-94621588D01*
X129155051Y-94432184D01*
X129155049Y-94432181D01*
X129155048Y-94432179D01*
X129030109Y-94260213D01*
X128879786Y-94109890D01*
X128707820Y-93984951D01*
X128707115Y-93984591D01*
X128699054Y-93980485D01*
X128648259Y-93932512D01*
X128631463Y-93864692D01*
X128653999Y-93798556D01*
X128699054Y-93759515D01*
X128707816Y-93755051D01*
X128762572Y-93715269D01*
X128879786Y-93630109D01*
X128879788Y-93630106D01*
X128879792Y-93630104D01*
X129030104Y-93479792D01*
X129030106Y-93479788D01*
X129030109Y-93479786D01*
X129155048Y-93307820D01*
X129155047Y-93307820D01*
X129155051Y-93307816D01*
X129251557Y-93118412D01*
X129317246Y-92916243D01*
X129350500Y-92706287D01*
X129350500Y-92493713D01*
X129317246Y-92283757D01*
X129251557Y-92081588D01*
X129155051Y-91892184D01*
X129155049Y-91892181D01*
X129155048Y-91892179D01*
X129030109Y-91720213D01*
X128916569Y-91606673D01*
X128883084Y-91545350D01*
X128888068Y-91475658D01*
X128929940Y-91419725D01*
X128960915Y-91402810D01*
X129092331Y-91353796D01*
X129207546Y-91267546D01*
X129293796Y-91152331D01*
X129344091Y-91017483D01*
X129350500Y-90957873D01*
X129350499Y-89751518D01*
X129370184Y-89684480D01*
X129386818Y-89663838D01*
X129704838Y-89345819D01*
X129766161Y-89312334D01*
X129792519Y-89309500D01*
X141760500Y-89309500D01*
X141827539Y-89329185D01*
G37*
%TD.AperFunction*%
%TA.AperFunction,Conductor*%
G36*
X145334520Y-89329185D02*
G01*
X145355162Y-89345819D01*
X147763181Y-91753837D01*
X147796666Y-91815160D01*
X147799500Y-91841518D01*
X147799500Y-97691006D01*
X147799500Y-97828994D01*
X147799500Y-97828996D01*
X147799499Y-97828996D01*
X147826418Y-97964322D01*
X147826421Y-97964332D01*
X147879222Y-98091807D01*
X147955887Y-98206545D01*
X147955888Y-98206546D01*
X152139492Y-102390149D01*
X152172977Y-102451472D01*
X152174284Y-102497227D01*
X152149500Y-102653712D01*
X152149500Y-102866286D01*
X152182753Y-103076239D01*
X152248444Y-103278414D01*
X152344951Y-103467820D01*
X152469890Y-103639786D01*
X152620213Y-103790109D01*
X152792182Y-103915050D01*
X152800946Y-103919516D01*
X152851742Y-103967491D01*
X152868536Y-104035312D01*
X152845998Y-104101447D01*
X152800946Y-104140484D01*
X152792182Y-104144949D01*
X152620213Y-104269890D01*
X152469890Y-104420213D01*
X152344951Y-104592179D01*
X152248444Y-104781585D01*
X152182753Y-104983760D01*
X152149500Y-105193713D01*
X152149500Y-105406287D01*
X152149499Y-105406287D01*
X152174284Y-105562771D01*
X152165329Y-105632064D01*
X152139492Y-105669849D01*
X151795162Y-106014181D01*
X151733839Y-106047666D01*
X151707481Y-106050500D01*
X144570652Y-106050500D01*
X144503613Y-106030815D01*
X144457858Y-105978011D01*
X144447914Y-105908853D01*
X144460167Y-105870205D01*
X144486557Y-105818412D01*
X144552246Y-105616243D01*
X144585500Y-105406287D01*
X144585500Y-105193713D01*
X144552246Y-104983757D01*
X144486557Y-104781588D01*
X144390051Y-104592184D01*
X144390049Y-104592181D01*
X144390048Y-104592179D01*
X144265109Y-104420213D01*
X144114786Y-104269890D01*
X143942820Y-104144951D01*
X143942115Y-104144591D01*
X143934054Y-104140485D01*
X143883259Y-104092512D01*
X143866463Y-104024692D01*
X143888999Y-103958556D01*
X143934054Y-103919515D01*
X143942816Y-103915051D01*
X143964789Y-103899086D01*
X144114786Y-103790109D01*
X144114788Y-103790106D01*
X144114792Y-103790104D01*
X144265104Y-103639792D01*
X144265106Y-103639788D01*
X144265109Y-103639786D01*
X144390048Y-103467820D01*
X144390047Y-103467820D01*
X144390051Y-103467816D01*
X144486557Y-103278412D01*
X144552246Y-103076243D01*
X144585500Y-102866287D01*
X144585500Y-102653713D01*
X144552246Y-102443757D01*
X144486557Y-102241588D01*
X144390051Y-102052184D01*
X144390049Y-102052181D01*
X144390048Y-102052179D01*
X144265109Y-101880213D01*
X144114786Y-101729890D01*
X143942820Y-101604951D01*
X143942115Y-101604591D01*
X143934054Y-101600485D01*
X143883259Y-101552512D01*
X143866463Y-101484692D01*
X143888999Y-101418556D01*
X143934054Y-101379515D01*
X143942816Y-101375051D01*
X143964789Y-101359086D01*
X144114786Y-101250109D01*
X144114788Y-101250106D01*
X144114792Y-101250104D01*
X144265104Y-101099792D01*
X144265106Y-101099788D01*
X144265109Y-101099786D01*
X144390048Y-100927820D01*
X144390047Y-100927820D01*
X144390051Y-100927816D01*
X144486557Y-100738412D01*
X144552246Y-100536243D01*
X144585500Y-100326287D01*
X144585500Y-100113713D01*
X144552246Y-99903757D01*
X144486557Y-99701588D01*
X144390051Y-99512184D01*
X144390049Y-99512181D01*
X144390048Y-99512179D01*
X144265109Y-99340213D01*
X144114786Y-99189890D01*
X143942820Y-99064951D01*
X143942115Y-99064591D01*
X143934054Y-99060485D01*
X143883259Y-99012512D01*
X143866463Y-98944692D01*
X143888999Y-98878556D01*
X143934054Y-98839515D01*
X143942816Y-98835051D01*
X143964789Y-98819086D01*
X144114786Y-98710109D01*
X144114788Y-98710106D01*
X144114792Y-98710104D01*
X144265104Y-98559792D01*
X144265106Y-98559788D01*
X144265109Y-98559786D01*
X144390048Y-98387820D01*
X144390047Y-98387820D01*
X144390051Y-98387816D01*
X144486557Y-98198412D01*
X144552246Y-97996243D01*
X144585500Y-97786287D01*
X144585500Y-97573713D01*
X144552246Y-97363757D01*
X144486557Y-97161588D01*
X144390051Y-96972184D01*
X144390049Y-96972181D01*
X144390048Y-96972179D01*
X144265109Y-96800213D01*
X144114786Y-96649890D01*
X143942820Y-96524951D01*
X143942115Y-96524591D01*
X143934054Y-96520485D01*
X143883259Y-96472512D01*
X143866463Y-96404692D01*
X143888999Y-96338556D01*
X143934054Y-96299515D01*
X143942816Y-96295051D01*
X143964789Y-96279086D01*
X144114786Y-96170109D01*
X144114788Y-96170106D01*
X144114792Y-96170104D01*
X144265104Y-96019792D01*
X144265106Y-96019788D01*
X144265109Y-96019786D01*
X144390048Y-95847820D01*
X144390047Y-95847820D01*
X144390051Y-95847816D01*
X144486557Y-95658412D01*
X144552246Y-95456243D01*
X144585500Y-95246287D01*
X144585500Y-95033713D01*
X144552246Y-94823757D01*
X144486557Y-94621588D01*
X144390051Y-94432184D01*
X144390049Y-94432181D01*
X144390048Y-94432179D01*
X144265109Y-94260213D01*
X144114786Y-94109890D01*
X143942817Y-93984949D01*
X143933504Y-93980204D01*
X143882707Y-93932230D01*
X143865912Y-93864409D01*
X143888449Y-93798274D01*
X143933507Y-93759232D01*
X143942555Y-93754622D01*
X143996716Y-93715270D01*
X143996717Y-93715270D01*
X143364408Y-93082962D01*
X143427993Y-93065925D01*
X143542007Y-93000099D01*
X143635099Y-92907007D01*
X143700925Y-92792993D01*
X143717962Y-92729408D01*
X144350270Y-93361717D01*
X144350270Y-93361716D01*
X144389622Y-93307554D01*
X144486095Y-93118217D01*
X144551757Y-92916130D01*
X144551757Y-92916127D01*
X144585000Y-92706246D01*
X144585000Y-92493753D01*
X144551757Y-92283872D01*
X144551757Y-92283869D01*
X144486095Y-92081782D01*
X144389624Y-91892449D01*
X144350270Y-91838282D01*
X144350269Y-91838282D01*
X143717962Y-92470590D01*
X143700925Y-92407007D01*
X143635099Y-92292993D01*
X143542007Y-92199901D01*
X143427993Y-92134075D01*
X143364409Y-92117037D01*
X144034627Y-91446818D01*
X144095950Y-91413333D01*
X144122307Y-91410499D01*
X144132872Y-91410499D01*
X144192483Y-91404091D01*
X144327331Y-91353796D01*
X144442546Y-91267546D01*
X144528796Y-91152331D01*
X144579091Y-91017483D01*
X144585500Y-90957873D01*
X144585499Y-89433499D01*
X144605184Y-89366461D01*
X144657987Y-89320706D01*
X144709499Y-89309500D01*
X145267481Y-89309500D01*
X145334520Y-89329185D01*
G37*
%TD.AperFunction*%
%TA.AperFunction,Conductor*%
G36*
X168003736Y-87500726D02*
G01*
X168293796Y-87518271D01*
X168308659Y-87520076D01*
X168590798Y-87571780D01*
X168605335Y-87575363D01*
X168879172Y-87660695D01*
X168893163Y-87666000D01*
X169154743Y-87783727D01*
X169167989Y-87790680D01*
X169413465Y-87939075D01*
X169425776Y-87947573D01*
X169477661Y-87988222D01*
X169651573Y-88124473D01*
X169662781Y-88134403D01*
X169865596Y-88337218D01*
X169875526Y-88348426D01*
X169995481Y-88501538D01*
X170052422Y-88574217D01*
X170060926Y-88586537D01*
X170169540Y-88766206D01*
X170209316Y-88832004D01*
X170216274Y-88845262D01*
X170219511Y-88852454D01*
X170333997Y-89106831D01*
X170339306Y-89120832D01*
X170424635Y-89394663D01*
X170428219Y-89409201D01*
X170479923Y-89691340D01*
X170481728Y-89706205D01*
X170499274Y-89996263D01*
X170499500Y-90003750D01*
X170499500Y-111996249D01*
X170499274Y-112003736D01*
X170481728Y-112293794D01*
X170479923Y-112308659D01*
X170428219Y-112590798D01*
X170424635Y-112605336D01*
X170339306Y-112879167D01*
X170333997Y-112893168D01*
X170216275Y-113154736D01*
X170209316Y-113167995D01*
X170060928Y-113413459D01*
X170052422Y-113425782D01*
X169875526Y-113651573D01*
X169865596Y-113662781D01*
X169662781Y-113865596D01*
X169651573Y-113875526D01*
X169425782Y-114052422D01*
X169413459Y-114060928D01*
X169167995Y-114209316D01*
X169154736Y-114216275D01*
X168893168Y-114333997D01*
X168879167Y-114339306D01*
X168605336Y-114424635D01*
X168590798Y-114428219D01*
X168308659Y-114479923D01*
X168293794Y-114481728D01*
X168003736Y-114499274D01*
X167996249Y-114499500D01*
X110003751Y-114499500D01*
X109996264Y-114499274D01*
X109706205Y-114481728D01*
X109691340Y-114479923D01*
X109409201Y-114428219D01*
X109394663Y-114424635D01*
X109120832Y-114339306D01*
X109106831Y-114333997D01*
X108845263Y-114216275D01*
X108832004Y-114209316D01*
X108586540Y-114060928D01*
X108574217Y-114052422D01*
X108348426Y-113875526D01*
X108337218Y-113865596D01*
X108134403Y-113662781D01*
X108124473Y-113651573D01*
X107947573Y-113425776D01*
X107939075Y-113413465D01*
X107790680Y-113167989D01*
X107783727Y-113154743D01*
X107666000Y-112893163D01*
X107660693Y-112879167D01*
X107656646Y-112866181D01*
X107575363Y-112605335D01*
X107571780Y-112590798D01*
X107520076Y-112308659D01*
X107518271Y-112293794D01*
X107509944Y-112156125D01*
X107500726Y-112003736D01*
X107500500Y-111996249D01*
X107500500Y-111052155D01*
X113370000Y-111052155D01*
X113370000Y-111700000D01*
X114286988Y-111700000D01*
X114254075Y-111757007D01*
X114220000Y-111884174D01*
X114220000Y-112015826D01*
X114254075Y-112142993D01*
X114286988Y-112200000D01*
X113370000Y-112200000D01*
X113370000Y-112847844D01*
X113376401Y-112907372D01*
X113376403Y-112907379D01*
X113426645Y-113042086D01*
X113426649Y-113042093D01*
X113512809Y-113157187D01*
X113512812Y-113157190D01*
X113627906Y-113243350D01*
X113627913Y-113243354D01*
X113762620Y-113293596D01*
X113762627Y-113293598D01*
X113822155Y-113299999D01*
X113822172Y-113300000D01*
X114470000Y-113300000D01*
X114470000Y-112383012D01*
X114527007Y-112415925D01*
X114654174Y-112450000D01*
X114785826Y-112450000D01*
X114912993Y-112415925D01*
X114970000Y-112383012D01*
X114970000Y-113300000D01*
X115617828Y-113300000D01*
X115617844Y-113299999D01*
X115677372Y-113293598D01*
X115677379Y-113293596D01*
X115812086Y-113243354D01*
X115812093Y-113243350D01*
X115927187Y-113157190D01*
X115927190Y-113157187D01*
X116013350Y-113042093D01*
X116013354Y-113042086D01*
X116062422Y-112910529D01*
X116104293Y-112854595D01*
X116169757Y-112830178D01*
X116238030Y-112845030D01*
X116266285Y-112866181D01*
X116380213Y-112980109D01*
X116552179Y-113105048D01*
X116552181Y-113105049D01*
X116552184Y-113105051D01*
X116741588Y-113201557D01*
X116943757Y-113267246D01*
X117153713Y-113300500D01*
X117153714Y-113300500D01*
X117366286Y-113300500D01*
X117366287Y-113300500D01*
X117576243Y-113267246D01*
X117778412Y-113201557D01*
X117967816Y-113105051D01*
X118054471Y-113042093D01*
X118139786Y-112980109D01*
X118139788Y-112980106D01*
X118139792Y-112980104D01*
X118290104Y-112829792D01*
X118290106Y-112829788D01*
X118290109Y-112829786D01*
X118415048Y-112657820D01*
X118415047Y-112657820D01*
X118415051Y-112657816D01*
X118419514Y-112649054D01*
X118467488Y-112598259D01*
X118535308Y-112581463D01*
X118601444Y-112603999D01*
X118640486Y-112649056D01*
X118644951Y-112657820D01*
X118769890Y-112829786D01*
X118920213Y-112980109D01*
X119092179Y-113105048D01*
X119092181Y-113105049D01*
X119092184Y-113105051D01*
X119281588Y-113201557D01*
X119483757Y-113267246D01*
X119693713Y-113300500D01*
X119693714Y-113300500D01*
X119906286Y-113300500D01*
X119906287Y-113300500D01*
X120116243Y-113267246D01*
X120318412Y-113201557D01*
X120507816Y-113105051D01*
X120594471Y-113042093D01*
X120679786Y-112980109D01*
X120679788Y-112980106D01*
X120679792Y-112980104D01*
X120830104Y-112829792D01*
X120830106Y-112829788D01*
X120830109Y-112829786D01*
X120955048Y-112657820D01*
X120955047Y-112657820D01*
X120955051Y-112657816D01*
X120959514Y-112649054D01*
X121007488Y-112598259D01*
X121075308Y-112581463D01*
X121141444Y-112603999D01*
X121180486Y-112649056D01*
X121184951Y-112657820D01*
X121309890Y-112829786D01*
X121460213Y-112980109D01*
X121632179Y-113105048D01*
X121632181Y-113105049D01*
X121632184Y-113105051D01*
X121821588Y-113201557D01*
X122023757Y-113267246D01*
X122233713Y-113300500D01*
X122233714Y-113300500D01*
X122446286Y-113300500D01*
X122446287Y-113300500D01*
X122656243Y-113267246D01*
X122858412Y-113201557D01*
X123047816Y-113105051D01*
X123134471Y-113042093D01*
X123219786Y-112980109D01*
X123219788Y-112980106D01*
X123219792Y-112980104D01*
X123370104Y-112829792D01*
X123370106Y-112829788D01*
X123370109Y-112829786D01*
X123495048Y-112657820D01*
X123495047Y-112657820D01*
X123495051Y-112657816D01*
X123591557Y-112468412D01*
X123657246Y-112266243D01*
X123690500Y-112056287D01*
X123690500Y-111893713D01*
X131889500Y-111893713D01*
X131889500Y-112106286D01*
X131922735Y-112316127D01*
X131922754Y-112316243D01*
X131966214Y-112450000D01*
X131988444Y-112518414D01*
X132084951Y-112707820D01*
X132209890Y-112879786D01*
X132360213Y-113030109D01*
X132532179Y-113155048D01*
X132532181Y-113155049D01*
X132532184Y-113155051D01*
X132721588Y-113251557D01*
X132923757Y-113317246D01*
X133133713Y-113350500D01*
X133133714Y-113350500D01*
X133346286Y-113350500D01*
X133346287Y-113350500D01*
X133556243Y-113317246D01*
X133758412Y-113251557D01*
X133947816Y-113155051D01*
X134034138Y-113092335D01*
X134119786Y-113030109D01*
X134119788Y-113030106D01*
X134119792Y-113030104D01*
X134270104Y-112879792D01*
X134270106Y-112879788D01*
X134270109Y-112879786D01*
X134355890Y-112761717D01*
X134395051Y-112707816D01*
X134399793Y-112698508D01*
X134447763Y-112647711D01*
X134515583Y-112630911D01*
X134581719Y-112653445D01*
X134620763Y-112698500D01*
X134625373Y-112707547D01*
X134664728Y-112761716D01*
X135297037Y-112129408D01*
X135314075Y-112192993D01*
X135379901Y-112307007D01*
X135472993Y-112400099D01*
X135587007Y-112465925D01*
X135650590Y-112482962D01*
X135018282Y-113115269D01*
X135018282Y-113115270D01*
X135072449Y-113154624D01*
X135261782Y-113251095D01*
X135463870Y-113316757D01*
X135673754Y-113350000D01*
X135886246Y-113350000D01*
X136096127Y-113316757D01*
X136096130Y-113316757D01*
X136298217Y-113251095D01*
X136487554Y-113154622D01*
X136541716Y-113115270D01*
X136541717Y-113115270D01*
X135909408Y-112482962D01*
X135972993Y-112465925D01*
X136087007Y-112400099D01*
X136180099Y-112307007D01*
X136245925Y-112192993D01*
X136262962Y-112129408D01*
X136933181Y-112799628D01*
X136966666Y-112860951D01*
X136969500Y-112887300D01*
X136969500Y-112897865D01*
X136969501Y-112897876D01*
X136975908Y-112957483D01*
X137026202Y-113092328D01*
X137026206Y-113092335D01*
X137112452Y-113207544D01*
X137112455Y-113207547D01*
X137227664Y-113293793D01*
X137227671Y-113293797D01*
X137362517Y-113344091D01*
X137362516Y-113344091D01*
X137369444Y-113344835D01*
X137422127Y-113350500D01*
X139217872Y-113350499D01*
X139277483Y-113344091D01*
X139412331Y-113293796D01*
X139527546Y-113207546D01*
X139613796Y-113092331D01*
X139664091Y-112957483D01*
X139670500Y-112897873D01*
X139670499Y-111893753D01*
X146070000Y-111893753D01*
X146070000Y-112106246D01*
X146103242Y-112316127D01*
X146103242Y-112316130D01*
X146168904Y-112518217D01*
X146265375Y-112707550D01*
X146304728Y-112761716D01*
X146937037Y-112129408D01*
X146954075Y-112192993D01*
X147019901Y-112307007D01*
X147112993Y-112400099D01*
X147227007Y-112465925D01*
X147290590Y-112482962D01*
X146658282Y-113115269D01*
X146658282Y-113115270D01*
X146712449Y-113154624D01*
X146901782Y-113251095D01*
X147103870Y-113316757D01*
X147313754Y-113350000D01*
X147526246Y-113350000D01*
X147736127Y-113316757D01*
X147736130Y-113316757D01*
X147938217Y-113251095D01*
X148127554Y-113154622D01*
X148181716Y-113115270D01*
X148181717Y-113115270D01*
X147549408Y-112482962D01*
X147612993Y-112465925D01*
X147727007Y-112400099D01*
X147820099Y-112307007D01*
X147885925Y-112192993D01*
X147902962Y-112129408D01*
X148535270Y-112761717D01*
X148535270Y-112761716D01*
X148574622Y-112707555D01*
X148579232Y-112698507D01*
X148627205Y-112647709D01*
X148695025Y-112630912D01*
X148761161Y-112653447D01*
X148800204Y-112698504D01*
X148804949Y-112707817D01*
X148929890Y-112879786D01*
X149080213Y-113030109D01*
X149252179Y-113155048D01*
X149252181Y-113155049D01*
X149252184Y-113155051D01*
X149441588Y-113251557D01*
X149643757Y-113317246D01*
X149853713Y-113350500D01*
X149853714Y-113350500D01*
X150066286Y-113350500D01*
X150066287Y-113350500D01*
X150276243Y-113317246D01*
X150478412Y-113251557D01*
X150667816Y-113155051D01*
X150754138Y-113092335D01*
X150839786Y-113030109D01*
X150839788Y-113030106D01*
X150839792Y-113030104D01*
X150990104Y-112879792D01*
X150990106Y-112879788D01*
X150990109Y-112879786D01*
X151075890Y-112761717D01*
X151115051Y-112707816D01*
X151119793Y-112698508D01*
X151167763Y-112647711D01*
X151235583Y-112630911D01*
X151301719Y-112653445D01*
X151340763Y-112698500D01*
X151345373Y-112707547D01*
X151384728Y-112761716D01*
X152017037Y-112129408D01*
X152034075Y-112192993D01*
X152099901Y-112307007D01*
X152192993Y-112400099D01*
X152307007Y-112465925D01*
X152370590Y-112482962D01*
X151738282Y-113115269D01*
X151738282Y-113115270D01*
X151792449Y-113154624D01*
X151981782Y-113251095D01*
X152183870Y-113316757D01*
X152393754Y-113350000D01*
X152606246Y-113350000D01*
X152816127Y-113316757D01*
X152816130Y-113316757D01*
X153018217Y-113251095D01*
X153207554Y-113154622D01*
X153261716Y-113115270D01*
X153261717Y-113115270D01*
X152629408Y-112482962D01*
X152692993Y-112465925D01*
X152807007Y-112400099D01*
X152900099Y-112307007D01*
X152965925Y-112192993D01*
X152982962Y-112129409D01*
X153653181Y-112799628D01*
X153686666Y-112860951D01*
X153689500Y-112887300D01*
X153689500Y-112897865D01*
X153689501Y-112897876D01*
X153695908Y-112957483D01*
X153746202Y-113092328D01*
X153746206Y-113092335D01*
X153832452Y-113207544D01*
X153832455Y-113207547D01*
X153947664Y-113293793D01*
X153947671Y-113293797D01*
X154082517Y-113344091D01*
X154082516Y-113344091D01*
X154089444Y-113344835D01*
X154142127Y-113350500D01*
X155937872Y-113350499D01*
X155997483Y-113344091D01*
X156132331Y-113293796D01*
X156247546Y-113207546D01*
X156333796Y-113092331D01*
X156384091Y-112957483D01*
X156390500Y-112897873D01*
X156390499Y-111102128D01*
X156384091Y-111042517D01*
X156375859Y-111020447D01*
X156333797Y-110907671D01*
X156333793Y-110907664D01*
X156247547Y-110792455D01*
X156247544Y-110792452D01*
X156132335Y-110706206D01*
X156132328Y-110706202D01*
X155997482Y-110655908D01*
X155997483Y-110655908D01*
X155937883Y-110649501D01*
X155937881Y-110649500D01*
X155937873Y-110649500D01*
X155937864Y-110649500D01*
X154142129Y-110649500D01*
X154142123Y-110649501D01*
X154082516Y-110655908D01*
X153947671Y-110706202D01*
X153947664Y-110706206D01*
X153832455Y-110792452D01*
X153832452Y-110792455D01*
X153746206Y-110907664D01*
X153746202Y-110907671D01*
X153695908Y-111042517D01*
X153692931Y-111070213D01*
X153689501Y-111102123D01*
X153689500Y-111102135D01*
X153689500Y-111112690D01*
X153669815Y-111179729D01*
X153653181Y-111200371D01*
X152982962Y-111870590D01*
X152965925Y-111807007D01*
X152900099Y-111692993D01*
X152807007Y-111599901D01*
X152692993Y-111534075D01*
X152629409Y-111517037D01*
X153261716Y-110884728D01*
X153207550Y-110845375D01*
X153018217Y-110748904D01*
X152816129Y-110683242D01*
X152606246Y-110650000D01*
X152393754Y-110650000D01*
X152183872Y-110683242D01*
X152183869Y-110683242D01*
X151981782Y-110748904D01*
X151792439Y-110845380D01*
X151738282Y-110884727D01*
X151738282Y-110884728D01*
X152370591Y-111517037D01*
X152307007Y-111534075D01*
X152192993Y-111599901D01*
X152099901Y-111692993D01*
X152034075Y-111807007D01*
X152017037Y-111870591D01*
X151384728Y-111238282D01*
X151384727Y-111238282D01*
X151345380Y-111292440D01*
X151345376Y-111292446D01*
X151340760Y-111301505D01*
X151292781Y-111352297D01*
X151224959Y-111369087D01*
X151158826Y-111346543D01*
X151119794Y-111301493D01*
X151115051Y-111292184D01*
X151115049Y-111292181D01*
X151115048Y-111292179D01*
X150990109Y-111120213D01*
X150839786Y-110969890D01*
X150667820Y-110844951D01*
X150478414Y-110748444D01*
X150478413Y-110748443D01*
X150478412Y-110748443D01*
X150276243Y-110682754D01*
X150276241Y-110682753D01*
X150276240Y-110682753D01*
X150111398Y-110656645D01*
X150066287Y-110649500D01*
X149853713Y-110649500D01*
X149808602Y-110656645D01*
X149643760Y-110682753D01*
X149441585Y-110748444D01*
X149252179Y-110844951D01*
X149080213Y-110969890D01*
X148929890Y-111120213D01*
X148804949Y-111292182D01*
X148800202Y-111301499D01*
X148752227Y-111352293D01*
X148684405Y-111369087D01*
X148618271Y-111346548D01*
X148579234Y-111301495D01*
X148574626Y-111292452D01*
X148535270Y-111238282D01*
X148535269Y-111238282D01*
X147902962Y-111870590D01*
X147885925Y-111807007D01*
X147820099Y-111692993D01*
X147727007Y-111599901D01*
X147612993Y-111534075D01*
X147549409Y-111517037D01*
X148181716Y-110884728D01*
X148127550Y-110845375D01*
X147938217Y-110748904D01*
X147736129Y-110683242D01*
X147526246Y-110650000D01*
X147313754Y-110650000D01*
X147103872Y-110683242D01*
X147103869Y-110683242D01*
X146901782Y-110748904D01*
X146712439Y-110845380D01*
X146658282Y-110884727D01*
X146658282Y-110884728D01*
X147290591Y-111517037D01*
X147227007Y-111534075D01*
X147112993Y-111599901D01*
X147019901Y-111692993D01*
X146954075Y-111807007D01*
X146937037Y-111870591D01*
X146304728Y-111238282D01*
X146304727Y-111238282D01*
X146265380Y-111292439D01*
X146168904Y-111481782D01*
X146103242Y-111683869D01*
X146103242Y-111683872D01*
X146070000Y-111893753D01*
X139670499Y-111893753D01*
X139670499Y-111102128D01*
X139664091Y-111042517D01*
X139627617Y-110944726D01*
X139613798Y-110907673D01*
X139613793Y-110907664D01*
X139527547Y-110792455D01*
X139527544Y-110792452D01*
X139412335Y-110706206D01*
X139412328Y-110706202D01*
X139277482Y-110655908D01*
X139277483Y-110655908D01*
X139217883Y-110649501D01*
X139217881Y-110649500D01*
X139217873Y-110649500D01*
X139217864Y-110649500D01*
X137422129Y-110649500D01*
X137422123Y-110649501D01*
X137362516Y-110655908D01*
X137227671Y-110706202D01*
X137227664Y-110706206D01*
X137112455Y-110792452D01*
X137112452Y-110792455D01*
X137026206Y-110907664D01*
X137026202Y-110907671D01*
X136975908Y-111042517D01*
X136972931Y-111070213D01*
X136969501Y-111102123D01*
X136969500Y-111102135D01*
X136969500Y-111112690D01*
X136949815Y-111179729D01*
X136933181Y-111200371D01*
X136262962Y-111870590D01*
X136245925Y-111807007D01*
X136180099Y-111692993D01*
X136087007Y-111599901D01*
X135972993Y-111534075D01*
X135909409Y-111517037D01*
X136541716Y-110884728D01*
X136487550Y-110845375D01*
X136298217Y-110748904D01*
X136096129Y-110683242D01*
X135886246Y-110650000D01*
X135673754Y-110650000D01*
X135463872Y-110683242D01*
X135463869Y-110683242D01*
X135261782Y-110748904D01*
X135072439Y-110845380D01*
X135018282Y-110884727D01*
X135018282Y-110884728D01*
X135650591Y-111517037D01*
X135587007Y-111534075D01*
X135472993Y-111599901D01*
X135379901Y-111692993D01*
X135314075Y-111807007D01*
X135297037Y-111870591D01*
X134664728Y-111238282D01*
X134664727Y-111238282D01*
X134625380Y-111292440D01*
X134625376Y-111292446D01*
X134620760Y-111301505D01*
X134572781Y-111352297D01*
X134504959Y-111369087D01*
X134438826Y-111346543D01*
X134399794Y-111301493D01*
X134395051Y-111292184D01*
X134395049Y-111292181D01*
X134395048Y-111292179D01*
X134270109Y-111120213D01*
X134119786Y-110969890D01*
X133947820Y-110844951D01*
X133758414Y-110748444D01*
X133758413Y-110748443D01*
X133758412Y-110748443D01*
X133556243Y-110682754D01*
X133556241Y-110682753D01*
X133556240Y-110682753D01*
X133391398Y-110656645D01*
X133346287Y-110649500D01*
X133133713Y-110649500D01*
X133088602Y-110656645D01*
X132923760Y-110682753D01*
X132721585Y-110748444D01*
X132532179Y-110844951D01*
X132360213Y-110969890D01*
X132209890Y-111120213D01*
X132084951Y-111292179D01*
X131988444Y-111481585D01*
X131922753Y-111683760D01*
X131889500Y-111893713D01*
X123690500Y-111893713D01*
X123690500Y-111843713D01*
X123657246Y-111633757D01*
X123591557Y-111431588D01*
X123495051Y-111242184D01*
X123495049Y-111242181D01*
X123495048Y-111242179D01*
X123370109Y-111070213D01*
X123219786Y-110919890D01*
X123047820Y-110794951D01*
X122858414Y-110698444D01*
X122858413Y-110698443D01*
X122858412Y-110698443D01*
X122656243Y-110632754D01*
X122656241Y-110632753D01*
X122656240Y-110632753D01*
X122494957Y-110607208D01*
X122446287Y-110599500D01*
X122233713Y-110599500D01*
X122185042Y-110607208D01*
X122023760Y-110632753D01*
X121821585Y-110698444D01*
X121632179Y-110794951D01*
X121460213Y-110919890D01*
X121309890Y-111070213D01*
X121184949Y-111242182D01*
X121180484Y-111250946D01*
X121132509Y-111301742D01*
X121064688Y-111318536D01*
X120998553Y-111295998D01*
X120959516Y-111250946D01*
X120955050Y-111242182D01*
X120830109Y-111070213D01*
X120679786Y-110919890D01*
X120507820Y-110794951D01*
X120318414Y-110698444D01*
X120318413Y-110698443D01*
X120318412Y-110698443D01*
X120116243Y-110632754D01*
X120116241Y-110632753D01*
X120116240Y-110632753D01*
X119954957Y-110607208D01*
X119906287Y-110599500D01*
X119693713Y-110599500D01*
X119645042Y-110607208D01*
X119483760Y-110632753D01*
X119281585Y-110698444D01*
X119092179Y-110794951D01*
X118920213Y-110919890D01*
X118769890Y-111070213D01*
X118644949Y-111242182D01*
X118640484Y-111250946D01*
X118592509Y-111301742D01*
X118524688Y-111318536D01*
X118458553Y-111295998D01*
X118419516Y-111250946D01*
X118415050Y-111242182D01*
X118290109Y-111070213D01*
X118139786Y-110919890D01*
X117967820Y-110794951D01*
X117778414Y-110698444D01*
X117778413Y-110698443D01*
X117778412Y-110698443D01*
X117576243Y-110632754D01*
X117576241Y-110632753D01*
X117576240Y-110632753D01*
X117414957Y-110607208D01*
X117366287Y-110599500D01*
X117153713Y-110599500D01*
X117105042Y-110607208D01*
X116943760Y-110632753D01*
X116741585Y-110698444D01*
X116552179Y-110794951D01*
X116380215Y-110919889D01*
X116266285Y-111033819D01*
X116204962Y-111067303D01*
X116135270Y-111062319D01*
X116079337Y-111020447D01*
X116062422Y-110989470D01*
X116013354Y-110857913D01*
X116013350Y-110857906D01*
X115927190Y-110742812D01*
X115927187Y-110742809D01*
X115812093Y-110656649D01*
X115812086Y-110656645D01*
X115677379Y-110606403D01*
X115677372Y-110606401D01*
X115617844Y-110600000D01*
X114970000Y-110600000D01*
X114970000Y-111516988D01*
X114912993Y-111484075D01*
X114785826Y-111450000D01*
X114654174Y-111450000D01*
X114527007Y-111484075D01*
X114470000Y-111516988D01*
X114470000Y-110600000D01*
X113822155Y-110600000D01*
X113762627Y-110606401D01*
X113762620Y-110606403D01*
X113627913Y-110656645D01*
X113627906Y-110656649D01*
X113512812Y-110742809D01*
X113512809Y-110742812D01*
X113426649Y-110857906D01*
X113426645Y-110857913D01*
X113376403Y-110992620D01*
X113376401Y-110992627D01*
X113370000Y-111052155D01*
X107500500Y-111052155D01*
X107500500Y-90003750D01*
X107500726Y-89996263D01*
X107518271Y-89706205D01*
X107520076Y-89691340D01*
X107571780Y-89409201D01*
X107575364Y-89394663D01*
X107647822Y-89162135D01*
X116749500Y-89162135D01*
X116749500Y-90957870D01*
X116749501Y-90957876D01*
X116755908Y-91017483D01*
X116806202Y-91152328D01*
X116806206Y-91152335D01*
X116892452Y-91267544D01*
X116892455Y-91267547D01*
X117007664Y-91353793D01*
X117007671Y-91353797D01*
X117052618Y-91370561D01*
X117142517Y-91404091D01*
X117202127Y-91410500D01*
X117212685Y-91410499D01*
X117279723Y-91430179D01*
X117300372Y-91446818D01*
X117970591Y-92117037D01*
X117907007Y-92134075D01*
X117792993Y-92199901D01*
X117699901Y-92292993D01*
X117634075Y-92407007D01*
X117617037Y-92470591D01*
X116984728Y-91838282D01*
X116984727Y-91838282D01*
X116945380Y-91892439D01*
X116848904Y-92081782D01*
X116783242Y-92283869D01*
X116783242Y-92283872D01*
X116750000Y-92493753D01*
X116750000Y-92706246D01*
X116783242Y-92916127D01*
X116783242Y-92916130D01*
X116848904Y-93118217D01*
X116945375Y-93307550D01*
X116984728Y-93361716D01*
X117617037Y-92729408D01*
X117634075Y-92792993D01*
X117699901Y-92907007D01*
X117792993Y-93000099D01*
X117907007Y-93065925D01*
X117970590Y-93082962D01*
X117338282Y-93715269D01*
X117338282Y-93715270D01*
X117392452Y-93754626D01*
X117392451Y-93754626D01*
X117401495Y-93759234D01*
X117452292Y-93807208D01*
X117469087Y-93875029D01*
X117446550Y-93941164D01*
X117401499Y-93980202D01*
X117392182Y-93984949D01*
X117220213Y-94109890D01*
X117069890Y-94260213D01*
X116944951Y-94432179D01*
X116848444Y-94621585D01*
X116782753Y-94823760D01*
X116749500Y-95033713D01*
X116749500Y-95246286D01*
X116782753Y-95456239D01*
X116848444Y-95658414D01*
X116944951Y-95847820D01*
X117069890Y-96019786D01*
X117220213Y-96170109D01*
X117392182Y-96295050D01*
X117400946Y-96299516D01*
X117451742Y-96347491D01*
X117468536Y-96415312D01*
X117445998Y-96481447D01*
X117400946Y-96520484D01*
X117392182Y-96524949D01*
X117220213Y-96649890D01*
X117069890Y-96800213D01*
X116944951Y-96972179D01*
X116848444Y-97161585D01*
X116782753Y-97363760D01*
X116760199Y-97506162D01*
X116749500Y-97573713D01*
X116749500Y-97786287D01*
X116759534Y-97849644D01*
X116782753Y-97996239D01*
X116848444Y-98198414D01*
X116944951Y-98387820D01*
X117069890Y-98559786D01*
X117220213Y-98710109D01*
X117392182Y-98835050D01*
X117400946Y-98839516D01*
X117451742Y-98887491D01*
X117468536Y-98955312D01*
X117445998Y-99021447D01*
X117400946Y-99060484D01*
X117392182Y-99064949D01*
X117220213Y-99189890D01*
X117069890Y-99340213D01*
X116944951Y-99512179D01*
X116848444Y-99701585D01*
X116782753Y-99903760D01*
X116749500Y-100113713D01*
X116749500Y-100326286D01*
X116782753Y-100536239D01*
X116848444Y-100738414D01*
X116944951Y-100927820D01*
X117069890Y-101099786D01*
X117220213Y-101250109D01*
X117392182Y-101375050D01*
X117400946Y-101379516D01*
X117451742Y-101427491D01*
X117468536Y-101495312D01*
X117445998Y-101561447D01*
X117400946Y-101600484D01*
X117392182Y-101604949D01*
X117220213Y-101729890D01*
X117069890Y-101880213D01*
X116944951Y-102052179D01*
X116848444Y-102241585D01*
X116782753Y-102443760D01*
X116749500Y-102653713D01*
X116749500Y-102866286D01*
X116782753Y-103076239D01*
X116848444Y-103278414D01*
X116944951Y-103467820D01*
X117069890Y-103639786D01*
X117220213Y-103790109D01*
X117392179Y-103915048D01*
X117392181Y-103915049D01*
X117392184Y-103915051D01*
X117581588Y-104011557D01*
X117783757Y-104077246D01*
X117993713Y-104110500D01*
X117993714Y-104110500D01*
X118206286Y-104110500D01*
X118206287Y-104110500D01*
X118416243Y-104077246D01*
X118618412Y-104011557D01*
X118807816Y-103915051D01*
X118829789Y-103899086D01*
X118979786Y-103790109D01*
X118979788Y-103790106D01*
X118979792Y-103790104D01*
X119130104Y-103639792D01*
X119130106Y-103639788D01*
X119130109Y-103639786D01*
X119255048Y-103467820D01*
X119255047Y-103467820D01*
X119255051Y-103467816D01*
X119351557Y-103278412D01*
X119417246Y-103076243D01*
X119450500Y-102866287D01*
X119450500Y-102653713D01*
X119417246Y-102443757D01*
X119351557Y-102241588D01*
X119255051Y-102052184D01*
X119255049Y-102052181D01*
X119255048Y-102052179D01*
X119130109Y-101880213D01*
X118979786Y-101729890D01*
X118807820Y-101604951D01*
X118807115Y-101604591D01*
X118799054Y-101600485D01*
X118748259Y-101552512D01*
X118731463Y-101484692D01*
X118753999Y-101418556D01*
X118799054Y-101379515D01*
X118807816Y-101375051D01*
X118829789Y-101359086D01*
X118979786Y-101250109D01*
X118979788Y-101250106D01*
X118979792Y-101250104D01*
X119130104Y-101099792D01*
X119130106Y-101099788D01*
X119130109Y-101099786D01*
X119255048Y-100927820D01*
X119255047Y-100927820D01*
X119255051Y-100927816D01*
X119351557Y-100738412D01*
X119417246Y-100536243D01*
X119450500Y-100326287D01*
X119450500Y-100113713D01*
X119417246Y-99903757D01*
X119351557Y-99701588D01*
X119255051Y-99512184D01*
X119255049Y-99512181D01*
X119255048Y-99512179D01*
X119130109Y-99340213D01*
X118979786Y-99189890D01*
X118807820Y-99064951D01*
X118807115Y-99064591D01*
X118799054Y-99060485D01*
X118748259Y-99012512D01*
X118731463Y-98944692D01*
X118753999Y-98878556D01*
X118799054Y-98839515D01*
X118807816Y-98835051D01*
X118829789Y-98819086D01*
X118979786Y-98710109D01*
X118979788Y-98710106D01*
X118979792Y-98710104D01*
X119130104Y-98559792D01*
X119130106Y-98559788D01*
X119130109Y-98559786D01*
X119255048Y-98387820D01*
X119255047Y-98387820D01*
X119255051Y-98387816D01*
X119351557Y-98198412D01*
X119417246Y-97996243D01*
X119450500Y-97786287D01*
X119450500Y-97573713D01*
X119417246Y-97363757D01*
X119351557Y-97161588D01*
X119255051Y-96972184D01*
X119255049Y-96972181D01*
X119255048Y-96972179D01*
X119130109Y-96800213D01*
X118979786Y-96649890D01*
X118807820Y-96524951D01*
X118807115Y-96524591D01*
X118799054Y-96520485D01*
X118748259Y-96472512D01*
X118731463Y-96404692D01*
X118753999Y-96338556D01*
X118799054Y-96299515D01*
X118807816Y-96295051D01*
X118829789Y-96279086D01*
X118979786Y-96170109D01*
X118979788Y-96170106D01*
X118979792Y-96170104D01*
X119130104Y-96019792D01*
X119130106Y-96019788D01*
X119130109Y-96019786D01*
X119255048Y-95847820D01*
X119255047Y-95847820D01*
X119255051Y-95847816D01*
X119351557Y-95658412D01*
X119417246Y-95456243D01*
X119450500Y-95246287D01*
X119450500Y-95033713D01*
X119417246Y-94823757D01*
X119351557Y-94621588D01*
X119255051Y-94432184D01*
X119255049Y-94432181D01*
X119255048Y-94432179D01*
X119130109Y-94260213D01*
X118979786Y-94109890D01*
X118807817Y-93984949D01*
X118798504Y-93980204D01*
X118747707Y-93932230D01*
X118730912Y-93864409D01*
X118753449Y-93798274D01*
X118798507Y-93759232D01*
X118807555Y-93754622D01*
X118861716Y-93715270D01*
X118861717Y-93715270D01*
X118229408Y-93082962D01*
X118292993Y-93065925D01*
X118407007Y-93000099D01*
X118500099Y-92907007D01*
X118565925Y-92792993D01*
X118582962Y-92729408D01*
X119215270Y-93361717D01*
X119215270Y-93361716D01*
X119254622Y-93307554D01*
X119351095Y-93118217D01*
X119416757Y-92916130D01*
X119416757Y-92916127D01*
X119450000Y-92706246D01*
X119450000Y-92493753D01*
X119416757Y-92283872D01*
X119416757Y-92283869D01*
X119351095Y-92081782D01*
X119254624Y-91892449D01*
X119215270Y-91838282D01*
X119215269Y-91838282D01*
X118582962Y-92470590D01*
X118565925Y-92407007D01*
X118500099Y-92292993D01*
X118407007Y-92199901D01*
X118292993Y-92134075D01*
X118229409Y-92117037D01*
X118899627Y-91446818D01*
X118960950Y-91413333D01*
X118987307Y-91410499D01*
X118997872Y-91410499D01*
X119057483Y-91404091D01*
X119192331Y-91353796D01*
X119307546Y-91267546D01*
X119393796Y-91152331D01*
X119444091Y-91017483D01*
X119450500Y-90957873D01*
X119450499Y-89162135D01*
X126649500Y-89162135D01*
X126649500Y-90957870D01*
X126649501Y-90957876D01*
X126655908Y-91017483D01*
X126706202Y-91152328D01*
X126706206Y-91152335D01*
X126792452Y-91267544D01*
X126792455Y-91267547D01*
X126907664Y-91353793D01*
X126907671Y-91353797D01*
X127039082Y-91402810D01*
X127095016Y-91444681D01*
X127119433Y-91510145D01*
X127104582Y-91578418D01*
X127083431Y-91606673D01*
X126969889Y-91720215D01*
X126844951Y-91892179D01*
X126748444Y-92081585D01*
X126682753Y-92283760D01*
X126649500Y-92493713D01*
X126649500Y-92706286D01*
X126682753Y-92916239D01*
X126748444Y-93118414D01*
X126844951Y-93307820D01*
X126969890Y-93479786D01*
X127120213Y-93630109D01*
X127292182Y-93755050D01*
X127300946Y-93759516D01*
X127351742Y-93807491D01*
X127368536Y-93875312D01*
X127345998Y-93941447D01*
X127300946Y-93980484D01*
X127292182Y-93984949D01*
X127120213Y-94109890D01*
X126969890Y-94260213D01*
X126844951Y-94432179D01*
X126748444Y-94621585D01*
X126682753Y-94823760D01*
X126649500Y-95033713D01*
X126649500Y-95246286D01*
X126682753Y-95456239D01*
X126748444Y-95658414D01*
X126844951Y-95847820D01*
X126969890Y-96019786D01*
X127120213Y-96170109D01*
X127292182Y-96295050D01*
X127300946Y-96299516D01*
X127351742Y-96347491D01*
X127368536Y-96415312D01*
X127345998Y-96481447D01*
X127300946Y-96520484D01*
X127292182Y-96524949D01*
X127120213Y-96649890D01*
X126969890Y-96800213D01*
X126844951Y-96972179D01*
X126748444Y-97161585D01*
X126682753Y-97363760D01*
X126660199Y-97506162D01*
X126649500Y-97573713D01*
X126649500Y-97786287D01*
X126659534Y-97849644D01*
X126682753Y-97996239D01*
X126748444Y-98198414D01*
X126844951Y-98387820D01*
X126969890Y-98559786D01*
X127120213Y-98710109D01*
X127292182Y-98835050D01*
X127300946Y-98839516D01*
X127351742Y-98887491D01*
X127368536Y-98955312D01*
X127345998Y-99021447D01*
X127300946Y-99060484D01*
X127292182Y-99064949D01*
X127120213Y-99189890D01*
X126969890Y-99340213D01*
X126844951Y-99512179D01*
X126748444Y-99701585D01*
X126682753Y-99903760D01*
X126649500Y-100113713D01*
X126649500Y-100326286D01*
X126682753Y-100536239D01*
X126748444Y-100738414D01*
X126844951Y-100927820D01*
X126969890Y-101099786D01*
X127120213Y-101250109D01*
X127292182Y-101375050D01*
X127300946Y-101379516D01*
X127351742Y-101427491D01*
X127368536Y-101495312D01*
X127345998Y-101561447D01*
X127300946Y-101600484D01*
X127292182Y-101604949D01*
X127120213Y-101729890D01*
X126969890Y-101880213D01*
X126844951Y-102052179D01*
X126748444Y-102241585D01*
X126682753Y-102443760D01*
X126649500Y-102653713D01*
X126649500Y-102866286D01*
X126682753Y-103076239D01*
X126748444Y-103278414D01*
X126844951Y-103467820D01*
X126969890Y-103639786D01*
X127120213Y-103790109D01*
X127292182Y-103915050D01*
X127300946Y-103919516D01*
X127351742Y-103967491D01*
X127368536Y-104035312D01*
X127345998Y-104101447D01*
X127300946Y-104140484D01*
X127292182Y-104144949D01*
X127120213Y-104269890D01*
X126969890Y-104420213D01*
X126844951Y-104592179D01*
X126748444Y-104781585D01*
X126682753Y-104983760D01*
X126649500Y-105193713D01*
X126649500Y-105406286D01*
X126682753Y-105616239D01*
X126748444Y-105818414D01*
X126844951Y-106007820D01*
X126969890Y-106179786D01*
X127120213Y-106330109D01*
X127292179Y-106455048D01*
X127292181Y-106455049D01*
X127292184Y-106455051D01*
X127481588Y-106551557D01*
X127683757Y-106617246D01*
X127893713Y-106650500D01*
X127893714Y-106650500D01*
X128106286Y-106650500D01*
X128106287Y-106650500D01*
X128316243Y-106617246D01*
X128518412Y-106551557D01*
X128707816Y-106455051D01*
X128729789Y-106439086D01*
X128879786Y-106330109D01*
X128879788Y-106330106D01*
X128879792Y-106330104D01*
X129030104Y-106179792D01*
X129030106Y-106179788D01*
X129030109Y-106179786D01*
X129155048Y-106007820D01*
X129155047Y-106007820D01*
X129155051Y-106007816D01*
X129251557Y-105818412D01*
X129317246Y-105616243D01*
X129350500Y-105406287D01*
X129350500Y-105193713D01*
X129317246Y-104983757D01*
X129251557Y-104781588D01*
X129155051Y-104592184D01*
X129155049Y-104592181D01*
X129155048Y-104592179D01*
X129030109Y-104420213D01*
X128879786Y-104269890D01*
X128707820Y-104144951D01*
X128707115Y-104144591D01*
X128699054Y-104140485D01*
X128648259Y-104092512D01*
X128631463Y-104024692D01*
X128653999Y-103958556D01*
X128699054Y-103919515D01*
X128707816Y-103915051D01*
X128729789Y-103899086D01*
X128879786Y-103790109D01*
X128879788Y-103790106D01*
X128879792Y-103790104D01*
X129030104Y-103639792D01*
X129030106Y-103639788D01*
X129030109Y-103639786D01*
X129155048Y-103467820D01*
X129155047Y-103467820D01*
X129155051Y-103467816D01*
X129251557Y-103278412D01*
X129317246Y-103076243D01*
X129350500Y-102866287D01*
X129350500Y-102653713D01*
X129317246Y-102443757D01*
X129251557Y-102241588D01*
X129155051Y-102052184D01*
X129155049Y-102052181D01*
X129155048Y-102052179D01*
X129030109Y-101880213D01*
X128879786Y-101729890D01*
X128707820Y-101604951D01*
X128707115Y-101604591D01*
X128699054Y-101600485D01*
X128648259Y-101552512D01*
X128631463Y-101484692D01*
X128653999Y-101418556D01*
X128699054Y-101379515D01*
X128707816Y-101375051D01*
X128729789Y-101359086D01*
X128879786Y-101250109D01*
X128879788Y-101250106D01*
X128879792Y-101250104D01*
X129030104Y-101099792D01*
X129030106Y-101099788D01*
X129030109Y-101099786D01*
X129155048Y-100927820D01*
X129155047Y-100927820D01*
X129155051Y-100927816D01*
X129251557Y-100738412D01*
X129317246Y-100536243D01*
X129350500Y-100326287D01*
X129350500Y-100113713D01*
X129317246Y-99903757D01*
X129251557Y-99701588D01*
X129155051Y-99512184D01*
X129155049Y-99512181D01*
X129155048Y-99512179D01*
X129030109Y-99340213D01*
X128879786Y-99189890D01*
X128707820Y-99064951D01*
X128707115Y-99064591D01*
X128699054Y-99060485D01*
X128648259Y-99012512D01*
X128631463Y-98944692D01*
X128653999Y-98878556D01*
X128699054Y-98839515D01*
X128707816Y-98835051D01*
X128729789Y-98819086D01*
X128879786Y-98710109D01*
X128879788Y-98710106D01*
X128879792Y-98710104D01*
X129030104Y-98559792D01*
X129030106Y-98559788D01*
X129030109Y-98559786D01*
X129155048Y-98387820D01*
X129155047Y-98387820D01*
X129155051Y-98387816D01*
X129251557Y-98198412D01*
X129317246Y-97996243D01*
X129350500Y-97786287D01*
X129350500Y-97780519D01*
X129370185Y-97713480D01*
X129422989Y-97667725D01*
X129492147Y-97657781D01*
X129555703Y-97686806D01*
X129562181Y-97692838D01*
X139164453Y-107295111D01*
X139164454Y-107295112D01*
X139279192Y-107371777D01*
X139406667Y-107424578D01*
X139406672Y-107424580D01*
X139406676Y-107424580D01*
X139406677Y-107424581D01*
X139542003Y-107451500D01*
X139542006Y-107451500D01*
X152117996Y-107451500D01*
X152209040Y-107433389D01*
X152253328Y-107424580D01*
X152317069Y-107398177D01*
X152380807Y-107371777D01*
X152380808Y-107371776D01*
X152380811Y-107371775D01*
X152495543Y-107295114D01*
X153130150Y-106660505D01*
X153191471Y-106627022D01*
X153237227Y-106625715D01*
X153305868Y-106636586D01*
X153393713Y-106650500D01*
X153393714Y-106650500D01*
X153606286Y-106650500D01*
X153606287Y-106650500D01*
X153816243Y-106617246D01*
X154018412Y-106551557D01*
X154207816Y-106455051D01*
X154229789Y-106439086D01*
X154379786Y-106330109D01*
X154379788Y-106330106D01*
X154379792Y-106330104D01*
X154530104Y-106179792D01*
X154530106Y-106179788D01*
X154530109Y-106179786D01*
X154655048Y-106007820D01*
X154655047Y-106007820D01*
X154655051Y-106007816D01*
X154751557Y-105818412D01*
X154817246Y-105616243D01*
X154850500Y-105406287D01*
X154850500Y-105193713D01*
X154817246Y-104983757D01*
X154751557Y-104781588D01*
X154655051Y-104592184D01*
X154655049Y-104592181D01*
X154655048Y-104592179D01*
X154530109Y-104420213D01*
X154379786Y-104269890D01*
X154207820Y-104144951D01*
X154207115Y-104144591D01*
X154199054Y-104140485D01*
X154148259Y-104092512D01*
X154131463Y-104024692D01*
X154153999Y-103958556D01*
X154199054Y-103919515D01*
X154207816Y-103915051D01*
X154229789Y-103899086D01*
X154379786Y-103790109D01*
X154379788Y-103790106D01*
X154379792Y-103790104D01*
X154530104Y-103639792D01*
X154530106Y-103639788D01*
X154530109Y-103639786D01*
X154655048Y-103467820D01*
X154655047Y-103467820D01*
X154655051Y-103467816D01*
X154751557Y-103278412D01*
X154817246Y-103076243D01*
X154850500Y-102866287D01*
X154850500Y-102653713D01*
X154817246Y-102443757D01*
X154751557Y-102241588D01*
X154655051Y-102052184D01*
X154655049Y-102052181D01*
X154655048Y-102052179D01*
X154530109Y-101880213D01*
X154379786Y-101729890D01*
X154207820Y-101604951D01*
X154207115Y-101604591D01*
X154199054Y-101600485D01*
X154148259Y-101552512D01*
X154131463Y-101484692D01*
X154153999Y-101418556D01*
X154199054Y-101379515D01*
X154207816Y-101375051D01*
X154229789Y-101359086D01*
X154379786Y-101250109D01*
X154379788Y-101250106D01*
X154379792Y-101250104D01*
X154530104Y-101099792D01*
X154530106Y-101099788D01*
X154530109Y-101099786D01*
X154655048Y-100927820D01*
X154655047Y-100927820D01*
X154655051Y-100927816D01*
X154751557Y-100738412D01*
X154817246Y-100536243D01*
X154850500Y-100326287D01*
X154850500Y-100113713D01*
X154817246Y-99903757D01*
X154751557Y-99701588D01*
X154655051Y-99512184D01*
X154655049Y-99512181D01*
X154655048Y-99512179D01*
X154530109Y-99340213D01*
X154379786Y-99189890D01*
X154207820Y-99064951D01*
X154207115Y-99064591D01*
X154199054Y-99060485D01*
X154148259Y-99012512D01*
X154131463Y-98944692D01*
X154153999Y-98878556D01*
X154199054Y-98839515D01*
X154207816Y-98835051D01*
X154229789Y-98819086D01*
X154379786Y-98710109D01*
X154379788Y-98710106D01*
X154379792Y-98710104D01*
X154530104Y-98559792D01*
X154530106Y-98559788D01*
X154530109Y-98559786D01*
X154655048Y-98387820D01*
X154655047Y-98387820D01*
X154655051Y-98387816D01*
X154751557Y-98198412D01*
X154817246Y-97996243D01*
X154850500Y-97786287D01*
X154850500Y-97573713D01*
X154817246Y-97363757D01*
X154751557Y-97161588D01*
X154655051Y-96972184D01*
X154655049Y-96972181D01*
X154655048Y-96972179D01*
X154530109Y-96800213D01*
X154379786Y-96649890D01*
X154207820Y-96524951D01*
X154207115Y-96524591D01*
X154199054Y-96520485D01*
X154148259Y-96472512D01*
X154131463Y-96404692D01*
X154153999Y-96338556D01*
X154199054Y-96299515D01*
X154207816Y-96295051D01*
X154229789Y-96279086D01*
X154379786Y-96170109D01*
X154379788Y-96170106D01*
X154379792Y-96170104D01*
X154530104Y-96019792D01*
X154530106Y-96019788D01*
X154530109Y-96019786D01*
X154655048Y-95847820D01*
X154655047Y-95847820D01*
X154655051Y-95847816D01*
X154751557Y-95658412D01*
X154817246Y-95456243D01*
X154850500Y-95246287D01*
X154850500Y-95033713D01*
X154817246Y-94823757D01*
X154751557Y-94621588D01*
X154655051Y-94432184D01*
X154655049Y-94432181D01*
X154655048Y-94432179D01*
X154530109Y-94260213D01*
X154379786Y-94109890D01*
X154207817Y-93984949D01*
X154198504Y-93980204D01*
X154147707Y-93932230D01*
X154130912Y-93864409D01*
X154153449Y-93798274D01*
X154198507Y-93759232D01*
X154207555Y-93754622D01*
X154261716Y-93715270D01*
X154261717Y-93715270D01*
X153629408Y-93082962D01*
X153692993Y-93065925D01*
X153807007Y-93000099D01*
X153900099Y-92907007D01*
X153965925Y-92792993D01*
X153982962Y-92729408D01*
X154615270Y-93361717D01*
X154615270Y-93361716D01*
X154654622Y-93307554D01*
X154751095Y-93118217D01*
X154816757Y-92916130D01*
X154816757Y-92916127D01*
X154850000Y-92706246D01*
X154850000Y-92493753D01*
X154816757Y-92283872D01*
X154816757Y-92283869D01*
X154751095Y-92081782D01*
X154654624Y-91892449D01*
X154615270Y-91838282D01*
X154615269Y-91838282D01*
X153982962Y-92470590D01*
X153965925Y-92407007D01*
X153900099Y-92292993D01*
X153807007Y-92199901D01*
X153692993Y-92134075D01*
X153629409Y-92117037D01*
X154299627Y-91446818D01*
X154360950Y-91413333D01*
X154387307Y-91410499D01*
X154397872Y-91410499D01*
X154457483Y-91404091D01*
X154592331Y-91353796D01*
X154707546Y-91267546D01*
X154793796Y-91152331D01*
X154844091Y-91017483D01*
X154850500Y-90957873D01*
X154850499Y-89162128D01*
X154844091Y-89102517D01*
X154793796Y-88967669D01*
X154793795Y-88967668D01*
X154793793Y-88967664D01*
X154707547Y-88852455D01*
X154707544Y-88852452D01*
X154592335Y-88766206D01*
X154592328Y-88766202D01*
X154457482Y-88715908D01*
X154457483Y-88715908D01*
X154397883Y-88709501D01*
X154397881Y-88709500D01*
X154397873Y-88709500D01*
X154397864Y-88709500D01*
X152602129Y-88709500D01*
X152602123Y-88709501D01*
X152542516Y-88715908D01*
X152407671Y-88766202D01*
X152407664Y-88766206D01*
X152292455Y-88852452D01*
X152292452Y-88852455D01*
X152206206Y-88967664D01*
X152206202Y-88967671D01*
X152155908Y-89102517D01*
X152149501Y-89162116D01*
X152149501Y-89162123D01*
X152149500Y-89162135D01*
X152149500Y-90957870D01*
X152149501Y-90957876D01*
X152155908Y-91017483D01*
X152206202Y-91152328D01*
X152206206Y-91152335D01*
X152292452Y-91267544D01*
X152292455Y-91267547D01*
X152407664Y-91353793D01*
X152407671Y-91353797D01*
X152452618Y-91370561D01*
X152542517Y-91404091D01*
X152602127Y-91410500D01*
X152612685Y-91410499D01*
X152679723Y-91430179D01*
X152700372Y-91446818D01*
X153370591Y-92117037D01*
X153307007Y-92134075D01*
X153192993Y-92199901D01*
X153099901Y-92292993D01*
X153034075Y-92407007D01*
X153017037Y-92470591D01*
X152384728Y-91838282D01*
X152384727Y-91838282D01*
X152345380Y-91892439D01*
X152248904Y-92081782D01*
X152183242Y-92283869D01*
X152183242Y-92283872D01*
X152150000Y-92493753D01*
X152150000Y-92706246D01*
X152183242Y-92916127D01*
X152183242Y-92916130D01*
X152248904Y-93118217D01*
X152345375Y-93307550D01*
X152384728Y-93361716D01*
X153017037Y-92729408D01*
X153034075Y-92792993D01*
X153099901Y-92907007D01*
X153192993Y-93000099D01*
X153307007Y-93065925D01*
X153370590Y-93082962D01*
X152738282Y-93715269D01*
X152738282Y-93715270D01*
X152792452Y-93754626D01*
X152792451Y-93754626D01*
X152801495Y-93759234D01*
X152852292Y-93807208D01*
X152869087Y-93875029D01*
X152846550Y-93941164D01*
X152801499Y-93980202D01*
X152792182Y-93984949D01*
X152620213Y-94109890D01*
X152469890Y-94260213D01*
X152344951Y-94432179D01*
X152248444Y-94621585D01*
X152182753Y-94823760D01*
X152149500Y-95033713D01*
X152149500Y-95246286D01*
X152182753Y-95456239D01*
X152248444Y-95658414D01*
X152344951Y-95847820D01*
X152469890Y-96019786D01*
X152620213Y-96170109D01*
X152792182Y-96295050D01*
X152800946Y-96299516D01*
X152851742Y-96347491D01*
X152868536Y-96415312D01*
X152845998Y-96481447D01*
X152800946Y-96520484D01*
X152792182Y-96524949D01*
X152620213Y-96649890D01*
X152469890Y-96800213D01*
X152344951Y-96972179D01*
X152248444Y-97161585D01*
X152182753Y-97363760D01*
X152160199Y-97506162D01*
X152149500Y-97573713D01*
X152149500Y-97786287D01*
X152159534Y-97849644D01*
X152182753Y-97996239D01*
X152248444Y-98198414D01*
X152344951Y-98387820D01*
X152469890Y-98559786D01*
X152620213Y-98710109D01*
X152792182Y-98835050D01*
X152800946Y-98839516D01*
X152851742Y-98887491D01*
X152868536Y-98955312D01*
X152845998Y-99021447D01*
X152800946Y-99060484D01*
X152792182Y-99064949D01*
X152620213Y-99189890D01*
X152469890Y-99340213D01*
X152344951Y-99512179D01*
X152248444Y-99701585D01*
X152182753Y-99903760D01*
X152149500Y-100113713D01*
X152149500Y-100119481D01*
X152129815Y-100186520D01*
X152077011Y-100232275D01*
X152007853Y-100242219D01*
X151944297Y-100213194D01*
X151937819Y-100207162D01*
X149236819Y-97506162D01*
X149203334Y-97444839D01*
X149200500Y-97418481D01*
X149200500Y-91431004D01*
X149173581Y-91295676D01*
X149173580Y-91295674D01*
X149173580Y-91295672D01*
X149168229Y-91282754D01*
X149151707Y-91242866D01*
X149120778Y-91168194D01*
X149120771Y-91168182D01*
X149044115Y-91053459D01*
X149008138Y-91017482D01*
X148946542Y-90955886D01*
X147237144Y-89246487D01*
X146055546Y-88064888D01*
X146055545Y-88064887D01*
X145940807Y-87988222D01*
X145813332Y-87935421D01*
X145813322Y-87935418D01*
X145677996Y-87908500D01*
X145677994Y-87908500D01*
X145677993Y-87908500D01*
X129519994Y-87908500D01*
X129382006Y-87908500D01*
X129382004Y-87908500D01*
X129246677Y-87935418D01*
X129246667Y-87935421D01*
X129119192Y-87988222D01*
X129004454Y-88064887D01*
X128396160Y-88673181D01*
X128334837Y-88706666D01*
X128308479Y-88709500D01*
X127102129Y-88709500D01*
X127102123Y-88709501D01*
X127042516Y-88715908D01*
X126907671Y-88766202D01*
X126907664Y-88766206D01*
X126792455Y-88852452D01*
X126792452Y-88852455D01*
X126706206Y-88967664D01*
X126706202Y-88967671D01*
X126655908Y-89102517D01*
X126649501Y-89162116D01*
X126649501Y-89162123D01*
X126649500Y-89162135D01*
X119450499Y-89162135D01*
X119450499Y-89162128D01*
X119444091Y-89102517D01*
X119393796Y-88967669D01*
X119393795Y-88967668D01*
X119393793Y-88967664D01*
X119307547Y-88852455D01*
X119307544Y-88852452D01*
X119192335Y-88766206D01*
X119192328Y-88766202D01*
X119057482Y-88715908D01*
X119057483Y-88715908D01*
X118997883Y-88709501D01*
X118997881Y-88709500D01*
X118997873Y-88709500D01*
X118997864Y-88709500D01*
X117202129Y-88709500D01*
X117202123Y-88709501D01*
X117142516Y-88715908D01*
X117007671Y-88766202D01*
X117007664Y-88766206D01*
X116892455Y-88852452D01*
X116892452Y-88852455D01*
X116806206Y-88967664D01*
X116806202Y-88967671D01*
X116755908Y-89102517D01*
X116749501Y-89162116D01*
X116749501Y-89162123D01*
X116749500Y-89162135D01*
X107647822Y-89162135D01*
X107660705Y-89120793D01*
X107665998Y-89106841D01*
X107783731Y-88845249D01*
X107790676Y-88832016D01*
X107939080Y-88586526D01*
X107947567Y-88574230D01*
X108124480Y-88348417D01*
X108134395Y-88337226D01*
X108337226Y-88134395D01*
X108348417Y-88124480D01*
X108574230Y-87947567D01*
X108586526Y-87939080D01*
X108832016Y-87790676D01*
X108845249Y-87783731D01*
X109106841Y-87665998D01*
X109120822Y-87660696D01*
X109394668Y-87575362D01*
X109409197Y-87571780D01*
X109691344Y-87520075D01*
X109706201Y-87518271D01*
X109996264Y-87500726D01*
X110003751Y-87500500D01*
X110065892Y-87500500D01*
X167934108Y-87500500D01*
X167996249Y-87500500D01*
X168003736Y-87500726D01*
G37*
%TD.AperFunction*%
%TD*%
M02*
