%TF.GenerationSoftware,KiCad,Pcbnew,9.0.6-9.0.6~ubuntu22.04.1*%
%TF.CreationDate,2025-12-04T22:27:57-05:00*%
%TF.ProjectId,operator-mk3,6f706572-6174-46f7-922d-6d6b332e6b69,rev?*%
%TF.SameCoordinates,Original*%
%TF.FileFunction,Copper,L2,Bot*%
%TF.FilePolarity,Positive*%
%FSLAX46Y46*%
G04 Gerber Fmt 4.6, Leading zero omitted, Abs format (unit mm)*
G04 Created by KiCad (PCBNEW 9.0.6-9.0.6~ubuntu22.04.1) date 2025-12-04 22:27:57*
%MOMM*%
%LPD*%
G01*
G04 APERTURE LIST*
%TA.AperFunction,ComponentPad*%
%ADD10C,2.000000*%
%TD*%
%TA.AperFunction,ComponentPad*%
%ADD11C,3.300000*%
%TD*%
%TA.AperFunction,ViaPad*%
%ADD12C,2.000000*%
%TD*%
%TA.AperFunction,Conductor*%
%ADD13C,0.600000*%
%TD*%
%TA.AperFunction,Conductor*%
%ADD14C,0.800000*%
%TD*%
G04 APERTURE END LIST*
D10*
%TO.P,J4,1,Pin_1*%
%TO.N,3V*%
X153500000Y-90060000D03*
%TO.P,J4,2,Pin_2*%
%TO.N,GND*%
X153500000Y-92600000D03*
%TO.P,J4,3,Pin_3*%
%TO.N,unconnected-(J4-Pin_3-Pad3)*%
X153500000Y-95140000D03*
%TO.P,J4,4,Pin_4*%
%TO.N,unconnected-(J4-Pin_4-Pad4)*%
X153500000Y-97680000D03*
%TO.P,J4,5,Pin_5*%
%TO.N,DIN*%
X153500000Y-100220000D03*
%TO.P,J4,6,Pin_6*%
%TO.N,BCLK*%
X153500000Y-102760000D03*
%TO.P,J4,7,Pin_7*%
%TO.N,LRC*%
X153500000Y-105300000D03*
%TD*%
%TO.P,J3,1,Pin_1*%
%TO.N,D9*%
X155040000Y-112000000D03*
%TO.P,J3,2,Pin_2*%
%TO.N,GND*%
X152500000Y-112000000D03*
%TO.P,J3,3,Pin_3*%
%TO.N,D8*%
X149960000Y-112000000D03*
%TO.P,J3,4,Pin_4*%
%TO.N,GND*%
X147420000Y-112000000D03*
%TD*%
%TO.P,J5,1,Pin_1*%
%TO.N,BCLK*%
X128000000Y-90060000D03*
%TO.P,J5,2,Pin_2*%
%TO.N,DOUT*%
X128000000Y-92600000D03*
%TO.P,J5,3,Pin_3*%
%TO.N,LRC*%
X128000000Y-95140000D03*
%TO.P,J5,4,Pin_4*%
%TO.N,D3*%
X128000000Y-97680000D03*
%TO.P,J5,5,Pin_5*%
%TO.N,D4*%
X128000000Y-100220000D03*
%TO.P,J5,6,Pin_6*%
%TO.N,D5*%
X128000000Y-102760000D03*
%TO.P,J5,7,Pin_7*%
%TO.N,D6*%
X128000000Y-105300000D03*
%TD*%
%TO.P,J8,1,Pin_1*%
%TO.N,GND*%
X114720000Y-111950000D03*
%TO.P,J8,2,Pin_2*%
%TO.N,D3*%
X117260000Y-111950000D03*
%TO.P,J8,3,Pin_3*%
%TO.N,D4*%
X119800000Y-111950000D03*
%TO.P,J8,4,Pin_4*%
%TO.N,D5*%
X122340000Y-111950000D03*
%TD*%
%TO.P,J6,1,Pin_1*%
%TO.N,unconnected-(J6-Pin_1-Pad1)*%
X143235000Y-90060000D03*
%TO.P,J6,2,Pin_2*%
%TO.N,GND*%
X143235000Y-92600000D03*
%TO.P,J6,3,Pin_3*%
%TO.N,3V*%
X143235000Y-95140000D03*
%TO.P,J6,4,Pin_4*%
%TO.N,DIN*%
X143235000Y-97680000D03*
%TO.P,J6,5,Pin_5*%
%TO.N,D9*%
X143235000Y-100220000D03*
%TO.P,J6,6,Pin_6*%
%TO.N,D8*%
X143235000Y-102760000D03*
%TO.P,J6,7,Pin_7*%
%TO.N,D7*%
X143235000Y-105300000D03*
%TD*%
D11*
%TO.P,,*%
%TO.N,*%
X160000000Y-112000000D03*
%TD*%
%TO.P,REF\u002A\u002A,*%
%TO.N,*%
X109000000Y-90000000D03*
%TD*%
D10*
%TO.P,J1,1,Pin_1*%
%TO.N,D7*%
X138320000Y-112000000D03*
%TO.P,J1,2,Pin_2*%
%TO.N,GND*%
X135780000Y-112000000D03*
%TO.P,J1,3,Pin_3*%
%TO.N,D6*%
X133240000Y-112000000D03*
%TD*%
D11*
%TO.P,,*%
%TO.N,*%
X109000000Y-112000000D03*
%TD*%
%TO.P,,*%
%TO.N,*%
X160000000Y-90000000D03*
%TD*%
D10*
%TO.P,J2,1,Pin_1*%
%TO.N,3V*%
X118100000Y-90060000D03*
%TO.P,J2,2,Pin_2*%
%TO.N,GND*%
X118100000Y-92600000D03*
%TO.P,J2,3,Pin_3*%
%TO.N,BCLK*%
X118100000Y-95140000D03*
%TO.P,J2,4,Pin_4*%
%TO.N,DOUT*%
X118100000Y-97680000D03*
%TO.P,J2,5,Pin_5*%
%TO.N,LRC*%
X118100000Y-100220000D03*
%TO.P,J2,6,Pin_6*%
%TO.N,unconnected-(J2-Pin_6-Pad6)*%
X118100000Y-102760000D03*
%TD*%
D12*
%TO.N,BCLK*%
X131500000Y-90060000D03*
X157100000Y-102760000D03*
%TO.N,LRC*%
X156700000Y-109000000D03*
X131500000Y-95140000D03*
%TD*%
D13*
%TO.N,BCLK*%
X128000000Y-90060000D02*
X123180000Y-90060000D01*
X128000000Y-90060000D02*
X131500000Y-90060000D01*
X123180000Y-90060000D02*
X118100000Y-95140000D01*
X157100000Y-102760000D02*
X153500000Y-102760000D01*
D14*
%TO.N,LRC*%
X156700000Y-109000000D02*
X153500000Y-105800000D01*
D13*
X127860000Y-95000000D02*
X123500000Y-95000000D01*
X128000000Y-95140000D02*
X127860000Y-95000000D01*
X128000000Y-95140000D02*
X131500000Y-95140000D01*
X118280000Y-100220000D02*
X118100000Y-100220000D01*
X123500000Y-95000000D02*
X118280000Y-100220000D01*
D14*
X153500000Y-105800000D02*
X153500000Y-105300000D01*
%TO.N,3V*%
X141140000Y-95140000D02*
X143235000Y-95140000D01*
X145860000Y-95140000D02*
X150940000Y-90060000D01*
X143235000Y-95140000D02*
X145860000Y-95140000D01*
X150940000Y-90060000D02*
X153500000Y-90060000D01*
X133901000Y-87901000D02*
X141140000Y-95140000D01*
X118100000Y-90060000D02*
X120259000Y-87901000D01*
X120259000Y-87901000D02*
X133901000Y-87901000D01*
D13*
%TO.N,DOUT*%
X123180000Y-92600000D02*
X118100000Y-97680000D01*
X128000000Y-92600000D02*
X123180000Y-92600000D01*
%TO.N,DIN*%
X143235000Y-97680000D02*
X145775000Y-100220000D01*
X145775000Y-100220000D02*
X153500000Y-100220000D01*
%TO.N,D7*%
X143235000Y-105300000D02*
X138320000Y-110215000D01*
X138320000Y-110215000D02*
X138320000Y-112000000D01*
%TO.N,D9*%
X143235000Y-100220000D02*
X155015000Y-112000000D01*
X155015000Y-112000000D02*
X155040000Y-112000000D01*
%TO.N,D4*%
X128000000Y-100220000D02*
X119800000Y-108420000D01*
X119800000Y-108420000D02*
X119800000Y-111950000D01*
%TO.N,D8*%
X149960000Y-109485000D02*
X149960000Y-112000000D01*
X143235000Y-102760000D02*
X149960000Y-109485000D01*
%TO.N,D5*%
X128000000Y-102760000D02*
X122340000Y-108420000D01*
X122340000Y-108420000D02*
X122340000Y-111950000D01*
%TO.N,D6*%
X128000000Y-105300000D02*
X133240000Y-110540000D01*
X133240000Y-110540000D02*
X133240000Y-112000000D01*
%TO.N,D3*%
X117260000Y-108420000D02*
X117260000Y-111950000D01*
X128000000Y-97680000D02*
X117260000Y-108420000D01*
%TD*%
%TA.AperFunction,Conductor*%
%TO.N,GND*%
G36*
X119153677Y-87520185D02*
G01*
X119199432Y-87572989D01*
X119209376Y-87642147D01*
X119180351Y-87705703D01*
X119174319Y-87712181D01*
X118356784Y-88529714D01*
X118295461Y-88563199D01*
X118249706Y-88564506D01*
X118218092Y-88559500D01*
X117981908Y-88559500D01*
X117981903Y-88559500D01*
X117748631Y-88596446D01*
X117524003Y-88669433D01*
X117313566Y-88776657D01*
X117229385Y-88837819D01*
X117122490Y-88915483D01*
X117122488Y-88915485D01*
X117122487Y-88915485D01*
X116955485Y-89082487D01*
X116955485Y-89082488D01*
X116955483Y-89082490D01*
X116905670Y-89151051D01*
X116816657Y-89273566D01*
X116709433Y-89484003D01*
X116636446Y-89708631D01*
X116599500Y-89941902D01*
X116599500Y-90178097D01*
X116636446Y-90411368D01*
X116709433Y-90635996D01*
X116816657Y-90846433D01*
X116955483Y-91037510D01*
X117122490Y-91204517D01*
X117181716Y-91247547D01*
X117224381Y-91302875D01*
X117232448Y-91357593D01*
X117230893Y-91377340D01*
X117970591Y-92117037D01*
X117907007Y-92134075D01*
X117792993Y-92199901D01*
X117699901Y-92292993D01*
X117634075Y-92407007D01*
X117617037Y-92470591D01*
X116877340Y-91730894D01*
X116817084Y-91813830D01*
X116709897Y-92024197D01*
X116636934Y-92248752D01*
X116600000Y-92481947D01*
X116600000Y-92718052D01*
X116636934Y-92951247D01*
X116709897Y-93175802D01*
X116817087Y-93386174D01*
X116877338Y-93469104D01*
X116877340Y-93469105D01*
X117617037Y-92729408D01*
X117634075Y-92792993D01*
X117699901Y-92907007D01*
X117792993Y-93000099D01*
X117907007Y-93065925D01*
X117970590Y-93082962D01*
X117230893Y-93822658D01*
X117232448Y-93842405D01*
X117218084Y-93910783D01*
X117181717Y-93952451D01*
X117122490Y-93995482D01*
X116955485Y-94162487D01*
X116955485Y-94162488D01*
X116955483Y-94162490D01*
X116930653Y-94196666D01*
X116816657Y-94353566D01*
X116709433Y-94564003D01*
X116636446Y-94788631D01*
X116599500Y-95021902D01*
X116599500Y-95258097D01*
X116636446Y-95491368D01*
X116709433Y-95715996D01*
X116772344Y-95839464D01*
X116816657Y-95926433D01*
X116955483Y-96117510D01*
X117122490Y-96284517D01*
X117157127Y-96309683D01*
X117199792Y-96365013D01*
X117205771Y-96434626D01*
X117173165Y-96496421D01*
X117157130Y-96510315D01*
X117139365Y-96523222D01*
X117122488Y-96535484D01*
X116955485Y-96702487D01*
X116955485Y-96702488D01*
X116955483Y-96702490D01*
X116895862Y-96784550D01*
X116816657Y-96893566D01*
X116709433Y-97104003D01*
X116636446Y-97328631D01*
X116599500Y-97561902D01*
X116599500Y-97798097D01*
X116636446Y-98031368D01*
X116709433Y-98255996D01*
X116816657Y-98466433D01*
X116955483Y-98657510D01*
X117122490Y-98824517D01*
X117157127Y-98849683D01*
X117199792Y-98905013D01*
X117205771Y-98974626D01*
X117173165Y-99036421D01*
X117157130Y-99050315D01*
X117139365Y-99063222D01*
X117122488Y-99075484D01*
X116955485Y-99242487D01*
X116955485Y-99242488D01*
X116955483Y-99242490D01*
X116895862Y-99324550D01*
X116816657Y-99433566D01*
X116709433Y-99644003D01*
X116636446Y-99868631D01*
X116599500Y-100101902D01*
X116599500Y-100338097D01*
X116636446Y-100571368D01*
X116709433Y-100795996D01*
X116799144Y-100972062D01*
X116816657Y-101006433D01*
X116955483Y-101197510D01*
X117122490Y-101364517D01*
X117157127Y-101389683D01*
X117199792Y-101445013D01*
X117205771Y-101514626D01*
X117173165Y-101576421D01*
X117157130Y-101590315D01*
X117139365Y-101603222D01*
X117122488Y-101615484D01*
X116955485Y-101782487D01*
X116955485Y-101782488D01*
X116955483Y-101782490D01*
X116895862Y-101864550D01*
X116816657Y-101973566D01*
X116709433Y-102184003D01*
X116636446Y-102408631D01*
X116599500Y-102641902D01*
X116599500Y-102878097D01*
X116636446Y-103111368D01*
X116709433Y-103335996D01*
X116816657Y-103546433D01*
X116955483Y-103737510D01*
X117122490Y-103904517D01*
X117313567Y-104043343D01*
X117375676Y-104074989D01*
X117524003Y-104150566D01*
X117524005Y-104150566D01*
X117524008Y-104150568D01*
X117644412Y-104189689D01*
X117748631Y-104223553D01*
X117981903Y-104260500D01*
X117981908Y-104260500D01*
X118218097Y-104260500D01*
X118451368Y-104223553D01*
X118675992Y-104150568D01*
X118886433Y-104043343D01*
X119077510Y-103904517D01*
X119244517Y-103737510D01*
X119383343Y-103546433D01*
X119490568Y-103335992D01*
X119563553Y-103111368D01*
X119566273Y-103094194D01*
X119600500Y-102878097D01*
X119600500Y-102641902D01*
X119563553Y-102408631D01*
X119490566Y-102184003D01*
X119383342Y-101973566D01*
X119244517Y-101782490D01*
X119077510Y-101615483D01*
X119042872Y-101590317D01*
X119000207Y-101534989D01*
X118994228Y-101465375D01*
X119026833Y-101403580D01*
X119042873Y-101389682D01*
X119077510Y-101364517D01*
X119244517Y-101197510D01*
X119383343Y-101006433D01*
X119490568Y-100795992D01*
X119563553Y-100571368D01*
X119566273Y-100554194D01*
X119600500Y-100338097D01*
X119600500Y-100101906D01*
X119600118Y-100097055D01*
X119601630Y-100096935D01*
X119609716Y-100034315D01*
X119635556Y-99996520D01*
X123795259Y-95836819D01*
X123856582Y-95803334D01*
X123882940Y-95800500D01*
X126576503Y-95800500D01*
X126643542Y-95820185D01*
X126686987Y-95868204D01*
X126716655Y-95926431D01*
X126725070Y-95938013D01*
X126855483Y-96117510D01*
X127022490Y-96284517D01*
X127057127Y-96309683D01*
X127099792Y-96365013D01*
X127105771Y-96434626D01*
X127073165Y-96496421D01*
X127057130Y-96510315D01*
X127039365Y-96523222D01*
X127022488Y-96535484D01*
X126855485Y-96702487D01*
X126855485Y-96702488D01*
X126855483Y-96702490D01*
X126795862Y-96784550D01*
X126716657Y-96893566D01*
X126609433Y-97104003D01*
X126536446Y-97328631D01*
X126499500Y-97561902D01*
X126499500Y-97798097D01*
X126523843Y-97951790D01*
X126514889Y-98021083D01*
X126489051Y-98058869D01*
X119155344Y-105392578D01*
X116749711Y-107798211D01*
X116693960Y-107853962D01*
X116638209Y-107909712D01*
X116550609Y-108040814D01*
X116550602Y-108040827D01*
X116490264Y-108186498D01*
X116490261Y-108186510D01*
X116459500Y-108341153D01*
X116459500Y-110613695D01*
X116439815Y-110680734D01*
X116408386Y-110714012D01*
X116282496Y-110805478D01*
X116282487Y-110805485D01*
X116115482Y-110972490D01*
X116072451Y-111031717D01*
X116017120Y-111074382D01*
X115962405Y-111082448D01*
X115942658Y-111080893D01*
X115202962Y-111820590D01*
X115185925Y-111757007D01*
X115120099Y-111642993D01*
X115027007Y-111549901D01*
X114912993Y-111484075D01*
X114849409Y-111467037D01*
X115589105Y-110727340D01*
X115589104Y-110727338D01*
X115506174Y-110667087D01*
X115295802Y-110559897D01*
X115071247Y-110486934D01*
X115071248Y-110486934D01*
X114838052Y-110450000D01*
X114601948Y-110450000D01*
X114368752Y-110486934D01*
X114144197Y-110559897D01*
X113933830Y-110667084D01*
X113850894Y-110727340D01*
X114590591Y-111467037D01*
X114527007Y-111484075D01*
X114412993Y-111549901D01*
X114319901Y-111642993D01*
X114254075Y-111757007D01*
X114237037Y-111820591D01*
X113497340Y-111080894D01*
X113437084Y-111163830D01*
X113329897Y-111374197D01*
X113256934Y-111598752D01*
X113220000Y-111831947D01*
X113220000Y-112068052D01*
X113256934Y-112301247D01*
X113329897Y-112525802D01*
X113437087Y-112736174D01*
X113497338Y-112819104D01*
X113497340Y-112819105D01*
X114237037Y-112079408D01*
X114254075Y-112142993D01*
X114319901Y-112257007D01*
X114412993Y-112350099D01*
X114527007Y-112415925D01*
X114590590Y-112432962D01*
X113850893Y-113172658D01*
X113933828Y-113232914D01*
X114144197Y-113340102D01*
X114368752Y-113413065D01*
X114368751Y-113413065D01*
X114601948Y-113450000D01*
X114838052Y-113450000D01*
X115071247Y-113413065D01*
X115295802Y-113340102D01*
X115506163Y-113232918D01*
X115506169Y-113232914D01*
X115589104Y-113172658D01*
X115589105Y-113172658D01*
X114849408Y-112432962D01*
X114912993Y-112415925D01*
X115027007Y-112350099D01*
X115120099Y-112257007D01*
X115185925Y-112142993D01*
X115202962Y-112079409D01*
X115942657Y-112819104D01*
X115962404Y-112817550D01*
X116030781Y-112831914D01*
X116072451Y-112868282D01*
X116115483Y-112927510D01*
X116282490Y-113094517D01*
X116473567Y-113233343D01*
X116570856Y-113282914D01*
X116684003Y-113340566D01*
X116684005Y-113340566D01*
X116684008Y-113340568D01*
X116804412Y-113379689D01*
X116908631Y-113413553D01*
X117141903Y-113450500D01*
X117141908Y-113450500D01*
X117378097Y-113450500D01*
X117611368Y-113413553D01*
X117682114Y-113390566D01*
X117835992Y-113340568D01*
X118046433Y-113233343D01*
X118237510Y-113094517D01*
X118404517Y-112927510D01*
X118429682Y-112892872D01*
X118485011Y-112850207D01*
X118554625Y-112844228D01*
X118616420Y-112876833D01*
X118630315Y-112892870D01*
X118655483Y-112927510D01*
X118822490Y-113094517D01*
X119013567Y-113233343D01*
X119110856Y-113282914D01*
X119224003Y-113340566D01*
X119224005Y-113340566D01*
X119224008Y-113340568D01*
X119344412Y-113379689D01*
X119448631Y-113413553D01*
X119681903Y-113450500D01*
X119681908Y-113450500D01*
X119918097Y-113450500D01*
X120151368Y-113413553D01*
X120222114Y-113390566D01*
X120375992Y-113340568D01*
X120586433Y-113233343D01*
X120777510Y-113094517D01*
X120944517Y-112927510D01*
X120969682Y-112892872D01*
X121025011Y-112850207D01*
X121094625Y-112844228D01*
X121156420Y-112876833D01*
X121170315Y-112892870D01*
X121195483Y-112927510D01*
X121362490Y-113094517D01*
X121553567Y-113233343D01*
X121650856Y-113282914D01*
X121764003Y-113340566D01*
X121764005Y-113340566D01*
X121764008Y-113340568D01*
X121884412Y-113379689D01*
X121988631Y-113413553D01*
X122221903Y-113450500D01*
X122221908Y-113450500D01*
X122458097Y-113450500D01*
X122691368Y-113413553D01*
X122762114Y-113390566D01*
X122915992Y-113340568D01*
X123126433Y-113233343D01*
X123317510Y-113094517D01*
X123484517Y-112927510D01*
X123623343Y-112736433D01*
X123730568Y-112525992D01*
X123803553Y-112301368D01*
X123828637Y-112142993D01*
X123840500Y-112068097D01*
X123840500Y-111831902D01*
X123803553Y-111598631D01*
X123730566Y-111374003D01*
X123623342Y-111163566D01*
X123600995Y-111132808D01*
X123484517Y-110972490D01*
X123317510Y-110805483D01*
X123278775Y-110777340D01*
X123191614Y-110714012D01*
X123148948Y-110658682D01*
X123140500Y-110613695D01*
X123140500Y-108802940D01*
X123160185Y-108735901D01*
X123176819Y-108715259D01*
X124422364Y-107469714D01*
X126323929Y-105568148D01*
X126385250Y-105534665D01*
X126454942Y-105539649D01*
X126510875Y-105581521D01*
X126534081Y-105636431D01*
X126536447Y-105651370D01*
X126609433Y-105875996D01*
X126716657Y-106086433D01*
X126855483Y-106277510D01*
X127022490Y-106444517D01*
X127213567Y-106583343D01*
X127312991Y-106634002D01*
X127424003Y-106690566D01*
X127424005Y-106690566D01*
X127424008Y-106690568D01*
X127544412Y-106729689D01*
X127648631Y-106763553D01*
X127881903Y-106800500D01*
X127881908Y-106800500D01*
X128118090Y-106800500D01*
X128118092Y-106800500D01*
X128271793Y-106776155D01*
X128341083Y-106785109D01*
X128378869Y-106810947D01*
X132255266Y-110687344D01*
X132288751Y-110748667D01*
X132283767Y-110818359D01*
X132255267Y-110862706D01*
X132095482Y-111022491D01*
X131956657Y-111213566D01*
X131849433Y-111424003D01*
X131776446Y-111648631D01*
X131739500Y-111881902D01*
X131739500Y-112118097D01*
X131776446Y-112351368D01*
X131849433Y-112575996D01*
X131940538Y-112754798D01*
X131956657Y-112786433D01*
X132095483Y-112977510D01*
X132262490Y-113144517D01*
X132453567Y-113283343D01*
X132552991Y-113334002D01*
X132664003Y-113390566D01*
X132664005Y-113390566D01*
X132664008Y-113390568D01*
X132772385Y-113425782D01*
X132888631Y-113463553D01*
X133121903Y-113500500D01*
X133121908Y-113500500D01*
X133358097Y-113500500D01*
X133591368Y-113463553D01*
X133592870Y-113463065D01*
X133815992Y-113390568D01*
X134026433Y-113283343D01*
X134217510Y-113144517D01*
X134384517Y-112977510D01*
X134431370Y-112913022D01*
X134435713Y-112908199D01*
X134460150Y-112893142D01*
X134482877Y-112875618D01*
X134490393Y-112874509D01*
X134495199Y-112871549D01*
X134508730Y-112871806D01*
X134537594Y-112867551D01*
X134557340Y-112869105D01*
X135297037Y-112129408D01*
X135314075Y-112192993D01*
X135379901Y-112307007D01*
X135472993Y-112400099D01*
X135587007Y-112465925D01*
X135650590Y-112482962D01*
X134910893Y-113222658D01*
X134993828Y-113282914D01*
X135204197Y-113390102D01*
X135428752Y-113463065D01*
X135428751Y-113463065D01*
X135661948Y-113500000D01*
X135898052Y-113500000D01*
X136131247Y-113463065D01*
X136355802Y-113390102D01*
X136566163Y-113282918D01*
X136566169Y-113282914D01*
X136649104Y-113222658D01*
X136649105Y-113222658D01*
X135909408Y-112482962D01*
X135972993Y-112465925D01*
X136087007Y-112400099D01*
X136180099Y-112307007D01*
X136245925Y-112192993D01*
X136262962Y-112129409D01*
X137002657Y-112869104D01*
X137022404Y-112867550D01*
X137090781Y-112881914D01*
X137132451Y-112918282D01*
X137175483Y-112977510D01*
X137342490Y-113144517D01*
X137533567Y-113283343D01*
X137632991Y-113334002D01*
X137744003Y-113390566D01*
X137744005Y-113390566D01*
X137744008Y-113390568D01*
X137852385Y-113425782D01*
X137968631Y-113463553D01*
X138201903Y-113500500D01*
X138201908Y-113500500D01*
X138438097Y-113500500D01*
X138671368Y-113463553D01*
X138672870Y-113463065D01*
X138895992Y-113390568D01*
X139106433Y-113283343D01*
X139297510Y-113144517D01*
X139464517Y-112977510D01*
X139603343Y-112786433D01*
X139710568Y-112575992D01*
X139783553Y-112351368D01*
X139783754Y-112350099D01*
X139820500Y-112118097D01*
X139820500Y-111881902D01*
X139783553Y-111648631D01*
X139710566Y-111424003D01*
X139603342Y-111213566D01*
X139464517Y-111022490D01*
X139297510Y-110855483D01*
X139271519Y-110836599D01*
X139171614Y-110764012D01*
X139168274Y-110759681D01*
X139163297Y-110757408D01*
X139147165Y-110732307D01*
X139128948Y-110708682D01*
X139127695Y-110702009D01*
X139125523Y-110698630D01*
X139120500Y-110663695D01*
X139120500Y-110597939D01*
X139140185Y-110530900D01*
X139156814Y-110510263D01*
X142856131Y-106810945D01*
X142917452Y-106777462D01*
X142963203Y-106776155D01*
X143116908Y-106800500D01*
X143116910Y-106800500D01*
X143353097Y-106800500D01*
X143586368Y-106763553D01*
X143586374Y-106763551D01*
X143810992Y-106690568D01*
X144021433Y-106583343D01*
X144212510Y-106444517D01*
X144379517Y-106277510D01*
X144518343Y-106086433D01*
X144625568Y-105875992D01*
X144698553Y-105651368D01*
X144700918Y-105636434D01*
X144730845Y-105573301D01*
X144790155Y-105536368D01*
X144860018Y-105537364D01*
X144911072Y-105568150D01*
X149123181Y-109780259D01*
X149156666Y-109841582D01*
X149159500Y-109867940D01*
X149159500Y-110663695D01*
X149139815Y-110730734D01*
X149108386Y-110764012D01*
X148982496Y-110855478D01*
X148982487Y-110855485D01*
X148815482Y-111022490D01*
X148772451Y-111081717D01*
X148717120Y-111124382D01*
X148662405Y-111132448D01*
X148642658Y-111130893D01*
X147902962Y-111870590D01*
X147885925Y-111807007D01*
X147820099Y-111692993D01*
X147727007Y-111599901D01*
X147612993Y-111534075D01*
X147549409Y-111517037D01*
X148289105Y-110777340D01*
X148289104Y-110777338D01*
X148206174Y-110717087D01*
X147995802Y-110609897D01*
X147771247Y-110536934D01*
X147771248Y-110536934D01*
X147538052Y-110500000D01*
X147301948Y-110500000D01*
X147068752Y-110536934D01*
X146844197Y-110609897D01*
X146633830Y-110717084D01*
X146550894Y-110777340D01*
X147290591Y-111517037D01*
X147227007Y-111534075D01*
X147112993Y-111599901D01*
X147019901Y-111692993D01*
X146954075Y-111807007D01*
X146937037Y-111870591D01*
X146197340Y-111130894D01*
X146137084Y-111213830D01*
X146029897Y-111424197D01*
X145956934Y-111648752D01*
X145920000Y-111881947D01*
X145920000Y-112118052D01*
X145956934Y-112351247D01*
X146029897Y-112575802D01*
X146137087Y-112786174D01*
X146197338Y-112869104D01*
X146197340Y-112869105D01*
X146937037Y-112129408D01*
X146954075Y-112192993D01*
X147019901Y-112307007D01*
X147112993Y-112400099D01*
X147227007Y-112465925D01*
X147290590Y-112482962D01*
X146550893Y-113222658D01*
X146633828Y-113282914D01*
X146844197Y-113390102D01*
X147068752Y-113463065D01*
X147068751Y-113463065D01*
X147301948Y-113500000D01*
X147538052Y-113500000D01*
X147771247Y-113463065D01*
X147995802Y-113390102D01*
X148206163Y-113282918D01*
X148206169Y-113282914D01*
X148289104Y-113222658D01*
X148289105Y-113222658D01*
X147549408Y-112482962D01*
X147612993Y-112465925D01*
X147727007Y-112400099D01*
X147820099Y-112307007D01*
X147885925Y-112192993D01*
X147902962Y-112129409D01*
X148642657Y-112869104D01*
X148662404Y-112867550D01*
X148730781Y-112881914D01*
X148772451Y-112918282D01*
X148815483Y-112977510D01*
X148982490Y-113144517D01*
X149173567Y-113283343D01*
X149272991Y-113334002D01*
X149384003Y-113390566D01*
X149384005Y-113390566D01*
X149384008Y-113390568D01*
X149492385Y-113425782D01*
X149608631Y-113463553D01*
X149841903Y-113500500D01*
X149841908Y-113500500D01*
X150078097Y-113500500D01*
X150311368Y-113463553D01*
X150312870Y-113463065D01*
X150535992Y-113390568D01*
X150746433Y-113283343D01*
X150937510Y-113144517D01*
X151104517Y-112977510D01*
X151151370Y-112913022D01*
X151155713Y-112908199D01*
X151180150Y-112893142D01*
X151202877Y-112875618D01*
X151210393Y-112874509D01*
X151215199Y-112871549D01*
X151228730Y-112871806D01*
X151257594Y-112867551D01*
X151277340Y-112869105D01*
X152017037Y-112129408D01*
X152034075Y-112192993D01*
X152099901Y-112307007D01*
X152192993Y-112400099D01*
X152307007Y-112465925D01*
X152370590Y-112482962D01*
X151630893Y-113222658D01*
X151713828Y-113282914D01*
X151924197Y-113390102D01*
X152148752Y-113463065D01*
X152148751Y-113463065D01*
X152381948Y-113500000D01*
X152618052Y-113500000D01*
X152851247Y-113463065D01*
X153075802Y-113390102D01*
X153286163Y-113282918D01*
X153286169Y-113282914D01*
X153369104Y-113222658D01*
X153369105Y-113222658D01*
X152629408Y-112482962D01*
X152692993Y-112465925D01*
X152807007Y-112400099D01*
X152900099Y-112307007D01*
X152965925Y-112192993D01*
X152982962Y-112129408D01*
X153722657Y-112869104D01*
X153742404Y-112867550D01*
X153810781Y-112881914D01*
X153852451Y-112918282D01*
X153895483Y-112977510D01*
X154062490Y-113144517D01*
X154253567Y-113283343D01*
X154352991Y-113334002D01*
X154464003Y-113390566D01*
X154464005Y-113390566D01*
X154464008Y-113390568D01*
X154572385Y-113425782D01*
X154688631Y-113463553D01*
X154921903Y-113500500D01*
X154921908Y-113500500D01*
X155158097Y-113500500D01*
X155391368Y-113463553D01*
X155392870Y-113463065D01*
X155615992Y-113390568D01*
X155826433Y-113283343D01*
X156017510Y-113144517D01*
X156184517Y-112977510D01*
X156323343Y-112786433D01*
X156430568Y-112575992D01*
X156503553Y-112351368D01*
X156503754Y-112350099D01*
X156540500Y-112118097D01*
X156540500Y-111881906D01*
X156539309Y-111874386D01*
X156539309Y-111874383D01*
X156536879Y-111859041D01*
X157849500Y-111859041D01*
X157849500Y-112140958D01*
X157886295Y-112420439D01*
X157959259Y-112692743D01*
X158067135Y-112953179D01*
X158067140Y-112953190D01*
X158193851Y-113172658D01*
X158208088Y-113197317D01*
X158374013Y-113413553D01*
X158379704Y-113420970D01*
X158579029Y-113620295D01*
X158579033Y-113620298D01*
X158579035Y-113620300D01*
X158802683Y-113791912D01*
X158802690Y-113791916D01*
X159046809Y-113932859D01*
X159046814Y-113932861D01*
X159046817Y-113932863D01*
X159307261Y-114040742D01*
X159579558Y-114113704D01*
X159859049Y-114150500D01*
X159859056Y-114150500D01*
X160140944Y-114150500D01*
X160140951Y-114150500D01*
X160420442Y-114113704D01*
X160692739Y-114040742D01*
X160953183Y-113932863D01*
X161197317Y-113791912D01*
X161420965Y-113620300D01*
X161620300Y-113420965D01*
X161791912Y-113197317D01*
X161932863Y-112953183D01*
X162040742Y-112692739D01*
X162113704Y-112420442D01*
X162150500Y-112140951D01*
X162150500Y-111859049D01*
X162113704Y-111579558D01*
X162040742Y-111307261D01*
X161932863Y-111046817D01*
X161932861Y-111046814D01*
X161932859Y-111046809D01*
X161791916Y-110802690D01*
X161791912Y-110802683D01*
X161620300Y-110579035D01*
X161620298Y-110579033D01*
X161620295Y-110579029D01*
X161420970Y-110379704D01*
X161420965Y-110379700D01*
X161197317Y-110208088D01*
X161197311Y-110208084D01*
X161197309Y-110208083D01*
X160953190Y-110067140D01*
X160953179Y-110067135D01*
X160692743Y-109959259D01*
X160420439Y-109886295D01*
X160140958Y-109849500D01*
X160140951Y-109849500D01*
X159859049Y-109849500D01*
X159859041Y-109849500D01*
X159579560Y-109886295D01*
X159307256Y-109959259D01*
X159046820Y-110067135D01*
X159046809Y-110067140D01*
X158802690Y-110208083D01*
X158802682Y-110208089D01*
X158579029Y-110379704D01*
X158379704Y-110579029D01*
X158265901Y-110727340D01*
X158227535Y-110777340D01*
X158208089Y-110802682D01*
X158208083Y-110802690D01*
X158067140Y-111046809D01*
X158067135Y-111046820D01*
X157959259Y-111307256D01*
X157886295Y-111579560D01*
X157849500Y-111859041D01*
X156536879Y-111859041D01*
X156503553Y-111648631D01*
X156430566Y-111424003D01*
X156323342Y-111213566D01*
X156184517Y-111022490D01*
X156017510Y-110855483D01*
X155826433Y-110716657D01*
X155791053Y-110698630D01*
X155615996Y-110609433D01*
X155391368Y-110536446D01*
X155158097Y-110499500D01*
X155158092Y-110499500D01*
X154921908Y-110499500D01*
X154921903Y-110499500D01*
X154746626Y-110527261D01*
X154677332Y-110518306D01*
X154639547Y-110492469D01*
X145291459Y-101144381D01*
X145257974Y-101083058D01*
X145262958Y-101013366D01*
X145304830Y-100957433D01*
X145370294Y-100933016D01*
X145426586Y-100942137D01*
X145498833Y-100972062D01*
X145541502Y-100989737D01*
X145625438Y-101006433D01*
X145696152Y-101020499D01*
X145696155Y-101020500D01*
X145696157Y-101020500D01*
X145696158Y-101020500D01*
X152163696Y-101020500D01*
X152230735Y-101040185D01*
X152264013Y-101071613D01*
X152355483Y-101197510D01*
X152522490Y-101364517D01*
X152557127Y-101389683D01*
X152599792Y-101445013D01*
X152605771Y-101514626D01*
X152573165Y-101576421D01*
X152557130Y-101590315D01*
X152539365Y-101603222D01*
X152522488Y-101615484D01*
X152355485Y-101782487D01*
X152355485Y-101782488D01*
X152355483Y-101782490D01*
X152295862Y-101864550D01*
X152216657Y-101973566D01*
X152109433Y-102184003D01*
X152036446Y-102408631D01*
X151999500Y-102641902D01*
X151999500Y-102878097D01*
X152036446Y-103111368D01*
X152109433Y-103335996D01*
X152216657Y-103546433D01*
X152355483Y-103737510D01*
X152522490Y-103904517D01*
X152557127Y-103929683D01*
X152599792Y-103985013D01*
X152605771Y-104054626D01*
X152573165Y-104116421D01*
X152557130Y-104130315D01*
X152539365Y-104143222D01*
X152522488Y-104155484D01*
X152355485Y-104322487D01*
X152355485Y-104322488D01*
X152355483Y-104322490D01*
X152295862Y-104404550D01*
X152216657Y-104513566D01*
X152109433Y-104724003D01*
X152036446Y-104948631D01*
X151999500Y-105181902D01*
X151999500Y-105418097D01*
X152036446Y-105651368D01*
X152109433Y-105875996D01*
X152216657Y-106086433D01*
X152355483Y-106277510D01*
X152522490Y-106444517D01*
X152713567Y-106583343D01*
X152812991Y-106634002D01*
X152924003Y-106690566D01*
X152924005Y-106690566D01*
X152924008Y-106690568D01*
X153148632Y-106763553D01*
X153158052Y-106765044D01*
X153221186Y-106794972D01*
X153226337Y-106799837D01*
X155169714Y-108743214D01*
X155203199Y-108804537D01*
X155204507Y-108850291D01*
X155199500Y-108881907D01*
X155199500Y-109118097D01*
X155236446Y-109351368D01*
X155309433Y-109575996D01*
X155375018Y-109704712D01*
X155416657Y-109786433D01*
X155555483Y-109977510D01*
X155722490Y-110144517D01*
X155913567Y-110283343D01*
X155959035Y-110306510D01*
X156124003Y-110390566D01*
X156124005Y-110390566D01*
X156124008Y-110390568D01*
X156244412Y-110429689D01*
X156348631Y-110463553D01*
X156581903Y-110500500D01*
X156581908Y-110500500D01*
X156818097Y-110500500D01*
X157051368Y-110463553D01*
X157065698Y-110458897D01*
X157275992Y-110390568D01*
X157486433Y-110283343D01*
X157677510Y-110144517D01*
X157844517Y-109977510D01*
X157983343Y-109786433D01*
X158090568Y-109575992D01*
X158163553Y-109351368D01*
X158197570Y-109136594D01*
X158200500Y-109118097D01*
X158200500Y-108881902D01*
X158163553Y-108648631D01*
X158090566Y-108424003D01*
X157983342Y-108213566D01*
X157844517Y-108022490D01*
X157677510Y-107855483D01*
X157486433Y-107716657D01*
X157275996Y-107609433D01*
X157051368Y-107536446D01*
X156818097Y-107499500D01*
X156818092Y-107499500D01*
X156581908Y-107499500D01*
X156581907Y-107499500D01*
X156550291Y-107504507D01*
X156480998Y-107495551D01*
X156443214Y-107469714D01*
X154934225Y-105960725D01*
X154900740Y-105899402D01*
X154903974Y-105834730D01*
X154963553Y-105651368D01*
X154976157Y-105571789D01*
X155000500Y-105418097D01*
X155000500Y-105181902D01*
X154963553Y-104948631D01*
X154890566Y-104724003D01*
X154783342Y-104513566D01*
X154644517Y-104322490D01*
X154477510Y-104155483D01*
X154442872Y-104130317D01*
X154400207Y-104074989D01*
X154394228Y-104005375D01*
X154426833Y-103943580D01*
X154442873Y-103929682D01*
X154477510Y-103904517D01*
X154644517Y-103737510D01*
X154735986Y-103611613D01*
X154791316Y-103568949D01*
X154836304Y-103560500D01*
X155763696Y-103560500D01*
X155830735Y-103580185D01*
X155864013Y-103611613D01*
X155955483Y-103737510D01*
X156122490Y-103904517D01*
X156313567Y-104043343D01*
X156375676Y-104074989D01*
X156524003Y-104150566D01*
X156524005Y-104150566D01*
X156524008Y-104150568D01*
X156644412Y-104189689D01*
X156748631Y-104223553D01*
X156981903Y-104260500D01*
X156981908Y-104260500D01*
X157218097Y-104260500D01*
X157451368Y-104223553D01*
X157675992Y-104150568D01*
X157886433Y-104043343D01*
X158077510Y-103904517D01*
X158244517Y-103737510D01*
X158383343Y-103546433D01*
X158490568Y-103335992D01*
X158563553Y-103111368D01*
X158566273Y-103094194D01*
X158600500Y-102878097D01*
X158600500Y-102641902D01*
X158563553Y-102408631D01*
X158490566Y-102184003D01*
X158383342Y-101973566D01*
X158244517Y-101782490D01*
X158077510Y-101615483D01*
X157886433Y-101476657D01*
X157864291Y-101465375D01*
X157675996Y-101369433D01*
X157451368Y-101296446D01*
X157218097Y-101259500D01*
X157218092Y-101259500D01*
X156981908Y-101259500D01*
X156981903Y-101259500D01*
X156748631Y-101296446D01*
X156524003Y-101369433D01*
X156313566Y-101476657D01*
X156261307Y-101514626D01*
X156122490Y-101615483D01*
X156122488Y-101615485D01*
X156122487Y-101615485D01*
X155955485Y-101782487D01*
X155955485Y-101782488D01*
X155955483Y-101782490D01*
X155864014Y-101908386D01*
X155808684Y-101951051D01*
X155763696Y-101959500D01*
X154836304Y-101959500D01*
X154769265Y-101939815D01*
X154735986Y-101908386D01*
X154644517Y-101782490D01*
X154477510Y-101615483D01*
X154442872Y-101590317D01*
X154400207Y-101534989D01*
X154394228Y-101465375D01*
X154426833Y-101403580D01*
X154442873Y-101389682D01*
X154477510Y-101364517D01*
X154644517Y-101197510D01*
X154783343Y-101006433D01*
X154890568Y-100795992D01*
X154963553Y-100571368D01*
X154966273Y-100554194D01*
X155000500Y-100338097D01*
X155000500Y-100101902D01*
X154963553Y-99868631D01*
X154890566Y-99644003D01*
X154783342Y-99433566D01*
X154644517Y-99242490D01*
X154477510Y-99075483D01*
X154442872Y-99050317D01*
X154400207Y-98994989D01*
X154394228Y-98925375D01*
X154426833Y-98863580D01*
X154442873Y-98849682D01*
X154477510Y-98824517D01*
X154644517Y-98657510D01*
X154783343Y-98466433D01*
X154890568Y-98255992D01*
X154963553Y-98031368D01*
X154976157Y-97951789D01*
X155000500Y-97798097D01*
X155000500Y-97561902D01*
X154963553Y-97328631D01*
X154890566Y-97104003D01*
X154783342Y-96893566D01*
X154644517Y-96702490D01*
X154477510Y-96535483D01*
X154442872Y-96510317D01*
X154400207Y-96454989D01*
X154394228Y-96385375D01*
X154426833Y-96323580D01*
X154442873Y-96309682D01*
X154477510Y-96284517D01*
X154644517Y-96117510D01*
X154783343Y-95926433D01*
X154890568Y-95715992D01*
X154963553Y-95491368D01*
X155000500Y-95258097D01*
X155000500Y-95021902D01*
X154963553Y-94788631D01*
X154890566Y-94564003D01*
X154834002Y-94452991D01*
X154783343Y-94353567D01*
X154644517Y-94162490D01*
X154477510Y-93995483D01*
X154418282Y-93952451D01*
X154375617Y-93897122D01*
X154367550Y-93842404D01*
X154369104Y-93822657D01*
X153629408Y-93082962D01*
X153692993Y-93065925D01*
X153807007Y-93000099D01*
X153900099Y-92907007D01*
X153965925Y-92792993D01*
X153982962Y-92729409D01*
X154722658Y-93469105D01*
X154722658Y-93469104D01*
X154782914Y-93386169D01*
X154782918Y-93386163D01*
X154890102Y-93175802D01*
X154963065Y-92951247D01*
X155000000Y-92718052D01*
X155000000Y-92481947D01*
X154963065Y-92248752D01*
X154890102Y-92024197D01*
X154782914Y-91813828D01*
X154722658Y-91730894D01*
X154722658Y-91730893D01*
X153982962Y-92470590D01*
X153965925Y-92407007D01*
X153900099Y-92292993D01*
X153807007Y-92199901D01*
X153692993Y-92134075D01*
X153629409Y-92117037D01*
X154369105Y-91377340D01*
X154367551Y-91357594D01*
X154381915Y-91289216D01*
X154418284Y-91247547D01*
X154477510Y-91204517D01*
X154644517Y-91037510D01*
X154783343Y-90846433D01*
X154890568Y-90635992D01*
X154963553Y-90411368D01*
X155000500Y-90178097D01*
X155000500Y-89941901D01*
X154989807Y-89874387D01*
X154987376Y-89859041D01*
X157849500Y-89859041D01*
X157849500Y-90140958D01*
X157886295Y-90420439D01*
X157959259Y-90692743D01*
X158067135Y-90953179D01*
X158067140Y-90953190D01*
X158115824Y-91037512D01*
X158208088Y-91197317D01*
X158376213Y-91416421D01*
X158379704Y-91420970D01*
X158579029Y-91620295D01*
X158579033Y-91620298D01*
X158579035Y-91620300D01*
X158802683Y-91791912D01*
X158802690Y-91791916D01*
X159046809Y-91932859D01*
X159046814Y-91932861D01*
X159046817Y-91932863D01*
X159307261Y-92040742D01*
X159579558Y-92113704D01*
X159859049Y-92150500D01*
X159859056Y-92150500D01*
X160140944Y-92150500D01*
X160140951Y-92150500D01*
X160420442Y-92113704D01*
X160692739Y-92040742D01*
X160953183Y-91932863D01*
X161197317Y-91791912D01*
X161420965Y-91620300D01*
X161620300Y-91420965D01*
X161791912Y-91197317D01*
X161932863Y-90953183D01*
X162040742Y-90692739D01*
X162113704Y-90420442D01*
X162150500Y-90140951D01*
X162150500Y-89859049D01*
X162113704Y-89579558D01*
X162040742Y-89307261D01*
X161932863Y-89046817D01*
X161932861Y-89046814D01*
X161932859Y-89046809D01*
X161791916Y-88802690D01*
X161791912Y-88802683D01*
X161620300Y-88579035D01*
X161620298Y-88579033D01*
X161620295Y-88579029D01*
X161420970Y-88379704D01*
X161380208Y-88348426D01*
X161197317Y-88208088D01*
X161197311Y-88208084D01*
X161197309Y-88208083D01*
X160953190Y-88067140D01*
X160953179Y-88067135D01*
X160692743Y-87959259D01*
X160420439Y-87886295D01*
X160140958Y-87849500D01*
X160140951Y-87849500D01*
X159859049Y-87849500D01*
X159859041Y-87849500D01*
X159579560Y-87886295D01*
X159307256Y-87959259D01*
X159046820Y-88067135D01*
X159046809Y-88067140D01*
X158802690Y-88208083D01*
X158802682Y-88208089D01*
X158579029Y-88379704D01*
X158379704Y-88579029D01*
X158310335Y-88669433D01*
X158208754Y-88801816D01*
X158208089Y-88802682D01*
X158208083Y-88802690D01*
X158067140Y-89046809D01*
X158067135Y-89046820D01*
X157959259Y-89307256D01*
X157886295Y-89579560D01*
X157849500Y-89859041D01*
X154987376Y-89859041D01*
X154963553Y-89708631D01*
X154890566Y-89484003D01*
X154800508Y-89307256D01*
X154783343Y-89273567D01*
X154644517Y-89082490D01*
X154477510Y-88915483D01*
X154286433Y-88776657D01*
X154075996Y-88669433D01*
X153851368Y-88596446D01*
X153618097Y-88559500D01*
X153618092Y-88559500D01*
X153381908Y-88559500D01*
X153381903Y-88559500D01*
X153148631Y-88596446D01*
X152924003Y-88669433D01*
X152713566Y-88776657D01*
X152629385Y-88837819D01*
X152522490Y-88915483D01*
X152522488Y-88915485D01*
X152522487Y-88915485D01*
X152355485Y-89082487D01*
X152355485Y-89082488D01*
X152355483Y-89082490D01*
X152336667Y-89108386D01*
X152281339Y-89151051D01*
X152236351Y-89159500D01*
X150851303Y-89159500D01*
X150677341Y-89194103D01*
X150677333Y-89194105D01*
X150513455Y-89261985D01*
X150513446Y-89261990D01*
X150365964Y-89360535D01*
X150365960Y-89360538D01*
X145523319Y-94203181D01*
X145461996Y-94236666D01*
X145435638Y-94239500D01*
X144498649Y-94239500D01*
X144431610Y-94219815D01*
X144398332Y-94188387D01*
X144379517Y-94162490D01*
X144212510Y-93995483D01*
X144153282Y-93952451D01*
X144110617Y-93897122D01*
X144102550Y-93842404D01*
X144104104Y-93822657D01*
X143364408Y-93082962D01*
X143427993Y-93065925D01*
X143542007Y-93000099D01*
X143635099Y-92907007D01*
X143700925Y-92792993D01*
X143717962Y-92729409D01*
X144457658Y-93469105D01*
X144457658Y-93469104D01*
X144517914Y-93386169D01*
X144517918Y-93386163D01*
X144625102Y-93175802D01*
X144698065Y-92951247D01*
X144735000Y-92718052D01*
X144735000Y-92481947D01*
X144698065Y-92248752D01*
X144625102Y-92024197D01*
X144517914Y-91813828D01*
X144457658Y-91730894D01*
X144457658Y-91730893D01*
X143717962Y-92470590D01*
X143700925Y-92407007D01*
X143635099Y-92292993D01*
X143542007Y-92199901D01*
X143427993Y-92134075D01*
X143364409Y-92117037D01*
X144104105Y-91377340D01*
X144102551Y-91357594D01*
X144116915Y-91289216D01*
X144153284Y-91247547D01*
X144212510Y-91204517D01*
X144379517Y-91037510D01*
X144518343Y-90846433D01*
X144625568Y-90635992D01*
X144698553Y-90411368D01*
X144735500Y-90178097D01*
X144735500Y-89941902D01*
X144698553Y-89708631D01*
X144625566Y-89484003D01*
X144535508Y-89307256D01*
X144518343Y-89273567D01*
X144379517Y-89082490D01*
X144212510Y-88915483D01*
X144021433Y-88776657D01*
X143810996Y-88669433D01*
X143586368Y-88596446D01*
X143353097Y-88559500D01*
X143353092Y-88559500D01*
X143116908Y-88559500D01*
X143116903Y-88559500D01*
X142883631Y-88596446D01*
X142659003Y-88669433D01*
X142448566Y-88776657D01*
X142364385Y-88837819D01*
X142257490Y-88915483D01*
X142257488Y-88915485D01*
X142257487Y-88915485D01*
X142090485Y-89082487D01*
X142090485Y-89082488D01*
X142090483Y-89082490D01*
X142040670Y-89151051D01*
X141951657Y-89273566D01*
X141844433Y-89484003D01*
X141771446Y-89708631D01*
X141734500Y-89941902D01*
X141734500Y-90178097D01*
X141771446Y-90411368D01*
X141844433Y-90635996D01*
X141951657Y-90846433D01*
X142090483Y-91037510D01*
X142257490Y-91204517D01*
X142316716Y-91247547D01*
X142359381Y-91302875D01*
X142367448Y-91357593D01*
X142365893Y-91377340D01*
X143105591Y-92117037D01*
X143042007Y-92134075D01*
X142927993Y-92199901D01*
X142834901Y-92292993D01*
X142769075Y-92407007D01*
X142752037Y-92470591D01*
X142012340Y-91730894D01*
X141952084Y-91813830D01*
X141844897Y-92024197D01*
X141771934Y-92248752D01*
X141735000Y-92481947D01*
X141735000Y-92718052D01*
X141771934Y-92951247D01*
X141844897Y-93175802D01*
X141952087Y-93386174D01*
X142012338Y-93469104D01*
X142012340Y-93469105D01*
X142752037Y-92729408D01*
X142769075Y-92792993D01*
X142834901Y-92907007D01*
X142927993Y-93000099D01*
X143042007Y-93065925D01*
X143105590Y-93082962D01*
X142365893Y-93822658D01*
X142367448Y-93842405D01*
X142353084Y-93910783D01*
X142316717Y-93952451D01*
X142257490Y-93995482D01*
X142090485Y-94162487D01*
X142090485Y-94162488D01*
X142090483Y-94162490D01*
X142071667Y-94188386D01*
X142016339Y-94231051D01*
X141971351Y-94239500D01*
X141564362Y-94239500D01*
X141497323Y-94219815D01*
X141476681Y-94203181D01*
X134985681Y-87712181D01*
X134952196Y-87650858D01*
X134957180Y-87581166D01*
X134999052Y-87525233D01*
X135064516Y-87500816D01*
X135073362Y-87500500D01*
X159934108Y-87500500D01*
X159996249Y-87500500D01*
X160003736Y-87500726D01*
X160293796Y-87518271D01*
X160308657Y-87520075D01*
X160590798Y-87571780D01*
X160605335Y-87575363D01*
X160879172Y-87660695D01*
X160893163Y-87666000D01*
X161154743Y-87783727D01*
X161167989Y-87790680D01*
X161413465Y-87939075D01*
X161425776Y-87947573D01*
X161578386Y-88067135D01*
X161651573Y-88124473D01*
X161662781Y-88134403D01*
X161865596Y-88337218D01*
X161875526Y-88348426D01*
X162044814Y-88564507D01*
X162052422Y-88574217D01*
X162060926Y-88586537D01*
X162175858Y-88776657D01*
X162209316Y-88832004D01*
X162216275Y-88845263D01*
X162333997Y-89106831D01*
X162339306Y-89120832D01*
X162424635Y-89394663D01*
X162428219Y-89409201D01*
X162479923Y-89691340D01*
X162481728Y-89706205D01*
X162499274Y-89996263D01*
X162499500Y-90003750D01*
X162499500Y-111996249D01*
X162499274Y-112003736D01*
X162481728Y-112293794D01*
X162479923Y-112308659D01*
X162428219Y-112590798D01*
X162424635Y-112605336D01*
X162339306Y-112879167D01*
X162333997Y-112893168D01*
X162216275Y-113154736D01*
X162209316Y-113167995D01*
X162060928Y-113413459D01*
X162052422Y-113425782D01*
X161875526Y-113651573D01*
X161865596Y-113662781D01*
X161662781Y-113865596D01*
X161651573Y-113875526D01*
X161425782Y-114052422D01*
X161413459Y-114060928D01*
X161167995Y-114209316D01*
X161154736Y-114216275D01*
X160893168Y-114333997D01*
X160879167Y-114339306D01*
X160605336Y-114424635D01*
X160590798Y-114428219D01*
X160308659Y-114479923D01*
X160293794Y-114481728D01*
X160003736Y-114499274D01*
X159996249Y-114499500D01*
X109003751Y-114499500D01*
X108996264Y-114499274D01*
X108706205Y-114481728D01*
X108691340Y-114479923D01*
X108409201Y-114428219D01*
X108394663Y-114424635D01*
X108120832Y-114339306D01*
X108106831Y-114333997D01*
X107845263Y-114216275D01*
X107832004Y-114209316D01*
X107586540Y-114060928D01*
X107574217Y-114052422D01*
X107348426Y-113875526D01*
X107337218Y-113865596D01*
X107134403Y-113662781D01*
X107124473Y-113651573D01*
X107005723Y-113500000D01*
X106947573Y-113425776D01*
X106939075Y-113413465D01*
X106790680Y-113167989D01*
X106783727Y-113154743D01*
X106666000Y-112893163D01*
X106660693Y-112879167D01*
X106658399Y-112871806D01*
X106575363Y-112605335D01*
X106571780Y-112590798D01*
X106540561Y-112420442D01*
X106520075Y-112308657D01*
X106518271Y-112293794D01*
X106500726Y-112003736D01*
X106500500Y-111996249D01*
X106500500Y-111859041D01*
X106849500Y-111859041D01*
X106849500Y-112140958D01*
X106886295Y-112420439D01*
X106959259Y-112692743D01*
X107067135Y-112953179D01*
X107067140Y-112953190D01*
X107193851Y-113172658D01*
X107208088Y-113197317D01*
X107374013Y-113413553D01*
X107379704Y-113420970D01*
X107579029Y-113620295D01*
X107579033Y-113620298D01*
X107579035Y-113620300D01*
X107802683Y-113791912D01*
X107802690Y-113791916D01*
X108046809Y-113932859D01*
X108046814Y-113932861D01*
X108046817Y-113932863D01*
X108307261Y-114040742D01*
X108579558Y-114113704D01*
X108859049Y-114150500D01*
X108859056Y-114150500D01*
X109140944Y-114150500D01*
X109140951Y-114150500D01*
X109420442Y-114113704D01*
X109692739Y-114040742D01*
X109953183Y-113932863D01*
X110197317Y-113791912D01*
X110420965Y-113620300D01*
X110620300Y-113420965D01*
X110791912Y-113197317D01*
X110851264Y-113094517D01*
X110869230Y-113063399D01*
X110932859Y-112953190D01*
X110932859Y-112953189D01*
X110932863Y-112953183D01*
X111040742Y-112692739D01*
X111113704Y-112420442D01*
X111150500Y-112140951D01*
X111150500Y-111859049D01*
X111145783Y-111823223D01*
X111127900Y-111687386D01*
X111113704Y-111579558D01*
X111040742Y-111307261D01*
X110932863Y-111046817D01*
X110932861Y-111046814D01*
X110932859Y-111046809D01*
X110811493Y-110836599D01*
X110791912Y-110802683D01*
X110620300Y-110579035D01*
X110620298Y-110579033D01*
X110620295Y-110579029D01*
X110420970Y-110379704D01*
X110420965Y-110379700D01*
X110197317Y-110208088D01*
X110197311Y-110208084D01*
X110197309Y-110208083D01*
X109953190Y-110067140D01*
X109953179Y-110067135D01*
X109692743Y-109959259D01*
X109420439Y-109886295D01*
X109140958Y-109849500D01*
X109140951Y-109849500D01*
X108859049Y-109849500D01*
X108859041Y-109849500D01*
X108579560Y-109886295D01*
X108307256Y-109959259D01*
X108046820Y-110067135D01*
X108046809Y-110067140D01*
X107802690Y-110208083D01*
X107802682Y-110208089D01*
X107579029Y-110379704D01*
X107379704Y-110579029D01*
X107265901Y-110727340D01*
X107227535Y-110777340D01*
X107208089Y-110802682D01*
X107208083Y-110802690D01*
X107067140Y-111046809D01*
X107067135Y-111046820D01*
X106959259Y-111307256D01*
X106886295Y-111579560D01*
X106849500Y-111859041D01*
X106500500Y-111859041D01*
X106500500Y-90003750D01*
X106500726Y-89996263D01*
X106508098Y-89874387D01*
X106509026Y-89859041D01*
X106849500Y-89859041D01*
X106849500Y-90140958D01*
X106886295Y-90420439D01*
X106959259Y-90692743D01*
X107067135Y-90953179D01*
X107067140Y-90953190D01*
X107115824Y-91037512D01*
X107208088Y-91197317D01*
X107376213Y-91416421D01*
X107379704Y-91420970D01*
X107579029Y-91620295D01*
X107579033Y-91620298D01*
X107579035Y-91620300D01*
X107802683Y-91791912D01*
X107802690Y-91791916D01*
X108046809Y-91932859D01*
X108046814Y-91932861D01*
X108046817Y-91932863D01*
X108307261Y-92040742D01*
X108579558Y-92113704D01*
X108859049Y-92150500D01*
X108859056Y-92150500D01*
X109140944Y-92150500D01*
X109140951Y-92150500D01*
X109420442Y-92113704D01*
X109692739Y-92040742D01*
X109953183Y-91932863D01*
X110197317Y-91791912D01*
X110420965Y-91620300D01*
X110620300Y-91420965D01*
X110791912Y-91197317D01*
X110932863Y-90953183D01*
X111040742Y-90692739D01*
X111113704Y-90420442D01*
X111150500Y-90140951D01*
X111150500Y-89859049D01*
X111113704Y-89579558D01*
X111040742Y-89307261D01*
X110932863Y-89046817D01*
X110932861Y-89046814D01*
X110932859Y-89046809D01*
X110791916Y-88802690D01*
X110791912Y-88802683D01*
X110620300Y-88579035D01*
X110620298Y-88579033D01*
X110620295Y-88579029D01*
X110420970Y-88379704D01*
X110380208Y-88348426D01*
X110197317Y-88208088D01*
X110197311Y-88208084D01*
X110197309Y-88208083D01*
X109953190Y-88067140D01*
X109953179Y-88067135D01*
X109692743Y-87959259D01*
X109420439Y-87886295D01*
X109140958Y-87849500D01*
X109140951Y-87849500D01*
X108859049Y-87849500D01*
X108859041Y-87849500D01*
X108579560Y-87886295D01*
X108307256Y-87959259D01*
X108046820Y-88067135D01*
X108046809Y-88067140D01*
X107802690Y-88208083D01*
X107802682Y-88208089D01*
X107579029Y-88379704D01*
X107379704Y-88579029D01*
X107310335Y-88669433D01*
X107208754Y-88801816D01*
X107208089Y-88802682D01*
X107208083Y-88802690D01*
X107067140Y-89046809D01*
X107067135Y-89046820D01*
X106959259Y-89307256D01*
X106886295Y-89579560D01*
X106849500Y-89859041D01*
X106509026Y-89859041D01*
X106518271Y-89706201D01*
X106520076Y-89691340D01*
X106540561Y-89579560D01*
X106571780Y-89409197D01*
X106575364Y-89394663D01*
X106585998Y-89360538D01*
X106660696Y-89120822D01*
X106665998Y-89106841D01*
X106783731Y-88845249D01*
X106790676Y-88832016D01*
X106939080Y-88586526D01*
X106947567Y-88574230D01*
X107124480Y-88348417D01*
X107134395Y-88337226D01*
X107337226Y-88134395D01*
X107348417Y-88124480D01*
X107574230Y-87947567D01*
X107586526Y-87939080D01*
X107832016Y-87790676D01*
X107845249Y-87783731D01*
X108106841Y-87665998D01*
X108120822Y-87660696D01*
X108394668Y-87575362D01*
X108409197Y-87571780D01*
X108691344Y-87520075D01*
X108706201Y-87518271D01*
X108996264Y-87500726D01*
X109003751Y-87500500D01*
X109065892Y-87500500D01*
X119086638Y-87500500D01*
X119153677Y-87520185D01*
G37*
%TD.AperFunction*%
%TA.AperFunction,Conductor*%
G36*
X133543677Y-88821185D02*
G01*
X133564319Y-88837819D01*
X140565966Y-95839466D01*
X140600326Y-95862423D01*
X140625040Y-95878936D01*
X140713453Y-95938013D01*
X140795393Y-95971953D01*
X140801480Y-95974474D01*
X140801485Y-95974477D01*
X140837940Y-95989577D01*
X140877334Y-96005895D01*
X141051303Y-96040499D01*
X141051307Y-96040500D01*
X141051308Y-96040500D01*
X141051309Y-96040500D01*
X141971351Y-96040500D01*
X142038390Y-96060185D01*
X142071667Y-96091612D01*
X142090483Y-96117510D01*
X142257490Y-96284517D01*
X142292127Y-96309683D01*
X142334792Y-96365013D01*
X142340771Y-96434626D01*
X142308165Y-96496421D01*
X142292130Y-96510315D01*
X142274365Y-96523222D01*
X142257488Y-96535484D01*
X142090485Y-96702487D01*
X142090485Y-96702488D01*
X142090483Y-96702490D01*
X142030862Y-96784550D01*
X141951657Y-96893566D01*
X141844433Y-97104003D01*
X141771446Y-97328631D01*
X141734500Y-97561902D01*
X141734500Y-97798097D01*
X141771446Y-98031368D01*
X141844433Y-98255996D01*
X141951657Y-98466433D01*
X142090483Y-98657510D01*
X142257490Y-98824517D01*
X142292127Y-98849683D01*
X142334792Y-98905013D01*
X142340771Y-98974626D01*
X142308165Y-99036421D01*
X142292130Y-99050315D01*
X142274365Y-99063222D01*
X142257488Y-99075484D01*
X142090485Y-99242487D01*
X142090485Y-99242488D01*
X142090483Y-99242490D01*
X142030862Y-99324550D01*
X141951657Y-99433566D01*
X141844433Y-99644003D01*
X141771446Y-99868631D01*
X141734500Y-100101902D01*
X141734500Y-100338097D01*
X141771446Y-100571368D01*
X141844433Y-100795996D01*
X141934144Y-100972062D01*
X141951657Y-101006433D01*
X142090483Y-101197510D01*
X142257490Y-101364517D01*
X142292127Y-101389683D01*
X142334792Y-101445013D01*
X142340771Y-101514626D01*
X142308165Y-101576421D01*
X142292130Y-101590315D01*
X142274365Y-101603222D01*
X142257488Y-101615484D01*
X142090485Y-101782487D01*
X142090485Y-101782488D01*
X142090483Y-101782490D01*
X142030862Y-101864550D01*
X141951657Y-101973566D01*
X141844433Y-102184003D01*
X141771446Y-102408631D01*
X141734500Y-102641902D01*
X141734500Y-102878097D01*
X141771446Y-103111368D01*
X141844433Y-103335996D01*
X141951657Y-103546433D01*
X142090483Y-103737510D01*
X142257490Y-103904517D01*
X142292127Y-103929683D01*
X142334792Y-103985013D01*
X142340771Y-104054626D01*
X142308165Y-104116421D01*
X142292130Y-104130315D01*
X142274365Y-104143222D01*
X142257488Y-104155484D01*
X142090485Y-104322487D01*
X142090485Y-104322488D01*
X142090483Y-104322490D01*
X142030862Y-104404550D01*
X141951657Y-104513566D01*
X141844433Y-104724003D01*
X141771446Y-104948631D01*
X141734500Y-105181902D01*
X141734500Y-105418097D01*
X141758843Y-105571790D01*
X141749889Y-105641083D01*
X141724051Y-105678869D01*
X138754291Y-108648631D01*
X137809711Y-109593211D01*
X137753960Y-109648962D01*
X137698209Y-109704712D01*
X137610609Y-109835814D01*
X137610602Y-109835827D01*
X137550264Y-109981498D01*
X137550261Y-109981510D01*
X137519500Y-110136153D01*
X137519500Y-110663695D01*
X137499815Y-110730734D01*
X137468386Y-110764012D01*
X137342496Y-110855478D01*
X137342487Y-110855485D01*
X137175482Y-111022490D01*
X137132451Y-111081717D01*
X137077120Y-111124382D01*
X137022405Y-111132448D01*
X137002658Y-111130893D01*
X136262962Y-111870590D01*
X136245925Y-111807007D01*
X136180099Y-111692993D01*
X136087007Y-111599901D01*
X135972993Y-111534075D01*
X135909409Y-111517037D01*
X136649105Y-110777340D01*
X136649104Y-110777338D01*
X136566174Y-110717087D01*
X136355802Y-110609897D01*
X136131247Y-110536934D01*
X136131248Y-110536934D01*
X135898052Y-110500000D01*
X135661948Y-110500000D01*
X135428752Y-110536934D01*
X135204197Y-110609897D01*
X134993830Y-110717084D01*
X134910894Y-110777340D01*
X135650591Y-111517037D01*
X135587007Y-111534075D01*
X135472993Y-111599901D01*
X135379901Y-111692993D01*
X135314075Y-111807007D01*
X135297037Y-111870590D01*
X134557340Y-111130893D01*
X134537593Y-111132448D01*
X134533860Y-111131663D01*
X134530222Y-111132808D01*
X134499936Y-111124537D01*
X134469215Y-111118084D01*
X134465429Y-111115114D01*
X134462821Y-111114402D01*
X134453431Y-111105701D01*
X134435712Y-111091800D01*
X134431370Y-111086978D01*
X134384517Y-111022490D01*
X134217510Y-110855483D01*
X134191519Y-110836599D01*
X134091614Y-110764012D01*
X134048948Y-110708682D01*
X134040500Y-110663695D01*
X134040500Y-110461155D01*
X134040499Y-110461153D01*
X134040050Y-110458897D01*
X134009737Y-110306503D01*
X134000144Y-110283343D01*
X133949397Y-110160827D01*
X133949390Y-110160814D01*
X133861790Y-110029712D01*
X133809588Y-109977510D01*
X133750289Y-109918211D01*
X129510947Y-105678869D01*
X129477462Y-105617546D01*
X129476155Y-105571795D01*
X129500500Y-105418092D01*
X129500500Y-105181908D01*
X129500500Y-105181902D01*
X129463553Y-104948631D01*
X129390566Y-104724003D01*
X129283342Y-104513566D01*
X129144517Y-104322490D01*
X128977510Y-104155483D01*
X128942872Y-104130317D01*
X128900207Y-104074989D01*
X128894228Y-104005375D01*
X128926833Y-103943580D01*
X128942873Y-103929682D01*
X128977510Y-103904517D01*
X129144517Y-103737510D01*
X129283343Y-103546433D01*
X129390568Y-103335992D01*
X129463553Y-103111368D01*
X129466273Y-103094194D01*
X129500500Y-102878097D01*
X129500500Y-102641902D01*
X129463553Y-102408631D01*
X129390566Y-102184003D01*
X129283342Y-101973566D01*
X129144517Y-101782490D01*
X128977510Y-101615483D01*
X128942872Y-101590317D01*
X128900207Y-101534989D01*
X128894228Y-101465375D01*
X128926833Y-101403580D01*
X128942873Y-101389682D01*
X128977510Y-101364517D01*
X129144517Y-101197510D01*
X129283343Y-101006433D01*
X129390568Y-100795992D01*
X129463553Y-100571368D01*
X129466273Y-100554194D01*
X129500500Y-100338097D01*
X129500500Y-100101902D01*
X129463553Y-99868631D01*
X129390566Y-99644003D01*
X129283342Y-99433566D01*
X129144517Y-99242490D01*
X128977510Y-99075483D01*
X128942872Y-99050317D01*
X128900207Y-98994989D01*
X128894228Y-98925375D01*
X128926833Y-98863580D01*
X128942873Y-98849682D01*
X128977510Y-98824517D01*
X129144517Y-98657510D01*
X129283343Y-98466433D01*
X129390568Y-98255992D01*
X129463553Y-98031368D01*
X129476157Y-97951789D01*
X129500500Y-97798097D01*
X129500500Y-97561902D01*
X129463553Y-97328631D01*
X129390566Y-97104003D01*
X129283342Y-96893566D01*
X129144517Y-96702490D01*
X128977510Y-96535483D01*
X128942872Y-96510317D01*
X128900207Y-96454989D01*
X128894228Y-96385375D01*
X128926833Y-96323580D01*
X128942873Y-96309682D01*
X128977510Y-96284517D01*
X129144517Y-96117510D01*
X129235986Y-95991613D01*
X129291316Y-95948949D01*
X129336304Y-95940500D01*
X130163696Y-95940500D01*
X130230735Y-95960185D01*
X130264013Y-95991613D01*
X130355483Y-96117510D01*
X130522490Y-96284517D01*
X130713567Y-96423343D01*
X130775676Y-96454989D01*
X130924003Y-96530566D01*
X130924005Y-96530566D01*
X130924008Y-96530568D01*
X131044412Y-96569689D01*
X131148631Y-96603553D01*
X131381903Y-96640500D01*
X131381908Y-96640500D01*
X131618097Y-96640500D01*
X131851368Y-96603553D01*
X132075992Y-96530568D01*
X132286433Y-96423343D01*
X132477510Y-96284517D01*
X132644517Y-96117510D01*
X132783343Y-95926433D01*
X132890568Y-95715992D01*
X132963553Y-95491368D01*
X133000500Y-95258097D01*
X133000500Y-95021902D01*
X132963553Y-94788631D01*
X132890566Y-94564003D01*
X132834002Y-94452991D01*
X132783343Y-94353567D01*
X132644517Y-94162490D01*
X132477510Y-93995483D01*
X132286433Y-93856657D01*
X132258460Y-93842404D01*
X132075996Y-93749433D01*
X131851368Y-93676446D01*
X131618097Y-93639500D01*
X131618092Y-93639500D01*
X131381908Y-93639500D01*
X131381903Y-93639500D01*
X131148631Y-93676446D01*
X130924003Y-93749433D01*
X130713566Y-93856657D01*
X130639069Y-93910783D01*
X130522490Y-93995483D01*
X130522488Y-93995485D01*
X130522487Y-93995485D01*
X130355485Y-94162487D01*
X130355485Y-94162488D01*
X130355483Y-94162490D01*
X130301591Y-94236666D01*
X130264014Y-94288386D01*
X130208684Y-94331051D01*
X130163696Y-94339500D01*
X129336304Y-94339500D01*
X129269265Y-94319815D01*
X129235986Y-94288386D01*
X129198409Y-94236666D01*
X129144517Y-94162490D01*
X128977510Y-93995483D01*
X128942872Y-93970317D01*
X128900207Y-93914989D01*
X128894228Y-93845375D01*
X128926833Y-93783580D01*
X128942873Y-93769682D01*
X128977510Y-93744517D01*
X129144517Y-93577510D01*
X129283343Y-93386433D01*
X129390568Y-93175992D01*
X129463553Y-92951368D01*
X129488637Y-92792993D01*
X129500500Y-92718097D01*
X129500500Y-92481902D01*
X129463553Y-92248631D01*
X129396005Y-92040742D01*
X129390568Y-92024008D01*
X129390566Y-92024005D01*
X129390566Y-92024003D01*
X129303971Y-91854052D01*
X129283343Y-91813567D01*
X129144517Y-91622490D01*
X128977510Y-91455483D01*
X128942872Y-91430317D01*
X128900207Y-91374989D01*
X128894228Y-91305375D01*
X128926833Y-91243580D01*
X128942873Y-91229682D01*
X128977510Y-91204517D01*
X129144517Y-91037510D01*
X129235986Y-90911613D01*
X129291316Y-90868949D01*
X129336304Y-90860500D01*
X130163696Y-90860500D01*
X130230735Y-90880185D01*
X130264013Y-90911613D01*
X130355483Y-91037510D01*
X130522490Y-91204517D01*
X130713567Y-91343343D01*
X130775676Y-91374989D01*
X130924003Y-91450566D01*
X130924005Y-91450566D01*
X130924008Y-91450568D01*
X131044412Y-91489689D01*
X131148631Y-91523553D01*
X131381903Y-91560500D01*
X131381908Y-91560500D01*
X131618097Y-91560500D01*
X131851368Y-91523553D01*
X132075992Y-91450568D01*
X132286433Y-91343343D01*
X132477510Y-91204517D01*
X132644517Y-91037510D01*
X132783343Y-90846433D01*
X132890568Y-90635992D01*
X132963553Y-90411368D01*
X133000500Y-90178097D01*
X133000500Y-89941902D01*
X132963553Y-89708631D01*
X132890566Y-89484003D01*
X132800508Y-89307256D01*
X132783343Y-89273567D01*
X132644517Y-89082490D01*
X132575208Y-89013181D01*
X132541723Y-88951858D01*
X132546707Y-88882166D01*
X132588579Y-88826233D01*
X132654043Y-88801816D01*
X132662889Y-88801500D01*
X133476638Y-88801500D01*
X133543677Y-88821185D01*
G37*
%TD.AperFunction*%
%TA.AperFunction,Conductor*%
G36*
X150835862Y-108971488D02*
G01*
X150884383Y-109001461D01*
X152210804Y-110327882D01*
X152244289Y-110389205D01*
X152239305Y-110458897D01*
X152197433Y-110514830D01*
X152152087Y-110536133D01*
X152148754Y-110536933D01*
X151924197Y-110609897D01*
X151713830Y-110717084D01*
X151630894Y-110777340D01*
X152370591Y-111517037D01*
X152307007Y-111534075D01*
X152192993Y-111599901D01*
X152099901Y-111692993D01*
X152034075Y-111807007D01*
X152017037Y-111870590D01*
X151277340Y-111130893D01*
X151257593Y-111132448D01*
X151189215Y-111118084D01*
X151147547Y-111081716D01*
X151104517Y-111022490D01*
X150937510Y-110855483D01*
X150911519Y-110836599D01*
X150811614Y-110764012D01*
X150768948Y-110708682D01*
X150760500Y-110663695D01*
X150760500Y-109406155D01*
X150760499Y-109406153D01*
X150729737Y-109251503D01*
X150729735Y-109251498D01*
X150682141Y-109136594D01*
X150674672Y-109067125D01*
X150705947Y-109004646D01*
X150766037Y-108968994D01*
X150835862Y-108971488D01*
G37*
%TD.AperFunction*%
%TA.AperFunction,Conductor*%
G36*
X152303390Y-90980185D02*
G01*
X152336667Y-91011612D01*
X152355483Y-91037510D01*
X152522490Y-91204517D01*
X152581716Y-91247547D01*
X152624381Y-91302875D01*
X152632448Y-91357593D01*
X152630893Y-91377340D01*
X153370591Y-92117037D01*
X153307007Y-92134075D01*
X153192993Y-92199901D01*
X153099901Y-92292993D01*
X153034075Y-92407007D01*
X153017037Y-92470590D01*
X152277340Y-91730894D01*
X152217084Y-91813830D01*
X152109897Y-92024197D01*
X152036934Y-92248752D01*
X152000000Y-92481947D01*
X152000000Y-92718052D01*
X152036934Y-92951247D01*
X152109897Y-93175802D01*
X152217087Y-93386174D01*
X152277338Y-93469104D01*
X152277340Y-93469105D01*
X153017037Y-92729408D01*
X153034075Y-92792993D01*
X153099901Y-92907007D01*
X153192993Y-93000099D01*
X153307007Y-93065925D01*
X153370590Y-93082962D01*
X152630893Y-93822658D01*
X152632448Y-93842405D01*
X152618084Y-93910783D01*
X152581717Y-93952451D01*
X152522490Y-93995482D01*
X152355485Y-94162487D01*
X152355485Y-94162488D01*
X152355483Y-94162490D01*
X152330653Y-94196666D01*
X152216657Y-94353566D01*
X152109433Y-94564003D01*
X152036446Y-94788631D01*
X151999500Y-95021902D01*
X151999500Y-95258097D01*
X152036446Y-95491368D01*
X152109433Y-95715996D01*
X152172344Y-95839464D01*
X152216657Y-95926433D01*
X152355483Y-96117510D01*
X152522490Y-96284517D01*
X152557127Y-96309683D01*
X152599792Y-96365013D01*
X152605771Y-96434626D01*
X152573165Y-96496421D01*
X152557130Y-96510315D01*
X152539365Y-96523222D01*
X152522488Y-96535484D01*
X152355485Y-96702487D01*
X152355485Y-96702488D01*
X152355483Y-96702490D01*
X152295862Y-96784550D01*
X152216657Y-96893566D01*
X152109433Y-97104003D01*
X152036446Y-97328631D01*
X151999500Y-97561902D01*
X151999500Y-97798097D01*
X152036446Y-98031368D01*
X152109433Y-98255996D01*
X152216657Y-98466433D01*
X152355483Y-98657510D01*
X152522490Y-98824517D01*
X152557127Y-98849683D01*
X152599792Y-98905013D01*
X152605771Y-98974626D01*
X152573165Y-99036421D01*
X152557130Y-99050315D01*
X152539365Y-99063222D01*
X152522488Y-99075484D01*
X152355485Y-99242487D01*
X152355485Y-99242488D01*
X152355483Y-99242490D01*
X152264014Y-99368386D01*
X152208684Y-99411051D01*
X152163696Y-99419500D01*
X146157940Y-99419500D01*
X146090901Y-99399815D01*
X146070259Y-99383181D01*
X144745947Y-98058869D01*
X144712462Y-97997546D01*
X144711155Y-97951795D01*
X144735500Y-97798092D01*
X144735500Y-97561908D01*
X144735500Y-97561902D01*
X144698553Y-97328631D01*
X144625566Y-97104003D01*
X144518342Y-96893566D01*
X144379517Y-96702490D01*
X144212510Y-96535483D01*
X144177872Y-96510317D01*
X144135207Y-96454989D01*
X144129228Y-96385375D01*
X144161833Y-96323580D01*
X144177873Y-96309682D01*
X144212510Y-96284517D01*
X144379517Y-96117510D01*
X144398332Y-96091613D01*
X144453661Y-96048949D01*
X144498649Y-96040500D01*
X145948693Y-96040500D01*
X145948694Y-96040499D01*
X146122666Y-96005895D01*
X146204606Y-95971953D01*
X146286547Y-95938013D01*
X146374959Y-95878936D01*
X146434036Y-95839464D01*
X151276681Y-90996819D01*
X151338004Y-90963334D01*
X151364362Y-90960500D01*
X152236351Y-90960500D01*
X152303390Y-90980185D01*
G37*
%TD.AperFunction*%
%TA.AperFunction,Conductor*%
G36*
X126904150Y-88821185D02*
G01*
X126949905Y-88873989D01*
X126959849Y-88943147D01*
X126930824Y-89006703D01*
X126924792Y-89013181D01*
X126855485Y-89082487D01*
X126855485Y-89082488D01*
X126855483Y-89082490D01*
X126799532Y-89159500D01*
X126764014Y-89208386D01*
X126708684Y-89251051D01*
X126663696Y-89259500D01*
X123101155Y-89259500D01*
X122946510Y-89290261D01*
X122946498Y-89290264D01*
X122800827Y-89350602D01*
X122800814Y-89350609D01*
X122669711Y-89438210D01*
X122669707Y-89438213D01*
X119775635Y-92332285D01*
X119714312Y-92365770D01*
X119644620Y-92360786D01*
X119588687Y-92318914D01*
X119565481Y-92264002D01*
X119563065Y-92248752D01*
X119490102Y-92024197D01*
X119382914Y-91813828D01*
X119322658Y-91730894D01*
X119322658Y-91730893D01*
X118582962Y-92470590D01*
X118565925Y-92407007D01*
X118500099Y-92292993D01*
X118407007Y-92199901D01*
X118292993Y-92134075D01*
X118229409Y-92117037D01*
X118969105Y-91377340D01*
X118967551Y-91357594D01*
X118981915Y-91289216D01*
X119018284Y-91247547D01*
X119077510Y-91204517D01*
X119244517Y-91037510D01*
X119383343Y-90846433D01*
X119490568Y-90635992D01*
X119563553Y-90411368D01*
X119600500Y-90178097D01*
X119600500Y-89941911D01*
X119600499Y-89941902D01*
X119595492Y-89910291D01*
X119604446Y-89841001D01*
X119630281Y-89803217D01*
X120595681Y-88837819D01*
X120657004Y-88804334D01*
X120683362Y-88801500D01*
X126837111Y-88801500D01*
X126904150Y-88821185D01*
G37*
%TD.AperFunction*%
%TD*%
M02*
