M48
; DRILL file {KiCad 9.0.6-9.0.6~ubuntu22.04.1} date 2025-12-04T22:28:03-0500
; FORMAT={-:-/ absolute / metric / decimal}
; #@! TF.CreationDate,2025-12-04T22:28:03-05:00
; #@! TF.GenerationSoftware,Kicad,Pcbnew,9.0.6-9.0.6~ubuntu22.04.1
; #@! TF.FileFunction,Plated,1,2,PTH
FMAT,2
METRIC
; #@! TA.AperFunction,Plated,PTH,ViaDrill
T1C1.000
; #@! TA.AperFunction,Plated,PTH,ComponentDrill
T2C1.000
; #@! TA.AperFunction,Plated,PTH,ComponentDrill
T3C3.100
%
G90
G05
T1
X131.5Y-90.06
X131.5Y-95.14
X156.7Y-109.0
X157.1Y-102.76
T2
X114.72Y-111.95
X117.26Y-111.95
X118.1Y-90.06
X118.1Y-92.6
X118.1Y-95.14
X118.1Y-97.68
X118.1Y-100.22
X118.1Y-102.76
X119.8Y-111.95
X122.34Y-111.95
X128.0Y-90.06
X128.0Y-92.6
X128.0Y-95.14
X128.0Y-97.68
X128.0Y-100.22
X128.0Y-102.76
X128.0Y-105.3
X133.24Y-112.0
X135.78Y-112.0
X138.32Y-112.0
X143.235Y-90.06
X143.235Y-92.6
X143.235Y-95.14
X143.235Y-97.68
X143.235Y-100.22
X143.235Y-102.76
X143.235Y-105.3
X147.42Y-112.0
X149.96Y-112.0
X152.5Y-112.0
X153.5Y-90.06
X153.5Y-92.6
X153.5Y-95.14
X153.5Y-97.68
X153.5Y-100.22
X153.5Y-102.76
X153.5Y-105.3
X155.04Y-112.0
T3
X109.0Y-90.0
X109.0Y-112.0
X160.0Y-90.0
X160.0Y-112.0
M30
