%TF.GenerationSoftware,KiCad,Pcbnew,9.0.4-9.0.4-0~ubuntu22.04.1*%
%TF.CreationDate,2025-10-27T10:48:18-04:00*%
%TF.ProjectId,audio-breakout-mk2,61756469-6f2d-4627-9265-616b6f75742d,rev?*%
%TF.SameCoordinates,Original*%
%TF.FileFunction,Copper,L1,Top*%
%TF.FilePolarity,Positive*%
%FSLAX46Y46*%
G04 Gerber Fmt 4.6, Leading zero omitted, Abs format (unit mm)*
G04 Created by KiCad (PCBNEW 9.0.4-9.0.4-0~ubuntu22.04.1) date 2025-10-27 10:48:18*
%MOMM*%
%LPD*%
G01*
G04 APERTURE LIST*
%TA.AperFunction,ComponentPad*%
%ADD10C,3.300000*%
%TD*%
%TA.AperFunction,SMDPad,CuDef*%
%ADD11R,1.000000X2.510000*%
%TD*%
%TA.AperFunction,SMDPad,CuDef*%
%ADD12R,0.600000X0.522000*%
%TD*%
%TA.AperFunction,ComponentPad*%
%ADD13C,1.625000*%
%TD*%
%TA.AperFunction,Conductor*%
%ADD14C,0.200000*%
%TD*%
G04 APERTURE END LIST*
D10*
%TO.P,REF\u002A\u002A,*%
%TO.N,*%
X154000000Y-70000000D03*
%TD*%
%TO.P,REF\u002A\u002A,*%
%TO.N,*%
X130000000Y-70000000D03*
%TD*%
D11*
%TO.P,Socket1,6,Pin_6*%
%TO.N,Net-(MK1-VDD)*%
X148350000Y-81400000D03*
%TO.P,Socket1,5,Pin_5*%
%TO.N,GND*%
X145810000Y-84710000D03*
%TO.P,Socket1,4,Pin_4*%
%TO.N,Net-(MK1-SCK)*%
X143270000Y-81400000D03*
%TO.P,Socket1,3,Pin_3*%
%TO.N,Net-(MK1-SD)*%
X140730000Y-84710000D03*
%TO.P,Socket1,2,Pin_2*%
%TO.N,Net-(MK1-WS)*%
X138190000Y-81400000D03*
%TO.P,Socket1,1,Pin_1*%
%TO.N,Net-(MK1-LR)*%
X135650000Y-84710000D03*
%TD*%
D12*
%TO.P,MK2,1,WS*%
%TO.N,Net-(MK1-WS)*%
X141100000Y-72726000D03*
%TO.P,MK2,2,LR*%
%TO.N,Net-(MK1-LR)*%
X141100000Y-73548000D03*
D13*
%TO.P,MK2,3,GND*%
%TO.N,GND*%
X142000000Y-74800000D03*
D12*
%TO.P,MK2,4,SCK*%
%TO.N,Net-(MK1-SCK)*%
X142900000Y-73548000D03*
%TO.P,MK2,5,VDD*%
%TO.N,Net-(MK1-VDD)*%
X142900000Y-72726000D03*
%TO.P,MK2,6,SD*%
%TO.N,Net-(MK1-SD)*%
X142000000Y-72726000D03*
%TD*%
D14*
%TO.N,Net-(MK1-SD)*%
X142000000Y-72726000D02*
X142000000Y-71500000D01*
X142000000Y-71500000D02*
X143500000Y-70000000D01*
X143500000Y-70000000D02*
X147500000Y-70000000D01*
X147500000Y-70000000D02*
X152000000Y-74500000D01*
X152000000Y-74500000D02*
X152000000Y-86000000D01*
X152000000Y-86000000D02*
X150000000Y-88000000D01*
X150000000Y-88000000D02*
X142000000Y-88000000D01*
X142000000Y-88000000D02*
X140730000Y-86730000D01*
X140730000Y-86730000D02*
X140730000Y-84710000D01*
%TO.N,Net-(MK1-WS)*%
X141100000Y-72726000D02*
X135774000Y-72726000D01*
X138190000Y-86209000D02*
X138190000Y-81400000D01*
X135774000Y-72726000D02*
X132000000Y-76500000D01*
X132000000Y-76500000D02*
X132000000Y-86399000D01*
X132000000Y-86399000D02*
X134000000Y-88399000D01*
X134000000Y-88399000D02*
X136000000Y-88399000D01*
X136000000Y-88399000D02*
X138190000Y-86209000D01*
%TO.N,Net-(MK1-SCK)*%
X142900000Y-73548000D02*
X145000000Y-75648000D01*
X145000000Y-75648000D02*
X145000000Y-80000000D01*
X145000000Y-80000000D02*
X143600000Y-81400000D01*
X143600000Y-81400000D02*
X143270000Y-81400000D01*
%TO.N,Net-(MK1-LR)*%
X141100000Y-73548000D02*
X140952000Y-73548000D01*
X140952000Y-73548000D02*
X135650000Y-78850000D01*
X135650000Y-78850000D02*
X135650000Y-84710000D01*
%TO.N,Net-(MK1-VDD)*%
X142900000Y-72726000D02*
X146226000Y-72726000D01*
X146226000Y-72726000D02*
X148350000Y-74850000D01*
X148350000Y-74850000D02*
X148350000Y-81400000D01*
%TD*%
%TA.AperFunction,Conductor*%
%TO.N,GND*%
G36*
X155003736Y-66500726D02*
G01*
X155293796Y-66518271D01*
X155308659Y-66520076D01*
X155590798Y-66571780D01*
X155605335Y-66575363D01*
X155879172Y-66660695D01*
X155893163Y-66666000D01*
X156154743Y-66783727D01*
X156167989Y-66790680D01*
X156413465Y-66939075D01*
X156425776Y-66947573D01*
X156651573Y-67124473D01*
X156662781Y-67134403D01*
X156865596Y-67337218D01*
X156875526Y-67348426D01*
X156995481Y-67501538D01*
X157052422Y-67574217D01*
X157060928Y-67586540D01*
X157209316Y-67832004D01*
X157216275Y-67845263D01*
X157333997Y-68106831D01*
X157339306Y-68120832D01*
X157424635Y-68394663D01*
X157428219Y-68409201D01*
X157479923Y-68691340D01*
X157481728Y-68706205D01*
X157499274Y-68996263D01*
X157499500Y-69003750D01*
X157499500Y-86996249D01*
X157499274Y-87003736D01*
X157481728Y-87293794D01*
X157479923Y-87308659D01*
X157428219Y-87590798D01*
X157424635Y-87605336D01*
X157339306Y-87879167D01*
X157333997Y-87893168D01*
X157216275Y-88154736D01*
X157209316Y-88167995D01*
X157060928Y-88413459D01*
X157052422Y-88425782D01*
X156875526Y-88651573D01*
X156865596Y-88662781D01*
X156662781Y-88865596D01*
X156651573Y-88875526D01*
X156425782Y-89052422D01*
X156413459Y-89060928D01*
X156167995Y-89209316D01*
X156154736Y-89216275D01*
X155893168Y-89333997D01*
X155879167Y-89339306D01*
X155605336Y-89424635D01*
X155590798Y-89428219D01*
X155308659Y-89479923D01*
X155293794Y-89481728D01*
X155003736Y-89499274D01*
X154996249Y-89499500D01*
X129003751Y-89499500D01*
X128996264Y-89499274D01*
X128706205Y-89481728D01*
X128691340Y-89479923D01*
X128409201Y-89428219D01*
X128394663Y-89424635D01*
X128120832Y-89339306D01*
X128106831Y-89333997D01*
X127845263Y-89216275D01*
X127832004Y-89209316D01*
X127586540Y-89060928D01*
X127574217Y-89052422D01*
X127506668Y-88999501D01*
X127348426Y-88875526D01*
X127337218Y-88865596D01*
X127134403Y-88662781D01*
X127124473Y-88651573D01*
X127029729Y-88530641D01*
X126947573Y-88425776D01*
X126939075Y-88413465D01*
X126790680Y-88167989D01*
X126783727Y-88154743D01*
X126666000Y-87893163D01*
X126660693Y-87879167D01*
X126575364Y-87605336D01*
X126571780Y-87590798D01*
X126520076Y-87308659D01*
X126518271Y-87293794D01*
X126500726Y-87003736D01*
X126500500Y-86996249D01*
X126500500Y-86478054D01*
X131399498Y-86478054D01*
X131408823Y-86512855D01*
X131440423Y-86630785D01*
X131447676Y-86643348D01*
X131469358Y-86680900D01*
X131469359Y-86680904D01*
X131469360Y-86680904D01*
X131519479Y-86767714D01*
X131519481Y-86767717D01*
X131638349Y-86886585D01*
X131638355Y-86886590D01*
X133515139Y-88763374D01*
X133515149Y-88763385D01*
X133519479Y-88767715D01*
X133519480Y-88767716D01*
X133631284Y-88879520D01*
X133718095Y-88929639D01*
X133718097Y-88929641D01*
X133756151Y-88951611D01*
X133768215Y-88958577D01*
X133920943Y-88999500D01*
X135913331Y-88999500D01*
X135913347Y-88999501D01*
X135920943Y-88999501D01*
X136079054Y-88999501D01*
X136079057Y-88999501D01*
X136231785Y-88958577D01*
X136281904Y-88929639D01*
X136368716Y-88879520D01*
X136480520Y-88767716D01*
X136480520Y-88767714D01*
X136490728Y-88757507D01*
X136490729Y-88757504D01*
X138670520Y-86577716D01*
X138749577Y-86440784D01*
X138790501Y-86288057D01*
X138790501Y-86129942D01*
X138790501Y-86122347D01*
X138790500Y-86122329D01*
X138790500Y-83237790D01*
X138810185Y-83170751D01*
X138862989Y-83124996D01*
X138871146Y-83121616D01*
X138932331Y-83098796D01*
X139047546Y-83012546D01*
X139133796Y-82897331D01*
X139184091Y-82762483D01*
X139190500Y-82702873D01*
X139190499Y-80097128D01*
X139184091Y-80037517D01*
X139140610Y-79920939D01*
X139133797Y-79902671D01*
X139133793Y-79902664D01*
X139047547Y-79787455D01*
X139047544Y-79787452D01*
X138932335Y-79701206D01*
X138932328Y-79701202D01*
X138797482Y-79650908D01*
X138797483Y-79650908D01*
X138737883Y-79644501D01*
X138737881Y-79644500D01*
X138737873Y-79644500D01*
X138737864Y-79644500D01*
X137642129Y-79644500D01*
X137642123Y-79644501D01*
X137582516Y-79650908D01*
X137447671Y-79701202D01*
X137447664Y-79701206D01*
X137332455Y-79787452D01*
X137332452Y-79787455D01*
X137246206Y-79902664D01*
X137246202Y-79902671D01*
X137195908Y-80037517D01*
X137189501Y-80097116D01*
X137189501Y-80097123D01*
X137189500Y-80097135D01*
X137189500Y-82702870D01*
X137189501Y-82702876D01*
X137195908Y-82762483D01*
X137246202Y-82897328D01*
X137246206Y-82897335D01*
X137332452Y-83012544D01*
X137332455Y-83012547D01*
X137447664Y-83098793D01*
X137447669Y-83098796D01*
X137508833Y-83121608D01*
X137564766Y-83163478D01*
X137589184Y-83228942D01*
X137589500Y-83237790D01*
X137589500Y-85908902D01*
X137569815Y-85975941D01*
X137553181Y-85996583D01*
X135787584Y-87762181D01*
X135726261Y-87795666D01*
X135699903Y-87798500D01*
X134300097Y-87798500D01*
X134233058Y-87778815D01*
X134212416Y-87762181D01*
X132636819Y-86186584D01*
X132603334Y-86125261D01*
X132600500Y-86098903D01*
X132600500Y-76800097D01*
X132620185Y-76733058D01*
X132636819Y-76712416D01*
X135986416Y-73362819D01*
X136047739Y-73329334D01*
X136074097Y-73326500D01*
X140024902Y-73326500D01*
X140091941Y-73346185D01*
X140137696Y-73398989D01*
X140147640Y-73468147D01*
X140118615Y-73531703D01*
X140112583Y-73538181D01*
X135169481Y-78481282D01*
X135169479Y-78481285D01*
X135119361Y-78568094D01*
X135119359Y-78568096D01*
X135090425Y-78618209D01*
X135090424Y-78618210D01*
X135090423Y-78618215D01*
X135049499Y-78770943D01*
X135049499Y-78770945D01*
X135049499Y-78939046D01*
X135049500Y-78939059D01*
X135049500Y-82872209D01*
X135029815Y-82939248D01*
X134977011Y-82985003D01*
X134968833Y-82988391D01*
X134907671Y-83011202D01*
X134907664Y-83011206D01*
X134792455Y-83097452D01*
X134792452Y-83097455D01*
X134706206Y-83212664D01*
X134706202Y-83212671D01*
X134655908Y-83347517D01*
X134649501Y-83407116D01*
X134649501Y-83407123D01*
X134649500Y-83407135D01*
X134649500Y-86012870D01*
X134649501Y-86012876D01*
X134655908Y-86072483D01*
X134706202Y-86207328D01*
X134706206Y-86207335D01*
X134792452Y-86322544D01*
X134792455Y-86322547D01*
X134907664Y-86408793D01*
X134907671Y-86408797D01*
X135042517Y-86459091D01*
X135042516Y-86459091D01*
X135049444Y-86459835D01*
X135102127Y-86465500D01*
X136197872Y-86465499D01*
X136257483Y-86459091D01*
X136392331Y-86408796D01*
X136507546Y-86322546D01*
X136593796Y-86207331D01*
X136644091Y-86072483D01*
X136650500Y-86012873D01*
X136650499Y-83407128D01*
X136644091Y-83347517D01*
X136599865Y-83228942D01*
X136593797Y-83212671D01*
X136593793Y-83212664D01*
X136507547Y-83097455D01*
X136507544Y-83097452D01*
X136392335Y-83011206D01*
X136392328Y-83011202D01*
X136331167Y-82988391D01*
X136275233Y-82946520D01*
X136250816Y-82881056D01*
X136250500Y-82872209D01*
X136250500Y-79150096D01*
X136270185Y-79083057D01*
X136286814Y-79062420D01*
X140482389Y-74866844D01*
X140543710Y-74833361D01*
X140613402Y-74838345D01*
X140669335Y-74880217D01*
X140692541Y-74935129D01*
X140719818Y-75107346D01*
X140783656Y-75303822D01*
X140877447Y-75487896D01*
X140911575Y-75534870D01*
X141506830Y-74939614D01*
X141522426Y-74997817D01*
X141589898Y-75114682D01*
X141685318Y-75210102D01*
X141802183Y-75277574D01*
X141860383Y-75293168D01*
X141265127Y-75888423D01*
X141265128Y-75888424D01*
X141312096Y-75922548D01*
X141496177Y-76016343D01*
X141692653Y-76080181D01*
X141896699Y-76112500D01*
X142103301Y-76112500D01*
X142307346Y-76080181D01*
X142503822Y-76016343D01*
X142687892Y-75922554D01*
X142687905Y-75922546D01*
X142734870Y-75888424D01*
X142734871Y-75888423D01*
X142139616Y-75293168D01*
X142197817Y-75277574D01*
X142314682Y-75210102D01*
X142410102Y-75114682D01*
X142477574Y-74997817D01*
X142493168Y-74939616D01*
X143088423Y-75534871D01*
X143088424Y-75534870D01*
X143122546Y-75487905D01*
X143122554Y-75487892D01*
X143216343Y-75303822D01*
X143280180Y-75107351D01*
X143287221Y-75062895D01*
X143317150Y-74999760D01*
X143376461Y-74962828D01*
X143446324Y-74963825D01*
X143497376Y-74994611D01*
X144363181Y-75860416D01*
X144396666Y-75921739D01*
X144399500Y-75948097D01*
X144399500Y-79699902D01*
X144390854Y-79729346D01*
X144384331Y-79759330D01*
X144380577Y-79764344D01*
X144379815Y-79766941D01*
X144363180Y-79787585D01*
X144329667Y-79821097D01*
X144268343Y-79854581D01*
X144198652Y-79849595D01*
X144142722Y-79807726D01*
X144127546Y-79787454D01*
X144127544Y-79787452D01*
X144127543Y-79787451D01*
X144012335Y-79701206D01*
X144012328Y-79701202D01*
X143877482Y-79650908D01*
X143877483Y-79650908D01*
X143817883Y-79644501D01*
X143817881Y-79644500D01*
X143817873Y-79644500D01*
X143817864Y-79644500D01*
X142722129Y-79644500D01*
X142722123Y-79644501D01*
X142662516Y-79650908D01*
X142527671Y-79701202D01*
X142527664Y-79701206D01*
X142412455Y-79787452D01*
X142412452Y-79787455D01*
X142326206Y-79902664D01*
X142326202Y-79902671D01*
X142275908Y-80037517D01*
X142269501Y-80097116D01*
X142269501Y-80097123D01*
X142269500Y-80097135D01*
X142269500Y-82702870D01*
X142269501Y-82702876D01*
X142275908Y-82762483D01*
X142326202Y-82897328D01*
X142326206Y-82897335D01*
X142412452Y-83012544D01*
X142412455Y-83012547D01*
X142527664Y-83098793D01*
X142527671Y-83098797D01*
X142662517Y-83149091D01*
X142662516Y-83149091D01*
X142669444Y-83149835D01*
X142722127Y-83155500D01*
X143817872Y-83155499D01*
X143877483Y-83149091D01*
X144012331Y-83098796D01*
X144127546Y-83012546D01*
X144213796Y-82897331D01*
X144264091Y-82762483D01*
X144270500Y-82702873D01*
X144270499Y-81630095D01*
X144290183Y-81563057D01*
X144306813Y-81542420D01*
X145368713Y-80480521D01*
X145368716Y-80480520D01*
X145480520Y-80368716D01*
X145530639Y-80281904D01*
X145559577Y-80231785D01*
X145600501Y-80079057D01*
X145600501Y-79920943D01*
X145600501Y-79913348D01*
X145600500Y-79913330D01*
X145600500Y-75568945D01*
X145600500Y-75568943D01*
X145559577Y-75416216D01*
X145559573Y-75416209D01*
X145480524Y-75279290D01*
X145480521Y-75279286D01*
X145480520Y-75279284D01*
X145368716Y-75167480D01*
X145368715Y-75167479D01*
X145364385Y-75163149D01*
X145364374Y-75163139D01*
X143739416Y-73538181D01*
X143705931Y-73476858D01*
X143710915Y-73407166D01*
X143752787Y-73351233D01*
X143818251Y-73326816D01*
X143827097Y-73326500D01*
X145925903Y-73326500D01*
X145992942Y-73346185D01*
X146013584Y-73362819D01*
X147713181Y-75062416D01*
X147746666Y-75123739D01*
X147749500Y-75150097D01*
X147749500Y-79562209D01*
X147729815Y-79629248D01*
X147677011Y-79675003D01*
X147668833Y-79678391D01*
X147607671Y-79701202D01*
X147607664Y-79701206D01*
X147492455Y-79787452D01*
X147492452Y-79787455D01*
X147406206Y-79902664D01*
X147406202Y-79902671D01*
X147355908Y-80037517D01*
X147349501Y-80097116D01*
X147349501Y-80097123D01*
X147349500Y-80097135D01*
X147349500Y-82702870D01*
X147349501Y-82702876D01*
X147355908Y-82762483D01*
X147406202Y-82897328D01*
X147406206Y-82897335D01*
X147492452Y-83012544D01*
X147492455Y-83012547D01*
X147607664Y-83098793D01*
X147607671Y-83098797D01*
X147742517Y-83149091D01*
X147742516Y-83149091D01*
X147749444Y-83149835D01*
X147802127Y-83155500D01*
X148897872Y-83155499D01*
X148957483Y-83149091D01*
X149092331Y-83098796D01*
X149207546Y-83012546D01*
X149293796Y-82897331D01*
X149344091Y-82762483D01*
X149350500Y-82702873D01*
X149350499Y-80097128D01*
X149344091Y-80037517D01*
X149300610Y-79920939D01*
X149293797Y-79902671D01*
X149293793Y-79902664D01*
X149207547Y-79787455D01*
X149207544Y-79787452D01*
X149092335Y-79701206D01*
X149092328Y-79701202D01*
X149031167Y-79678391D01*
X148975233Y-79636520D01*
X148950816Y-79571056D01*
X148950500Y-79562209D01*
X148950500Y-74939060D01*
X148950501Y-74939047D01*
X148950501Y-74770944D01*
X148926776Y-74682403D01*
X148909577Y-74618216D01*
X148909573Y-74618209D01*
X148830524Y-74481290D01*
X148830518Y-74481282D01*
X146713590Y-72364355D01*
X146713588Y-72364352D01*
X146594717Y-72245481D01*
X146594716Y-72245480D01*
X146507904Y-72195360D01*
X146507904Y-72195359D01*
X146507900Y-72195358D01*
X146457785Y-72166423D01*
X146305057Y-72125499D01*
X146146943Y-72125499D01*
X146139347Y-72125499D01*
X146139331Y-72125500D01*
X143622924Y-72125500D01*
X143555885Y-72105815D01*
X143548613Y-72100767D01*
X143442330Y-72021203D01*
X143442328Y-72021202D01*
X143307482Y-71970908D01*
X143307483Y-71970908D01*
X143247883Y-71964501D01*
X143247881Y-71964500D01*
X143247873Y-71964500D01*
X143247865Y-71964500D01*
X142724500Y-71964500D01*
X142715814Y-71961949D01*
X142706853Y-71963238D01*
X142682812Y-71952259D01*
X142657461Y-71944815D01*
X142651533Y-71937974D01*
X142643297Y-71934213D01*
X142629007Y-71911978D01*
X142611706Y-71892011D01*
X142609418Y-71881496D01*
X142605523Y-71875435D01*
X142600500Y-71840500D01*
X142600500Y-71800097D01*
X142620185Y-71733058D01*
X142636819Y-71712416D01*
X143712416Y-70636819D01*
X143773739Y-70603334D01*
X143800097Y-70600500D01*
X147199903Y-70600500D01*
X147266942Y-70620185D01*
X147287584Y-70636819D01*
X151363181Y-74712416D01*
X151396666Y-74773739D01*
X151399500Y-74800097D01*
X151399500Y-85699903D01*
X151379815Y-85766942D01*
X151363181Y-85787584D01*
X149787584Y-87363181D01*
X149726261Y-87396666D01*
X149699903Y-87399500D01*
X142300097Y-87399500D01*
X142233058Y-87379815D01*
X142212416Y-87363181D01*
X141450847Y-86601612D01*
X141417362Y-86540289D01*
X141422346Y-86470597D01*
X141464218Y-86414664D01*
X141466159Y-86413417D01*
X141534382Y-86362344D01*
X141587546Y-86322546D01*
X141673796Y-86207331D01*
X141724091Y-86072483D01*
X141730500Y-86012873D01*
X141730500Y-86012844D01*
X144810000Y-86012844D01*
X144816401Y-86072372D01*
X144816403Y-86072379D01*
X144866645Y-86207086D01*
X144866649Y-86207093D01*
X144952809Y-86322187D01*
X144952812Y-86322190D01*
X145067906Y-86408350D01*
X145067913Y-86408354D01*
X145202620Y-86458596D01*
X145202627Y-86458598D01*
X145262155Y-86464999D01*
X145262172Y-86465000D01*
X145560000Y-86465000D01*
X146060000Y-86465000D01*
X146357828Y-86465000D01*
X146357844Y-86464999D01*
X146417372Y-86458598D01*
X146417379Y-86458596D01*
X146552086Y-86408354D01*
X146552093Y-86408350D01*
X146667187Y-86322190D01*
X146667190Y-86322187D01*
X146753350Y-86207093D01*
X146753354Y-86207086D01*
X146803596Y-86072379D01*
X146803598Y-86072372D01*
X146809999Y-86012844D01*
X146810000Y-86012827D01*
X146810000Y-84960000D01*
X146060000Y-84960000D01*
X146060000Y-86465000D01*
X145560000Y-86465000D01*
X145560000Y-84960000D01*
X144810000Y-84960000D01*
X144810000Y-86012844D01*
X141730500Y-86012844D01*
X141730499Y-84460000D01*
X141730499Y-83407155D01*
X144810000Y-83407155D01*
X144810000Y-84460000D01*
X145560000Y-84460000D01*
X146060000Y-84460000D01*
X146810000Y-84460000D01*
X146810000Y-83407172D01*
X146809999Y-83407155D01*
X146803598Y-83347627D01*
X146803596Y-83347620D01*
X146753354Y-83212913D01*
X146753350Y-83212906D01*
X146667190Y-83097812D01*
X146667187Y-83097809D01*
X146552093Y-83011649D01*
X146552086Y-83011645D01*
X146417379Y-82961403D01*
X146417372Y-82961401D01*
X146357844Y-82955000D01*
X146060000Y-82955000D01*
X146060000Y-84460000D01*
X145560000Y-84460000D01*
X145560000Y-82955000D01*
X145262155Y-82955000D01*
X145202627Y-82961401D01*
X145202620Y-82961403D01*
X145067913Y-83011645D01*
X145067906Y-83011649D01*
X144952812Y-83097809D01*
X144952809Y-83097812D01*
X144866649Y-83212906D01*
X144866645Y-83212913D01*
X144816403Y-83347620D01*
X144816401Y-83347627D01*
X144810000Y-83407155D01*
X141730499Y-83407155D01*
X141730499Y-83407129D01*
X141730498Y-83407123D01*
X141730497Y-83407116D01*
X141724091Y-83347517D01*
X141679865Y-83228942D01*
X141673797Y-83212671D01*
X141673793Y-83212664D01*
X141587547Y-83097455D01*
X141587544Y-83097452D01*
X141472335Y-83011206D01*
X141472328Y-83011202D01*
X141337482Y-82960908D01*
X141337483Y-82960908D01*
X141277883Y-82954501D01*
X141277881Y-82954500D01*
X141277873Y-82954500D01*
X141277864Y-82954500D01*
X140182129Y-82954500D01*
X140182123Y-82954501D01*
X140122516Y-82960908D01*
X139987671Y-83011202D01*
X139987664Y-83011206D01*
X139872455Y-83097452D01*
X139872452Y-83097455D01*
X139786206Y-83212664D01*
X139786202Y-83212671D01*
X139735908Y-83347517D01*
X139729501Y-83407116D01*
X139729501Y-83407123D01*
X139729500Y-83407135D01*
X139729500Y-86012870D01*
X139729501Y-86012876D01*
X139735908Y-86072483D01*
X139786202Y-86207328D01*
X139786206Y-86207335D01*
X139872452Y-86322544D01*
X139872455Y-86322547D01*
X139987664Y-86408793D01*
X139987669Y-86408796D01*
X140048833Y-86431608D01*
X140066558Y-86444877D01*
X140086703Y-86454077D01*
X140093984Y-86465407D01*
X140104766Y-86473478D01*
X140112504Y-86494226D01*
X140124477Y-86512855D01*
X140127628Y-86534770D01*
X140129184Y-86538942D01*
X140129500Y-86547790D01*
X140129500Y-86643330D01*
X140129499Y-86643348D01*
X140129499Y-86809054D01*
X140129498Y-86809054D01*
X140170423Y-86961787D01*
X140170424Y-86961788D01*
X140192198Y-86999501D01*
X140249475Y-87098709D01*
X140249481Y-87098717D01*
X140368349Y-87217585D01*
X140368355Y-87217590D01*
X141515139Y-88364374D01*
X141515149Y-88364385D01*
X141519479Y-88368715D01*
X141519480Y-88368716D01*
X141631284Y-88480520D01*
X141718095Y-88530639D01*
X141718097Y-88530641D01*
X141768213Y-88559576D01*
X141768215Y-88559577D01*
X141920942Y-88600500D01*
X141920943Y-88600500D01*
X149913331Y-88600500D01*
X149913347Y-88600501D01*
X149920943Y-88600501D01*
X150079054Y-88600501D01*
X150079057Y-88600501D01*
X150231785Y-88559577D01*
X150281904Y-88530639D01*
X150368716Y-88480520D01*
X150480520Y-88368716D01*
X150480520Y-88368714D01*
X150490728Y-88358507D01*
X150490730Y-88358504D01*
X152358506Y-86490728D01*
X152358511Y-86490724D01*
X152368714Y-86480520D01*
X152368716Y-86480520D01*
X152480520Y-86368716D01*
X152549360Y-86249481D01*
X152559577Y-86231785D01*
X152600500Y-86079057D01*
X152600500Y-85920943D01*
X152600500Y-74589059D01*
X152600501Y-74589046D01*
X152600501Y-74420945D01*
X152600501Y-74420943D01*
X152559577Y-74268215D01*
X152500878Y-74166546D01*
X152480520Y-74131284D01*
X152368716Y-74019480D01*
X152368713Y-74019478D01*
X148208276Y-69859041D01*
X151849500Y-69859041D01*
X151849500Y-70140958D01*
X151886295Y-70420439D01*
X151959259Y-70692743D01*
X152067135Y-70953179D01*
X152067140Y-70953190D01*
X152169964Y-71131285D01*
X152208088Y-71197317D01*
X152379683Y-71420943D01*
X152379704Y-71420970D01*
X152579029Y-71620295D01*
X152579033Y-71620298D01*
X152579035Y-71620300D01*
X152802683Y-71791912D01*
X152802690Y-71791916D01*
X153046809Y-71932859D01*
X153046814Y-71932861D01*
X153046817Y-71932863D01*
X153307261Y-72040742D01*
X153579558Y-72113704D01*
X153859049Y-72150500D01*
X153859056Y-72150500D01*
X154140944Y-72150500D01*
X154140951Y-72150500D01*
X154420442Y-72113704D01*
X154692739Y-72040742D01*
X154953183Y-71932863D01*
X155197317Y-71791912D01*
X155420965Y-71620300D01*
X155620300Y-71420965D01*
X155791912Y-71197317D01*
X155932863Y-70953183D01*
X156040742Y-70692739D01*
X156113704Y-70420442D01*
X156150500Y-70140951D01*
X156150500Y-69859049D01*
X156113704Y-69579558D01*
X156040742Y-69307261D01*
X155932863Y-69046817D01*
X155932861Y-69046814D01*
X155932859Y-69046809D01*
X155791916Y-68802690D01*
X155791912Y-68802683D01*
X155620300Y-68579035D01*
X155620298Y-68579033D01*
X155620295Y-68579029D01*
X155420970Y-68379704D01*
X155420965Y-68379700D01*
X155197317Y-68208088D01*
X155197311Y-68208084D01*
X155197309Y-68208083D01*
X154953190Y-68067140D01*
X154953179Y-68067135D01*
X154692743Y-67959259D01*
X154420439Y-67886295D01*
X154140958Y-67849500D01*
X154140951Y-67849500D01*
X153859049Y-67849500D01*
X153859041Y-67849500D01*
X153579560Y-67886295D01*
X153307256Y-67959259D01*
X153046820Y-68067135D01*
X153046809Y-68067140D01*
X152802690Y-68208083D01*
X152802682Y-68208089D01*
X152579029Y-68379704D01*
X152379704Y-68579029D01*
X152208089Y-68802682D01*
X152208083Y-68802690D01*
X152067140Y-69046809D01*
X152067135Y-69046820D01*
X151959259Y-69307256D01*
X151886295Y-69579560D01*
X151849500Y-69859041D01*
X148208276Y-69859041D01*
X147987590Y-69638355D01*
X147987588Y-69638352D01*
X147868717Y-69519481D01*
X147868716Y-69519480D01*
X147776764Y-69466392D01*
X147731785Y-69440423D01*
X147579057Y-69399499D01*
X147420943Y-69399499D01*
X147413347Y-69399499D01*
X147413331Y-69399500D01*
X143420940Y-69399500D01*
X143380019Y-69410464D01*
X143380019Y-69410465D01*
X143342751Y-69420451D01*
X143268214Y-69440423D01*
X143268209Y-69440426D01*
X143131290Y-69519475D01*
X143131282Y-69519481D01*
X141519481Y-71131282D01*
X141519480Y-71131284D01*
X141481356Y-71197317D01*
X141440423Y-71268215D01*
X141399499Y-71420943D01*
X141399499Y-71420945D01*
X141399499Y-71589046D01*
X141399500Y-71589059D01*
X141399500Y-71840500D01*
X141379815Y-71907539D01*
X141327011Y-71953294D01*
X141275500Y-71964500D01*
X140752129Y-71964500D01*
X140752123Y-71964501D01*
X140692516Y-71970908D01*
X140557671Y-72021202D01*
X140557669Y-72021203D01*
X140451387Y-72100767D01*
X140385923Y-72125184D01*
X140377076Y-72125500D01*
X135860669Y-72125500D01*
X135860653Y-72125499D01*
X135853057Y-72125499D01*
X135694943Y-72125499D01*
X135587587Y-72154265D01*
X135542210Y-72166424D01*
X135542209Y-72166425D01*
X135492096Y-72195359D01*
X135492095Y-72195360D01*
X135448689Y-72220420D01*
X135405285Y-72245479D01*
X135405282Y-72245481D01*
X131519481Y-76131282D01*
X131519475Y-76131290D01*
X131475433Y-76207575D01*
X131475433Y-76207576D01*
X131440423Y-76268215D01*
X131399499Y-76420943D01*
X131399499Y-76579057D01*
X131399499Y-76579059D01*
X131399500Y-76589053D01*
X131399500Y-86312330D01*
X131399499Y-86312348D01*
X131399499Y-86478054D01*
X131399498Y-86478054D01*
X126500500Y-86478054D01*
X126500500Y-69859041D01*
X127849500Y-69859041D01*
X127849500Y-70140958D01*
X127886295Y-70420439D01*
X127959259Y-70692743D01*
X128067135Y-70953179D01*
X128067140Y-70953190D01*
X128169964Y-71131285D01*
X128208088Y-71197317D01*
X128379683Y-71420943D01*
X128379704Y-71420970D01*
X128579029Y-71620295D01*
X128579033Y-71620298D01*
X128579035Y-71620300D01*
X128802683Y-71791912D01*
X128802690Y-71791916D01*
X129046809Y-71932859D01*
X129046814Y-71932861D01*
X129046817Y-71932863D01*
X129307261Y-72040742D01*
X129579558Y-72113704D01*
X129859049Y-72150500D01*
X129859056Y-72150500D01*
X130140944Y-72150500D01*
X130140951Y-72150500D01*
X130420442Y-72113704D01*
X130692739Y-72040742D01*
X130953183Y-71932863D01*
X131197317Y-71791912D01*
X131420965Y-71620300D01*
X131620300Y-71420965D01*
X131791912Y-71197317D01*
X131932863Y-70953183D01*
X132040742Y-70692739D01*
X132113704Y-70420442D01*
X132150500Y-70140951D01*
X132150500Y-69859049D01*
X132113704Y-69579558D01*
X132040742Y-69307261D01*
X131932863Y-69046817D01*
X131932861Y-69046814D01*
X131932859Y-69046809D01*
X131791916Y-68802690D01*
X131791912Y-68802683D01*
X131620300Y-68579035D01*
X131620298Y-68579033D01*
X131620295Y-68579029D01*
X131420970Y-68379704D01*
X131420965Y-68379700D01*
X131197317Y-68208088D01*
X131197311Y-68208084D01*
X131197309Y-68208083D01*
X130953190Y-68067140D01*
X130953179Y-68067135D01*
X130692743Y-67959259D01*
X130420439Y-67886295D01*
X130140958Y-67849500D01*
X130140951Y-67849500D01*
X129859049Y-67849500D01*
X129859041Y-67849500D01*
X129579560Y-67886295D01*
X129307256Y-67959259D01*
X129046820Y-68067135D01*
X129046809Y-68067140D01*
X128802690Y-68208083D01*
X128802682Y-68208089D01*
X128579029Y-68379704D01*
X128379704Y-68579029D01*
X128208089Y-68802682D01*
X128208083Y-68802690D01*
X128067140Y-69046809D01*
X128067135Y-69046820D01*
X127959259Y-69307256D01*
X127886295Y-69579560D01*
X127849500Y-69859041D01*
X126500500Y-69859041D01*
X126500500Y-69003750D01*
X126500726Y-68996263D01*
X126518271Y-68706205D01*
X126520076Y-68691340D01*
X126571780Y-68409201D01*
X126575364Y-68394663D01*
X126660696Y-68120822D01*
X126665998Y-68106841D01*
X126783731Y-67845249D01*
X126790676Y-67832016D01*
X126939080Y-67586526D01*
X126947567Y-67574230D01*
X127124480Y-67348417D01*
X127134395Y-67337226D01*
X127337226Y-67134395D01*
X127348417Y-67124480D01*
X127574230Y-66947567D01*
X127586526Y-66939080D01*
X127832016Y-66790676D01*
X127845249Y-66783731D01*
X128106841Y-66665998D01*
X128120822Y-66660696D01*
X128394668Y-66575362D01*
X128409197Y-66571780D01*
X128691344Y-66520075D01*
X128706201Y-66518271D01*
X128996264Y-66500726D01*
X129003751Y-66500500D01*
X129065892Y-66500500D01*
X154934108Y-66500500D01*
X154996249Y-66500500D01*
X155003736Y-66500726D01*
G37*
%TD.AperFunction*%
%TD*%
M02*
